<svg width="1440" height="901" viewBox="0 0 1440 901" fill="none" xmlns="http://www.w3.org/2000/svg">
    <g id="mask__call" opacity="0.7">
        <path d="M340.348 792.487C612.886 788.538 842.539 974.977 905.932 1228.42C915.856 1219.27 925.566 1209.88 935.062 1200.25C1086.37 1046.6 1178.41 834.792 1175.64 600.861C1174.85 548.117 1168.98 496.643 1158.9 446.708C948.161 654.047 658.22 787.113 340.348 792.487Z" stroke="#E0E56E" stroke-miterlimit="10"/>
        <path d="M1172.33 433.715C1167.95 438.171 1163.33 442.343 1158.9 446.709C1080.65 59.2537 735.242 -229.605 325.585 -223.739L324.509 -224.749C-83.3352 -219.778 -419.526 79.3352 -487.412 468.017C-715.348 255.281 -859.889 -45.9918 -864.765 -382.385C-874.218 -1038.66 -349.204 -1580.88 305.74 -1588.87L307.216 -1587.42C963.605 -1596.89 1504.25 -1073.38 1513.8 -417.048C1517.72 -85.0505 1387.1 215.631 1172.33 433.715Z" stroke="#E0E56E" stroke-miterlimit="10"/>
    </g>
</svg>