<svg xmlns="http://www.w3.org/2000/svg" xmlns:xlink="http://www.w3.org/1999/xlink" id="Layer_1" x="0px" y="0px" width="235.5px" height="49.7px" viewBox="0 0 235.5 49.7" style="enable-background:new 0 0 235.5 49.7;" xml:space="preserve"><g>	<path style="fill:#FFFFFF;" d="M72.5,1.7l2,3.4h-2.6l-0.8,1.4h4.3L76.9,9h2.6l-5.6-9h-2.6l-5.5,9h2.5L72.5,1.7L72.5,1.7z M61.2,9   h2.4V0h-2.4V9z M50.8,0v9h7.6V7.5h-5.2V0L50.8,0L50.8,0z M38.9,0v9h9V7.5h-6.7V5.2h6.2V3.7h-6.2V1.4h6.5V0C47.8,0,38.9,0,38.9,0z    M27.1,0v1.4h3.7V9h2.4V1.4H37V0L27.1,0L27.1,0z M18.4,9V1.5h3.3c1.1,0,1.6,0.3,1.6,1c0,1-1.1,1.6-3.5,1.9v0.8l4,3.9h3l-4.1-3.9   c2.1-0.7,3.1-1.6,3.1-2.7c0-1.6-1.3-2.4-4-2.4h-5.9v9L18.4,9L18.4,9z M6.8,1.7l2,3.4H6.2L5.4,6.5h4.3L11.2,9h2.6L8.1,0H5.5L0,9h2.5   L6.8,1.7L6.8,1.7z"></path>	<path style="fill:#FFFFFF;" d="M229.2,44.1c4.1,0,6.3-1.8,6.3-4.6c0-2.3-1.6-3.7-4.8-3.9l-1.7-0.2c-2.8-0.2-3.8-1-3.8-2.5   c0-1.6,1.3-2.6,3.8-2.6c1.7,0,3.5,0.6,4.6,1.1c0.2,0.1,0.4,0.1,0.5-0.1l0.6-0.7c0.1-0.1,0.1-0.3-0.1-0.4c-1.3-0.8-3.3-1.4-5.5-1.4   c-3.6,0-5.8,1.6-5.8,4.3c0,2.3,1.7,3.6,4.8,3.9l1.7,0.2c3,0.3,3.8,1.1,3.8,2.6c0,1.7-1.4,2.8-4.3,2.8c-2.3,0-4.1-0.8-5.4-1.7   c-0.1-0.1-0.3-0.1-0.5,0l-0.8,0.8c-0.1,0.1-0.1,0.3,0,0.4C224,43,226.2,44.1,229.2,44.1 M217.5,43.8c0.2,0,0.3-0.1,0.3-0.3v-9.1   c0-3.6-2.1-5.6-5.8-5.6c-2.3,0-4,0.9-4.9,2.4h0v-1.8c0-0.2-0.1-0.3-0.4-0.3h-1.2c-0.2,0-0.4,0.1-0.4,0.3v14c0,0.2,0.1,0.3,0.4,0.3   h1.2c0.2,0,0.4-0.1,0.4-0.3v-9c0-2.5,2-4.1,4.5-4.1c2.9,0,4.3,1.5,4.3,4.4v8.7c0,0.2,0.1,0.3,0.3,0.3L217.5,43.8L217.5,43.8z    M193.3,42.5c-2.1,0-3.7-1-4.4-2.7c-0.3-0.8-0.5-1.7-0.5-3.3s0.1-2.5,0.5-3.3c0.7-1.8,2.3-2.7,4.4-2.7s3.7,1,4.4,2.7   c0.3,0.8,0.5,1.7,0.5,3.3s-0.1,2.5-0.5,3.3C197,41.5,195.4,42.5,193.3,42.5 M193.3,44.1c3,0,5.3-1.4,6.2-3.8c0.4-1,0.5-2.1,0.5-3.8   s-0.2-2.8-0.5-3.8c-0.9-2.4-3.1-3.8-6.2-3.8s-5.3,1.4-6.1,3.8c-0.4,1-0.5,2.1-0.5,3.8s0.2,2.9,0.5,3.8   C188.1,42.7,190.3,44.1,193.3,44.1 M181,43.8c0.2,0,0.4-0.1,0.4-0.3v-14c0-0.2-0.1-0.3-0.4-0.3h-1.2c-0.2,0-0.4,0.1-0.4,0.3v14   c0,0.2,0.1,0.3,0.4,0.3H181z M181.2,25.2c0.2,0,0.4-0.1,0.4-0.3v-1.7c0-0.2-0.1-0.3-0.4-0.3h-1.5c-0.2,0-0.4,0.1-0.4,0.3v1.7   c0,0.2,0.1,0.3,0.4,0.3H181.2z M174.4,43.9c0.2,0,0.4-0.1,0.4-0.3v-1c0-0.2-0.1-0.3-0.4-0.3h-0.7c-1.9,0-2.7-0.5-2.7-2.5v-9   c0-0.1,0.1-0.2,0.2-0.2h3.1c0.2,0,0.4-0.1,0.4-0.3v-0.9c0-0.2-0.1-0.3-0.4-0.3h-3.1c-0.1,0-0.2-0.1-0.2-0.2v-4.2   c0-0.2-0.1-0.3-0.4-0.3h-1.2c-0.2,0-0.4,0.1-0.4,0.3v4.2c0,0.1-0.1,0.2-0.2,0.2h-1.7c-0.2,0-0.4,0.1-0.4,0.3v0.9   c0,0.2,0.1,0.3,0.4,0.3h1.7c0.1,0,0.2,0.1,0.2,0.2v9.1c0,2.9,1.2,4,4.3,4L174.4,43.9L174.4,43.9z M162,43.8c0.2,0,0.4-0.1,0.4-0.3   v-14c0-0.2-0.1-0.3-0.4-0.3h-1.2c-0.2,0-0.4,0.1-0.4,0.3v9c0,2.5-1.9,4.1-4.4,4.1c-2.9,0-4.3-1.4-4.3-4.4v-8.7   c0-0.2-0.1-0.3-0.4-0.3h-1.2c-0.2,0-0.4,0.1-0.4,0.3v9.1c0,3.5,2,5.6,5.7,5.6c2.3,0,4-0.9,4.8-2.3h0v1.7c0,0.2,0.1,0.3,0.4,0.3   L162,43.8L162,43.8z M145.4,43.9c0.2,0,0.4-0.1,0.4-0.3v-1c0-0.2-0.1-0.3-0.4-0.3h-0.6c-1.2,0-1.8-0.5-1.8-1.9V23.2   c0-0.2-0.1-0.3-0.4-0.3h-1.2c-0.2,0-0.4,0.1-0.4,0.3v17.2c0,2.4,0.9,3.4,3.4,3.4L145.4,43.9L145.4,43.9z M129.2,42.5   c-2.1,0-3.7-1-4.4-2.7c-0.3-0.8-0.5-1.7-0.5-3.3s0.1-2.5,0.5-3.3c0.7-1.8,2.3-2.7,4.4-2.7s3.7,1,4.4,2.7c0.3,0.8,0.5,1.7,0.5,3.3   s-0.1,2.5-0.5,3.3C132.9,41.5,131.3,42.5,129.2,42.5 M129.2,44.1c3,0,5.3-1.4,6.2-3.8c0.4-1,0.5-2.1,0.5-3.8s-0.2-2.8-0.5-3.8   c-0.9-2.4-3.1-3.8-6.2-3.8s-5.3,1.4-6.1,3.8c-0.4,1-0.5,2.1-0.5,3.8s0.2,2.9,0.5,3.8C123.9,42.7,126.2,44.1,129.2,44.1 M109.8,44.1   c5.5,0,8.3-2.5,8.3-6c0-3.1-2.1-5.1-6.9-5.6l-1.1-0.1c-4-0.5-5.5-1.8-5.5-4c0-2.4,2-4.1,5.3-4.1c2,0,3.8,0.5,5.7,1.5   c0.2,0.1,0.4,0.1,0.5-0.1l0.7-1c0.1-0.2,0.1-0.3-0.1-0.4c-1.6-1-4.1-1.8-6.7-1.8c-4.5,0-7.4,2.2-7.4,5.9c0,3,2.2,5,6.8,5.5l1.1,0.1   c4.3,0.5,5.6,2,5.6,4.1c0,2.6-2.3,4.3-6.1,4.3c-2.7,0-5.2-1.1-6.7-2.2c-0.1-0.1-0.4-0.1-0.5,0l-0.8,0.9c-0.1,0.1-0.1,0.3,0,0.4   C103.7,43,106.8,44.1,109.8,44.1 M89.6,43.9c0.2,0,0.4-0.1,0.4-0.3v-1c0-0.2-0.1-0.3-0.4-0.3H89c-1.2,0-1.8-0.5-1.8-1.9V23.2   c0-0.2-0.1-0.3-0.4-0.3h-1.2c-0.2,0-0.4,0.1-0.4,0.3v17.2c0,2.4,0.9,3.4,3.4,3.4L89.6,43.9L89.6,43.9z M72.7,42.6   c-2.6,0-4.1-1-4.1-2.8c0-1.9,1.4-2.9,4.7-2.9h3.9c0.1,0,0.2,0.1,0.2,0.2v2.2C77.5,41.3,75.6,42.6,72.7,42.6 M73.2,30.4   c3.4,0,4.3,1,4.3,3.4v1.5c0,0.1-0.1,0.2-0.2,0.2h-4.2c-4,0-6.3,1.4-6.3,4.3s2.2,4.3,5.5,4.3c2.7,0,4.5-0.9,5.1-2.2h0v1.5   c0,0.2,0.1,0.3,0.4,0.3h1.1c0.2,0,0.3-0.1,0.3-0.3v-9.8c0-3.6-1.7-4.8-6-4.8c-2.3,0-4.1,0.5-5.3,1.4c-0.2,0.1-0.2,0.3-0.1,0.4   l0.6,0.8c0.1,0.2,0.4,0.2,0.5,0C70,30.8,71.2,30.4,73.2,30.4 M62.6,43.9c0.2,0,0.4-0.1,0.4-0.3v-1c0-0.2-0.1-0.3-0.4-0.3h-0.7   c-1.9,0-2.7-0.5-2.7-2.5v-9c0-0.1,0.1-0.2,0.2-0.2h3.1c0.2,0,0.4-0.1,0.4-0.3v-0.9c0-0.2-0.1-0.3-0.4-0.3h-3.1   c-0.1,0-0.2-0.1-0.2-0.2v-4.2c0-0.2-0.1-0.3-0.4-0.3h-1.2c-0.2,0-0.4,0.1-0.4,0.3V29c0,0.1-0.1,0.2-0.2,0.2h-1.7   c-0.2,0-0.4,0.1-0.4,0.3v0.9c0,0.2,0.1,0.3,0.4,0.3h1.7c0.1,0,0.2,0.1,0.2,0.2v9.1c0,2.9,1.2,4,4.3,4L62.6,43.9L62.6,43.9z    M50.3,43.8c0.2,0,0.4-0.1,0.4-0.3v-14c0-0.2-0.1-0.3-0.4-0.3h-1.2c-0.2,0-0.4,0.1-0.4,0.3v14c0,0.2,0.1,0.3,0.4,0.3H50.3z    M50.4,25.3c0.2,0,0.4-0.1,0.4-0.3v-1.7c0-0.2-0.1-0.3-0.4-0.3h-1.5c-0.2,0-0.4,0.1-0.4,0.3V25c0,0.2,0.1,0.3,0.4,0.3H50.4z    M36,42.3c-2,0-3.4-0.9-4-2.6c-0.4-0.8-0.5-1.9-0.5-3.3s0.1-2.5,0.5-3.4c0.6-1.7,2-2.5,4-2.5c1.9,0,3.4,0.7,4.1,2.6   c0.3,0.8,0.4,1.8,0.4,3.3s-0.1,2.5-0.4,3.3C39.4,41.6,37.9,42.3,36,42.3 M35.8,49.7c4.1,0,6.6-2,6.6-6.1V29.5   c0-0.2-0.1-0.3-0.4-0.3h-1.2c-0.2,0-0.4,0.1-0.4,0.3v1.8h0c-0.8-1.4-2.2-2.4-4.9-2.4s-4.7,1.3-5.5,3.5c-0.4,1-0.5,2.2-0.5,4   s0.2,3,0.5,4c0.8,2.2,2.7,3.5,5.5,3.5s4.1-1,4.9-2.4h0v2.1c0,3.2-1.8,4.5-4.7,4.5c-1.7,0-3.1-0.5-4.1-1.6c-0.1-0.2-0.3-0.2-0.5-0.1   l-0.9,0.7c-0.2,0.1-0.2,0.3-0.1,0.4C31.2,48.7,33.4,49.6,35.8,49.7 M24,43.8c0.2,0,0.4-0.1,0.4-0.3v-14c0-0.2-0.1-0.3-0.4-0.3h-1.2   c-0.2,0-0.4,0.1-0.4,0.3v14c0,0.2,0.1,0.3,0.4,0.3H24z M24.2,25.3c0.2,0,0.4-0.1,0.4-0.3v-1.7c0-0.2-0.1-0.3-0.4-0.3h-1.5   c-0.2,0-0.4,0.1-0.4,0.3v1.7c0,0.2,0.1,0.3,0.4,0.3H24.2z M3.1,42V24.8c0-0.1,0.1-0.2,0.2-0.2h5.3c3,0,5,1,5.9,3.2   c0.4,1,0.5,2.1,0.5,5.6S14.8,38,14.4,39c-0.8,2.2-2.8,3.2-5.9,3.2H3.3C3.2,42.1,3.1,42.1,3.1,42 M1.1,43.5c0,0.2,0.1,0.3,0.4,0.3   h7.4c3.9,0,6.5-1.4,7.5-4.2c0.5-1.2,0.7-2.4,0.7-6.2s-0.2-5-0.7-6.2c-1-2.9-3.6-4.2-7.5-4.2H1.5c-0.2,0-0.4,0.1-0.4,0.3V43.5   L1.1,43.5z"></path></g></svg>