<?xml version="1.0" encoding="UTF-8" standalone="no"?>
<svg
   xmlns:dc="http://purl.org/dc/elements/1.1/"
   xmlns:cc="http://creativecommons.org/ns#"
   xmlns:rdf="http://www.w3.org/1999/02/22-rdf-syntax-ns#"
   xmlns:svg="http://www.w3.org/2000/svg"
   xmlns="http://www.w3.org/2000/svg"
   xmlns:sodipodi="http://sodipodi.sourceforge.net/DTD/sodipodi-0.dtd"
   xmlns:inkscape="http://www.inkscape.org/namespaces/inkscape"
   width="140"
   height="80"
   viewBox="0 0 140 80"
   fill="none"
   version="1.1"
   id="svg1023"
   sodipodi:docname="brand-logo-40.svg"
   inkscape:version="1.0.2-2 (e86c870879, 2021-01-15)"
   inkscape:export-filename="C:\Users\mario\OneDrive\6 Produkte\Code\Flinker\web-hugosite\static\assets-flinker\images\brand-logo\brand-logo-37.svg.png"
   inkscape:export-xdpi="96"
   inkscape:export-ydpi="96">
  <metadata
     id="metadata1029">
    <rdf:RDF>
      <cc:Work
         rdf:about="">
        <dc:format>image/svg+xml</dc:format>
        <dc:type
           rdf:resource="http://purl.org/dc/dcmitype/StillImage" />
        <dc:title></dc:title>
      </cc:Work>
    </rdf:RDF>
  </metadata>
  <defs
     id="defs1027" />
  <sodipodi:namedview
     pagecolor="#ffffff"
     bordercolor="#666666"
     borderopacity="1"
     objecttolerance="10"
     gridtolerance="10"
     guidetolerance="10"
     inkscape:pageopacity="0"
     inkscape:pageshadow="2"
     inkscape:window-width="3840"
     inkscape:window-height="2054"
     id="namedview1025"
     showgrid="false"
     inkscape:zoom="11.15019"
     inkscape:cx="74.261071"
     inkscape:cy="68.003603"
     inkscape:window-x="2509"
     inkscape:window-y="-11"
     inkscape:window-maximized="1"
     inkscape:current-layer="svg1023"
     inkscape:document-rotation="0" />
  <mask
     id="mask0_1838_1151"
     maskUnits="userSpaceOnUse"
     x="18"
     y="27"
     width="124"
     height="26">
    <path
       d="M 141.538,27.6923 H 18.4614 v 25 H 141.538 Z"
       fill="#ffffff"
       id="path998" />
  </mask>
  <path
     d="m 62.519743,30.359801 v -0.416873 c 0,-0.07816 -0.05211,-0.130273 -0.130272,-0.130273 H 56.65746 c -0.156328,0 -0.208437,0.02605 -0.312655,0.130273 -0.729529,0.781637 -1.250621,1.797766 -1.250621,3.152605 0,1.224566 0.33871,2.318859 1.276675,3.361043 2.162532,2.423076 6.852358,3.75186 8.676179,5.263027 0.677419,0.573201 1.094293,1.198512 1.094293,1.92804 0,1.641439 -1.146402,2.866005 -4.637717,2.866005 -2.032258,0 -3.751861,-0.390819 -5.992556,-0.833747 -0.104218,-0.02605 -0.104218,0.02605 -0.104218,0.07816 v 3.465261 c 0,0.104218 0.02605,0.130272 0.104218,0.156328 1.980149,0.677422 4.377172,1.12035 6.591812,1.12035 5.419355,0 9.066997,-2.839951 9.066997,-7.060794 0,-1.92804 -0.781638,-3.413151 -2.162531,-4.663772 -2.006203,-1.823821 -5.367245,-2.996277 -7.295286,-4.168735 -0.651364,-0.390819 -1.485111,-1.042183 -1.485111,-2.136476 0.02605,-0.885856 0.573201,-1.771712 2.292804,-2.110422 z M 87.271612,50.16129 C 86.880788,50.23945 85.525952,50.5 83.754232,50.5 c -5.263025,0 -7.868484,-2.370968 -7.868484,-7.633995 v -9.093052 h -5.914392 c -0.07816,0 -0.130273,-0.02605 -0.156327,-0.130274 l -0.651365,-3.725806 c 0,-0.07816 0.02605,-0.130273 0.104218,-0.130273 h 18.00373 c 0.07816,0 0.130263,0.05211 0.130263,0.130273 v 3.751861 c 0,0.07816 -0.05215,0.130273 -0.130263,0.130273 h -6.461547 v 9.197271 c 0,2.605459 1.302732,3.673697 4.220847,3.673697 1.198512,0 1.954092,-0.07816 2.2407,-0.130273 0.07816,0 0.130263,0.02605 0.130263,0.104218 v 3.387097 c 0,0.07816 -0.02604,0.130273 -0.130263,0.130273 z M 104.2592,29.812655 C 103.81626,29.734491 102.27904,29.5 100.2989,29.5 c -4.872208,0 -8.884608,2.006203 -8.884608,7.764268 v 12.818858 c 0,0.07816 0.0522,0.130274 0.13027,0.130274 h 4.68982 c 0.0782,0 0.13028,-0.05211 0.13028,-0.130274 V 37.44665 c 0,-2.527296 1.38089,-4.038462 5.106688,-4.038462 1.12035,0 2.34491,0.104219 2.8139,0.156328 0.0782,0 0.13027,-0.02605 0.13027,-0.104218 v -3.491316 c -0.0521,-0.07816 -0.0782,-0.130273 -0.15632,-0.156327 z m 18.83746,7.738213 C 122.1587,32.235732 119.6314,29.5 114.75919,29.5 c -4.8722,0 -7.3995,2.735732 -8.33746,8.050868 0,0 -2.18859,12.454095 -2.21464,12.532258 -0.026,0.104218 0.0522,0.130274 0.10421,0.130274 h 4.66377 c 0.10423,0 0.13028,-0.02605 0.13028,-0.130274 0.026,-0.07816 0.83375,-4.794044 0.83375,-4.794044 h 7.03474 c 0.0782,0 0.13027,-0.02605 0.15632,-0.130273 l 0.65137,-3.725806 c 0,-0.07816 -0.026,-0.130274 -0.10423,-0.130274 h -7.03473 l 0.67742,-3.777915 c 0.44293,-2.501241 1.0943,-4.116626 3.4392,-4.116626 2.34492,0 2.99628,1.615385 3.43921,4.116626 0,0 2.18858,12.454094 2.21464,12.532258 0.026,0.07816 0.0521,0.130272 0.13027,0.130272 h 4.66377 c 0.0521,0 0.13028,-0.02605 0.10423,-0.130272 0,-0.07816 -2.21465,-12.506204 -2.21465,-12.506204 z M 45.089222,50.2134 c 0.07816,0 0.130273,-0.05211 0.130273,-0.130274 v -5.705955 c 3.80397,-0.729528 5.627791,-3.361042 6.409429,-7.816377 l 1.146401,-6.643921 c 0,-0.07816 -0.02605,-0.130273 -0.104218,-0.130273 h -4.559553 c -0.104218,0 -0.130272,0.02605 -0.130272,0.130273 l -1.172458,6.643921 c -0.442927,2.501241 -1.615384,4.168734 -3.960297,4.168734 -2.344913,0 -3.517369,-1.667493 -3.960297,-4.168734 L 37.715773,29.916873 C 37.689719,29.838709 37.663665,29.7866 37.559445,29.7866 h -4.585607 c -0.07816,0 -0.104219,0.05211 -0.104219,0.130273 l 1.146402,6.643921 c 0.781638,4.455335 2.579404,7.086849 6.40943,7.816377 v 5.705955 c 0,0.07816 0.05211,0.130274 0.130273,0.130274 z M 24.375823,39.609181 c -3.23077,-1.537221 -4.559554,-2.344913 -4.559554,-3.725806 0,-1.589331 1.068239,-2.449132 4.090571,-2.449132 1.615385,0 3.777916,0.260545 5.575683,0.651365 0.07816,0.02605 0.104218,0 0.104218,-0.07817 v -3.439205 c 0,-0.07816 -0.02605,-0.130273 -0.104218,-0.156328 C 27.42421,29.838709 25.678552,29.5 23.307585,29.5 c -5.497519,0 -8.62407,2.683623 -8.62407,6.435484 0,1.641439 0.547147,2.970223 1.667494,4.142679 2.188586,2.26675 6.956576,3.751862 8.493796,5.236973 0.703474,0.67742 0.911911,1.276675 0.911911,1.901985 0,1.563276 -1.172456,2.240695 -2.55335,2.501241 -0.07816,0.02605 -0.208437,0.02605 -0.312655,0.05211 v 0.312655 c 0,0.07816 0.05211,0.130273 0.130273,0.130273 h 6.331266 c 0.156327,0 0.208436,-0.02605 0.312655,-0.130273 0.729528,-0.807693 1.198511,-2.240695 1.198511,-3.308933 0,-2.579405 -1.276675,-4.689827 -6.487593,-7.165013 z"
     fill="#d22328"
     id="path108"
     style="stroke-width:0.260546" />
</svg>
