<?xml version="1.0" encoding="UTF-8" standalone="no"?>
<svg
   xmlns:dc="http://purl.org/dc/elements/1.1/"
   xmlns:cc="http://creativecommons.org/ns#"
   xmlns:rdf="http://www.w3.org/1999/02/22-rdf-syntax-ns#"
   xmlns:svg="http://www.w3.org/2000/svg"
   xmlns="http://www.w3.org/2000/svg"
   xmlns:sodipodi="http://sodipodi.sourceforge.net/DTD/sodipodi-0.dtd"
   xmlns:inkscape="http://www.inkscape.org/namespaces/inkscape"
   width="200"
   height="80"
   viewBox="0 0 200 80"
   fill="none"
   version="1.1"
   id="svg869"
   sodipodi:docname="brand-logo-4.svg"
   inkscape:version="1.0.2-2 (e86c870879, 2021-01-15)">
  <metadata
     id="metadata875">
    <rdf:RDF>
      <cc:Work
         rdf:about="">
        <dc:format>image/svg+xml</dc:format>
        <dc:type
           rdf:resource="http://purl.org/dc/dcmitype/StillImage" />
        <dc:title></dc:title>
      </cc:Work>
    </rdf:RDF>
  </metadata>
  <defs
     id="defs873">
    <clipPath
       id="clip0">
      <rect
         x="559"
         y="345"
         width="161"
         height="30"
         id="rect300" />
    </clipPath>
  </defs>
  <sodipodi:namedview
     pagecolor="#ffffff"
     bordercolor="#666666"
     borderopacity="1"
     objecttolerance="10"
     gridtolerance="10"
     guidetolerance="10"
     inkscape:pageopacity="0"
     inkscape:pageshadow="2"
     inkscape:window-width="1260"
     inkscape:window-height="770"
     id="namedview871"
     showgrid="false"
     inkscape:zoom="0.98554687"
     inkscape:cx="-5.7367301"
     inkscape:cy="-120.41664"
     inkscape:window-x="-6"
     inkscape:window-y="-6"
     inkscape:window-maximized="1"
     inkscape:current-layer="svg869"
     inkscape:document-rotation="0" />
  <style
     type="text/css"
     id="style66">
	.st0{fill:#E30613;}
</style>
  <style
     type="text/css"
     id="style351">
	.st0{fill:#E30613;}
</style>
  <g
     style="overflow:hidden"
     id="g575"
     transform="matrix(0.09780509,0,0,0.09780509,19.470782,24.999951)">
    <g
       transform="translate(184,-206)"
       id="g553">
      <path
         d="M 14.9625,269.326 H 235.126 v 51.3 H 14.9625 Z"
         transform="matrix(1.00182,0,0,1,-198.99,191.038)"
         id="path531" />
      <path
         d="M 14.9625,184.894 H 235.126 v 51.3 H 14.9625 Z"
         transform="matrix(1.00182,0,0,1,-198.99,191.038)"
         id="path533" />
      <path
         d="M 14.9625,99.394 H 235.126 v 51.3 H 14.9625 Z"
         transform="matrix(1.00182,0,0,1,-198.99,191.038)"
         id="path535" />
      <path
         d="M 269.326,66.2627 V 291.77 l 51.3,-51.301 V 14.9625 H 95.119 L 43.8189,66.2627 Z"
         transform="matrix(1.00182,0,0,1,-198.99,191.038)"
         id="path537" />
      <path
         d="m 1467.4,137.869 c -13.9,-10.687 -34.2,-18.169 -54.51,-18.169 -52.37,0 -81.22,54.507 -81.22,105.807 0,27.787 6.41,71.606 51.3,71.606 6.41,0 12.82,-1.068 18.17,-2.137 l 10.68,-73.744 h 57.72 l -11.76,85.5 c -26.72,10.688 -50.23,14.963 -79.09,14.963 -65.19,0 -104.74,-33.132 -104.74,-96.188 0,-66.263 45.96,-130.388 136.8,-130.388 23.52,0 43.82,5.344 64.13,14.963 z"
         transform="matrix(1.00182,0,0,1,-198.99,191.038)"
         id="path539" />
      <path
         d="m 640.183,99.394 -30.994,221.232 h 57.713 L 697.896,99.394 Z"
         transform="matrix(1.00182,0,0,1,-198.99,191.038)"
         id="path541" />
      <path
         d="m 461.701,99.394 -30.994,221.232 h 128.251 l 3.206,-24.581 h -70.538 l 10.688,-79.088 h 65.194 l 3.206,-21.375 H 505.52 l 9.619,-71.607 h 71.606 l 3.207,-24.581 z"
         transform="matrix(1.00182,0,0,1,-198.99,191.038)"
         id="path543" />
      <path
         d="m 1530.45,99.394 -30.99,221.232 h 128.25 l 3.21,-24.581 h -70.54 l 10.69,-79.088 h 65.19 l 3.21,-21.375 h -65.2 l 9.62,-71.607 h 71.61 l 3.2,-24.581 z"
         transform="matrix(1.00182,0,0,1,-198.99,191.038)"
         id="path545" />
      <path
         d="m 783.396,320.626 14.962,-103.669 h 65.194 l 3.207,-21.375 h -65.194 l 9.619,-71.607 h 70.537 l 4.275,-24.581 h -128.25 l -30.994,221.232 z"
         transform="matrix(1.00182,0,0,1,-198.99,191.038)"
         id="path547" />
      <path
         d="m 958.671,320.626 14.963,-103.669 h 65.196 l 3.2,-21.375 h -65.19 l 9.619,-71.607 H 1057 l 3.2,-24.581 H 931.953 l -30.994,221.232 z"
         transform="matrix(1.00182,0,0,1,-198.99,191.038)"
         id="path549" />
      <path
         d="m 1116.85,228.713 38.47,-68.4 14.96,68.4 z m 72.67,91.913 h 54.51 l -45.96,-220.163 h -39.54 l -125.05,220.163 h 31 l 39.54,-70.538 h 70.54 z"
         transform="matrix(1.00182,0,0,1,-198.99,191.038)"
         id="path551" />
    </g>
  </g>
</svg>
