<?xml version="1.0" encoding="utf-8"?>
<!-- Generator: Adobe Illustrator 20.0.0, SVG Export Plug-In . SVG Version: 6.00 Build 0)  -->
<svg version="1.1" id="Layer_1" xmlns="http://www.w3.org/2000/svg" xmlns:xlink="http://www.w3.org/1999/xlink" x="0px" y="0px"
	 viewBox="0 0 315.7 62.3" style="enable-background:new 0 0 315.7 62.3;" xml:space="preserve">
<style type="text/css">
	.st0{fill:#595A5C;}
	.st1{fill:#939598;}
	.st2{fill:#6E6F72;}
	.st3{clip-path:url(#SVGID_2_);fill:url(#SVGID_3_);}
	.st4{clip-path:url(#SVGID_5_);fill:url(#SVGID_6_);}
	.st5{clip-path:url(#SVGID_8_);fill:url(#SVGID_9_);}
</style>
<path class="st0" d="M72.1,7.7c1.6-0.3,4.8-0.6,7.8-0.6c3.7,0,6,0.4,7.9,1.5c1.9,1,3.2,2.8,3.2,5.3c0,2.3-1.4,4.5-4.4,5.7v0.1
	c3.1,0.8,5.3,3.1,5.3,6.6c0,2.5-1.1,4.4-2.8,5.7c-1.9,1.5-5.2,2.4-10.5,2.4c-3,0-5.2-0.2-6.5-0.4V7.7z M78.1,17.9h2
	c3.2,0,4.9-1.3,4.9-3.3c0-2-1.5-3.1-4.3-3.1c-1.3,0-2.1,0.1-2.6,0.2V17.9z M78.1,29.7c0.6,0.1,1.3,0.1,2.3,0.1
	c2.7,0,5.2-1.1,5.2-3.9c0-2.7-2.4-3.8-5.4-3.8h-2.1V29.7z"/>
<path class="st0" d="M96.1,7.6c1.9-0.3,4.5-0.6,8.2-0.6c3.7,0,6.4,0.7,8.2,2.2c1.7,1.3,2.9,3.5,2.9,6.1c0,2.7-0.8,4.9-2.5,6.3
	c-2.1,1.9-5.1,2.8-8.7,2.8c-0.8,0-1.5,0-2.1-0.2V34h-6V7.6z M102.1,19.8c0.5,0.1,1.1,0.2,2,0.2c3.2,0,5.2-1.6,5.2-4.3
	c0-2.5-1.7-3.9-4.8-3.9c-1.2,0-2,0.1-2.5,0.2V19.8z"/>
<path class="st0" d="M130.5,34.5c-7.9,0-12.6-6-12.6-13.6c0-8,5.2-14,13-14c8.2,0,12.7,6.2,12.7,13.5
	C143.6,29.2,138.3,34.5,130.5,34.5L130.5,34.5z M130.8,29.6c4.1,0,6.4-3.8,6.4-9.1c0-4.8-2.3-8.9-6.4-8.9c-4.2,0-6.5,4-6.5,9
	C124.3,25.7,126.7,29.6,130.8,29.6L130.8,29.6z"/>
<path class="st0" d="M162.1,13.5c0.9-0.2,2.4-0.4,3.8-0.4c2.1,0,3.4,0.4,4.4,1.2c0.8,0.6,1.4,1.6,1.4,2.8c0,1.6-1.1,2.9-2.7,3.5v0.1
	c1.5,0.4,3.3,1.6,3.3,4c0,1.4-0.6,2.4-1.4,3.2c-1.1,1-2.9,1.5-5.6,1.5c-1.4,0-2.5-0.1-3.2-0.2V13.5z M164.2,20.1h1.9
	c2.2,0,3.5-1.2,3.5-2.7c0-1.9-1.4-2.6-3.5-2.6c-1,0-1.5,0.1-1.8,0.1V20.1z M164.2,27.8c0.4,0.1,1,0.1,1.7,0.1c2.2,0,4.1-0.8,4.1-3.1
	c0-2.2-1.9-3.1-4.2-3.1h-1.7V27.8z"/>
<rect x="175" y="12.4" class="st0" width="2.1" height="17"/>
<path class="st0" d="M190.3,26.2c0,1.2,0,2.3,0.1,3.2h-1.9l-0.1-1.9h0c-0.5,0.9-1.8,2.2-3.8,2.2c-1.8,0-4-1-4-5.1v-6.8h2.1v6.4
	c0,2.2,0.7,3.7,2.6,3.7c1.4,0,2.4-1,2.8-1.9c0.1-0.3,0.2-0.7,0.2-1.1v-7.1h2.1V26.2z"/>
<path class="st0" d="M195,24c0,2.8,1.8,4,3.9,4c1.5,0,2.4-0.3,3.2-0.6l0.4,1.5c-0.7,0.3-2,0.7-3.9,0.7c-3.5,0-5.7-2.4-5.7-5.8
	c0-3.5,2.1-6.2,5.5-6.2c3.8,0,4.8,3.3,4.8,5.5c0,0.4,0,0.7-0.1,1H195z M201.2,22.5c0-1.3-0.6-3.4-2.9-3.4c-2.2,0-3.1,2-3.2,3.4
	H201.2z"/>
<path class="st0" d="M210.9,13.5c1-0.2,2.3-0.3,4-0.3c2.1,0,3.6,0.5,4.5,1.3c0.9,0.8,1.4,1.9,1.4,3.4c0,1.5-0.4,2.6-1.3,3.4
	c-1.1,1.2-2.9,1.8-4.9,1.8c-0.6,0-1.2,0-1.7-0.1v6.5h-2.1V13.5z M213,21.2c0.5,0.1,1,0.2,1.7,0.2c2.5,0,4-1.2,4-3.4
	c0-2.1-1.5-3.2-3.8-3.2c-0.9,0-1.6,0.1-2,0.2V21.2z"/>
<path class="st0" d="M231.1,26.6c0,1,0,2,0.2,2.8h-1.9l-0.2-1.5h-0.1c-0.6,0.9-1.9,1.7-3.5,1.7c-2.3,0-3.5-1.7-3.5-3.3
	c0-2.8,2.5-4.3,7-4.3v-0.2c0-1-0.3-2.7-2.6-2.7c-1.1,0-2.2,0.3-3,0.9l-0.5-1.4c1-0.6,2.4-1,3.8-1c3.6,0,4.4,2.4,4.4,4.7V26.6z
	 M229.1,23.5c-2.3,0-4.9,0.4-4.9,2.6c0,1.4,0.9,2,2,2c1.5,0,2.5-1,2.8-1.9c0.1-0.2,0.1-0.5,0.1-0.7V23.5z"/>
<path class="st0" d="M242.8,29c-0.6,0.3-1.8,0.7-3.3,0.7c-3.5,0-5.8-2.4-5.8-5.9c0-3.6,2.4-6.2,6.2-6.2c1.2,0,2.3,0.3,2.9,0.6
	l-0.5,1.6c-0.5-0.3-1.3-0.5-2.4-0.5c-2.7,0-4.1,2-4.1,4.4c0,2.7,1.7,4.3,4,4.3c1.2,0,2-0.3,2.6-0.6L242.8,29z"/>
<path class="st0" d="M246.2,15.8c-0.8,0-1.3-0.6-1.3-1.3c0-0.7,0.5-1.3,1.3-1.3c0.8,0,1.3,0.6,1.3,1.3
	C247.6,15.2,247.1,15.8,246.2,15.8L246.2,15.8z M245.2,17.8h2.1v11.6h-2.1V17.8z"/>
<path class="st0" d="M251,29.4v-10h-1.6v-1.6h1.6v-0.6c0-3,1.8-5,5.1-5c1.1,0,2.3,0.3,2.9,0.8l-0.6,1.6c-0.5-0.4-1.4-0.7-2.4-0.7
	c-2.2,0-2.9,1.6-2.9,3.4v0.6h6.7v11.6h-2.1v-10h-4.6v10H251z"/>
<path class="st0" d="M271.6,29c-0.6,0.3-1.8,0.7-3.3,0.7c-3.5,0-5.8-2.4-5.8-5.9c0-3.6,2.4-6.2,6.2-6.2c1.2,0,2.3,0.3,2.9,0.6
	l-0.5,1.6c-0.5-0.3-1.3-0.5-2.4-0.5c-2.7,0-4.1,2-4.1,4.4c0,2.7,1.7,4.3,4,4.3c1.2,0,2-0.3,2.6-0.6L271.6,29z"/>
<path class="st0" d="M285.5,29.7c-4.3,0-7.2-3.3-7.2-8.2c0-5.1,3.2-8.5,7.5-8.5c4.4,0,7.3,3.4,7.3,8.2
	C293,26.7,289.6,29.7,285.5,29.7L285.5,29.7z M285.6,28c3.3,0,5.2-3,5.2-6.7c0-3.2-1.7-6.6-5.1-6.6s-5.2,3.2-5.2,6.7
	C280.4,24.8,282.3,28,285.6,28L285.6,28z"/>
<path class="st0" d="M296.6,15.8c-0.8,0-1.3-0.6-1.3-1.3c0-0.7,0.5-1.3,1.3-1.3c0.8,0,1.3,0.6,1.3,1.3
	C297.9,15.2,297.4,15.8,296.6,15.8L296.6,15.8z M295.6,17.8h2.1v11.6h-2.1V17.8z"/>
<rect x="301.2" y="12.4" class="st0" width="2.1" height="17"/>
<path class="st0" d="M306.5,27.2c0.6,0.4,1.7,0.8,2.8,0.8c1.5,0,2.2-0.7,2.2-1.7c0-1-0.6-1.5-2.1-2.1c-2.1-0.8-3.1-1.9-3.1-3.3
	c0-1.9,1.5-3.4,4-3.4c1.2,0,2.2,0.3,2.8,0.7l-0.5,1.5c-0.5-0.3-1.3-0.7-2.4-0.7c-1.2,0-1.9,0.7-1.9,1.6c0,1,0.7,1.4,2.2,2
	c2,0.7,3,1.7,3,3.5c0,2.1-1.6,3.5-4.3,3.5c-1.3,0-2.4-0.3-3.3-0.8L306.5,27.2z"/>
<g>
	<rect x="149.9" y="5.9" class="st1" width="2.2" height="32.8"/>
</g>
<path class="st1" d="M30.9,6.2c-4.5,2.5-9,5.3-13.3,8.5c-2.9-1.3-5.7-2.6-8.3-4C13.1,7.8,17,5,21,2.5C24.1,3.7,27.4,4.9,30.9,6.2"/>
<path class="st2" d="M27.2,22.2c-5.2,3.6-10,7.6-14.4,11.8c-2.9-2.3-5.5-4.4-8-6.3c3.7-3.7,7.7-7.2,12.1-10.5
	C20,18.7,23.4,20.4,27.2,22.2"/>
<g>
	<defs>
		<path id="SVGID_1_" d="M32.7,21.4c4.7,2.2,9.9,4.8,15.6,8c5.7-3.2,11-5.8,15.8-8.1c-5.3-3.3-10.6-6-15.7-8.3
			C43.3,15.3,38,18.1,32.7,21.4"/>
	</defs>
	<clipPath id="SVGID_2_">
		<use xlink:href="#SVGID_1_"  style="overflow:visible;"/>
	</clipPath>
	
		<linearGradient id="SVGID_3_" gradientUnits="userSpaceOnUse" x1="-149.1553" y1="460.7032" x2="-148.1553" y2="460.7032" gradientTransform="matrix(17.5852 13.189 13.189 -17.5852 -3414.9966 10082.3838)">
		<stop  offset="0" style="stop-color:#FAA71B"/>
		<stop  offset="0.178" style="stop-color:#F8961E"/>
		<stop  offset="0.4121" style="stop-color:#F58220"/>
		<stop  offset="0.7341" style="stop-color:#F37023"/>
		<stop  offset="1" style="stop-color:#F15B25"/>
	</linearGradient>
	<polygon class="st3" points="44,-2.1 71.9,18.9 52.8,44.5 24.8,23.5 	"/>
</g>
<g>
	<defs>
		<path id="SVGID_4_" d="M1.4,49.6c2.7,3.2,5.7,6.7,9.1,10.5c3.7-4,7.8-8.3,12.8-12.8c-4.2-3.6-7.9-6.8-11.2-9.6
			C8,41.7,4.5,45.8,1.4,49.6"/>
	</defs>
	<clipPath id="SVGID_5_">
		<use xlink:href="#SVGID_4_"  style="overflow:visible;"/>
	</clipPath>
	
		<linearGradient id="SVGID_6_" gradientUnits="userSpaceOnUse" x1="-149.1542" y1="460.7242" x2="-148.1542" y2="460.7242" gradientTransform="matrix(17.5894 13.1921 13.1921 -17.5894 -3442.3945 10120.1846)">
		<stop  offset="0" style="stop-color:#A5CE3A"/>
		<stop  offset="0.2125" style="stop-color:#9BC13C"/>
		<stop  offset="0.4121" style="stop-color:#96BD3D"/>
		<stop  offset="0.7246" style="stop-color:#81AE40"/>
		<stop  offset="1" style="stop-color:#73A541"/>
	</linearGradient>
	<polygon class="st4" points="9.3,27.2 34.1,45.8 15.4,70.6 -9.4,52 	"/>
</g>
<path class="st2" d="M45.8,11.8c-5,2.3-10.3,5.1-15.4,8.4c-4-1.8-7.6-3.4-10.9-4.9c4.4-3.2,9-6,13.7-8.5
	C37.1,8.3,41.3,9.9,45.8,11.8"/>
<g>
	<defs>
		<path id="SVGID_7_" d="M14.8,35.3c3.5,2.7,7.4,5.8,11.9,9.3c5.7-4.9,12-9.5,18.4-13.3c-5.6-3.2-10.7-5.8-15.2-8
			C24.4,26.9,19.3,31,14.8,35.3"/>
	</defs>
	<clipPath id="SVGID_8_">
		<use xlink:href="#SVGID_7_"  style="overflow:visible;"/>
	</clipPath>
	
		<linearGradient id="SVGID_9_" gradientUnits="userSpaceOnUse" x1="-149.1549" y1="460.6802" x2="-148.1549" y2="460.6802" gradientTransform="matrix(17.5868 13.1901 13.1901 -17.5868 -3427.762 10099.8867)">
		<stop  offset="0" style="stop-color:#2BACE2"/>
		<stop  offset="0.2351" style="stop-color:#229CD7"/>
		<stop  offset="0.3901" style="stop-color:#1E94D2"/>
		<stop  offset="0.7937" style="stop-color:#0D78B4"/>
		<stop  offset="1" style="stop-color:#006FAB"/>
	</linearGradient>
	<polygon class="st5" points="25.7,8.7 55.3,30.9 34.1,59.1 4.5,36.9 	"/>
</g>
</svg>
