<?xml version="1.0" encoding="UTF-8"?><svg id="b" xmlns="http://www.w3.org/2000/svg" xmlns:xlink="http://www.w3.org/1999/xlink" viewBox="0 0 918.932 218.07"><defs><style>.h{fill:#231815;}.h,.i,.j,.k,.l{stroke-width:0px;}.i{fill:url(#e);}.j{fill:url(#g);}.k{fill:url(#d);}.l{fill:url(#f);}</style><linearGradient id="d" x1="324.628" y1="26.2" x2="234.355" y2="155.124" gradientUnits="userSpaceOnUse"><stop offset="0" stop-color="#c4d700"/><stop offset=".388" stop-color="#6fba2c"/><stop offset=".414" stop-color="#68b028"/><stop offset=".523" stop-color="#518f19"/><stop offset=".636" stop-color="#3f750e"/><stop offset=".751" stop-color="#326206"/><stop offset=".87" stop-color="#2a5701"/><stop offset="1" stop-color="#285400"/></linearGradient><radialGradient id="e" cx="227.494" cy="59.804" fx="227.494" fy="59.804" r="33.605" gradientTransform="translate(267.809 -175.594) rotate(80.783)" gradientUnits="userSpaceOnUse"><stop offset="0" stop-color="#f9d05a"/><stop offset=".108" stop-color="#f8ca58"/><stop offset=".249" stop-color="#f5b954"/><stop offset=".409" stop-color="#f09e4e"/><stop offset=".582" stop-color="#ea7845"/><stop offset=".767" stop-color="#e2483a"/><stop offset=".958" stop-color="#d90d2c"/><stop offset="1" stop-color="#d70029"/></radialGradient><linearGradient id="f" x1="295.359" y1="188.796" x2="177.434" y2="133.807" xlink:href="#d"/><linearGradient id="g" x1="129.648" y1="102.614" x2="-89.305" y2="415.311" xlink:href="#d"/></defs><g id="c"><path class="k" d="m282.027,178.926c1.979-2.227,3.117-3.663,3.299-3.881C349.474,97.996,362.835,0,362.835,0c-45.662,92.48-74.376,127.626-110.275,158.573-10.518,9.066-42.155,27.63-56.994,8.338-6.274-8.157-10.177-20.8-11.879-33.856-.232-1.779-5.102,46.312,29.647,60.429,31.344,12.733,53.227-.043,68.655-14.516l.038-.042Z"/><circle class="i" cx="237.097" cy="69.589" r="23.83" transform="translate(130.428 292.478) rotate(-80.783)"/><path class="l" d="m155.318,84.43c-3.805,21.166-7.958,54.352-2.555,78.905,0,0,9.112,53.013,53.263,54.687,36.614,1.39,66.297-28.195,75.977-39.072-34.86,26.222-69.948,19.023-87.533-11.873-6.028-10.592-9.226-22.209-10.71-33.458-.535-3.95-.868-7.943-1.002-11.867-.068-1.986-.091-3.955-.075-5.896.047-9.381.992-17.85,2.03-24.394.326-2.056,4.598-27.757-3.351-31.06-13.585-5.643-23.816,11.629-26.045,24.027Z"/><path class="j" d="m184.607,92.159c.401-2.645.825-4.946,1.196-6.82,3.836-19.409-.989-27.093-4.439-29.472-3.144-2.167-6.465-3.182-9.997-2.799-3.664.397-7.555,2.296-11.71,5.971-5.643,4.989-9.94,12.105-11.226,14.195-13.232,21.515-29.966,48.376-56.012,74.727-23.362,23.634-53.08,47.151-92.42,64.149h105.955s29.299-41.817,47.421-82.176c11.669-25.987,22.928-53.247,27.599-56.157,1.496-.932,3.189-.745,3.895,1.147.759,2.034.897,8.924-.263,17.234"/><path class="h" d="m602.453,148.268c-15.007,0-32.255-3.794-32.255-33.337,0-27.087,17.967-32.786,33.025-32.786h122.274v21.457h-108.997c-12.797,0-14.704,7.383-14.704,11.8,0,7.687,4.594,11.27,14.466,11.27h55.559l23.694.012c15.014,0,32.25,3.786,32.25,33.339,0,27.095-17.954,32.786-33.017,32.786h-122.283v-21.46h108.989c12.792,0,14.699-7.381,14.699-11.797,0-7.674-4.591-11.254-14.461-11.254h-55.553l-23.688-.031Z"/><path class="h" d="m873.673,82.145c25.474,0,40.168,11.364,43.677,33.786h0c1.102,7.105,1.582,13.879,1.582,22.664,0,7.665-1.286,14.073-2.709,20.513-5.023,22.679-19.388,33.702-43.925,33.702h-108.148s-6.1-.089-10.532-.14v-110.525h120.056Zm-90.414,21.467v67.718h77.855c10.054,0,22.819-4.543,25.666-17.34l-.053.207c.084-.303,2.288-7.716,2.331-16.975.028-8.433-1.043-14.908-1.089-15.177-1.439-6.106-4.346-18.434-23.049-18.434h-81.662Z"/><path class="h" d="m512.88,82.145v80.502c0,.953.134,2.441-1.24,3.422-1.503,1.075-3.737.003-6.153-1.726-.006-.004-.007-.007-.015-.012,0,0-82.286-73.313-82.545-73.552-11.784-10.85-20.062-12.262-26.031-12.262-13.992,0-23.571,9.051-23.571,23.407v90.886h31.461v-80.502c0-.953-.133-2.441,1.24-3.422,1.503-1.076,3.738-.003,6.153,1.727.005.004.007.006.015.011,0,0,82.286,73.314,82.545,73.552,11.783,10.85,20.062,12.263,26.031,12.263,13.991,0,23.57-9.052,23.57-23.407v-90.886h-31.461Z"/></g></svg>