<?xml version="1.0" encoding="UTF-8" standalone="no"?>
<svg
   xmlns:dc="http://purl.org/dc/elements/1.1/"
   xmlns:cc="http://creativecommons.org/ns#"
   xmlns:rdf="http://www.w3.org/1999/02/22-rdf-syntax-ns#"
   xmlns:svg="http://www.w3.org/2000/svg"
   xmlns="http://www.w3.org/2000/svg"
   xmlns:sodipodi="http://sodipodi.sourceforge.net/DTD/sodipodi-0.dtd"
   xmlns:inkscape="http://www.inkscape.org/namespaces/inkscape"
   width="140"
   height="80"
   viewBox="0 0 140 80"
   fill="none"
   version="1.1"
   id="svg869"
   sodipodi:docname="brand-logo-97.svg"
   inkscape:version="1.0.2-2 (e86c870879, 2021-01-15)">
  <metadata
     id="metadata875">
    <rdf:RDF>
      <cc:Work
         rdf:about="">
        <dc:format>image/svg+xml</dc:format>
        <dc:type
           rdf:resource="http://purl.org/dc/dcmitype/StillImage" />
        <dc:title></dc:title>
      </cc:Work>
    </rdf:RDF>
  </metadata>
  <defs
     id="defs873">
    <clipPath
       id="a">
      <path
         d="M337 35h70.91v70.531H337zm0 0"
         id="path169" />
    </clipPath>
    <clipPath
       id="b">
      <path
         d="M283 88h17v17.531h-17zm0 0"
         id="path172" />
    </clipPath>
    <clipPath
       id="c">
      <path
         d="M144 88h16v17.531h-16zm0 0"
         id="path175" />
    </clipPath>
    <clipPath
       id="d">
      <path
         d="M191 88h15v17.531h-15zm0 0"
         id="path178" />
    </clipPath>
    <clipPath
       id="e">
      <path
         d="M264 88h16v17.531h-16zm0 0"
         id="path181" />
    </clipPath>
    <clipPath
       id="f">
      <path
         d="M124 88h17v17.531h-17zm0 0"
         id="path184" />
    </clipPath>
    <clipPath
       id="g">
      <path
         d="M209 88h14v17.531h-14zm0 0"
         id="path187" />
    </clipPath>
    <clipPath
       id="h">
      <path
         d="M163 88h12v17.531h-12zm0 0"
         id="path190" />
    </clipPath>
    <clipPath
       id="i">
      <path
         d="M110 88h13v17.531h-13zm0 0"
         id="path193" />
    </clipPath>
    <clipPath
       id="j">
      <path
         d="M226 88h14v17.531h-14zm0 0"
         id="path196" />
    </clipPath>
    <clipPath
       id="k">
      <path
         d="M176 88h13v17.531h-13zm0 0"
         id="path199" />
    </clipPath>
    <clipPath
       id="l">
      <path
         d="M241 88h12v17.531h-12zm0 0"
         id="path202" />
    </clipPath>
    <clipPath
       id="m">
      <path
         d="M256 88h5v17.531h-5zm0 0"
         id="path205" />
    </clipPath>
  </defs>
  <sodipodi:namedview
     pagecolor="#ffffff"
     bordercolor="#666666"
     borderopacity="1"
     objecttolerance="10"
     gridtolerance="10"
     guidetolerance="10"
     inkscape:pageopacity="0"
     inkscape:pageshadow="2"
     inkscape:window-width="3840"
     inkscape:window-height="2071"
     id="namedview871"
     showgrid="false"
     inkscape:zoom="5.575095"
     inkscape:cx="166.64565"
     inkscape:cy="-27.129435"
     inkscape:window-x="3141"
     inkscape:window-y="-9"
     inkscape:window-maximized="1"
     inkscape:current-layer="svg869"
     inkscape:document-rotation="0" />
  <style
     type="text/css"
     id="style2448">
	.st0{fill:#00A896;}
	.st1{fill:#29327B;}
</style>
  <g
     id="g326"
     transform="matrix(0.32539146,0,0,0.32539146,3.6348409,22.830352)">
    <g
       clip-path="url(#a)"
       id="g212">
      <path
         d="m 353.332,105.23 c -3.254,0 -6.504,0.012 -9.758,-0.003 -3.543,-0.016 -5.695,-2.11 -5.71,-5.649 -0.036,-6.508 -0.032,-13.012 -0.005,-19.52 0.016,-3.624 2.149,-5.69 5.786,-5.695 4.726,-0.004 9.453,0.028 14.18,-0.004 7.605,-0.058 13.304,-4.941 14.46,-12.324 0.328,-2.105 -0.191,-4.14 -0.46,-6.2 -1.212,-9.323 4.816,-17.937 14.054,-20.062 10.367,-2.382 20.508,4.606 21.871,15.07 1.602,12.274 -9.086,22.56 -21.293,20.348 -5.691,-1.03 -10.488,0.25 -14.316,4.641 -2.317,2.66 -3.329,5.84 -3.336,9.348 -0.008,4.812 0.004,9.629 -0.004,14.441 -0.008,3.473 -2.102,5.582 -5.582,5.606 -3.293,0.02 -6.59,0.003 -9.887,0.003"
         fill="#e81e33"
         id="path210" />
    </g>
    <path
       d="m 316.457,67.746 c -4.77,0 -9.543,-0.02 -14.312,0.024 -0.887,0.007 -1.172,-0.2 -1.168,-1.133 a 3534.3,3534.3 0 0 0 -0.004,-28.758 c -0.004,-1.031 0.347,-1.188 1.261,-1.18 5.856,0.04 11.711,0.024 17.567,0.02 7.637,-0.008 14.277,-4.477 17.18,-11.559 0.582,-1.418 0.886,-2.887 0.878,-4.43 -0.02,-4.859 -0.011,-9.714 -0.007,-14.574 0.007,-4.125 2.03,-6.152 6.148,-6.152 6.332,0 12.664,-0.004 18.996,0 3.723,0.004 5.805,2.082 5.805,5.789 0.004,6.465 0.008,12.926 0,19.39 -0.004,3.637 -2.098,5.739 -5.723,5.743 -4.465,0.008 -8.933,0.07 -13.398,-0.012 -7.485,-0.137 -12.336,3.867 -15.782,9.992 -1.402,2.489 -1.859,5.293 -1.859,8.157 0.012,5.812 -0.023,11.624 0.031,17.437 0.008,1.047 -0.3,1.281 -1.3,1.27 -4.77,-0.051 -9.54,-0.024 -14.313,-0.024"
       fill="#e81e33"
       id="path214" />
    <path
       d="m 180.508,55.582 c 0,-5.117 0.027,-10.234 -0.028,-15.352 -0.007,-0.933 0.29,-1.265 1.168,-1.437 12.88,-2.54 25.883,-3.074 38.961,-2.45 6.848,0.325 13.641,1.102 20.38,2.41 0.988,0.192 1.347,0.528 1.32,1.571 -0.075,2.95 -0.067,5.899 -0.004,8.844 0.023,0.984 -0.176,1.242 -1.2,1.07 -8.73,-1.492 -17.535,-2.195 -26.386,-2.441 -6.739,-0.188 -13.418,0.355 -20.094,1.172 -0.637,0.078 -0.895,0.293 -0.895,0.965 0.016,3.73 -0.003,7.457 -0.03,11.187 -0.005,0.715 0.198,1.008 1.007,1.125 13.281,1.926 26.543,1.336 39.8,-0.226 2.321,-0.274 4.634,-0.633 6.942,-1.008 0.633,-0.102 0.848,0 0.844,0.668 -0.023,3.254 -0.031,6.504 0.004,9.758 0.008,0.753 -0.442,0.816 -0.969,0.925 -3.992,0.825 -8.023,1.399 -12.074,1.82 a 172.161,172.161 0 0 1 -29.219,0.547 c -6.144,-0.402 -12.25,-1.109 -18.297,-2.308 -0.945,-0.188 -1.265,-0.496 -1.258,-1.488 0.055,-5.118 0.028,-10.235 0.028,-15.352 m -62.742,-1.086 c 0,6.2 -0.036,12.313 0.027,18.426 0.012,1.183 -0.281,1.535 -1.492,1.504 -3.512,-0.086 -7.024,-0.055 -10.54,-0.012 -0.863,0.012 -1.198,-0.168 -1.195,-1.129 a 4855.58,4855.58 0 0 0 -0.007,-35.394 c -0.004,-1.473 0.757,-0.98 1.453,-0.813 9.367,2.27 18.172,5.953 26.582,10.629 6.484,3.602 12.82,7.438 18.898,11.691 0.238,0.168 0.434,0.434 0.934,0.391 v -1.215 c 0,-6.808 0.023,-13.62 -0.024,-20.43 -0.007,-1.078 0.164,-1.496 1.387,-1.464 3.598,0.097 7.2,0.058 10.8,0.015 0.798,-0.008 1.032,0.22 1.032,1.024 -0.023,11.883 -0.023,23.77 -0.004,35.656 0.004,0.781 -0.21,1.047 -1.023,1.04 -3.774,-0.04 -7.547,-0.044 -11.32,0 -0.79,0.01 -1.29,-0.388 -1.844,-0.802 -10.047,-7.48 -20.664,-13.992 -32.305,-18.726 A 29.21,29.21 0 0 0 118.16,54.5 c -0.074,-0.023 -0.168,-0.004 -0.394,-0.004 M 66.844,45.465 c -0.192,0.144 -0.48,0.332 -0.735,0.558 A 69654.697,69654.697 0 0 0 40.836,68.695 c -2.258,2.028 -4.535,4.04 -6.77,6.09 -0.511,0.469 -0.828,0.512 -1.379,0.02 C 21.957,65.145 11.207,55.504 0.445,45.879 -0.098,45.395 -0.184,45.129 0.41,44.602 a 497.915,497.915 0 0 0 8.75,-7.973 c 0.688,-0.645 0.985,-0.254 1.445,0.187 7.262,6.961 14.551,13.891 21.774,20.891 0.86,0.832 1.25,0.68 2.008,-0.05 7.207,-6.95 14.465,-13.852 21.668,-20.81 0.71,-0.69 1.074,-0.648 1.754,-0.007 2.746,2.586 5.55,5.11 8.328,7.664 0.246,0.223 0.578,0.383 0.707,0.96 M 270.523,55.61 c 0,5.85 -0.02,11.699 0.016,17.55 0.008,0.934 -0.18,1.278 -1.2,1.262 a 374.176,374.176 0 0 0 -11.312,-0.004 c -0.925,0.012 -1.152,-0.277 -1.152,-1.176 a 6315.88,6315.88 0 0 0 -0.004,-35.363 c -0.004,-1.04 0.356,-1.195 1.27,-1.184 3.726,0.047 7.457,0.055 11.183,-0.004 0.992,-0.02 1.227,0.278 1.219,1.235 -0.043,5.894 -0.02,11.789 -0.02,17.683 M 75.918,55.46 c 0,-5.808 0.031,-11.62 -0.027,-17.429 -0.012,-1.113 0.32,-1.36 1.379,-1.343 3.683,0.066 7.37,0.054 11.058,0.007 0.871,-0.011 1.184,0.164 1.18,1.121 a 6727.263,6727.263 0 0 0 0,35.516 c 0,0.875 -0.262,1.09 -1.098,1.082 -3.773,-0.039 -7.547,-0.059 -11.32,0.008 -1.031,0.02 -1.195,-0.344 -1.192,-1.266 0.04,-5.898 0.02,-11.797 0.02,-17.695"
       fill="#0d528f"
       id="path216" />
    <g
       clip-path="url(#b)"
       id="g220">
      <path
         d="m 287.04,92.941 c 0,3.801 -0.048,7.387 0.026,10.97 0.024,1.093 -0.28,1.495 -1.355,1.327 -0.383,-0.058 -0.781,-0.031 -1.172,-0.004 -0.543,0.04 -0.773,-0.152 -0.773,-0.73 0.015,-5.113 0.011,-10.227 0.015,-15.34 0,-0.246 -0.027,-0.492 0.297,-0.633 1.043,-0.453 3.488,0.164 4.164,1.082 2.485,3.387 4.969,6.774 7.465,10.18 0.414,-0.215 0.195,-0.602 0.2,-0.895 0.007,-3.074 0.027,-6.152 -0.032,-9.226 -0.016,-0.879 0.172,-1.207 1.125,-1.184 2.203,0.047 2.203,-0.008 2.203,2.164 0,4.461 -0.031,8.926 0.027,13.391 0.012,1 -0.304,1.164 -1.238,1.23 -1.472,0.11 -2.34,-0.437 -3.172,-1.632 -2.468,-3.551 -5.082,-7.008 -7.78,-10.7"
         fill="#0d528f"
         id="path218" />
    </g>
    <g
       clip-path="url(#c)"
       id="g224">
      <path
         d="m 156.3,100.102 c 0,-3.68 0.048,-7.02 -0.03,-10.352 -0.024,-1.07 0.332,-1.398 1.312,-1.238 a 0.95,0.95 0 0 0 0.258,0 c 1.308,-0.227 1.738,0.23 1.71,1.629 -0.1,4.636 -0.07,9.277 -0.01,13.914 0.01,1.007 -0.31,1.152 -1.235,1.226 -1.438,0.117 -2.262,-0.433 -3.067,-1.582 -2.472,-3.531 -5.07,-6.976 -7.828,-10.742 v 3.766 c 0,2.297 0.02,4.593 -0.015,6.89 -0.004,0.528 0.32,1.383 -0.262,1.528 -0.895,0.218 -1.887,0.082 -2.832,0.011 -0.301,-0.023 -0.184,-0.433 -0.184,-0.675 -0.008,-5.07 -0.008,-10.145 -0.004,-15.215 0,-0.25 -0.07,-0.535 0.196,-0.711 0.683,-0.457 3.632,0.148 4.148,0.847 2.55,3.485 5.106,6.97 7.844,10.704"
         fill="#0d528f"
         id="path222" />
    </g>
    <g
       clip-path="url(#d)"
       id="g228">
      <path
         d="m 195.633,93.605 v 1.434 c 0,2.102 0.086,2.18 2.191,1.922 2.223,-0.27 3.383,-1.227 3.563,-2.941 0.277,-2.641 -1,-3.95 -3.852,-3.946 -1.82,0.004 -1.898,0.082 -1.902,1.84 z m 4.078,4.258 c 2.098,2.512 4.043,4.832 6.164,7.371 -1.453,0 -2.684,-0.007 -3.914,0.004 -0.594,0.008 -0.785,-0.484 -1.066,-0.843 -1.68,-2.133 -3.34,-4.278 -5.262,-6.743 0,2.446 -0.031,4.5 0.015,6.551 0.02,0.77 -0.144,1.05 -0.984,1.059 -2.887,0.031 -2.887,0.07 -2.887,-2.79 0,-4.034 0.036,-8.07 -0.023,-12.1 -0.012,-0.903 0.242,-1.34 1.121,-1.544 2.875,-0.676 5.75,-0.863 8.617,-0.047 1.61,0.461 2.93,1.34 3.492,3.024 0.899,2.66 -0.636,5.058 -3.672,5.765 -0.457,0.106 -0.925,0.172 -1.601,0.293"
         fill="#0d528f"
         id="path226" />
    </g>
    <g
       clip-path="url(#e)"
       id="g232">
      <path
         d="m 275.89,96.773 c 0.02,-1.437 -0.062,-2.859 -0.636,-4.199 -0.602,-1.386 -1.613,-2.222 -3.184,-2.226 -1.562,-0.008 -2.691,0.75 -3.215,2.172 -1.03,2.808 -1.05,5.68 -0.027,8.496 0.524,1.441 1.668,2.125 3.235,2.12 1.578,-0.003 2.613,-0.753 3.214,-2.163 0.575,-1.344 0.63,-2.77 0.614,-4.2 z m -3.878,8.7 c -5.352,-0.012 -8.457,-3.91 -7.782,-9.782 0.645,-5.66 4.47,-8.414 10.012,-7.195 2.715,0.598 4.387,2.328 5.164,4.938 0.594,1.984 0.63,4.027 0.211,6.046 -0.816,3.965 -3.433,5.997 -7.605,5.993"
         fill="#0d528f"
         id="path230" />
    </g>
    <g
       clip-path="url(#f)"
       id="g236">
      <path
         d="m 136.29,96.91 c 0.03,-1.437 -0.099,-2.855 -0.622,-4.203 -0.566,-1.46 -1.594,-2.336 -3.223,-2.363 -1.52,-0.024 -2.695,0.719 -3.27,2.289 -0.991,2.73 -0.991,5.52 -0.034,8.254 0.562,1.613 1.722,2.281 3.41,2.242 1.558,-0.04 2.61,-0.805 3.183,-2.39 0.45,-1.235 0.578,-2.524 0.555,-3.829 z m -11.692,-0.078 c 0,-0.387 -0.024,-0.781 0.004,-1.168 0.418,-6.11 6.43,-9.41 11.855,-6.504 1.84,0.985 2.879,2.586 3.395,4.547 0.46,1.738 0.523,3.516 0.214,5.285 -0.808,4.598 -3.609,6.711 -8.492,6.453 -4.02,-0.21 -6.672,-2.988 -6.969,-7.312 -0.03,-0.434 -0.003,-0.867 -0.007,-1.301"
         fill="#0d528f"
         id="path234" />
    </g>
    <g
       clip-path="url(#g)"
       id="g240">
      <path
         d="m 209.172,95.012 c 0,-1.82 0.05,-3.64 -0.02,-5.457 -0.035,-0.887 0.278,-1.067 1.098,-1.063 2.828,0.012 2.828,-0.02 2.828,2.824 0,2.903 -0.008,5.809 0.004,8.711 0.008,2.02 1.129,3.075 3.2,3.051 1.964,-0.023 3.042,-1.09 3.05,-3.062 0.012,-3.426 0.035,-6.848 -0.016,-10.274 -0.015,-0.914 0.141,-1.285 1.18,-1.258 2.477,0.063 2.477,0.004 2.477,2.536 v 8.324 c 0,3.469 -1.45,5.312 -4.86,5.965 -1.937,0.37 -3.898,0.32 -5.746,-0.493 -2.035,-0.898 -3.238,-2.39 -3.199,-4.73 0.027,-1.691 0.004,-3.383 0.004,-5.074"
         fill="#0d528f"
         id="path238" />
    </g>
    <g
       clip-path="url(#h)"
       id="g244">
      <path
         d="m 167.762,105.488 c -1.309,-0.015 -2.602,-0.148 -3.84,-0.59 -0.418,-0.148 -1.09,-0.253 -0.598,-0.918 0.375,-0.511 0.055,-1.832 1.363,-1.355 a 8.092,8.092 0 0 0 3.32,0.46 c 1.47,-0.1 2.485,-0.858 2.727,-1.991 0.258,-1.227 -0.261,-2.078 -1.797,-2.778 -0.98,-0.453 -2.03,-0.761 -2.988,-1.254 -1.59,-0.824 -2.707,-2.027 -2.648,-3.976 0.062,-2.004 1.156,-3.328 2.894,-4.121 2.383,-1.078 4.813,-0.863 7.23,-0.078 0.466,0.152 0.852,0.41 0.427,0.922 -0.336,0.406 -0.043,1.488 -1.172,1.093 -1.192,-0.422 -2.407,-0.699 -3.692,-0.379 -1.035,0.262 -1.715,0.856 -1.886,1.903 -0.18,1.082 0.367,1.86 1.304,2.312 0.973,0.465 2.004,0.813 2.992,1.246 2.747,1.2 3.778,2.75 3.438,5.137 -0.313,2.192 -2.453,3.95 -5.258,4.277 -0.601,0.07 -1.21,0.063 -1.816,0.09"
         fill="#0d528f"
         id="path242" />
    </g>
    <g
       clip-path="url(#i)"
       id="g248">
      <path
         d="m 118.957,105.469 c -5.98,0.05 -9.547,-4.672 -8.32,-10.633 1.36,-6.582 7.203,-7.402 11.285,-6.027 0.375,0.125 1.101,0.203 0.644,0.925 -0.308,0.485 -0.136,1.438 -1.308,1.125 -3.813,-1.007 -6,0.485 -6.649,4.371 a 9.872,9.872 0 0 0 0.157,4.004 c 0.754,3.09 3.191,4.563 6.207,3.579 1.367,-0.446 1.261,0.578 1.586,1.19 0.496,0.934 -0.446,0.852 -0.856,1.017 -0.973,0.39 -2.02,0.46 -2.746,0.449"
         fill="#0d528f"
         id="path246" />
    </g>
    <g
       clip-path="url(#j)"
       id="g252">
      <path
         d="m 235.406,105.469 c -5.976,0.039 -9.511,-4.57 -8.418,-10.41 1.235,-6.582 6.926,-7.672 11.23,-6.282 0.41,0.133 1.184,0.153 0.739,0.993 -0.316,0.593 -0.297,1.398 -1.469,1.054 -3.468,-1.015 -5.894,0.621 -6.453,4.184 -0.246,1.562 -0.226,3.113 0.254,4.629 0.89,2.816 3.172,4.125 5.984,3.195 1.383,-0.457 1.403,0.492 1.692,1.2 0.418,1.011 -0.594,0.866 -1.028,1.038 -0.933,0.368 -1.945,0.418 -2.53,0.399"
         fill="#0d528f"
         id="path250" />
    </g>
    <g
       clip-path="url(#k)"
       id="g256">
      <path
         d="m 180.637,97.867 c 0,-2.074 -0.028,-4.152 0.015,-6.23 0.016,-0.766 -0.16,-1.133 -0.996,-1.035 -0.554,0.062 -1.129,-0.024 -1.687,0.02 -0.781,0.054 -1.27,-0.005 -1.266,-1.052 0.008,-1.015 0.442,-1.082 1.246,-1.074 3.117,0.04 6.235,0.035 9.352,0 0.777,-0.008 1.164,0.106 1.129,1.031 -0.032,0.793 -0.157,1.114 -1.059,1.11 -2.871,-0.016 -2.871,0.027 -2.871,2.879 0,3.546 -0.023,7.097 0.02,10.648 0.007,0.824 -0.188,1.102 -1.063,1.098 -2.82,-0.008 -2.82,0.031 -2.82,-2.719 v -4.676"
         fill="#0d528f"
         id="path254" />
    </g>
    <g
       clip-path="url(#l)"
       id="g260">
      <path
         d="m 245.145,97.918 c 0,-2.121 -0.028,-4.246 0.015,-6.367 0.012,-0.73 -0.203,-1.02 -0.95,-0.95 -0.558,0.055 -1.14,-0.074 -1.683,0.028 -1.375,0.25 -1.332,-0.59 -1.289,-1.52 0.02,-0.457 0.207,-0.601 0.63,-0.597 3.468,0.004 6.933,0.015 10.398,-0.008 0.918,-0.008 0.625,0.625 0.64,1.074 0.012,0.465 0.23,1.102 -0.668,1.043 -0.691,-0.047 -1.394,0.05 -2.078,-0.023 -0.91,-0.098 -1.172,0.218 -1.16,1.14 0.05,4.07 -0.008,8.145 0.047,12.215 0.012,0.996 -0.215,1.332 -1.27,1.305 -2.632,-0.067 -2.632,-0.008 -2.632,-2.66 v -4.68"
         fill="#0d528f"
         id="path258" />
    </g>
    <g
       clip-path="url(#m)"
       id="g264">
      <path
         d="m 256.32,96.7 c 0,-2.427 0.016,-4.852 -0.011,-7.278 -0.008,-0.625 0.113,-0.902 0.84,-0.93 3.07,-0.129 3.07,-0.156 3.07,2.957 0,4.246 -0.024,8.489 0.02,12.73 0.011,0.868 -0.255,1.075 -1.087,1.071 -2.832,-0.008 -2.832,0.027 -2.832,-2.836 V 96.7"
         fill="#0d528f"
         id="path262" />
    </g>
  </g>
</svg>
