<?xml version="1.0" encoding="UTF-8" standalone="no"?>
<svg
   xmlns:dc="http://purl.org/dc/elements/1.1/"
   xmlns:cc="http://creativecommons.org/ns#"
   xmlns:rdf="http://www.w3.org/1999/02/22-rdf-syntax-ns#"
   xmlns:svg="http://www.w3.org/2000/svg"
   xmlns="http://www.w3.org/2000/svg"
   xmlns:xlink="http://www.w3.org/1999/xlink"
   xmlns:sodipodi="http://sodipodi.sourceforge.net/DTD/sodipodi-0.dtd"
   xmlns:inkscape="http://www.inkscape.org/namespaces/inkscape"
   width="200"
   height="80"
   viewBox="0 0 200 80"
   fill="none"
   version="1.1"
   id="svg869"
   sodipodi:docname="brand-logo-77.svg"
   inkscape:version="1.0.2-2 (e86c870879, 2021-01-15)">
  <metadata
     id="metadata875">
    <rdf:RDF>
      <cc:Work
         rdf:about="">
        <dc:format>image/svg+xml</dc:format>
        <dc:type
           rdf:resource="http://purl.org/dc/dcmitype/StillImage" />
        <dc:title></dc:title>
      </cc:Work>
    </rdf:RDF>
  </metadata>
  <defs
     id="defs873">
    <path
       id="SVGID_1_"
       d="m 32.7,21.4 c 4.7,2.2 9.9,4.8 15.6,8 5.7,-3.2 11,-5.8 15.8,-8.1 C 58.8,18 53.5,15.3 48.4,13 43.3,15.3 38,18.1 32.7,21.4" />
    <path
       id="SVGID_4_"
       d="m 1.4,49.6 c 2.7,3.2 5.7,6.7 9.1,10.5 3.7,-4 7.8,-8.3 12.8,-12.8 C 19.1,43.7 15.4,40.5 12.1,37.7 8,41.7 4.5,45.8 1.4,49.6" />
    <path
       id="SVGID_7_"
       d="m 14.8,35.3 c 3.5,2.7 7.4,5.8 11.9,9.3 5.7,-4.9 12,-9.5 18.4,-13.3 -5.6,-3.2 -10.7,-5.8 -15.2,-8 -5.5,3.6 -10.6,7.7 -15.1,12" />
  </defs>
  <sodipodi:namedview
     pagecolor="#ffffff"
     bordercolor="#666666"
     borderopacity="1"
     objecttolerance="10"
     gridtolerance="10"
     guidetolerance="10"
     inkscape:pageopacity="0"
     inkscape:pageshadow="2"
     inkscape:window-width="3840"
     inkscape:window-height="2054"
     id="namedview871"
     showgrid="false"
     inkscape:zoom="5.575095"
     inkscape:cx="81.685669"
     inkscape:cy="81.352135"
     inkscape:window-x="2509"
     inkscape:window-y="-11"
     inkscape:window-maximized="1"
     inkscape:current-layer="svg869"
     inkscape:document-rotation="0" />
  <style
     type="text/css"
     id="style164">
	.st0{fill:#595A5C;}
	.st1{fill:#939598;}
	.st2{fill:#6E6F72;}
	.st3{clip-path:url(#SVGID_2_);fill:url(#SVGID_3_);}
	.st4{clip-path:url(#SVGID_5_);fill:url(#SVGID_6_);}
	.st5{clip-path:url(#SVGID_8_);fill:url(#SVGID_9_);}
</style>
  <g
     id="g345"
     transform="matrix(0.60763889,0,0,0.60763889,4.3272568,26.980903)">
    <path
       class="st0"
       d="m 72.1,7.7 c 1.6,-0.3 4.8,-0.6 7.8,-0.6 3.7,0 6,0.4 7.9,1.5 1.9,1 3.2,2.8 3.2,5.3 0,2.3 -1.4,4.5 -4.4,5.7 v 0.1 c 3.1,0.8 5.3,3.1 5.3,6.6 0,2.5 -1.1,4.4 -2.8,5.7 -1.9,1.5 -5.2,2.4 -10.5,2.4 -3,0 -5.2,-0.2 -6.5,-0.4 z m 6,10.2 h 2 c 3.2,0 4.9,-1.3 4.9,-3.3 0,-2 -1.5,-3.1 -4.3,-3.1 -1.3,0 -2.1,0.1 -2.6,0.2 z m 0,11.8 c 0.6,0.1 1.3,0.1 2.3,0.1 2.7,0 5.2,-1.1 5.2,-3.9 0,-2.7 -2.4,-3.8 -5.4,-3.8 h -2.1 z"
       id="path166" />
    <path
       class="st0"
       d="M 96.1,7.6 C 98,7.3 100.6,7 104.3,7 c 3.7,0 6.4,0.7 8.2,2.2 1.7,1.3 2.9,3.5 2.9,6.1 0,2.7 -0.8,4.9 -2.5,6.3 -2.1,1.9 -5.1,2.8 -8.7,2.8 -0.8,0 -1.5,0 -2.1,-0.2 V 34 h -6 V 7.6 Z m 6,12.2 c 0.5,0.1 1.1,0.2 2,0.2 3.2,0 5.2,-1.6 5.2,-4.3 0,-2.5 -1.7,-3.9 -4.8,-3.9 -1.2,0 -2,0.1 -2.5,0.2 v 7.8 z"
       id="path168" />
    <path
       class="st0"
       d="m 130.5,34.5 c -7.9,0 -12.6,-6 -12.6,-13.6 0,-8 5.2,-14 13,-14 8.2,0 12.7,6.2 12.7,13.5 0,8.8 -5.3,14.1 -13.1,14.1 z m 0.3,-4.9 c 4.1,0 6.4,-3.8 6.4,-9.1 0,-4.8 -2.3,-8.9 -6.4,-8.9 -4.2,0 -6.5,4 -6.5,9 0,5.1 2.4,9 6.5,9 z"
       id="path170" />
    <path
       class="st0"
       d="m 162.1,13.5 c 0.9,-0.2 2.4,-0.4 3.8,-0.4 2.1,0 3.4,0.4 4.4,1.2 0.8,0.6 1.4,1.6 1.4,2.8 0,1.6 -1.1,2.9 -2.7,3.5 v 0.1 c 1.5,0.4 3.3,1.6 3.3,4 0,1.4 -0.6,2.4 -1.4,3.2 -1.1,1 -2.9,1.5 -5.6,1.5 -1.4,0 -2.5,-0.1 -3.2,-0.2 z m 2.1,6.6 h 1.9 c 2.2,0 3.5,-1.2 3.5,-2.7 0,-1.9 -1.4,-2.6 -3.5,-2.6 -1,0 -1.5,0.1 -1.8,0.1 v 5.2 z m 0,7.7 c 0.4,0.1 1,0.1 1.7,0.1 2.2,0 4.1,-0.8 4.1,-3.1 0,-2.2 -1.9,-3.1 -4.2,-3.1 h -1.7 v 6.1 z"
       id="path172" />
    <rect
       x="175"
       y="12.4"
       class="st0"
       width="2.0999999"
       height="17"
       id="rect174" />
    <path
       class="st0"
       d="m 190.3,26.2 c 0,1.2 0,2.3 0.1,3.2 h -1.9 l -0.1,-1.9 v 0 c -0.5,0.9 -1.8,2.2 -3.8,2.2 -1.8,0 -4,-1 -4,-5.1 v -6.8 h 2.1 v 6.4 c 0,2.2 0.7,3.7 2.6,3.7 1.4,0 2.4,-1 2.8,-1.9 0.1,-0.3 0.2,-0.7 0.2,-1.1 v -7.1 h 2.1 v 8.4 z"
       id="path176" />
    <path
       class="st0"
       d="m 195,24 c 0,2.8 1.8,4 3.9,4 1.5,0 2.4,-0.3 3.2,-0.6 l 0.4,1.5 c -0.7,0.3 -2,0.7 -3.9,0.7 -3.5,0 -5.7,-2.4 -5.7,-5.8 0,-3.5 2.1,-6.2 5.5,-6.2 3.8,0 4.8,3.3 4.8,5.5 0,0.4 0,0.7 -0.1,1 H 195 Z m 6.2,-1.5 c 0,-1.3 -0.6,-3.4 -2.9,-3.4 -2.2,0 -3.1,2 -3.2,3.4 z"
       id="path178" />
    <path
       class="st0"
       d="m 210.9,13.5 c 1,-0.2 2.3,-0.3 4,-0.3 2.1,0 3.6,0.5 4.5,1.3 0.9,0.8 1.4,1.9 1.4,3.4 0,1.5 -0.4,2.6 -1.3,3.4 -1.1,1.2 -2.9,1.8 -4.9,1.8 -0.6,0 -1.2,0 -1.7,-0.1 v 6.5 h -2.1 v -16 z m 2.1,7.7 c 0.5,0.1 1,0.2 1.7,0.2 2.5,0 4,-1.2 4,-3.4 0,-2.1 -1.5,-3.2 -3.8,-3.2 -0.9,0 -1.6,0.1 -2,0.2 v 6.2 z"
       id="path180" />
    <path
       class="st0"
       d="m 231.1,26.6 c 0,1 0,2 0.2,2.8 h -1.9 l -0.2,-1.5 h -0.1 c -0.6,0.9 -1.9,1.7 -3.5,1.7 -2.3,0 -3.5,-1.7 -3.5,-3.3 0,-2.8 2.5,-4.3 7,-4.3 v -0.2 c 0,-1 -0.3,-2.7 -2.6,-2.7 -1.1,0 -2.2,0.3 -3,0.9 L 223,18.6 c 1,-0.6 2.4,-1 3.8,-1 3.6,0 4.4,2.4 4.4,4.7 v 4.3 z m -2,-3.1 c -2.3,0 -4.9,0.4 -4.9,2.6 0,1.4 0.9,2 2,2 1.5,0 2.5,-1 2.8,-1.9 0.1,-0.2 0.1,-0.5 0.1,-0.7 z"
       id="path182" />
    <path
       class="st0"
       d="m 242.8,29 c -0.6,0.3 -1.8,0.7 -3.3,0.7 -3.5,0 -5.8,-2.4 -5.8,-5.9 0,-3.6 2.4,-6.2 6.2,-6.2 1.2,0 2.3,0.3 2.9,0.6 l -0.5,1.6 c -0.5,-0.3 -1.3,-0.5 -2.4,-0.5 -2.7,0 -4.1,2 -4.1,4.4 0,2.7 1.7,4.3 4,4.3 1.2,0 2,-0.3 2.6,-0.6 z"
       id="path184" />
    <path
       class="st0"
       d="m 246.2,15.8 c -0.8,0 -1.3,-0.6 -1.3,-1.3 0,-0.7 0.5,-1.3 1.3,-1.3 0.8,0 1.3,0.6 1.3,1.3 0.1,0.7 -0.4,1.3 -1.3,1.3 z m -1,2 h 2.1 v 11.6 h -2.1 z"
       id="path186" />
    <path
       class="st0"
       d="m 251,29.4 v -10 h -1.6 v -1.6 h 1.6 v -0.6 c 0,-3 1.8,-5 5.1,-5 1.1,0 2.3,0.3 2.9,0.8 l -0.6,1.6 c -0.5,-0.4 -1.4,-0.7 -2.4,-0.7 -2.2,0 -2.9,1.6 -2.9,3.4 v 0.6 h 6.7 v 11.6 h -2.1 v -10 h -4.6 v 10 H 251 Z"
       id="path188" />
    <path
       class="st0"
       d="m 271.6,29 c -0.6,0.3 -1.8,0.7 -3.3,0.7 -3.5,0 -5.8,-2.4 -5.8,-5.9 0,-3.6 2.4,-6.2 6.2,-6.2 1.2,0 2.3,0.3 2.9,0.6 l -0.5,1.6 c -0.5,-0.3 -1.3,-0.5 -2.4,-0.5 -2.7,0 -4.1,2 -4.1,4.4 0,2.7 1.7,4.3 4,4.3 1.2,0 2,-0.3 2.6,-0.6 z"
       id="path190" />
    <path
       class="st0"
       d="m 285.5,29.7 c -4.3,0 -7.2,-3.3 -7.2,-8.2 0,-5.1 3.2,-8.5 7.5,-8.5 4.4,0 7.3,3.4 7.3,8.2 -0.1,5.5 -3.5,8.5 -7.6,8.5 z m 0.1,-1.7 c 3.3,0 5.2,-3 5.2,-6.7 0,-3.2 -1.7,-6.6 -5.1,-6.6 -3.4,0 -5.2,3.2 -5.2,6.7 -0.1,3.4 1.8,6.6 5.1,6.6 z"
       id="path192" />
    <path
       class="st0"
       d="m 296.6,15.8 c -0.8,0 -1.3,-0.6 -1.3,-1.3 0,-0.7 0.5,-1.3 1.3,-1.3 0.8,0 1.3,0.6 1.3,1.3 0,0.7 -0.5,1.3 -1.3,1.3 z m -1,2 h 2.1 v 11.6 h -2.1 z"
       id="path194" />
    <rect
       x="301.20001"
       y="12.4"
       class="st0"
       width="2.0999999"
       height="17"
       id="rect196" />
    <path
       class="st0"
       d="m 306.5,27.2 c 0.6,0.4 1.7,0.8 2.8,0.8 1.5,0 2.2,-0.7 2.2,-1.7 0,-1 -0.6,-1.5 -2.1,-2.1 -2.1,-0.8 -3.1,-1.9 -3.1,-3.3 0,-1.9 1.5,-3.4 4,-3.4 1.2,0 2.2,0.3 2.8,0.7 l -0.5,1.5 c -0.5,-0.3 -1.3,-0.7 -2.4,-0.7 -1.2,0 -1.9,0.7 -1.9,1.6 0,1 0.7,1.4 2.2,2 2,0.7 3,1.7 3,3.5 0,2.1 -1.6,3.5 -4.3,3.5 -1.3,0 -2.4,-0.3 -3.3,-0.8 z"
       id="path198" />
    <g
       id="g202">
      <rect
         x="149.89999"
         y="5.9000001"
         class="st1"
         width="2.2"
         height="32.799999"
         id="rect200" />
    </g>
    <path
       class="st1"
       d="m 30.9,6.2 c -4.5,2.5 -9,5.3 -13.3,8.5 -2.9,-1.3 -5.7,-2.6 -8.3,-4 C 13.1,7.8 17,5 21,2.5 c 3.1,1.2 6.4,2.4 9.9,3.7"
       id="path204" />
    <path
       class="st2"
       d="M 27.2,22.2 C 22,25.8 17.2,29.8 12.8,34 9.9,31.7 7.3,29.6 4.8,27.7 8.5,24 12.5,20.5 16.9,17.2 c 3.1,1.5 6.5,3.2 10.3,5"
       id="path206" />
    <g
       id="g227">
      <defs
         id="defs209">
        <path
           id="path305"
           d="m 32.7,21.4 c 4.7,2.2 9.9,4.8 15.6,8 5.7,-3.2 11,-5.8 15.8,-8.1 C 58.8,18 53.5,15.3 48.4,13 43.3,15.3 38,18.1 32.7,21.4" />
      </defs>
      <clipPath
         id="SVGID_2_">
        <use
           xlink:href="#SVGID_1_"
           style="overflow:visible"
           id="use211"
           x="0"
           y="0"
           width="100%"
           height="100%" />
      </clipPath>
      <linearGradient
         id="SVGID_3_"
         gradientUnits="userSpaceOnUse"
         x1="-149.1553"
         y1="460.70319"
         x2="-148.1553"
         y2="460.70319"
         gradientTransform="matrix(28.940215,21.705326,21.705326,-28.940215,-5948.6332,16626.695)">
        <stop
           offset="0"
           style="stop-color:#FAA71B"
           id="stop214" />
        <stop
           offset="0.178"
           style="stop-color:#F8961E"
           id="stop216" />
        <stop
           offset="0.4121"
           style="stop-color:#F58220"
           id="stop218" />
        <stop
           offset="0.7341"
           style="stop-color:#F37023"
           id="stop220" />
        <stop
           offset="1"
           style="stop-color:#F15B25"
           id="stop222" />
      </linearGradient>
      <polygon
         class="st3"
         points="24.8,23.5 44,-2.1 71.9,18.9 52.8,44.5 "
         clip-path="url(#SVGID_2_)"
         id="polygon225"
         style="fill:url(#SVGID_3_)" />
    </g>
    <g
       id="g248">
      <defs
         id="defs230">
        <path
           id="path318"
           d="m 1.4,49.6 c 2.7,3.2 5.7,6.7 9.1,10.5 3.7,-4 7.8,-8.3 12.8,-12.8 C 19.1,43.7 15.4,40.5 12.1,37.7 8,41.7 4.5,45.8 1.4,49.6" />
      </defs>
      <clipPath
         id="SVGID_5_">
        <use
           xlink:href="#SVGID_4_"
           style="overflow:visible"
           id="use232"
           x="0"
           y="0"
           width="100%"
           height="100%" />
      </clipPath>
      <linearGradient
         id="SVGID_6_"
         gradientUnits="userSpaceOnUse"
         x1="-149.15421"
         y1="460.72421"
         x2="-148.15421"
         y2="460.72421"
         gradientTransform="matrix(28.947127,21.710427,21.710427,-28.947127,-5993.7223,16688.905)">
        <stop
           offset="0"
           style="stop-color:#A5CE3A"
           id="stop235" />
        <stop
           offset="0.2125"
           style="stop-color:#9BC13C"
           id="stop237" />
        <stop
           offset="0.4121"
           style="stop-color:#96BD3D"
           id="stop239" />
        <stop
           offset="0.7246"
           style="stop-color:#81AE40"
           id="stop241" />
        <stop
           offset="1"
           style="stop-color:#73A541"
           id="stop243" />
      </linearGradient>
      <polygon
         class="st4"
         points="-9.4,52 9.3,27.2 34.1,45.8 15.4,70.6 "
         clip-path="url(#SVGID_5_)"
         id="polygon246"
         style="fill:url(#SVGID_6_)" />
    </g>
    <path
       class="st2"
       d="m 45.8,11.8 c -5,2.3 -10.3,5.1 -15.4,8.4 -4,-1.8 -7.6,-3.4 -10.9,-4.9 4.4,-3.2 9,-6 13.7,-8.5 3.9,1.5 8.1,3.1 12.6,5"
       id="path250" />
    <g
       id="g271">
      <defs
         id="defs253">
        <path
           id="path332"
           d="m 14.8,35.3 c 3.5,2.7 7.4,5.8 11.9,9.3 5.7,-4.9 12,-9.5 18.4,-13.3 -5.6,-3.2 -10.7,-5.8 -15.2,-8 -5.5,3.6 -10.6,7.7 -15.1,12" />
      </defs>
      <clipPath
         id="SVGID_8_">
        <use
           xlink:href="#SVGID_7_"
           style="overflow:visible"
           id="use255"
           x="0"
           y="0"
           width="100%"
           height="100%" />
      </clipPath>
      <linearGradient
         id="SVGID_9_"
         gradientUnits="userSpaceOnUse"
         x1="-149.15491"
         y1="460.68021"
         x2="-148.15491"
         y2="460.68021"
         gradientTransform="matrix(28.942848,21.707136,21.707136,-28.942848,-5969.6414,16655.5)">
        <stop
           offset="0"
           style="stop-color:#2BACE2"
           id="stop258" />
        <stop
           offset="0.2351"
           style="stop-color:#229CD7"
           id="stop260" />
        <stop
           offset="0.3901"
           style="stop-color:#1E94D2"
           id="stop262" />
        <stop
           offset="0.7937"
           style="stop-color:#0D78B4"
           id="stop264" />
        <stop
           offset="1"
           style="stop-color:#006FAB"
           id="stop266" />
      </linearGradient>
      <polygon
         class="st5"
         points="4.5,36.9 25.7,8.7 55.3,30.9 34.1,59.1 "
         clip-path="url(#SVGID_8_)"
         id="polygon269"
         style="fill:url(#SVGID_9_)" />
    </g>
  </g>
</svg>
