<?xml version="1.0" encoding="UTF-8" standalone="no"?>
<svg
   xmlns:dc="http://purl.org/dc/elements/1.1/"
   xmlns:cc="http://creativecommons.org/ns#"
   xmlns:rdf="http://www.w3.org/1999/02/22-rdf-syntax-ns#"
   xmlns:svg="http://www.w3.org/2000/svg"
   xmlns="http://www.w3.org/2000/svg"
   xmlns:xlink="http://www.w3.org/1999/xlink"
   xmlns:sodipodi="http://sodipodi.sourceforge.net/DTD/sodipodi-0.dtd"
   xmlns:inkscape="http://www.inkscape.org/namespaces/inkscape"
   width="180"
   height="80"
   viewBox="0 0 180 80"
   fill="none"
   version="1.1"
   id="svg869"
   sodipodi:docname="brand-logo-15.svg"
   inkscape:version="1.0.2-2 (e86c870879, 2021-01-15)">
  <metadata
     id="metadata875">
    <rdf:RDF>
      <cc:Work
         rdf:about="">
        <dc:format>image/svg+xml</dc:format>
        <dc:type
           rdf:resource="http://purl.org/dc/dcmitype/StillImage" />
        <dc:title></dc:title>
      </cc:Work>
    </rdf:RDF>
  </metadata>
  <defs
     id="defs873">
    <clipPath
       id="clipPath17">
      <path
         d="M 0.030029,841.86 H 1190.55 V 0 H 0.030029 Z"
         id="path19" />
    </clipPath>
    <clipPath
       id="clipPath39">
      <path
         d="m 1003.46,841.86 h 187.09 V 688.819 h -187.09 z"
         id="path41" />
    </clipPath>
    <clipPath
       id="clipPath51">
      <path
         d="M 0.030029,841.86 H 1190.55 V 0 H 0.030029 Z"
         id="path53" />
    </clipPath>
    <style
       id="style140">.h{fill:#231815;}.h,.i,.j,.k,.l{stroke-width:0px;}.i{fill:url(#e);}.j{fill:url(#g);}.k{fill:url(#d);}.l{fill:url(#f);}</style>
    <linearGradient
       id="d"
       x1="324.628"
       y1="26.2"
       x2="234.355"
       y2="155.124"
       gradientUnits="userSpaceOnUse">
      <stop
         offset="0"
         stop-color="#c4d700"
         id="stop142" />
      <stop
         offset=".388"
         stop-color="#6fba2c"
         id="stop144" />
      <stop
         offset=".414"
         stop-color="#68b028"
         id="stop146" />
      <stop
         offset=".523"
         stop-color="#518f19"
         id="stop148" />
      <stop
         offset=".636"
         stop-color="#3f750e"
         id="stop150" />
      <stop
         offset=".751"
         stop-color="#326206"
         id="stop152" />
      <stop
         offset=".87"
         stop-color="#2a5701"
         id="stop154" />
      <stop
         offset="1"
         stop-color="#285400"
         id="stop156" />
    </linearGradient>
    <radialGradient
       id="e"
       cx="227.494"
       cy="59.804"
       fx="227.494"
       fy="59.804"
       r="33.605"
       gradientTransform="matrix(1.1643019,7.1751266,-7.1751266,1.1643019,56.764301,-3472.5387)"
       gradientUnits="userSpaceOnUse">
      <stop
         offset="0"
         stop-color="#f9d05a"
         id="stop159" />
      <stop
         offset=".108"
         stop-color="#f8ca58"
         id="stop161" />
      <stop
         offset=".249"
         stop-color="#f5b954"
         id="stop163" />
      <stop
         offset=".409"
         stop-color="#f09e4e"
         id="stop165" />
      <stop
         offset=".582"
         stop-color="#ea7845"
         id="stop167" />
      <stop
         offset=".767"
         stop-color="#e2483a"
         id="stop169" />
      <stop
         offset=".958"
         stop-color="#d90d2c"
         id="stop171" />
      <stop
         offset="1"
         stop-color="#d70029"
         id="stop173" />
    </radialGradient>
    <linearGradient
       id="f"
       x1="295.359"
       y1="188.796"
       x2="177.434"
       y2="133.807"
       xlink:href="#d"
       gradientTransform="matrix(7.2689782,0,0,7.2689782,-3288.1635,-319.7723)" />
    <linearGradient
       id="g"
       x1="129.648"
       y1="102.614"
       x2="-89.305"
       y2="415.311"
       xlink:href="#d"
       gradientTransform="matrix(7.2689782,0,0,7.2689782,-3288.1635,-319.7723)" />
    <linearGradient
       inkscape:collect="always"
       xlink:href="#d"
       id="linearGradient229"
       gradientUnits="userSpaceOnUse"
       x1="324.628"
       y1="26.2"
       x2="234.355"
       y2="155.124"
       gradientTransform="matrix(7.2689782,0,0,7.2689782,-3288.1635,-319.7723)" />
  </defs>
  <sodipodi:namedview
     pagecolor="#ffffff"
     bordercolor="#666666"
     borderopacity="1"
     objecttolerance="10"
     gridtolerance="10"
     guidetolerance="10"
     inkscape:pageopacity="0"
     inkscape:pageshadow="2"
     inkscape:window-width="3357"
     inkscape:window-height="2054"
     id="namedview871"
     showgrid="false"
     inkscape:zoom="7.884375"
     inkscape:cx="160.15268"
     inkscape:cy="11.464204"
     inkscape:window-x="2509"
     inkscape:window-y="-11"
     inkscape:window-maximized="1"
     inkscape:current-layer="svg869"
     inkscape:document-rotation="0" />
  <style
     type="text/css"
     id="style108">
	.st0{fill:#D2051E;}
	.st1{fill:#FFFFFF;}
</style>
  <g
     id="c"
     transform="matrix(0.13757091,0,0,0.13757091,26.790913,25)">
    <path
       class="k"
       d="m 282.027,178.926 c 1.979,-2.227 3.117,-3.663 3.299,-3.881 C 349.474,97.996 362.835,0 362.835,0 317.173,92.48 288.459,127.626 252.56,158.573 c -10.518,9.066 -42.155,27.63 -56.994,8.338 -6.274,-8.157 -10.177,-20.8 -11.879,-33.856 -0.232,-1.779 -5.102,46.312 29.647,60.429 31.344,12.733 53.227,-0.043 68.655,-14.516 z"
       id="path180"
       style="fill:url(#linearGradient229)" />
    <circle
       class="i"
       cx="237.097"
       cy="69.588997"
       r="23.83"
       transform="rotate(-80.783,237.0959,69.589773)"
       id="circle182"
       style="fill:url(#e)" />
    <path
       class="l"
       d="m 155.318,84.43 c -3.805,21.166 -7.958,54.352 -2.555,78.905 0,0 9.112,53.013 53.263,54.687 36.614,1.39 66.297,-28.195 75.977,-39.072 -34.86,26.222 -69.948,19.023 -87.533,-11.873 -6.028,-10.592 -9.226,-22.209 -10.71,-33.458 -0.535,-3.95 -0.868,-7.943 -1.002,-11.867 -0.068,-1.986 -0.091,-3.955 -0.075,-5.896 0.047,-9.381 0.992,-17.85 2.03,-24.394 0.326,-2.056 4.598,-27.757 -3.351,-31.06 -13.585,-5.643 -23.816,11.629 -26.045,24.027 z"
       id="path184"
       style="fill:url(#f)" />
    <path
       class="j"
       d="m 184.607,92.159 c 0.401,-2.645 0.825,-4.946 1.196,-6.82 3.836,-19.409 -0.989,-27.093 -4.439,-29.472 -3.144,-2.167 -6.465,-3.182 -9.997,-2.799 -3.664,0.397 -7.555,2.296 -11.71,5.971 -5.643,4.989 -9.94,12.105 -11.226,14.195 -13.232,21.515 -29.966,48.376 -56.012,74.727 -23.362,23.634 -53.08,47.151 -92.42,64.149 h 105.955 c 0,0 29.299,-41.817 47.421,-82.176 11.669,-25.987 22.928,-53.247 27.599,-56.157 1.496,-0.932 3.189,-0.745 3.895,1.147 0.759,2.034 0.897,8.924 -0.263,17.234"
       id="path186"
       style="fill:url(#g)" />
    <path
       class="h"
       d="m 602.453,148.268 c -15.007,0 -32.255,-3.794 -32.255,-33.337 0,-27.087 17.967,-32.786 33.025,-32.786 h 122.274 v 21.457 H 616.5 c -12.797,0 -14.704,7.383 -14.704,11.8 0,7.687 4.594,11.27 14.466,11.27 h 55.559 l 23.694,0.012 c 15.014,0 32.25,3.786 32.25,33.339 0,27.095 -17.954,32.786 -33.017,32.786 H 572.465 v -21.46 h 108.989 c 12.792,0 14.699,-7.381 14.699,-11.797 0,-7.674 -4.591,-11.254 -14.461,-11.254 h -55.553 l -23.688,-0.031 z"
       id="path188" />
    <path
       class="h"
       d="m 873.673,82.145 c 25.474,0 40.168,11.364 43.677,33.786 v 0 c 1.102,7.105 1.582,13.879 1.582,22.664 0,7.665 -1.286,14.073 -2.709,20.513 -5.023,22.679 -19.388,33.702 -43.925,33.702 H 764.15 c 0,0 -6.1,-0.089 -10.532,-0.14 V 82.145 h 120.056 z m -90.414,21.467 v 67.718 h 77.855 c 10.054,0 22.819,-4.543 25.666,-17.34 l -0.053,0.207 c 0.084,-0.303 2.288,-7.716 2.331,-16.975 0.028,-8.433 -1.043,-14.908 -1.089,-15.177 -1.439,-6.106 -4.346,-18.434 -23.049,-18.434 h -81.662 z"
       id="path190" />
    <path
       class="h"
       d="m 512.88,82.145 v 80.502 c 0,0.953 0.134,2.441 -1.24,3.422 -1.503,1.075 -3.737,0.003 -6.153,-1.726 -0.006,-0.004 -0.007,-0.007 -0.015,-0.012 0,0 -82.286,-73.313 -82.545,-73.552 -11.784,-10.85 -20.062,-12.262 -26.031,-12.262 -13.992,0 -23.571,9.051 -23.571,23.407 v 90.886 h 31.461 v -80.502 c 0,-0.953 -0.133,-2.441 1.24,-3.422 1.503,-1.076 3.738,-0.003 6.153,1.727 0.005,0.004 0.007,0.006 0.015,0.011 0,0 82.286,73.314 82.545,73.552 11.783,10.85 20.062,12.263 26.031,12.263 13.991,0 23.57,-9.052 23.57,-23.407 V 82.146 h -31.461 z"
       id="path192" />
  </g>
</svg>
