<?xml version="1.0" encoding="UTF-8" standalone="no"?>
<svg
   xmlns:dc="http://purl.org/dc/elements/1.1/"
   xmlns:cc="http://creativecommons.org/ns#"
   xmlns:rdf="http://www.w3.org/1999/02/22-rdf-syntax-ns#"
   xmlns:svg="http://www.w3.org/2000/svg"
   xmlns="http://www.w3.org/2000/svg"
   xmlns:sodipodi="http://sodipodi.sourceforge.net/DTD/sodipodi-0.dtd"
   xmlns:inkscape="http://www.inkscape.org/namespaces/inkscape"
   width="160"
   height="80"
   viewBox="0 0 160 80"
   fill="none"
   version="1.1"
   id="svg869"
   sodipodi:docname="brand-logo-4.svg"
   inkscape:version="1.0.2-2 (e86c870879, 2021-01-15)">
  <metadata
     id="metadata875">
    <rdf:RDF>
      <cc:Work
         rdf:about="">
        <dc:format>image/svg+xml</dc:format>
        <dc:type
           rdf:resource="http://purl.org/dc/dcmitype/StillImage" />
        <dc:title></dc:title>
      </cc:Work>
    </rdf:RDF>
  </metadata>
  <defs
     id="defs873" />
  <sodipodi:namedview
     pagecolor="#ffffff"
     bordercolor="#666666"
     borderopacity="1"
     objecttolerance="10"
     gridtolerance="10"
     guidetolerance="10"
     inkscape:pageopacity="0"
     inkscape:pageshadow="2"
     inkscape:window-width="3840"
     inkscape:window-height="2054"
     id="namedview871"
     showgrid="false"
     inkscape:zoom="5.575095"
     inkscape:cx="-46.622446"
     inkscape:cy="88.345961"
     inkscape:window-x="2509"
     inkscape:window-y="-11"
     inkscape:window-maximized="1"
     inkscape:current-layer="g157"
     inkscape:document-rotation="0"
     showguides="false" />
  <style
     type="text/css"
     id="style110">
	.st0{fill:#FF7900;}
	.st1{fill-rule:evenodd;clip-rule:evenodd;fill:#FFFFFF;}
</style>
  <style
     type="text/css"
     id="style10">
	.st0{fill:#FF7900;}
	.st1{fill-rule:evenodd;clip-rule:evenodd;fill:#FFFFFF;}
</style>
  <g
     id="g157"
     transform="matrix(0.23564317,0,0,0.23564317,5.0408365,-34.662226)">
    <path
       class="st0"
       d="m 205.3,253.2 c 7,0 12.7,2.3 16.9,7 4.3,4.7 6.4,10.7 6.4,18.1 0,7.2 -2.1,13.2 -6.4,17.7 -4.3,4.6 -9.9,6.9 -16.9,6.9 -7,0 -12.7,-2.3 -16.9,-6.9 -4.3,-4.6 -6.4,-10.5 -6.4,-17.7 0,-7.4 2.2,-13.4 6.5,-18.1 4.3,-4.7 10.4,-7.2 16.8,-7 z m -12.9,25.1 c 0,4.8 1.1,8.6 3.4,11.5 2.3,2.9 5.8,4.5 9.5,4.4 3.7,0.2 7.2,-1.4 9.5,-4.3 2.3,-2.9 3.4,-6.7 3.4,-11.6 0,-5.1 -1.1,-9.1 -3.4,-12 -2.3,-2.9 -5.9,-4.5 -9.5,-4.3 -4,0 -7.1,1.4 -9.4,4.3 -2.3,2.9 -3.5,6.9 -3.5,12 z m 62.5,-11.8 c 0.8,0 1.5,0.1 2.1,0.3 v 8.8 c -1.1,-0.2 -2.3,-0.3 -3.4,-0.3 -6.2,0 -9.3,3.7 -9.3,11.1 v 15.5 h -9.4 v -34.4 h 9 v 6.4 h 0.1 c 0.9,-2.2 2.4,-4 4.4,-5.3 1.9,-1.4 4.2,-2.1 6.5,-2.1 z m 20.6,0 c 10,0 15,3.3 15,9.8 v 18.2 c 0,3.4 0.4,5.8 1.2,7.3 h -9.6 c -0.4,-1.1 -0.6,-2.2 -0.7,-3.4 -2.8,2.8 -6.7,4.3 -11.6,4.3 -3.6,0 -6.4,-0.9 -8.6,-2.7 -2.1,-1.9 -3.3,-4.7 -3.2,-7.6 -0.2,-2.8 0.9,-5.5 3,-7.3 2.1,-1.8 5.8,-3 11.1,-3.4 3.8,-0.4 6.2,-0.9 7.3,-1.5 1,-0.6 1.5,-1.5 1.5,-2.7 0,-1.6 -0.5,-2.7 -1.4,-3.4 -0.9,-0.8 -2.5,-1.1 -4.7,-1.1 -2,0 -3.5,0.4 -4.5,1.2 -1,0.8 -1.6,2.1 -1.8,4 h -9.4 c 0.2,-3.8 1.8,-6.7 4.6,-8.6 3.1,-2.1 7,-3.1 11.8,-3.1 z m -7.9,25.6 c 0,2.9 2,4.4 5.8,4.4 5.1,0 7.6,-2.6 7.6,-7.8 V 285 c -0.7,0.8 -2.7,1.3 -5.7,1.7 -2,0.1 -4,0.7 -5.9,1.6 -1.1,0.8 -1.7,2 -1.8,3.8 z m 50,-25.6 c 4.4,0 7.6,1.1 9.6,3.3 2,2.2 3,5.7 3,10.6 v 21.4 h -9.5 v -19.5 c 0,-2.8 -0.5,-5 -1.4,-6.3 -0.9,-1.4 -2.4,-2.1 -4.7,-2.1 -2.6,0 -4.4,0.8 -5.6,2.3 -1.1,1.5 -1.7,4.1 -1.7,7.7 v 17.9 h -9.4 v -34.4 h 9 v 4.8 h 0.2 c 2.1,-3.7 6.2,-5.9 10.5,-5.7 z m 33.4,0 c 4.7,0 8.2,1.8 10.2,5.5 h 0.1 v -4.6 h 9 v 32.3 c 0,5 -1.5,8.7 -4.6,11.3 -3.1,2.6 -7.5,3.8 -13.2,3.8 -4.4,0 -7.9,-1 -10.7,-3.1 -2.6,-1.8 -4.3,-4.7 -4.5,-7.9 h 9.4 c 0.7,3.1 3.1,4.7 7,4.7 2.4,0 4.3,-0.7 5.6,-2.1 1.3,-1.4 2,-3.5 2,-6.1 v -4.7 h -0.1 c -0.9,1.7 -2.3,3 -4.1,3.9 -1.8,0.9 -3.9,1.4 -6.2,1.4 -4.1,0.2 -8.1,-1.5 -10.8,-4.5 -2.6,-3 -3.9,-7.3 -3.9,-12.8 0,-4.9 1.4,-8.9 4.1,-12.2 2.6,-3.2 6.6,-5 10.7,-4.9 z m -5.3,16.9 c 0,3.2 0.7,5.7 2,7.6 1.4,1.8 3.2,2.8 5.6,2.8 2.5,0 4.4,-0.9 5.9,-2.6 1.5,-1.8 2.2,-4.1 2.2,-7 0,-3.4 -0.7,-6.1 -2.1,-7.8 -1.5,-1.8 -3.7,-2.8 -6,-2.7 -2.4,0 -4.3,0.9 -5.6,2.7 -1.4,2.1 -2.1,4.5 -2,7 z m 48.2,-16.9 c 6.2,-0.2 11.9,3.2 14.6,8.8 1.8,3.6 2.5,7.6 2.1,11.6 h -24.8 c 0.1,2.7 0.8,4.9 2.2,6.4 1.4,1.5 3.4,2.3 6.2,2.3 1.7,0 3.3,-0.4 4.8,-1.3 1.3,-0.7 2.3,-1.8 2.7,-3.2 h 8.3 c -2.4,7.7 -7.8,11.6 -16.1,11.6 -3,0 -6,-0.7 -8.7,-2.1 -2.7,-1.4 -5,-3.5 -6.4,-6.2 -1.6,-3 -2.5,-6.4 -2.4,-9.8 0,-3.5 0.8,-6.7 2.4,-9.6 1.5,-2.7 3.7,-5 6.5,-6.4 2.6,-1.4 5.5,-2.1 8.6,-2.1 z m 7.2,14.4 c -0.2,-2.1 -1.1,-4 -2.5,-5.6 -1.4,-1.2 -3.2,-1.8 -5.1,-1.7 -2.3,0 -4.1,0.7 -5.5,2 -1.4,1.4 -2.2,3.3 -2.3,5.4 h 15.4 z m 0,0"
       id="path12" />
    <path
       d="m 205.3,319.7 c 5.6,0 10.2,1.6 14,4.7 3.7,3.1 6.1,7.6 6.5,12.4 h -10.1 c -0.4,-2.4 -1.6,-4.5 -3.5,-5.9 -1.9,-1.6 -4.4,-2.4 -6.9,-2.4 -4.1,0 -7.2,1.5 -9.5,4.4 -2.3,2.9 -3.4,6.9 -3.4,11.9 0,4.9 1.1,8.7 3.4,11.6 2.3,2.9 5.8,4.5 9.5,4.3 3,0 5.5,-0.9 7.3,-2.7 2,-2.2 3.2,-4.9 3.4,-7.9 h 10.1 c -0.5,6 -2.7,10.8 -6.5,14.2 -4,3.5 -9.1,5.4 -14.4,5.2 -7,0 -12.6,-2.3 -16.9,-6.9 -4.3,-4.6 -6.4,-10.6 -6.4,-17.8 0,-7.4 2.1,-13.4 6.4,-18.1 4.3,-4.6 10,-7 17,-7 z m 33.1,14.3 7.8,23.5 h 0.1 l 7.5,-23.5 h 9.8 l -14.4,38.7 c -0.8,2.4 -2.2,4.4 -4.2,5.9 -1.8,1.2 -4.3,1.9 -7.5,1.9 -1.4,0 -3.3,-0.1 -5.9,-0.3 v -7.8 c 1.7,0.2 3.3,0.3 5,0.3 1.2,0.1 2.3,-0.4 3.1,-1.2 0.7,-0.8 1.1,-1.8 1.1,-3.1 0,-0.7 -0.1,-1.4 -0.4,-2.1 L 228.3,334 Z m 37.9,-13.1 v 17.3 h 0.1 c 1.1,-1.6 2.6,-2.9 4.4,-3.7 1.9,-0.9 4,-1.4 6.5,-1.4 4.2,0 7.6,1.7 10.3,5 2.7,3.4 4,7.7 4,13.1 0,5.4 -1.3,9.7 -3.9,13.1 -2.4,3.3 -6.3,5.2 -10.4,5 -5.6,0 -9.3,-1.8 -11.2,-5.3 H 276 v 4.4 h -9 v -47.5 z m -0.3,30.3 c 0,3.3 0.7,6 2.2,8 1.3,1.9 3.5,3.1 5.9,3 2.4,0 4.3,-1 5.8,-2.9 1.5,-1.9 2.2,-4.6 2.2,-8 0,-3.4 -0.7,-6.1 -2.2,-8.1 -1.3,-1.9 -3.6,-3.1 -6,-3 -2.5,0 -4.4,1 -5.9,3 -1.4,2.4 -2.2,5.2 -2,8 z M 323.4,333 c 6.2,-0.3 11.9,3.2 14.6,8.8 1.8,3.6 2.5,7.6 2.1,11.6 h -24.8 c 0.1,2.8 0.8,4.9 2.2,6.4 1.3,1.5 3.4,2.3 6.2,2.3 1.7,0 3.3,-0.4 4.8,-1.3 1.3,-0.7 2.3,-1.8 2.8,-3.2 h 8.3 c -2.4,7.7 -7.8,11.6 -16.1,11.6 -3,0 -6,-0.7 -8.8,-2.1 -2.7,-1.4 -5,-3.5 -6.4,-6.2 -1.7,-3 -2.5,-6.4 -2.4,-9.9 0,-3.3 0.8,-6.6 2.4,-9.6 1.5,-2.7 3.7,-5 6.4,-6.5 2.7,-1.2 5.7,-1.9 8.7,-1.9 z m 7.3,14.5 c -0.2,-2.1 -1.1,-4 -2.5,-5.6 -1.4,-1.2 -3.2,-1.8 -5.1,-1.7 -2.3,0 -4.1,0.6 -5.5,1.9 -1.4,1.4 -2.2,3.4 -2.3,5.4 z M 365.8,333 c 0.8,0 1.5,0.1 2.1,0.3 v 8.8 c -1,-0.2 -2.2,-0.3 -3.4,-0.3 -6.2,0 -9.3,3.7 -9.3,11.1 v 15.5 h -9.4 V 334 h 9 v 6.4 h 0.1 c 0.9,-2.2 2.4,-4 4.4,-5.3 1.9,-1.4 4.1,-2.1 6.5,-2.1 z m 38.8,-12.1 v 47.5 h -9 V 364 h -0.1 c -2.1,3.5 -5.5,5.3 -10.4,5.3 -4.4,0.2 -8.6,-1.8 -11.3,-5.2 -2.9,-3.8 -4.3,-8.5 -4.1,-13.2 0,-5.3 1.4,-9.5 4.2,-12.8 2.7,-3.3 6.8,-5.1 11,-5 2.1,0 4.1,0.4 5.9,1.3 1.8,0.9 3.3,2.1 4.3,3.8 h 0.1 V 320.9 Z M 379,351.1 c 0,3.2 0.7,5.8 2.2,7.9 1.4,2 3.7,3.2 6.1,3.2 2.7,0 4.7,-1 6.1,-3 1.3,-2 2,-4.7 2,-8.1 0,-3.4 -0.7,-6.1 -2.1,-8 -1.4,-1.9 -3.7,-3 -6.1,-2.9 -2.7,0 -4.7,1 -6.2,3 -1.4,2.3 -2.1,5.1 -2,7.9 z M 427.6,333 c 6.2,-0.2 11.9,3.2 14.6,8.8 1.8,3.6 2.5,7.6 2.1,11.6 h -24.8 c 0.1,2.8 0.8,4.9 2.2,6.4 1.4,1.5 3.4,2.3 6.2,2.3 1.7,0 3.3,-0.4 4.8,-1.3 1.3,-0.7 2.2,-1.8 2.7,-3.2 h 8.3 c -2.4,7.7 -7.8,11.6 -16.1,11.6 -3,0 -6,-0.7 -8.8,-2.1 -2.7,-1.4 -5,-3.5 -6.4,-6.2 -1.6,-3 -2.5,-6.4 -2.4,-9.9 0,-3.3 0.8,-6.6 2.4,-9.6 1.5,-2.7 3.7,-5 6.5,-6.5 2.7,-1.1 5.7,-1.9 8.7,-1.9 z m 7.2,14.5 c -0.2,-2.1 -1.1,-4 -2.4,-5.6 -1.4,-1.2 -3.2,-1.8 -5.1,-1.7 -2.3,0 -4.1,0.6 -5.4,1.9 -1.4,1.4 -2.2,3.4 -2.3,5.4 z m 28.7,-26.6 c 0.8,0 2.5,0.1 5,0.3 v 7 c -1.1,-0.1 -2.3,-0.2 -3.4,-0.2 -1.4,0 -2.3,0.3 -2.9,0.9 -0.6,0.6 -0.8,1.6 -0.8,3.1 v 2 h 6.5 v 6.3 h -6.5 v 28.1 H 452 v -28.1 h -5.6 V 334 h 5.6 v -2.5 c 0,-3.4 1,-6 3,-7.8 2,-1.9 4.8,-2.8 8.5,-2.8 z M 488,333 c 6.2,-0.2 11.9,3.2 14.6,8.8 1.7,3.6 2.5,7.6 2.1,11.6 h -24.8 c 0.1,2.8 0.8,4.9 2.2,6.4 1.4,1.5 3.4,2.3 6.2,2.3 1.7,0 3.3,-0.4 4.7,-1.3 1.3,-0.7 2.3,-1.8 2.8,-3.2 h 8.3 c -2.4,7.7 -7.8,11.6 -16.1,11.6 -3,0 -6,-0.7 -8.8,-2.1 -2.7,-1.4 -5,-3.5 -6.4,-6.2 -1.6,-3 -2.5,-6.4 -2.4,-9.9 0,-3.3 0.8,-6.6 2.4,-9.6 1.5,-2.7 3.7,-5 6.4,-6.5 2.7,-1.1 5.7,-1.9 8.8,-1.9 z m 7.2,14.5 c -0.2,-2.1 -1.1,-4 -2.5,-5.6 -1.4,-1.2 -3.2,-1.8 -5.1,-1.7 -2.3,0 -4.1,0.6 -5.5,1.9 -1.4,1.5 -2.2,3.4 -2.3,5.4 z M 530,333 c 4.4,0 7.6,1.1 9.5,3.3 2,2.2 3,5.7 3,10.6 v 21.4 H 533 v -19.5 c 0,-2.8 -0.5,-4.9 -1.4,-6.3 -0.9,-1.4 -2.5,-2.1 -4.7,-2.1 -2.6,0 -4.4,0.8 -5.6,2.3 -1.1,1.6 -1.7,4.1 -1.7,7.7 v 17.9 h -9.4 V 334 h 9 v 4.8 h 0.2 c 2.2,-3.8 6.3,-6 10.6,-5.8 z m 33.8,0 c 4.6,0 8.2,0.9 10.8,2.8 2.6,1.9 4,4.6 4.4,8.2 h -9 c -0.1,-1.6 -0.7,-2.8 -1.8,-3.5 -1.4,-0.8 -3,-1.2 -4.7,-1.1 -1.4,-0.1 -2.7,0.2 -4,0.8 -0.9,0.6 -1.3,1.3 -1.3,2.4 0,0.8 0.3,1.4 0.9,2 0.6,0.5 1.4,1 2.6,1.4 1.1,0.4 2.5,0.7 3.9,1 4.3,0.8 7.3,1.7 9.1,2.6 1.8,0.9 3.1,2 3.9,3.2 0.8,1.2 1.2,2.7 1.2,4.6 0.2,3.5 -1.4,6.8 -4.2,8.9 -2.8,2.1 -6.7,3.1 -11.5,3.1 -5.1,0 -9,-1.1 -11.8,-3.2 -2.8,-2.1 -4.4,-5.4 -4.4,-8.8 h 9 c 0,1.8 0.7,3.2 2.1,4.2 1.4,1.1 3.1,1.6 5.2,1.6 1.6,0.1 3.1,-0.3 4.4,-1.2 1.2,-0.8 1.8,-1.8 1.8,-3.2 0,-0.9 -0.4,-1.6 -1.1,-2.2 -0.9,-0.7 -2,-1.2 -3.1,-1.5 -1.3,-0.5 -3.4,-1 -6.2,-1.5 -2,-0.4 -4,-1 -5.9,-1.8 -1.6,-0.6 -2.9,-1.6 -4,-3 -0.9,-1.2 -1.4,-2.7 -1.4,-4.5 0,-2.3 0.6,-4.2 1.7,-5.9 1.1,-1.7 2.7,-3 5,-3.8 2.3,-1.1 5.1,-1.6 8.4,-1.6 z m 37.5,0 c 6.2,-0.2 11.9,3.2 14.6,8.8 1.8,3.6 2.5,7.6 2.1,11.6 h -24.8 c 0.1,2.8 0.8,4.9 2.2,6.4 1.4,1.5 3.4,2.3 6.2,2.3 1.7,0 3.3,-0.4 4.8,-1.3 1.3,-0.7 2.3,-1.8 2.7,-3.2 h 8.3 c -2.4,7.7 -7.8,11.6 -16.1,11.6 -3,0 -6,-0.7 -8.7,-2.1 -2.7,-1.4 -5,-3.5 -6.4,-6.2 -1.6,-3 -2.5,-6.4 -2.4,-9.9 0,-3.3 0.8,-6.6 2.4,-9.6 1.5,-2.7 3.7,-5 6.4,-6.5 2.7,-1.2 5.7,-1.9 8.7,-1.9 z m 7.3,14.5 c -0.2,-2.1 -1.1,-4 -2.4,-5.6 -1.4,-1.2 -3.3,-1.8 -5.1,-1.7 -2.3,0 -4.1,0.6 -5.5,1.9 -1.4,1.5 -2.2,3.4 -2.3,5.4 z m 0,0"
       id="path14"
       style="fill:#ff6600" />
    <rect
       x="18.1"
       y="253.2"
       class="st0"
       width="115.1"
       height="115.1"
       id="rect16" />
    <path
       class="st1"
       d="m 120.2,337 h 1.6 v -0.7 h -4.1 v 0.7 h 1.6 v 4.6 h 0.9 z m 7.6,4.6 h 0.9 v -5.3 h -1.3 l -1.6,4 -1.6,-4 h -1.3 v 5.3 h 0.9 v -4.4 0 l 1.7,4.4 h 0.6 l 1.7,-4.4 z m -22.5,8.8 c 0,5.3 2.8,8.3 7.5,8.3 3.3,0 5.7,-1.2 7.1,-3.5 l -3.1,-1.7 c -1,1.4 -2,2 -3.6,2 -2.5,0 -3.7,-1.5 -3.8,-4.6 h 10.7 v -0.4 -0.4 c 0,-5.2 -2.7,-8.1 -7.3,-8.1 -4.6,0 -7.5,3.1 -7.5,8.4 z m 7.5,-5.5 c 2,0 3.2,1.3 3.2,3.4 h -6.5 c 0.2,-2.2 1.4,-3.4 3.3,-3.4 z m -10,12.6 v -15.1 h -3.5 l -0.3,1.8 c -0.3,-0.8 -1.5,-2.1 -4.6,-2.1 -3.4,0 -6.4,3 -6.4,8.3 0,5.4 2.9,8 6.6,8 2.5,0 3.5,-1.1 4.1,-2.3 l 0.1,0.1 v 1.9 c 0,2.5 -1.1,3.5 -3.2,3.5 -2.4,0 -2.8,-0.8 -3,-1.6 l -4.2,0.7 c 0.6,2.7 3.5,4 6.7,4 7.5,-0.2 7.7,-4.6 7.7,-7.2 z m -4,-8 c 0,2.1 -0.3,5.4 -3.5,5.4 -3.1,0 -3.2,-3.2 -3.2,-5.2 0,-3.6 1.7,-4.7 3.2,-4.7 2.2,0 3.5,2.1 3.5,4.5 z m 0,0 m -28.2,-6.7 3.5,-0.5 0.4,1.9 c 1.9,-1.4 3.5,-2.2 5.5,-2.2 3.3,0 5,1.7 5,5.2 v 11.1 H 80.8 V 348 c 0,-2 -0.5,-2.8 -2,-2.8 -1.3,0 -2.5,0.6 -3.9,1.8 v 11.5 h -4.2 v -15.7 z m 0,0 m -12.7,15.8 c 1.9,0 3.7,-0.6 5.3,-1.6 l 0.4,1.4 h 3.7 v -11.6 c 0,-2.9 -2.3,-4.7 -6.5,-4.7 -3,0 -5.3,1 -6.8,3.1 l 2.8,1.6 c 0.9,-1.2 2.4,-1.9 3.9,-1.8 1.6,0 2.5,0.7 2.5,1.8 v 0.9 c -6.8,0.8 -10.1,2.6 -10.1,6.2 0.1,2.7 1.9,4.7 4.8,4.7 z m 1.3,-2.9 c -1.2,0 -1.9,-1 -1.9,-2.1 0,-1.9 1.8,-2.9 5.8,-3.4 v 3.8 c -1.3,1.1 -2.6,1.7 -3.9,1.7 z m 0,0 M 43.1,342.4 h 4 v 1.9 c 1.1,-1.3 2.7,-2.1 4.4,-2.2 h 0.6 v 3.9 h -0.2 c -1.8,0 -3.8,0.3 -4.4,1.7 v 10.6 h -4.3 v -15.9 z m 0,0 m -18.7,8 c 0,5.8 3.7,8.4 7.9,8.4 4.1,0 7.9,-2.6 7.9,-8.4 0,-5.8 -3.8,-8.4 -7.9,-8.4 -4.2,0 -7.9,2.6 -7.9,8.4 z m 4.1,0 c 0,-2 0.6,-4.9 3.7,-4.9 3.1,0 3.7,2.8 3.7,4.9 0,2.1 -0.6,4.9 -3.7,4.9 -3.1,0 -3.7,-2.9 -3.7,-4.9 z m 0,0"
       id="path18" />
  </g>
</svg>
