<svg width="161" height="30" xmlns="http://www.w3.org/2000/svg" xmlns:xlink="http://www.w3.org/1999/xlink" xml:space="preserve" overflow="hidden"><defs><clipPath id="clip0"><rect x="559" y="345" width="161" height="30"/></clipPath></defs><g clip-path="url(#clip0)" transform="translate(-559 -345)"><path d="M559 369.878 580.533 369.878 580.533 374.896 559 374.896Z"/><path d="M559 361.62 580.533 361.62 580.533 366.638 559 366.638Z"/><path d="M559 353.258 580.533 353.258 580.533 358.275 559 358.275Z"/><path d="M588.896 367.056 588.896 345 566.84 345 561.822 350.017 583.878 350.017 583.878 372.073Z"/><path d="M701.056 357.021C699.697 355.976 697.711 355.244 695.725 355.244 690.603 355.244 687.781 360.575 687.781 365.592 687.781 368.31 688.408 372.596 692.798 372.596 693.426 372.596 694.053 372.491 694.575 372.387L695.621 365.174 701.265 365.174 700.116 373.537C697.502 374.582 695.203 375 692.38 375 686.004 375 682.136 371.76 682.136 365.592 682.136 359.112 686.631 352.84 695.516 352.84 697.816 352.84 699.802 353.362 701.788 354.303Z"/><path d="M620.15 353.258 617.119 374.896 622.763 374.896 625.795 353.258Z"/><path d="M606.979 362.666 607.92 355.662 614.924 355.662 615.237 353.258 602.694 353.258 599.662 374.896 612.206 374.896 612.519 372.491 605.62 372.491 606.666 364.756 613.042 364.756 613.356 362.666Z"/><path d="M711.509 362.666 712.45 355.662 719.454 355.662 719.767 353.258 707.224 353.258 704.192 374.896 716.736 374.896 717.049 372.491 710.15 372.491 711.196 364.756 717.572 364.756 717.886 362.666Z"/><path d="M631.648 353.258 628.617 374.896 634.157 374.896 635.621 364.756 641.997 364.756 642.31 362.666 635.934 362.666 636.875 355.662 643.774 355.662 644.192 353.258Z"/><path d="M648.687 353.258 645.655 374.896 651.3 374.896 652.763 364.756 659.14 364.756 659.453 362.666 653.077 362.666 654.018 355.662 660.917 355.662 661.23 353.258Z"/><path d="M666.77 365.906 670.534 359.216 671.997 365.906ZM673.879 374.896 679.21 374.896 674.715 353.362 670.847 353.362 658.617 374.896 661.648 374.896 665.516 367.997 672.415 367.997Z"/></g></svg>