<svg width="124" height="46" viewBox="0 0 124 46" fill="none" xmlns="http://www.w3.org/2000/svg">
<g clip-path="url(#clip0_72_1372)">
<path d="M56.814 14.5182H62.6662C65.9995 14.5182 67.7776 16.3706 67.7776 19.1854C67.8516 20.4447 67.259 21.7042 66.2961 22.445C67.4813 23.2598 68.1479 24.666 68.1479 26.0735C68.1479 28.9623 66.2961 30.8883 62.9627 30.8883H56.7402L56.814 14.5182ZM62.7399 17.5549H59.8522V21.1849H62.7399C63.7029 21.2589 64.593 20.5926 64.667 19.6296C64.667 19.5555 64.667 19.4809 64.667 19.4068C64.7411 18.4438 63.9995 17.629 63.0365 17.5549C62.9625 17.5549 62.814 17.5549 62.7399 17.5549ZM63.1103 27.8515C64.3696 27.8515 65.0374 27.1849 65.0374 25.9997C65.1115 25.0367 64.3699 24.2219 63.4069 24.1478C63.3328 24.1478 63.1844 24.1478 63.1103 24.1478H59.8522V27.7777H63.1103V27.8515Z" fill="#242B3A"/>
<path d="M73.5565 27.5549L72.3702 30.8883H69.1121L74.9628 14.5182H77.9257L83.7779 30.8883H80.5183L79.3334 27.5549H73.5565ZM76.4442 19.2592L74.5924 24.5182H78.2223L76.4442 19.2592Z" fill="#242B3A"/>
<path d="M97.0374 25.4081C96.8892 28.7414 94.7416 31.1112 90.9639 31.1112C87.1861 31.1112 84.8889 28.7411 84.8889 25.1115V20.3704C84.8889 16.7408 87.0379 14.3707 90.9639 14.3707C94.8898 14.3707 96.8892 16.5183 97.0374 20.0739H93.9268C93.8527 18.5183 92.5194 17.3331 90.9639 17.4813C89.4824 17.3331 88.149 18.4448 88.0009 19.9263C88.0009 20.0744 88.0009 20.2223 88.0009 20.3704V25.0377C88.075 26.6673 89.4077 27.9995 91.1114 27.9254C92.5929 27.8513 93.7784 26.8143 94.0006 25.3328L97.0374 25.4081Z" fill="#242B3A"/>
<path d="M102.889 30.8883H99.5562V14.5182H102.889V21.5552L108.296 14.5182H112.296L106.815 21.629L112.889 30.8883H109.037L104.741 24.2968L102.889 26.6666V30.8883Z" fill="#242B3A"/>
<path d="M117.63 21.1849H124V24.2216H117.63V27.8515H124V30.8883H114.592V14.5182H124V17.5549H117.63V21.1849Z" fill="#242B3A"/>
<path d="M45.408 0H0V45.408H45.408V0Z" fill="#FFB500"/>
<path d="M29.0362 22.0746C30.9622 20.6672 32.1473 18.3703 31.9992 15.9259C31.9992 10.9629 28.667 8.07434 22.8152 8.07434H19.1852V13.7775H25.1112V19.7034H19.1852V13.7775H13.5559V36.8894H23.6297C29.4815 36.8894 32.7399 33.9994 32.7399 28.6661C32.814 25.9253 31.4066 23.408 29.0362 22.0746ZM25.4078 31.1111H19.259V24.9624H25.4078V31.1111Z" fill="#242B3B"/>
</g>
<defs>
<clipPath id="clip0_72_1372">
<rect width="124" height="45.4074" fill="white"/>
</clipPath>
</defs>
</svg>
