<?xml version="1.0" encoding="UTF-8" standalone="no"?>
<svg
   xmlns:dc="http://purl.org/dc/elements/1.1/"
   xmlns:cc="http://creativecommons.org/ns#"
   xmlns:rdf="http://www.w3.org/1999/02/22-rdf-syntax-ns#"
   xmlns:svg="http://www.w3.org/2000/svg"
   xmlns="http://www.w3.org/2000/svg"
   xmlns:sodipodi="http://sodipodi.sourceforge.net/DTD/sodipodi-0.dtd"
   xmlns:inkscape="http://www.inkscape.org/namespaces/inkscape"
   width="160"
   height="80"
   viewBox="0 0 160 80"
   fill="none"
   version="1.1"
   id="svg869"
   sodipodi:docname="brand-logo-4.svg"
   inkscape:version="1.0.2-2 (e86c870879, 2021-01-15)"><metadata
   id="metadata875">
  <rdf:RDF>
    <cc:Work
       rdf:about="">
      <dc:format>image/svg+xml</dc:format>
      <dc:type
         rdf:resource="http://purl.org/dc/dcmitype/StillImage" />
      <dc:title></dc:title>
    </cc:Work>
  </rdf:RDF>
</metadata>
<defs
   id="defs873" />
<sodipodi:namedview
   pagecolor="#ffffff"
   bordercolor="#666666"
   borderopacity="1"
   objecttolerance="10"
   gridtolerance="10"
   guidetolerance="10"
   inkscape:pageopacity="0"
   inkscape:pageshadow="2"
   inkscape:window-width="3840"
   inkscape:window-height="2054"
   id="namedview871"
   showgrid="false"
   inkscape:zoom="5.575095"
   inkscape:cx="15.626146"
   inkscape:cy="51.967046"
   inkscape:window-x="2509"
   inkscape:window-y="-11"
   inkscape:window-maximized="1"
   inkscape:current-layer="svg869"
   inkscape:document-rotation="0" />
<style
   type="text/css"
   id="style186">
	.st0{fill:#FF7900;}
	.st1{fill-rule:evenodd;clip-rule:evenodd;fill:#FFFFFF;}
</style>

<style
   type="text/css"
   id="style210">
	.st0{fill:#FF7900;}
	.st1{fill-rule:evenodd;clip-rule:evenodd;fill:#FFFFFF;}
</style>



<g
   id="g236"
   transform="matrix(0.23564317,0,0,0.23564317,261.91771,18.866443)">
  <path
     class="st0"
     d="m -884.80933,26.040139 c 7,0 12.7,2.3 16.9,7 4.3,4.7 6.4,10.7 6.4,18.1 0,7.2 -2.1,13.2 -6.4,17.7 -4.3,4.6 -9.9,6.9 -16.9,6.9 -7,0 -12.7,-2.3 -16.9,-6.9 -4.3,-4.6 -6.4,-10.5 -6.4,-17.7 0,-7.4 2.2,-13.4 6.5,-18.1 4.3,-4.7 10.4,-7.2 16.8,-7 z m -12.9,25.1 c 0,4.8 1.1,8.6 3.4,11.5 2.3,2.9 5.8,4.5 9.5,4.4 3.7,0.2 7.2,-1.4 9.5,-4.3 2.3,-2.9 3.4,-6.7 3.4,-11.6 0,-5.1 -1.1,-9.1 -3.4,-12 -2.3,-2.9 -5.9,-4.5 -9.5,-4.3 -4,0 -7.1,1.4 -9.4,4.3 -2.3,2.9 -3.5,6.9 -3.5,12 z m 62.5,-11.8 c 0.8,0 1.5,0.1 2.1,0.3 v 8.8 c -1.1,-0.2 -2.3,-0.3 -3.4,-0.3 -6.2,0 -9.3,3.7 -9.3,11.1 v 15.5 h -9.4 v -34.4 h 9 v 6.4 h 0.1 c 0.9,-2.2 2.4,-4 4.4,-5.3 1.9,-1.4 4.2,-2.1 6.5,-2.1 z m 20.6,0 c 10,0 15,3.3 15,9.8 v 18.2 c 0,3.4 0.4,5.8 1.2,7.3 h -9.6 c -0.4,-1.1 -0.6,-2.2 -0.7,-3.4 -2.8,2.8 -6.7,4.3 -11.6,4.3 -3.6,0 -6.4,-0.9 -8.6,-2.7 -2.1,-1.9 -3.3,-4.7 -3.2,-7.6 -0.2,-2.8 0.9,-5.5 3,-7.3 2.1,-1.8 5.8,-3 11.1,-3.4 3.8,-0.4 6.2,-0.9 7.3,-1.5 1,-0.6 1.5,-1.5 1.5,-2.7 0,-1.6 -0.5,-2.7 -1.4,-3.4 -0.9,-0.8 -2.5,-1.1 -4.7,-1.1 -2,0 -3.5,0.4 -4.5,1.2 -1,0.8 -1.6,2.1 -1.8,4 h -9.4 c 0.2,-3.8 1.8,-6.7 4.6,-8.6 3.1,-2.1 7,-3.1 11.8,-3.1 z m -7.9,25.6 c 0,2.9 2,4.4 5.8,4.4 5.1,0 7.6,-2.6 7.6,-7.8 v -3.7 c -0.7,0.8 -2.7,1.3 -5.7,1.7 -2,0.1 -4,0.7 -5.9,1.6 -1.1,0.8 -1.7,2 -1.8,3.8 z m 50,-25.6 c 4.4,0 7.6,1.1 9.6,3.3 2,2.2 3,5.7 3,10.6 v 21.4 h -9.5 v -19.5 c 0,-2.8 -0.5,-5 -1.4,-6.3 -0.9,-1.4 -2.4,-2.1 -4.7,-2.1 -2.6,0 -4.4,0.8 -5.6,2.3 -1.1,1.5 -1.7,4.1 -1.7,7.7 v 17.9 h -9.4 v -34.4 h 9 v 4.8 h 0.2 c 2.1,-3.7 6.2,-5.9 10.5,-5.7 z m 33.4,0 c 4.7,0 8.2,1.8 10.2,5.5 h 0.1 v -4.6 h 9 v 32.3 c 0,5 -1.5,8.7 -4.6,11.3 -3.1,2.6 -7.5,3.8 -13.2,3.8 -4.4,0 -7.9,-1 -10.7,-3.1 -2.6,-1.8 -4.3,-4.7 -4.5,-7.9 h 9.4 c 0.7,3.1 3.1,4.7 7,4.7 2.4,0 4.3,-0.7 5.6,-2.1 1.3,-1.4 2,-3.5 2,-6.1 v -4.7 h -0.1 c -0.9,1.7 -2.3,3 -4.1,3.9 -1.8,0.9 -3.9,1.4 -6.2,1.4 -4.1,0.2 -8.1,-1.5 -10.8,-4.5 -2.6,-3 -3.9,-7.3 -3.9,-12.8 0,-4.9 1.4,-8.9 4.1,-12.2 2.6,-3.2 6.6,-5 10.7,-4.9 z m -5.3,16.9 c 0,3.2 0.7,5.7 2,7.6 1.4,1.8 3.2,2.8 5.6,2.8 2.5,0 4.4,-0.9 5.9,-2.6 1.5,-1.8 2.2,-4.1 2.2,-7 0,-3.4 -0.7,-6.1 -2.1,-7.8 -1.5,-1.8 -3.7,-2.8 -6,-2.7 -2.4,0 -4.3,0.9 -5.6,2.7 -1.4,2.1 -2.1,4.5 -2,7 z m 48.2,-16.9 c 6.2,-0.2 11.9,3.2 14.6,8.8 1.8,3.6 2.5,7.6 2.1,11.6 h -24.8 c 0.1,2.7 0.8,4.9 2.2,6.4 1.4,1.5 3.4,2.3 6.2,2.3 1.7,0 3.3,-0.4 4.8,-1.3 1.3,-0.7 2.3,-1.8 2.7,-3.2 h 8.3 c -2.4,7.7 -7.8,11.6 -16.1,11.6 -3,0 -6,-0.7 -8.7,-2.1 -2.7,-1.4 -5,-3.5 -6.4,-6.2 -1.6,-3 -2.5,-6.4 -2.4,-9.8 0,-3.5 0.8,-6.7 2.4,-9.6 1.5,-2.7 3.7,-5 6.5,-6.4 2.6,-1.4 5.5,-2.1 8.6,-2.1 z m 7.2,14.4 c -0.2,-2.1 -1.1,-4 -2.5,-5.6 -1.4,-1.2 -3.2,-1.8 -5.1,-1.7 -2.3,0 -4.1,0.7 -5.5,2 -1.4,1.4 -2.2,3.3 -2.3,5.4 h 15.4 z m 0,0"
     id="path212"
     style="fill:#ff6600" />
  <path
     d="m -884.80933,92.540139 c 5.6,0 10.2,1.6 14,4.7 3.7,3.100001 6.1,7.600001 6.5,12.400001 h -10.1 c -0.4,-2.4 -1.6,-4.5 -3.5,-5.9 -1.9,-1.6 -4.4,-2.4 -6.9,-2.4 -4.1,0 -7.2,1.5 -9.5,4.4 -2.3,2.9 -3.4,6.9 -3.4,11.9 0,4.9 1.1,8.7 3.4,11.6 2.3,2.9 5.8,4.5 9.5,4.3 3,0 5.5,-0.9 7.3,-2.7 2,-2.2 3.2,-4.9 3.4,-7.9 h 10.1 c -0.5,6 -2.7,10.8 -6.5,14.2 -4,3.5 -9.1,5.4 -14.4,5.2 -7,0 -12.6,-2.3 -16.9,-6.9 -4.3,-4.6 -6.4,-10.6 -6.4,-17.8 0,-7.4 2.1,-13.4 6.4,-18.100001 4.3,-4.6 10,-7 17,-7 z m 33.1,14.300001 7.8,23.5 h 0.1 l 7.5,-23.5 h 9.8 l -14.4,38.7 c -0.8,2.4 -2.2,4.4 -4.2,5.9 -1.8,1.2 -4.3,1.9 -7.5,1.9 -1.4,0 -3.3,-0.1 -5.9,-0.3 v -7.8 c 1.7,0.2 3.3,0.3 5,0.3 1.2,0.1 2.3,-0.4 3.1,-1.2 0.7,-0.8 1.1,-1.8 1.1,-3.1 0,-0.7 -0.1,-1.4 -0.4,-2.1 l -12.1,-32.3 z m 37.9,-13.100001 v 17.300001 h 0.1 c 1.1,-1.6 2.6,-2.9 4.4,-3.7 1.9,-0.9 4,-1.4 6.5,-1.4 4.2,0 7.6,1.7 10.3,5 2.7,3.4 4,7.7 4,13.1 0,5.4 -1.3,9.7 -3.9,13.1 -2.4,3.3 -6.3,5.2 -10.4,5 -5.6,0 -9.3,-1.8 -11.2,-5.3 h -0.1 v 4.4 h -9 V 93.740139 Z m -0.3,30.300001 c 0,3.3 0.7,6 2.2,8 1.3,1.9 3.5,3.1 5.9,3 2.4,0 4.3,-1 5.8,-2.9 1.5,-1.9 2.2,-4.6 2.2,-8 0,-3.4 -0.7,-6.1 -2.2,-8.1 -1.3,-1.9 -3.6,-3.1 -6,-3 -2.5,0 -4.4,1 -5.9,3 -1.4,2.4 -2.2,5.2 -2,8 z m 47.4,-18.2 c 6.2,-0.3 11.9,3.2 14.6,8.8 1.8,3.6 2.5,7.6 2.1,11.6 h -24.8 c 0.1,2.8 0.8,4.9 2.2,6.4 1.3,1.5 3.4,2.3 6.2,2.3 1.7,0 3.3,-0.4 4.8,-1.3 1.3,-0.7 2.3,-1.8 2.8,-3.2 h 8.3 c -2.4,7.7 -7.8,11.6 -16.1,11.6 -3,0 -6,-0.7 -8.8,-2.1 -2.7,-1.4 -5,-3.5 -6.4,-6.2 -1.7,-3 -2.5,-6.4 -2.4,-9.9 0,-3.3 0.8,-6.6 2.4,-9.6 1.5,-2.7 3.7,-5 6.4,-6.5 2.7,-1.2 5.7,-1.9 8.7,-1.9 z m 7.3,14.5 c -0.2,-2.1 -1.1,-4 -2.5,-5.6 -1.4,-1.2 -3.2,-1.8 -5.1,-1.7 -2.3,0 -4.1,0.6 -5.5,1.9 -1.4,1.4 -2.2,3.4 -2.3,5.4 z m 35.1,-14.5 c 0.8,0 1.5,0.1 2.1,0.3 v 8.8 c -1,-0.2 -2.2,-0.3 -3.4,-0.3 -6.2,0 -9.3,3.7 -9.3,11.1 v 15.5 h -9.4 v -34.4 h 9 v 6.4 h 0.1 c 0.9,-2.2 2.4,-4 4.4,-5.3 1.9,-1.4 4.1,-2.1 6.5,-2.1 z m 38.8,-12.100001 v 47.500001 h -9 v -4.4 h -0.1 c -2.1,3.5 -5.5,5.3 -10.4,5.3 -4.4,0.2 -8.6,-1.8 -11.3,-5.2 -2.9,-3.8 -4.3,-8.5 -4.1,-13.2 0,-5.3 1.4,-9.5 4.2,-12.8 2.7,-3.3 6.8,-5.1 11,-5 2.1,0 4.1,0.4 5.9,1.3 1.8,0.9 3.3,2.1 4.3,3.8 h 0.1 V 93.740139 Z m -25.6,30.200001 c 0,3.2 0.7,5.8 2.2,7.9 1.4,2 3.7,3.2 6.1,3.2 2.7,0 4.7,-1 6.1,-3 1.3,-2 2,-4.7 2,-8.1 0,-3.4 -0.7,-6.1 -2.1,-8 -1.4,-1.9 -3.7,-3 -6.1,-2.9 -2.7,0 -4.7,1 -6.2,3 -1.4,2.3 -2.1,5.1 -2,7.9 z m 48.6,-18.1 c 6.2,-0.2 11.9,3.2 14.6,8.8 1.8,3.6 2.5,7.6 2.1,11.6 h -24.8 c 0.1,2.8 0.8,4.9 2.2,6.4 1.4,1.5 3.4,2.3 6.2,2.3 1.7,0 3.3,-0.4 4.8,-1.3 1.3,-0.7 2.2,-1.8 2.7,-3.2 h 8.3 c -2.4,7.7 -7.8,11.6 -16.1,11.6 -3,0 -6,-0.7 -8.8,-2.1 -2.7,-1.4 -5,-3.5 -6.4,-6.2 -1.6,-3 -2.5,-6.4 -2.4,-9.9 0,-3.3 0.8,-6.6 2.4,-9.6 1.5,-2.7 3.7,-5 6.5,-6.5 2.7,-1.1 5.7,-1.9 8.7,-1.9 z m 7.2,14.5 c -0.2,-2.1 -1.1,-4 -2.4,-5.6 -1.4,-1.2 -3.2,-1.8 -5.1,-1.7 -2.3,0 -4.1,0.6 -5.4,1.9 -1.4,1.4 -2.2,3.4 -2.3,5.4 z m 28.7,-26.600001 c 0.8,0 2.5,0.1 5,0.3 v 7.000001 c -1.1,-0.1 -2.3,-0.2 -3.4,-0.2 -1.4,0 -2.3,0.3 -2.9,0.9 -0.6,0.6 -0.8,1.6 -0.8,3.1 v 2 h 6.5 v 6.3 h -6.5 v 28.1 h -9.4 v -28.1 h -5.6 v -6.3 h 5.6 v -2.5 c 0,-3.4 1,-6.000001 3,-7.800001 2,-1.9 4.8,-2.8 8.5,-2.8 z m 24.5,12.100001 c 6.2,-0.2 11.9,3.2 14.6,8.8 1.7,3.6 2.5,7.6 2.1,11.6 h -24.8 c 0.1,2.8 0.8,4.9 2.2,6.4 1.4,1.5 3.4,2.3 6.2,2.3 1.7,0 3.3,-0.4 4.7,-1.3 1.3,-0.7 2.3,-1.8 2.8,-3.2 h 8.3 c -2.4,7.7 -7.8,11.6 -16.1,11.6 -3,0 -6,-0.7 -8.8,-2.1 -2.7,-1.4 -5,-3.5 -6.4,-6.2 -1.6,-3 -2.5,-6.4 -2.4,-9.9 0,-3.3 0.8,-6.6 2.4,-9.6 1.5,-2.7 3.7,-5 6.4,-6.5 2.7,-1.1 5.7,-1.9 8.8,-1.9 z m 7.2,14.5 c -0.2,-2.1 -1.1,-4 -2.5,-5.6 -1.4,-1.2 -3.2,-1.8 -5.1,-1.7 -2.3,0 -4.1,0.6 -5.5,1.9 -1.4,1.5 -2.2,3.4 -2.3,5.4 z m 34.8,-14.5 c 4.4,0 7.6,1.1 9.5,3.3 2,2.2 3,5.7 3,10.6 v 21.4 h -9.5 v -19.5 c 0,-2.8 -0.5,-4.9 -1.4,-6.3 -0.9,-1.4 -2.5,-2.1 -4.7,-2.1 -2.6,0 -4.4,0.8 -5.6,2.3 -1.1,1.6 -1.7,4.1 -1.7,7.7 v 17.9 h -9.4 v -34.3 h 9 v 4.8 h 0.2 c 2.2,-3.8 6.3,-6 10.6,-5.8 z m 33.8,0 c 4.6,0 8.2,0.9 10.8,2.8 2.6,1.9 4,4.6 4.4,8.2 h -9 c -0.1,-1.6 -0.7,-2.8 -1.8,-3.5 -1.4,-0.8 -3,-1.2 -4.7,-1.1 -1.4,-0.1 -2.7,0.2 -4,0.8 -0.9,0.6 -1.3,1.3 -1.3,2.4 0,0.8 0.3,1.4 0.9,2 0.6,0.5 1.4,1 2.6,1.4 1.1,0.4 2.5,0.7 3.9,1 4.3,0.8 7.3,1.7 9.1,2.6 1.8,0.9 3.1,2 3.9,3.2 0.8,1.2 1.2,2.7 1.2,4.6 0.2,3.5 -1.4,6.8 -4.2,8.9 -2.8,2.1 -6.7,3.1 -11.5,3.1 -5.1,0 -9,-1.1 -11.8,-3.2 -2.8,-2.1 -4.4,-5.4 -4.4,-8.8 h 9 c 0,1.8 0.7,3.2 2.1,4.2 1.4,1.1 3.1,1.6 5.2,1.6 1.6,0.1 3.1,-0.3 4.4,-1.2 1.2,-0.8 1.8,-1.8 1.8,-3.2 0,-0.9 -0.4,-1.6 -1.1,-2.2 -0.9,-0.7 -2,-1.2 -3.1,-1.5 -1.3,-0.5 -3.4,-1 -6.2,-1.5 -2,-0.4 -4,-1 -5.9,-1.8 -1.6,-0.6 -2.9,-1.6 -4,-3 -0.9,-1.2 -1.4,-2.7 -1.4,-4.5 0,-2.3 0.6,-4.2 1.7,-5.9 1.1,-1.7 2.7,-3 5,-3.8 2.3,-1.1 5.1,-1.6 8.4,-1.6 z m 37.5,0 c 6.2,-0.2 11.9,3.2 14.6,8.8 1.8,3.6 2.5,7.6 2.1,11.6 h -24.8 c 0.1,2.8 0.8,4.9 2.2,6.4 1.4,1.5 3.4,2.3 6.2,2.3 1.7,0 3.3,-0.4 4.8,-1.3 1.3,-0.7 2.3,-1.8 2.7,-3.2 h 8.3 c -2.4,7.7 -7.8,11.6 -16.1,11.6 -3,0 -6,-0.7 -8.7,-2.1 -2.7,-1.4 -5,-3.5 -6.4,-6.2 -1.6,-3 -2.5,-6.4 -2.4,-9.9 0,-3.3 0.8,-6.6 2.4,-9.6 1.5,-2.7 3.7,-5 6.4,-6.5 2.7,-1.2 5.7,-1.9 8.7,-1.9 z m 7.3,14.5 c -0.2,-2.1 -1.1,-4 -2.4,-5.6 -1.4,-1.2 -3.3,-1.8 -5.1,-1.7 -2.3,0 -4.1,0.6 -5.5,1.9 -1.4,1.5 -2.2,3.4 -2.3,5.4 z m 0,0"
     id="path214"
     style="fill:#ff6600" />
  <path
     id="rect216"
     style="fill:#ff6600"
     d="M -1072.0098,26.041016 V 141.14062 h 115.09964 V 26.041016 Z m 99.59964,83.099604 h 4.10157 v 0.69922 h -1.60157 v 4.59961 h -0.89843 v -4.59961 h -1.60157 z m 5.20118,0 h 1.29882 l 1.60157,4 1.59961,-4 h 1.29882 v 5.29883 h -0.89843 v -4.39843 l -1.70118,4.39843 h -0.59961 l -1.69921,-4.39843 v 4.39843 h -0.90039 z m -90.59962,5.69922 c 4.1,0 7.8984,2.60039 7.8984,8.40039 0,5.8 -3.7984,8.40039 -7.8984,8.40039 -4.2,0 -7.9004,-2.60039 -7.9004,-8.40039 0,-5.8 3.7004,-8.40039 7.9004,-8.40039 z m 47.6992,0 c 3.3,0 5,1.70118 5,5.20118 v 11.0996 h -4.1992 v -10.30078 c 0,-2 -0.5,-2.79882 -2,-2.79882 -1.3,0 -2.5004,0.59882 -3.9004,1.79882 v 11.5 h -4.2012 v -15.69922 h -0.1 l 3.5,-0.5 0.4004,1.9004 c 1.9,-1.4 3.5,-2.20118 5.5,-2.20118 z m 32.80081,0 c 4.6,0 7.29882,2.89961 7.29882,8.09961 v 0.40039 0.40039 h -10.69921 c 0.1,3.1 1.29882,4.59961 3.79882,4.59961 1.6,0 2.60157,-0.6 3.60157,-2 l 3.09961,1.70118 c -1.4,2.3 -3.79961,3.5 -7.09961,3.5 -4.7,0 -7.5,-3.00079 -7.5,-8.30079 0,-5.3 2.9,-8.40039 7.5,-8.40039 z m -61.30081,0.0996 h 0.5996 v 3.90039 h -0.1992 c -1.8,0 -3.8004,0.30118 -4.4004,1.70118 v 10.5996 h -4.3008 v -15.90039 h 3.9004 v 1.90039 c 1.1,-1.29999 2.7004,-2.10117 4.4004,-2.20117 z m 9.3008,0 c 4.2,0 6.5,1.80117 6.5,4.70117 v 11.59961 h -3.7012 l -0.4004,-1.40039 c -1.6,1 -3.3988,1.59961 -5.2988,1.59961 -2.9,0 -4.7008,-1.99922 -4.8008,-4.69922 0,-3.6 3.2996,-5.39921 10.0996,-6.19921 v -0.9004 c 0,-1.1 -0.9,-1.80078 -2.5,-1.80078 -1.5,-0.1 -2.9984,0.60078 -3.8984,1.80078 l -2.8008,-1.5996 c 1.5,-2.1 3.8008,-3.10157 6.8008,-3.10157 z m 33.59962,0 c 3.1,0 4.29961,1.30157 4.5996,2.10157 l 0.30079,-1.80079 h 3.5 v 15.09961 c 0,2.6 -0.20118,7.00118 -7.70118,7.20118 -3.2,0 -6.09923,-1.3 -6.69923,-4 l 4.19923,-0.70118 c 0.2,0.8 0.6,1.59961 3,1.59961 2.1,0 3.20118,-1 3.20118,-3.5 v -1.89843 l -0.10157,-0.10157 c -0.6,1.2 -1.59961,2.30078 -4.09961,2.30078 -3.7,0 -6.59963,-2.6 -6.59963,-8 0,-5.3 3.00042,-8.30078 6.40042,-8.30078 z m 18.40039,2.80078 c -1.9,0 -3.10078,1.20039 -3.30079,3.40039 h 6.5 c 10e-6,-2.1 -1.19921,-3.40039 -3.19921,-3.40039 z m -17.5,0.0996 c -1.5,0 -3.20118,1.10118 -3.20118,4.70118 0,2 0.10118,5.19921 3.20118,5.19921 3.2,0 3.5,-3.30039 3.5,-5.40039 0,-2.4 -1.3,-4.5 -3.5,-4.5 z m -63.10161,0.5 c -3.1,0 -3.6992,2.90039 -3.6992,4.90039 0,2 0.5992,4.90039 3.6992,4.90039 3.1,0 3.7012,-2.80039 3.7012,-4.90039 0,-2.1 -0.6012,-4.90039 -3.7012,-4.90039 z m 30.9004,4.70118 c -4,0.5 -5.7988,1.49843 -5.7988,3.39843 0,1.1 0.6984,2.10157 1.8984,2.10157 1.3,0 2.6004,-0.60118 3.9004,-1.70118 z" />
</g>


</svg>
