<?xml version="1.0" encoding="UTF-8" standalone="no"?>
<svg
   xmlns:dc="http://purl.org/dc/elements/1.1/"
   xmlns:cc="http://creativecommons.org/ns#"
   xmlns:rdf="http://www.w3.org/1999/02/22-rdf-syntax-ns#"
   xmlns:svg="http://www.w3.org/2000/svg"
   xmlns="http://www.w3.org/2000/svg"
   xmlns:sodipodi="http://sodipodi.sourceforge.net/DTD/sodipodi-0.dtd"
   xmlns:inkscape="http://www.inkscape.org/namespaces/inkscape"
   width="140"
   height="80"
   viewBox="0 0 140 80"
   fill="none"
   version="1.1"
   id="svg869"
   sodipodi:docname="brand-logo-10.svg"
   inkscape:version="1.0.2-2 (e86c870879, 2021-01-15)">
  <metadata
     id="metadata875">
    <rdf:RDF>
      <cc:Work
         rdf:about="">
        <dc:format>image/svg+xml</dc:format>
        <dc:type
           rdf:resource="http://purl.org/dc/dcmitype/StillImage" />
        <dc:title></dc:title>
      </cc:Work>
    </rdf:RDF>
  </metadata>
  <defs
     id="defs873" />
  <sodipodi:namedview
     pagecolor="#ffffff"
     bordercolor="#666666"
     borderopacity="1"
     objecttolerance="10"
     gridtolerance="10"
     guidetolerance="10"
     inkscape:pageopacity="0"
     inkscape:pageshadow="2"
     inkscape:window-width="3840"
     inkscape:window-height="2054"
     id="namedview871"
     showgrid="false"
     inkscape:zoom="11.15019"
     inkscape:cx="112.05663"
     inkscape:cy="33.67686"
     inkscape:window-x="2509"
     inkscape:window-y="-11"
     inkscape:window-maximized="1"
     inkscape:current-layer="svg869"
     inkscape:document-rotation="0" />
  <style
     type="text/css"
     id="style2448">
	.st0{fill:#00A896;}
	.st1{fill:#29327B;}
</style>
  <g
     id="g2608"
     transform="matrix(0.29013538,0,0,0.31914894,26.363639,15.388298)"
     style="fill:#94a3b8;fill-opacity:1">
    <g
       id="g2484"
       style="fill:#94a3b8;fill-opacity:1">
      <g
         id="g2482"
         style="fill:#94a3b8;fill-opacity:1">
        <path
           class="st0"
           d="m 97,124.4 c -1.1,0.6 -2.7,0.9 -3.9,0.9 h -2.7 v 7 c -0.5,0.1 -0.9,0.1 -1.4,0.1 -0.5,0 -0.9,-0.1 -1.3,-0.1 v -18.5 c 0.9,-0.1 3.5,-0.1 5.2,-0.1 4,0 6.7,1.2 6.7,5.6 0,2.1 -0.9,4.1 -2.6,5.1 z m -4.1,-8.6 c -0.7,0 -2.1,0.1 -2.5,0.1 v 7.3 h 2.4 c 2.2,0 4,-0.7 4,-3.8 0,-2.8 -1.6,-3.6 -3.9,-3.6 z"
           id="path2450"
           style="fill:#94a3b8;fill-opacity:1" />
        <path
           class="st0"
           d="m 109.6,119.9 c -1.4,0.1 -3,0.6 -4.3,1.5 v 10.9 c -0.4,0.1 -0.9,0.1 -1.3,0.1 -0.4,0 -0.9,0 -1.3,-0.1 V 118 c 0.3,-0.1 0.7,-0.1 1,-0.1 0.3,0 0.7,0.1 1.1,0.1 l 0.2,1.6 v 0 c 1.2,-1.1 2.9,-1.9 4.6,-1.9 0.1,0.3 0.1,0.5 0.1,1.1 0,0.4 0,0.7 -0.1,1.1 z"
           id="path2452"
           style="fill:#94a3b8;fill-opacity:1" />
        <path
           class="st0"
           d="m 117,132.5 c -3.9,0 -6.3,-2.5 -6.3,-7.4 0,-4.9 2.5,-7.4 6.3,-7.4 3.9,0 6.3,2.6 6.3,7.4 0,4.9 -2.5,7.4 -6.3,7.4 z m 0,-12.8 c -2.4,0 -3.7,1.6 -3.7,5.5 0,3.8 1.3,5.4 3.7,5.4 2.4,0 3.7,-1.6 3.7,-5.4 -0.1,-3.9 -1.3,-5.5 -3.7,-5.5 z"
           id="path2454"
           style="fill:#94a3b8;fill-opacity:1" />
        <path
           class="st0"
           d="m 137.3,129.8 c 0,2.3 -0.1,4.4 -1.1,6.2 -1.2,2 -3.6,3 -5.8,3 -1.2,0 -2.2,-0.1 -3.4,-0.5 -0.1,-0.3 -0.1,-0.6 -0.1,-0.9 0,-0.3 0,-0.6 0.1,-0.9 1,0.3 2.1,0.4 3,0.4 3.4,0 4.8,-2 4.8,-5.5 V 131 c -0.8,0.8 -2.1,1.4 -3.7,1.4 -3.7,0 -5.7,-2.8 -5.7,-6.9 0,-4.8 2.8,-7.8 7.3,-7.8 1.7,0 3.6,0.4 4.7,0.9 v 11.2 z m -2.6,-9.9 c -0.6,-0.2 -1.5,-0.2 -2.3,-0.2 -3.1,0 -4.5,2.7 -4.5,5.8 0,3 1,4.9 3.4,4.9 1.2,0 2.4,-0.4 3.4,-1.3 z"
           id="path2456"
           style="fill:#94a3b8;fill-opacity:1" />
        <path
           class="st0"
           d="m 147.8,119.9 c -1.4,0.1 -3,0.6 -4.3,1.5 v 10.9 c -0.4,0.1 -0.9,0.1 -1.3,0.1 -0.4,0 -0.9,0 -1.3,-0.1 V 118 c 0.3,-0.1 0.7,-0.1 1,-0.1 0.3,0 0.7,0.1 1.1,0.1 l 0.2,1.6 v 0 c 1.2,-1.1 2.9,-1.9 4.6,-1.9 0.1,0.3 0.1,0.5 0.1,1.1 0,0.4 0,0.7 -0.1,1.1 z"
           id="path2458"
           style="fill:#94a3b8;fill-opacity:1" />
        <path
           class="st0"
           d="m 155.7,132.5 c -2.1,0 -3.8,-0.7 -4.9,-1.8 -1.3,-1.3 -1.9,-3.3 -1.9,-5.5 0,-3.8 2.1,-7.5 6.4,-7.5 3.9,0 5.4,3.1 5.4,6.6 0,0.5 0,1 -0.1,1.6 h -9.1 c 0.1,1.2 0.5,2.6 1.4,3.5 0.8,0.8 2.1,1.2 3.3,1.2 1.2,0 2.5,-0.1 3.6,-0.4 0.1,0.2 0.1,0.5 0.1,0.8 0,0.3 0,0.6 -0.1,0.9 -1.4,0.6 -2.7,0.6 -4.1,0.6 z M 158,124 c 0,-2 -0.3,-4.2 -2.9,-4.2 -2.4,0 -3.5,2.1 -3.6,4.2 z"
           id="path2460"
           style="fill:#94a3b8;fill-opacity:1" />
        <path
           class="st0"
           d="m 166.9,132.5 c -1.4,0 -3.1,-0.2 -4.1,-0.6 -0.1,-0.3 -0.1,-0.6 -0.1,-1 0,-0.3 0,-0.7 0.1,-1 1.1,0.4 2.7,0.7 3.9,0.7 1.7,0 3,-0.6 3,-2.2 0,-1.3 -0.8,-1.8 -2.8,-2.6 -2.7,-1 -4.2,-2.1 -4.2,-4.3 0,-2.8 2.5,-3.9 5,-3.9 1.1,0 2.5,0.2 3.3,0.5 0.1,0.3 0.1,0.5 0.1,0.8 0,0.3 -0.1,0.7 -0.1,1 -0.9,-0.2 -2.2,-0.5 -3.1,-0.5 -1.4,0 -2.7,0.4 -2.7,1.9 0,1.2 1.1,1.7 2.8,2.4 2.5,1 4.2,1.7 4.2,4.4 0,3.2 -2.5,4.4 -5.3,4.4 z"
           id="path2462"
           style="fill:#94a3b8;fill-opacity:1" />
        <path
           class="st0"
           d="m 178.4,132.5 c -1.4,0 -3.1,-0.2 -4.1,-0.6 -0.1,-0.3 -0.1,-0.6 -0.1,-1 0,-0.3 0,-0.7 0.1,-1 1.1,0.4 2.7,0.7 3.9,0.7 1.7,0 3,-0.6 3,-2.2 0,-1.3 -0.8,-1.8 -2.8,-2.6 -2.7,-1 -4.2,-2.1 -4.2,-4.3 0,-2.8 2.5,-3.9 5,-3.9 1.1,0 2.5,0.2 3.3,0.5 0.1,0.3 0.1,0.5 0.1,0.8 0,0.3 -0.1,0.7 -0.1,1 -0.9,-0.2 -2.2,-0.5 -3.1,-0.5 -1.4,0 -2.7,0.4 -2.7,1.9 0,1.2 1.1,1.7 2.8,2.4 2.5,1 4.2,1.7 4.2,4.4 -0.1,3.2 -2.5,4.4 -5.3,4.4 z"
           id="path2464"
           style="fill:#94a3b8;fill-opacity:1" />
        <path
           class="st0"
           d="m 203.6,132.3 h -10.8 v -18.5 h 10.4 c 0.1,0.3 0.1,0.8 0.1,1.1 0,0.4 0,0.8 -0.1,1.1 h -7.6 v 5.6 h 6.6 c 0.1,0.3 0.1,0.8 0.1,1.1 0,0.4 0,0.8 -0.1,1.1 h -6.6 v 6.2 h 8 c 0.1,0.3 0.1,0.8 0.1,1.1 0.1,0.4 0.1,0.8 -0.1,1.2 z"
           id="path2466"
           style="fill:#94a3b8;fill-opacity:1" />
        <path
           class="st0"
           d="m 218.5,132.3 c -0.4,0.1 -0.8,0.1 -1.2,0.1 -0.5,0 -0.9,-0.1 -1.4,-0.1 v -8.8 c 0,-2.3 -0.5,-3.6 -2.7,-3.6 -1.5,0 -2.9,0.6 -3.9,1.3 v 11.1 c -0.5,0.1 -1,0.1 -1.4,0.1 -0.4,0 -0.8,-0.1 -1.2,-0.1 V 118 c 0.4,-0.1 0.7,-0.1 1,-0.1 0.3,0 0.7,0.1 1,0.1 l 0.2,1.3 v 0 c 1.4,-1.1 3.1,-1.6 4.7,-1.6 1.3,0 2.8,0.4 3.7,1.4 1,1.1 1.1,2.7 1.1,4.1 v 9.1 z"
           id="path2468"
           style="fill:#94a3b8;fill-opacity:1" />
        <path
           class="st0"
           d="m 231.5,132.4 c -0.3,0 -0.8,-0.1 -1.1,-0.1 l -0.2,-1.4 v 0 c -0.9,1.2 -2.5,1.7 -4.2,1.7 -2.7,0 -4.8,-1.6 -4.8,-4.3 0,-4.1 3.5,-5.1 6.8,-5.1 0.3,0 1.5,0 1.9,0.1 V 123 c 0,-2.3 -1,-3.2 -3.3,-3.2 -1.2,0 -3,0.2 -3.9,0.4 -0.1,-0.3 -0.1,-0.6 -0.1,-0.9 0,-0.3 0.1,-0.6 0.1,-0.9 1.2,-0.4 3,-0.7 4.4,-0.7 3.4,0 5.4,1.5 5.4,4.9 v 5.9 c 0,1.1 0,2.6 0,3.7 -0.3,0.2 -0.7,0.2 -1,0.2 z m -1.6,-7.2 c -0.4,-0.1 -1.1,-0.1 -1.8,-0.1 -2.7,0 -4.2,1 -4.2,2.9 0,1.6 1.1,2.5 2.7,2.5 1.2,0 2.7,-0.7 3.3,-1.5 z"
           id="path2470"
           style="fill:#94a3b8;fill-opacity:1" />
        <path
           class="st0"
           d="m 240.7,132.5 c -1.2,0 -3,-0.2 -4.6,-0.8 v -19.4 c 0.4,-0.1 0.8,-0.1 1.3,-0.1 0.5,0 0.9,0 1.3,0.1 v 7 c 1,-0.9 2.4,-1.5 3.9,-1.5 3.7,0 5.6,2.9 5.6,6.8 0,4.8 -2.5,7.9 -7.5,7.9 z m 1.5,-12.7 c -1.4,0 -2.6,0.6 -3.5,1.6 v 8.9 c 0.5,0.2 1.4,0.3 2.1,0.3 3.4,0 4.7,-2.5 4.7,-5.9 0,-3.1 -1.2,-4.9 -3.3,-4.9 z"
           id="path2472"
           style="fill:#94a3b8;fill-opacity:1" />
        <path
           class="st0"
           d="m 253.6,132.3 c -0.5,0.1 -0.9,0.1 -1.4,0.1 -0.4,0 -0.8,-0.1 -1.2,-0.1 v -20 c 0.4,-0.1 0.9,-0.1 1.3,-0.1 0.4,0 0.8,0 1.3,0.1 z"
           id="path2474"
           style="fill:#94a3b8;fill-opacity:1" />
        <path
           class="st0"
           d="m 263.2,132.5 c -2.1,0 -3.8,-0.7 -4.9,-1.8 -1.3,-1.3 -1.9,-3.3 -1.9,-5.5 0,-3.8 2.1,-7.5 6.4,-7.5 3.9,0 5.4,3.1 5.4,6.6 0,0.5 0,1 -0.1,1.6 H 259 c 0.1,1.2 0.5,2.6 1.4,3.5 0.8,0.8 2.1,1.2 3.3,1.2 1.2,0 2.5,-0.1 3.6,-0.4 0.1,0.2 0.1,0.5 0.1,0.8 0,0.3 0,0.6 -0.1,0.9 -1.4,0.6 -2.7,0.6 -4.1,0.6 z m 2.4,-8.5 c 0,-2 -0.3,-4.2 -2.9,-4.2 -2.4,0 -3.5,2.1 -3.6,4.2 z"
           id="path2476"
           style="fill:#94a3b8;fill-opacity:1" />
        <path
           class="st0"
           d="m 277.9,119.9 c -1.4,0.1 -3,0.6 -4.3,1.5 v 10.9 c -0.4,0.1 -0.9,0.1 -1.3,0.1 -0.4,0 -0.9,0 -1.3,-0.1 V 118 c 0.3,-0.1 0.7,-0.1 1,-0.1 0.3,0 0.7,0.1 1.1,0.1 l 0.2,1.6 v 0 c 1.2,-1.1 2.9,-1.9 4.6,-1.9 0.1,0.3 0.1,0.5 0.1,1.1 0,0.4 0,0.7 -0.1,1.1 z"
           id="path2478"
           style="fill:#94a3b8;fill-opacity:1" />
        <path
           class="st0"
           d="m 283.7,132.5 c -1.4,0 -3.1,-0.2 -4.1,-0.6 -0.1,-0.3 -0.1,-0.6 -0.1,-1 0,-0.3 0,-0.7 0.1,-1 1.1,0.4 2.7,0.7 3.9,0.7 1.7,0 3,-0.6 3,-2.2 0,-1.3 -0.8,-1.8 -2.8,-2.6 -2.7,-1 -4.2,-2.1 -4.2,-4.3 0,-2.8 2.5,-3.9 5,-3.9 1.1,0 2.5,0.2 3.3,0.5 0.1,0.3 0.1,0.5 0.1,0.8 0,0.3 -0.1,0.7 -0.1,1 -0.9,-0.2 -2.2,-0.5 -3.1,-0.5 -1.4,0 -2.7,0.4 -2.7,1.9 0,1.2 1.1,1.7 2.8,2.4 2.5,1 4.2,1.7 4.2,4.4 -0.1,3.2 -2.5,4.4 -5.3,4.4 z"
           id="path2480"
           style="fill:#94a3b8;fill-opacity:1" />
      </g>
    </g>
    <g
       id="g2494"
       style="fill:#94a3b8;fill-opacity:1">
      <path
         class="st1"
         d="m 107.8,103.4 c -15.8,0 -24.2,-11 -24.2,-29.8 0,-18.8 8.4,-29.8 24.2,-29.8 15.8,0 24.2,11 24.2,29.8 0,18.8 -8.3,29.8 -24.2,29.8 z m 0,-49.1 c -7.4,0 -11.6,5.7 -11.6,19.3 0,13.6 4.2,19.3 11.6,19.3 7.4,0 11.6,-5.7 11.6,-19.3 0,-13.7 -4.2,-19.3 -11.6,-19.3 z"
         id="path2486"
         style="fill:#94a3b8;fill-opacity:1" />
      <path
         class="st1"
         d="m 184.8,102.5 c -1.5,0.3 -3.7,0.4 -6.1,0.4 -2.4,0 -4.5,-0.2 -6.2,-0.4 V 75.4 h -20.1 v 27.1 c -1.6,0.3 -3.5,0.4 -6.1,0.4 -2.3,0 -4.5,-0.2 -6.2,-0.4 V 44.6 c 1.6,-0.3 4,-0.4 6.2,-0.4 2.4,0 4.5,0.2 6.1,0.4 v 26 h 20.1 v -26 c 1.9,-0.3 4,-0.4 6.2,-0.4 2.1,0 4.6,0.2 6.1,0.4 z"
         id="path2488"
         style="fill:#94a3b8;fill-opacity:1" />
      <path
         class="st1"
         d="M 230.9,102.5 H 195.4 V 44.6 c 1.6,-0.3 3.9,-0.4 6,-0.4 2.4,0 4.7,0.2 6.3,0.4 v 47.5 h 23.2 c 0.3,0.9 0.6,2.7 0.6,5.1 0,1.9 -0.1,3.5 -0.6,5.3 z"
         id="path2490"
         style="fill:#94a3b8;fill-opacity:1" />
      <path
         class="st1"
         d="m 288.9,102.5 c -1.1,0.3 -3.8,0.4 -6.6,0.4 -2.2,0 -4.8,-0.3 -5.9,-0.4 l -6.1,-17.1 h -16.9 l -5.9,17.1 c -1.9,0.3 -4.1,0.4 -6.3,0.4 -2.2,0 -4.8,-0.2 -6.1,-0.4 l 20.2,-57.9 c 1.2,-0.3 4,-0.4 5.9,-0.4 2.3,0 5.1,0.2 6,0.4 z M 268.4,80.6 263.3,64.2 c -0.6,-1.9 -1.2,-4.3 -1.7,-6.9 h -0.2 c -0.4,2.7 -1.1,5.1 -1.7,6.9 L 255,80.6 Z"
         id="path2492"
         style="fill:#94a3b8;fill-opacity:1" />
    </g>
    <g
       id="g2548"
       style="fill:#94a3b8;fill-opacity:1">
      <polygon
         class="st0"
         points="62.9,132.5 62.8,131.1 25,131.1 24.7,132.5 "
         id="polygon2496"
         style="fill:#94a3b8;fill-opacity:1" />
      <polygon
         class="st0"
         points="27.1,123 26.7,124.4 62.3,125.6 62.1,124.2 "
         id="polygon2498"
         style="fill:#94a3b8;fill-opacity:1" />
      <polygon
         class="st0"
         points="29.2,114.9 28.8,116.3 61.6,118.6 61.5,117.2 "
         id="polygon2500"
         style="fill:#94a3b8;fill-opacity:1" />
      <polygon
         class="st0"
         points="31.2,106.9 30.8,108.3 60.9,111.6 60.8,110.1 "
         id="polygon2502"
         style="fill:#94a3b8;fill-opacity:1" />
      <polygon
         class="st0"
         points="33.2,98.9 32.9,100.3 60.3,104.5 60.1,103 "
         id="polygon2504"
         style="fill:#94a3b8;fill-opacity:1" />
      <polygon
         class="st0"
         points="35.2,91 34.9,92.4 59.6,97.2 59.5,95.7 "
         id="polygon2506"
         style="fill:#94a3b8;fill-opacity:1" />
      <polygon
         class="st0"
         points="37.2,83.2 36.9,84.6 58.9,89.9 58.8,88.4 "
         id="polygon2508"
         style="fill:#94a3b8;fill-opacity:1" />
      <path
         class="st0"
         d="M 58.2,82.5 58.1,81 39.3,75.6 C 39.2,76.1 39,76.5 38.9,77 Z"
         id="path2510"
         style="fill:#94a3b8;fill-opacity:1" />
      <path
         class="st0"
         d="M 57.5,75 57.4,73.4 41.1,67.8 c -0.1,0.5 -0.2,1 -0.3,1.4 z"
         id="path2512"
         style="fill:#94a3b8;fill-opacity:1" />
      <path
         class="st0"
         d="M 56.8,67.3 56.6,65.7 42.5,60.1 c -0.1,0.5 -0.2,1 -0.2,1.5 z"
         id="path2514"
         style="fill:#94a3b8;fill-opacity:1" />
      <path
         class="st0"
         d="M 56.1,59.5 55.9,57.8 43.6,52.1 c -0.1,0.5 -0.1,1 -0.2,1.5 z"
         id="path2516"
         style="fill:#94a3b8;fill-opacity:1" />
      <path
         class="st0"
         d="M 55.3,51.5 55.1,49.8 44.3,44.1 c 0,0.5 -0.1,1.1 -0.1,1.6 z"
         id="path2518"
         style="fill:#94a3b8;fill-opacity:1" />
      <path
         class="st1"
         d="m 12.1,107.7 h 0.2 c 0.6,-0.3 2.7,-1.4 5.4,-3.7 h -5.6 z"
         id="path2520"
         style="fill:#94a3b8;fill-opacity:1" />
      <path
         class="st1"
         d="m 12.1,97.4 v 3.7 c 2.1,-0.1 4.4,-0.2 6.9,-0.3 0.7,0 1.5,-0.1 2.2,-0.1 1,-1.1 2.1,-2.4 3.2,-3.8 -2.4,0.1 -4.9,0.2 -7.3,0.3 -1.8,0 -3.5,0.1 -5,0.2 z"
         id="path2522"
         style="fill:#94a3b8;fill-opacity:1" />
      <path
         class="st1"
         d="m 12,90.6 v 3.7 c 1.9,-0.2 4,-0.4 6.3,-0.6 2.9,-0.3 5.8,-0.5 8.5,-0.7 0.8,-1.2 1.5,-2.5 2.3,-3.9 -4.1,0.3 -8.6,0.6 -13,1 -1.4,0.3 -2.7,0.4 -4.1,0.5 z"
         id="path2524"
         style="fill:#94a3b8;fill-opacity:1" />
      <path
         class="st1"
         d="m 12,83.8 v 3.8 c 1.6,-0.3 3.3,-0.5 5.1,-0.8 4.9,-0.7 9.8,-1.2 14.1,-1.6 0.6,-1.2 1.2,-2.5 1.7,-3.9 -5.2,0.5 -11.5,1.1 -17.6,2 -1.1,0.2 -2.2,0.4 -3.3,0.5 z"
         id="path2526"
         style="fill:#94a3b8;fill-opacity:1" />
      <path
         class="st1"
         d="m 12,77 v 3.8 c 1,-0.2 2.1,-0.4 3.2,-0.7 C 22,78.8 29,77.8 34.5,77.2 34.9,76 35.4,74.7 35.8,73.3 30,73.9 22.1,75 14.5,76.5 13.7,76.6 12.8,76.8 12,77 Z"
         id="path2528"
         style="fill:#94a3b8;fill-opacity:1" />
      <path
         class="st1"
         d="m 12,70 v 3.8 c 0.8,-0.2 1.7,-0.5 2.6,-0.7 7.9,-2 16.4,-3.3 22.5,-4 0.3,-1.2 0.7,-2.5 1,-3.8 -6.2,0.6 -15.4,2 -24.4,4.2 -0.6,0.2 -1.2,0.4 -1.7,0.5 z"
         id="path2530"
         style="fill:#94a3b8;fill-opacity:1" />
      <path
         class="st1"
         d="m 11.9,63 v 3.9 c 0.7,-0.2 1.3,-0.4 2,-0.6 8.6,-2.6 18.4,-4.4 25.1,-5.1 0.3,-1.2 0.5,-2.5 0.8,-3.8 -8.2,0.6 -19.5,3 -26.9,5.3 -0.4,0.1 -0.7,0.2 -1,0.3 z"
         id="path2532"
         style="fill:#94a3b8;fill-opacity:1" />
      <path
         class="st1"
         d="m 11.9,55.9 v 4 c 0.5,-0.2 0.9,-0.3 1.4,-0.5 9.5,-3.5 20.2,-5.6 27.2,-6 0.2,-1.2 0.4,-2.5 0.6,-3.8 -7.3,0.4 -18.9,2.5 -29.1,6.3 0,0 0,0 -0.1,0 z"
         id="path2534"
         style="fill:#94a3b8;fill-opacity:1" />
      <path
         class="st1"
         d="m 11.9,52.7 c 0.3,-0.1 0.5,-0.2 0.7,-0.3 10.3,-4.4 21.8,-6.6 29,-7 0.1,-1.2 0.3,-2.5 0.4,-3.7 -7.6,0.3 -19.3,2.4 -30.2,7 z"
         id="path2536"
         style="fill:#94a3b8;fill-opacity:1" />
      <path
         class="st1"
         d="m 11.9,45.5 c 0,0 0.1,0 0.1,-0.1 9.2,-4.5 21.2,-7.6 30.4,-7.9 0.1,-1.2 0.2,-2.5 0.3,-3.7 -8.5,0.1 -20.5,2.7 -30.8,7.6 z"
         id="path2538"
         style="fill:#94a3b8;fill-opacity:1" />
      <path
         class="st1"
         d="M 11.9,38.3 C 21.2,33.2 33,30 43,29.9 c 0.1,-1.2 0.1,-2.5 0.2,-3.7 -10,0.1 -21.7,3.1 -31.3,8 z"
         id="path2540"
         style="fill:#94a3b8;fill-opacity:1" />
      <path
         class="st1"
         d="M 11.8,30.9 C 21,25.4 32.6,22.1 43.2,22 c 0,-1.2 0,-2.5 0.1,-3.7 -10.5,0 -22,3.1 -31.5,8.3 z"
         id="path2542"
         style="fill:#94a3b8;fill-opacity:1" />
      <path
         class="st1"
         d="m 43.3,10.5 c -11,0 -22.2,3.1 -31.5,8.6 v 4.4 c 8.9,-5.8 20.5,-9.2 31.5,-9.2 0,-1.3 0,-2.5 0,-3.8 z"
         id="path2544"
         style="fill:#94a3b8;fill-opacity:1" />
      <path
         class="st1"
         d="M 43.1,2.7 C 31.9,2.8 20.8,5.9 11.8,11.5 v 4.4 C 20.8,9.7 32.2,6.5 43.2,6.4 43.2,5.2 43.1,4 43.1,2.7 Z"
         id="path2546"
         style="fill:#94a3b8;fill-opacity:1" />
    </g>
  </g>
</svg>
