<?xml version="1.0" encoding="UTF-8" standalone="no"?>
<svg
   xmlns:dc="http://purl.org/dc/elements/1.1/"
   xmlns:cc="http://creativecommons.org/ns#"
   xmlns:rdf="http://www.w3.org/1999/02/22-rdf-syntax-ns#"
   xmlns:svg="http://www.w3.org/2000/svg"
   xmlns="http://www.w3.org/2000/svg"
   xmlns:xlink="http://www.w3.org/1999/xlink"
   xmlns:sodipodi="http://sodipodi.sourceforge.net/DTD/sodipodi-0.dtd"
   xmlns:inkscape="http://www.inkscape.org/namespaces/inkscape"
   width="160"
   height="80"
   viewBox="0 0 160 80"
   fill="none"
   version="1.1"
   id="svg1023"
   sodipodi:docname="brand-logo-36.svg"
   inkscape:version="1.0.2-2 (e86c870879, 2021-01-15)">
  <metadata
     id="metadata1029">
    <rdf:RDF>
      <cc:Work
         rdf:about="">
        <dc:format>image/svg+xml</dc:format>
        <dc:type
           rdf:resource="http://purl.org/dc/dcmitype/StillImage" />
        <dc:title></dc:title>
      </cc:Work>
    </rdf:RDF>
  </metadata>
  <defs
     id="defs1027">
    <clipPath
       id="clip0_72_1372">
      <rect
         width="124"
         height="45.4074"
         fill="white"
         id="rect874" />
    </clipPath>
    <polygon
       id="path-1"
       points="0.372606609 0.247365517 29.4701951 0.247365517 29.4701951 36.8286364 0.372606609 36.8286364" />
    <polygon
       id="path-3"
       points="0 0.353631724 4.05170968 0.353631724 4.05170968 5.46854483 0 5.46854483" />
    <polygon
       id="path-1-9"
       points="0.372606609 0.247365517 29.4701951 0.247365517 29.4701951 36.8286364 0.372606609 36.8286364" />
    <polygon
       id="path-3-8"
       points="0 0.353631724 4.05170968 0.353631724 4.05170968 5.46854483 0 5.46854483" />
  </defs>
  <sodipodi:namedview
     pagecolor="#ffffff"
     bordercolor="#666666"
     borderopacity="1"
     objecttolerance="10"
     gridtolerance="10"
     guidetolerance="10"
     inkscape:pageopacity="0"
     inkscape:pageshadow="2"
     inkscape:window-width="1260"
     inkscape:window-height="770"
     id="namedview1025"
     showgrid="false"
     inkscape:zoom="2.7875475"
     inkscape:cx="55.168517"
     inkscape:cy="59.66388"
     inkscape:window-x="-6"
     inkscape:window-y="-6"
     inkscape:window-maximized="1"
     inkscape:current-layer="g895"
     inkscape:document-rotation="0" />
  <mask
     id="mask0_1838_1151"
     style="mask-type:luminance"
     maskUnits="userSpaceOnUse"
     x="18"
     y="27"
     width="124"
     height="26">
    <path
       d="M141.538 27.6923H18.4614V52.6923H141.538V27.6923Z"
       fill="white"
       id="path998" />
  </mask>
  <g
     style="fill:none"
     id="g895"
     transform="matrix(0.65830611,0,0,0.65830611,39.185021,25.054016)">
    <g
       id="logo"
       transform="matrix(0.91331014,0,0,0.91331014,3.6134641,-4.3407425)"
       style="fill:none;fill-rule:evenodd;stroke:none;stroke-width:1">
      <g
         id="Group-27"
         transform="translate(0,0.257462)">
        <path
           d="m 31.529723,26.716334 c -0.429661,0.377106 -1.1421,0.805705 -2.251227,0.805705 -1.322459,0 -2.034898,-0.732 -2.034898,-1.766392 0,-1.072758 0.765398,-1.658358 2.487542,-1.71389 l 1.798583,-0.0525 z m 3.464772,3.072886 c -0.187852,-0.583581 -0.240311,-1.52458 -0.240311,-3.339435 v -4.994764 c 0,-3.319241 -1.877521,-4.604028 -4.972584,-4.604028 -1.665689,0 -3.228458,0.267054 -4.896145,1.3908 l 1.037184,2.006185 c 0.791876,-0.483625 1.849543,-0.938474 3.228457,-0.938474 1.318962,0 2.378627,0.615385 2.378627,2.145517 v 0.314508 l -2.228745,0.08734 c -3.197982,0.09844 -5.235377,1.520036 -5.235377,4.139081 0,2.484761 1.795586,4.063862 4.104768,4.063862 1.661691,0 2.802293,-0.642141 3.620149,-1.394838 l 0.534579,1.124251 z"
           id="Fill-1"
           fill="#1d1d1b" />
        <path
           d="m 42.803347,30.059807 c -4.074292,0 -6.165646,-2.966367 -6.165646,-6.525906 0,-3.85133 2.749835,-6.683412 6.4769,-6.683412 1.695665,0 2.85875,0.431122 3.575685,0.877895 l -0.05096,2.627122 c -0.872313,-0.672935 -1.85354,-1.046002 -3.153017,-1.046002 -2.140315,0 -3.676605,1.715404 -3.676605,4.067396 0,2.16672 1.166581,4.090113 3.652124,4.090113 1.189064,0 2.089854,-0.373573 2.967663,-0.885468 l 0.789878,2.112199 c -1.007706,0.697167 -2.699374,1.366063 -4.416022,1.366063"
           id="Fill-3"
           fill="#1d1d1b" />
        <path
           d="m 54.07692,30.059807 c -4.076291,0 -6.167644,-2.966367 -6.167644,-6.525906 0,-3.85133 2.753832,-6.683412 6.480897,-6.683412 1.691668,0 2.853253,0.431122 3.56919,0.877895 l -0.04996,2.627122 c -0.87631,-0.672935 -1.851542,-1.046002 -3.148021,-1.046002 -2.143812,0 -3.680102,1.715404 -3.680102,4.067396 0,2.16672 1.166581,4.090113 3.648127,4.090113 1.193061,0 2.093851,-0.373573 2.966164,-0.885468 l 0.791377,2.112199 c -1.001711,0.697167 -2.697376,1.366063 -4.410027,1.366063"
           id="Fill-5"
           fill="#1d1d1b" />
        <path
           d="m 62.015519,15.197986 c -1.082148,0 -1.958958,-0.852654 -1.958958,-1.956207 0,-1.04045 0.87681,-1.921879 1.958958,-1.921879 1.115621,0 1.986436,0.849625 1.986436,1.921879 0,1.071244 -0.870815,1.956207 -1.986436,1.956207 z m -1.583254,14.590527 h 3.174001 V 17.142582 h -3.174001 z"
           id="Fill-7"
           fill="#1d1d1b" />
        <path
           d="m 74.817439,23.458126 c 0,2.374709 -1.005209,4.116869 -2.993643,4.116869 -1.92998,0 -3.065087,-1.660378 -3.065087,-4.116869 0,-2.359564 0.975232,-4.063862 2.988147,-4.063862 1.95696,0 3.070583,1.630089 3.070583,4.063862 m 3.25094,-0.02676 c 0,-1.925412 -0.581542,-3.58579 -1.669686,-4.757495 -1.10463,-1.156055 -2.665401,-1.822427 -4.599378,-1.822427 -1.824563,0 -3.335374,0.666372 -4.444001,1.792138 -1.166581,1.201994 -1.823064,2.915379 -1.823064,4.890264 0,2.036475 0.686459,3.7645 1.92998,4.947311 1.078651,1.016218 2.564481,1.578596 4.309107,1.578596 1.87952,0 3.411814,-0.668897 4.525936,-1.81738 1.161086,-1.180791 1.771106,-2.890642 1.771106,-4.811007"
           id="Fill-9"
           fill="#1d1d1b" />
        <path
           d="m 88.152638,29.789169 v -7.432576 c 0,-1.309018 -0.241809,-2.75333 -1.857037,-2.75333 -1.106629,0 -2.192774,0.587619 -3.174001,1.341327 v 8.844579 H 79.944102 V 17.143238 h 2.702872 l 0.345228,1.366568 c 1.348938,-1.016218 2.699374,-1.658863 4.387545,-1.658863 1.907498,0 3.944894,1.149997 3.944894,4.545468 v 8.392758 z"
           id="Fill-11"
           fill="#1d1d1b" />
        <path
           d="m 100.56277,26.716334 c -0.42217,0.377106 -1.140106,0.805705 -2.249232,0.805705 -1.323958,0 -2.040893,-0.732 -2.040893,-1.766392 0,-1.072758 0.767396,-1.658358 2.488041,-1.71389 l 1.802084,-0.0525 z m 3.46627,3.072886 c -0.18935,-0.583581 -0.23782,-1.52458 -0.23782,-3.339435 v -4.994764 c 0,-3.319241 -1.88501,-4.604028 -4.976577,-4.604028 -1.667687,0 -3.226459,0.267054 -4.894146,1.3908 l 1.032187,2.006185 c 0.792876,-0.483625 1.849044,-0.938474 3.227958,-0.938474 1.322459,0 2.382128,0.615385 2.382128,2.145517 v 0.314508 l -2.22625,0.08734 c -3.201979,0.09844 -5.236877,1.520036 -5.236877,4.139081 0,2.484761 1.796586,4.063862 4.098273,4.063862 1.671184,0 2.807794,-0.642141 3.627644,-1.394838 l 0.53058,1.124251 z"
           id="Fill-13"
           fill="#1d1d1b" />
        <path
           d="m 18.708769,23.941751 c -0.22882,-0.936455 -0.450146,-1.868872 -0.648989,-2.793716 -0.365712,-1.694706 -0.66048,-3.371743 -0.797372,-5.047266 -0.04097,-0.46848 -0.05795,-0.917776 -0.07694,-1.365054 -0.03397,-0.706758 -0.04147,-1.392819 -0.02598,-2.045056 0.02248,-1.156055 0.102919,-2.230833 0.222824,-3.1955589 0.163371,-1.2681269 0.427663,-2.3373517 0.62301,-3.2561379 -0.198844,0.1590207 -0.403183,0.3124883 -0.602026,0.4604028 -0.225323,0.6769738 -0.502605,1.6260496 -0.756405,2.8128993 -0.170366,0.7961127 -0.333737,1.7169187 -0.463135,2.7290977 -0.934264,-0.401843 -1.847545,-0.881429 -2.678391,-1.449865 l 0.01849,1.309523 c 0.791877,0.661324 1.628218,1.260555 2.491039,1.799206 -0.119906,1.49126 -0.155378,3.151638 -0.05246,4.969522 0.03547,0.566417 0.08443,1.131319 0.136892,1.696221 -1.80258,-0.504323 -3.701085,-1.269641 -5.317812,-2.37269 l 0.02648,1.315076 c 1.716148,1.444312 3.69509,2.604406 5.57461,3.406072 0.272286,1.891589 0.606023,3.770052 0.917278,5.668709 C 14.837321,28.24995 11.52443,27.347823 8.9469592,25.581431 l 0.020983,1.315581 c 2.7288518,2.291412 6.1091898,3.875056 8.7411178,4.412193 0.542073,3.95381 0.765397,8.120152 -0.189851,12.896326 l 3.065087,-1.817885 c 1.19306,-6.771757 -0.478124,-12.7368 -1.875523,-18.445895"
           id="Fill-15"
           fill="#e20714" />
        <g
           id="Group-19"
           transform="translate(0.699449)">
          <mask
             id="mask-2"
             fill="#ffffff">
            <use
               xlink:href="#path-1-9"
               id="use3774"
               x="0"
               y="0"
               width="100%"
               height="100%" />
          </mask>
          <g
             id="Clip-18" />
          <path
             d="m 14.63088,36.828636 c -3.948891,-0.0727 -11.4235055,-3.984604 -13.97849369,-9.459964 0,0 -0.20084186,-0.434656 -0.2797797,-0.604783 0.11091267,-0.157002 0.37920141,-0.542185 0.37920141,-0.542185 0.90228958,-1.284786 1.97694338,-3.434342 1.97694338,-6.391117 0,-0.894555 -0.1538789,-1.976905 -0.4726279,-3.278855 0,0 -0.1328953,-0.551777 -0.1913493,-0.779454 0.1953462,-0.128731 0.6639772,-0.445258 0.6639772,-0.445258 1.6731825,-1.131319 4.5564123,-3.838204 4.9785798,-9.3443588 0,0 0.048962,-0.6481986 0.067447,-0.9117186 0.2627931,-0.033823 0.892797,-0.1307503 0.892797,-0.1307503 1.7201458,-0.2650345 5.0310388,-1.1222317 7.9082728,-3.9331118 0,0 0.536578,-0.52855443 0.776888,-0.75976547 0.234316,0.23121104 0.772892,0.75976547 0.772892,0.75976547 2.877234,2.8108801 6.188127,3.6680773 7.904776,3.9331118 0,0 0.637498,0.096927 0.894295,0.1307503 0,0.26352 0.0055,0.9157573 0.0055,0.9157573 0.03397,4.1259561 1.836554,5.8110701 2.54,6.3098401 -0.230818,0.204455 -0.500606,0.437685 -0.632002,0.549252 C 27.099062,12.150645 25.03219,10.588708 24.758405,7.0498668 22.912359,6.6500433 20.121556,5.6681537 17.506615,3.482755 L 17.356234,3.2914254 17.202854,3.482755 c -2.61544,2.1853987 -5.361278,3.1274069 -7.201329,3.5292497 L 9.8401519,7.0478474 9.8116743,7.2164599 C 9.1292116,12.271803 6.6681495,15.156388 4.7226813,16.686016 l -0.1199055,0.09693 0.029976,0.141856 c 0.243808,1.211082 0.3622148,2.139964 0.3622148,2.905788 0,2.499906 -0.648989,4.833219 -1.9229859,6.93734 l -0.074941,0.11712 0.074941,0.131256 c -0.1838552,3.95179 8.4843203,9.008648 11.4839583,9.126273 z"
             id="Fill-17"
             fill="#e20714"
             mask="url(#mask-2)" />
        </g>
        <g
           id="Group-22"
           transform="translate(3.097561,52.907586)">
          <mask
             id="mask-4"
             fill="#ffffff">
            <use
               xlink:href="#path-3-8"
               id="use3780"
               x="0"
               y="0"
               width="100%"
               height="100%" />
          </mask>
          <g
             id="Clip-21" />
          <path
             d="M 3.6810016,3.1190772 C 3.5845775,3.0342662 3.469668,2.961571 3.3397703,2.9025062 3.2643297,2.8691876 3.197882,2.8434414 3.1389284,2.8237531 3.5755846,2.5804262 3.7964107,2.2043297 3.7964107,1.7020262 c 0,-0.1585159 -0.022982,-0.3079448 -0.067947,-0.4452579 C 3.683,1.1204648 3.6255452,1.0053641 3.5565995,0.91550483 3.4876538,0.82463586 3.3997231,0.74386345 3.2963045,0.67470207 3.1958836,0.60806483 3.0984603,0.55657241 3.0055334,0.52123448 2.9171031,0.48791586 2.8171818,0.45813103 2.7087671,0.43339448 2.6003525,0.40865793 2.5104233,0.3935131 2.440978,0.38594069 2.3725319,0.3788731 2.2995893,0.37332 2.2211511,0.36827172 c -0.053458,-0.003534 -0.087431,-0.006563 -0.085433,-0.002019 L -9.9921322e-5,0.35363172 V 5.4685448 H 2.1781849 c 0.2148308,0 0.4251652,-0.023222 0.6240087,-0.068152 C 3.0045342,5.353949 3.2023784,5.2797393 3.3907301,5.1812979 3.589074,5.0773034 3.7504469,4.9248455 3.8703525,4.7274579 3.9912573,4.5300703 4.0517097,4.2973448 4.0517097,4.036349 c 0,-0.20496 -0.036471,-0.3892221 -0.1099135,-0.547738 C 3.8688537,3.3321145 3.7809229,3.2079269 3.6810016,3.1190772 M 3.1299355,2.0488428 C 3.1109504,2.1114414 3.0714815,2.1831269 3.0140268,2.2628897 2.9585704,2.3391186 2.8921227,2.3971738 2.8126853,2.4415986 2.729251,2.4885476 2.6113438,2.5299435 2.4624611,2.5642717 2.310081,2.6006193 2.1252266,2.6208124 1.9148922,2.624851 H 0.55945948 V 0.90641793 l 1.61372932,-0.00101 c 0.1658694,0.009592 0.3102557,0.02928 0.4281629,0.0600745 0.1139103,0.0307945 0.2208261,0.0782482 0.3182494,0.14337107 0.091928,0.061084 0.1598741,0.1458952 0.2073367,0.2579669 0.048962,0.1161103 0.071943,0.2609958 0.069445,0.412949 -0.021983,0.1075282 -0.043965,0.1963779 -0.066448,0.2690731 m 0.3412313,1.9824579 c 0.00849,0.1004607 -0.005,0.1973876 -0.03847,0.2907807 -0.034473,0.093898 -0.094426,0.1898152 -0.1773604,0.2842179 -0.079937,0.090364 -0.2093351,0.1645738 -0.3861959,0.2216193 -0.1848544,0.05856 -0.4151731,0.088345 -0.684461,0.088345 H 0.55945948 V 3.1771324 H 1.9983265 c 0.2947679,0 0.5470693,0.023222 0.7489103,0.067647 0.1928482,0.04291 0.3427302,0.105509 0.4456491,0.1857766 0.1014202,0.079763 0.1738631,0.1665931 0.2148309,0.2584717 0.041967,0.091879 0.06345,0.2039503 0.06345,0.3422731"
             id="Fill-20"
             fill="#494b52"
             mask="url(#mask-4)" />
        </g>
        <path
           d="m 13.968201,56.280592 5e-4,0.03433 c 0.004,0.06058 0.0055,0.11712 0.003,0.166593 -0.0025,0.05099 -0.01349,0.136808 -0.03347,0.256453 -0.01948,0.11712 -0.04746,0.223133 -0.08393,0.312993 -0.03647,0.09238 -0.09492,0.194863 -0.174862,0.307944 -0.07744,0.109548 -0.170366,0.201427 -0.277282,0.273617 -0.107915,0.07219 -0.2543,0.135799 -0.434658,0.188805 -0.181357,0.05301 -0.389193,0.07976 -0.617513,0.07976 -0.191849,0 -0.367711,-0.02575 -0.522089,-0.07471 -0.15288,-0.04947 -0.27928,-0.112577 -0.375705,-0.189311 -0.09692,-0.07724 -0.182855,-0.169117 -0.255298,-0.274121 -0.07294,-0.106014 -0.128399,-0.208494 -0.164371,-0.302392 -0.03697,-0.09642 -0.06695,-0.199911 -0.08893,-0.30542 -0.02198,-0.106519 -0.03497,-0.186282 -0.03947,-0.242318 -0.0045,-0.05503 -0.0065,-0.104499 -0.0065,-0.148419 v -3.10267 h -0.54607 v 3.10267 l 5e-4,0.02726 c 0.004,0.06765 0.01,0.132265 0.01749,0.193854 0.007,0.06462 0.02698,0.168107 0.06045,0.315517 0.03297,0.145895 0.07394,0.281694 0.122404,0.403357 0.04846,0.123683 0.124402,0.260996 0.225323,0.408406 0.102919,0.150943 0.220326,0.279169 0.349225,0.382154 0.129897,0.105004 0.301262,0.193349 0.509099,0.26251 0.206337,0.06866 0.434657,0.102985 0.679465,0.102985 0.299264,0 0.573049,-0.03483 0.813359,-0.105004 0.242809,-0.07068 0.441653,-0.16003 0.591035,-0.267559 0.149882,-0.106518 0.282777,-0.240297 0.394689,-0.397299 0.110413,-0.155487 0.191849,-0.300372 0.24081,-0.430113 0.04796,-0.126712 0.08593,-0.268063 0.112412,-0.421531 0.02648,-0.152458 0.04047,-0.259481 0.04297,-0.327128 0.0025,-0.06512 0.0035,-0.13277 0.0035,-0.203446 v -3.046634 h -0.54607 z"
           id="Fill-23"
           fill="#494b52" />
        <path
           d="m 20.94221,56.062153 c -0.111912,-0.100461 -0.246306,-0.184262 -0.397187,-0.248375 -0.187353,-0.08178 -0.328741,-0.134789 -0.430162,-0.159021 -0.349225,-0.09339 -0.439154,-0.115101 -0.471129,-0.120654 -0.953249,-0.231211 -1.215542,-0.490692 -1.269,-0.670916 -0.01949,-0.05806 -0.02898,-0.138322 -0.02898,-0.237774 0.004,-0.301382 0.108414,-0.519467 0.317749,-0.665867 0.217829,-0.151953 0.489115,-0.225658 0.812361,-0.216066 0.254799,0.0096 0.509598,0.06512 0.756404,0.166593 0.244807,0.10147 0.431161,0.221619 0.554064,0.357418 l 0.08244,0.09289 0.35572,-0.460908 -0.07044,-0.06512 c -0.004,-0.0045 -0.03397,-0.0313 -0.08843,-0.07875 -0.05496,-0.04846 -0.10192,-0.08734 -0.14039,-0.11712 -0.03797,-0.02827 -0.09592,-0.06916 -0.174362,-0.121664 -0.08293,-0.05604 -0.167369,-0.10147 -0.249804,-0.135798 -0.08044,-0.03281 -0.174862,-0.06664 -0.282277,-0.101471 -0.111912,-0.03433 -0.236814,-0.05755 -0.370209,-0.06967 -0.134894,-0.01262 -0.275283,-0.01565 -0.416172,-0.0035 -0.524087,0.02827 -0.936763,0.171137 -1.227034,0.423046 -0.296766,0.256957 -0.447148,0.592162 -0.447148,0.99451 0,0.395785 0.157376,0.722913 0.467632,0.973308 0.297765,0.240298 0.757903,0.419511 1.366424,0.534612 0.565555,0.105509 0.934764,0.302392 1.098135,0.5856 0.155878,0.270588 0.08293,0.57096 -0.223823,0.919291 -0.08643,0.09945 -0.214332,0.173661 -0.3812,0.2196 -0.172365,0.04695 -0.351224,0.06361 -0.545071,0.04493 -0.01099,5.05e-4 -0.02148,5.05e-4 -0.03197,5.05e-4 -0.550566,0 -1.056668,-0.227678 -1.504315,-0.67546 l -0.07544,-0.07623 -0.412675,0.439705 0.100421,0.06916 c 0.02698,0.01868 0.104418,0.07724 0.230318,0.17568 0.134894,0.103994 0.24181,0.178708 0.326743,0.227677 0.08194,0.04796 0.198344,0.108033 0.348226,0.181233 0.156377,0.07724 0.33074,0.13277 0.517592,0.165583 0.185354,0.03483 0.391692,0.05149 0.613517,0.05149 0.232317,0 0.456141,-0.03887 0.663978,-0.115101 0.209335,-0.07522 0.389693,-0.180728 0.536078,-0.314508 0.143387,-0.129235 0.262793,-0.281693 0.354221,-0.45384 0.09293,-0.17568 0.139889,-0.365495 0.139889,-0.562882 0,-0.195369 -0.04247,-0.394776 -0.130397,-0.60226 -0.06945,-0.13075 -0.161872,-0.24888 -0.274284,-0.349845"
           id="Fill-25"
           fill="#494b52" />
      </g>
      <polygon
         id="Fill-28"
         fill="#494b52"
         points="25.206153,53.518932 24.660083,53.518932 24.660083,58.633845 25.206153,58.633845 " />
      <polygon
         id="Fill-29"
         fill="#494b52"
         points="29.160739,58.633997 29.160739,54.447967 32.419673,58.594116 32.451148,58.633997 32.833347,58.633997 32.833347,53.519084 32.286777,53.519084 32.286777,57.538016 29.138257,53.558965 29.107281,53.519084 28.615168,53.519084 28.615168,58.633997 " />
      <polygon
         id="Fill-30"
         fill="#494b52"
         points="39.568644,56.342635 39.568644,55.789344 36.788832,55.789344 36.788832,54.078483 39.872904,54.078483 39.872904,53.51863 36.256252,53.51863 36.242263,58.634047 39.872904,58.634047 39.872904,58.081261 36.788832,58.081261 36.788832,56.342635 " />
      <g
         id="Group-35"
         transform="translate(41.56727,53.165048)"
         fill="#494b52">
        <path
           d="M 3.7583407,3.1545666 C 3.6464288,3.0541059 3.5120346,2.9703046 3.3606538,2.9061915 3.1738009,2.8244094 3.0324123,2.7714025 2.9309921,2.7471708 2.5817671,2.6537777 2.4918379,2.6320701 2.4598631,2.626517 1.5066137,2.3953059 1.2438206,2.1358246 1.1908623,1.9556011 1.1713777,1.8975459 1.1613855,1.8172783 1.1613855,1.7178273 1.165882,1.4164452 1.2702998,1.1983597 1.4796349,1.0519597 1.6974634,0.90000662 1.9692494,0.82630179 2.2919953,0.83589352 2.5467946,0.84548524 2.801594,0.90101628 3.0483997,1.0024866 3.2932069,1.103957 3.4795602,1.2241059 3.6024634,1.3599045 l 0.082435,0.092888 0.3557199,-0.46090756 -0.070444,-0.0651228 c -0.004,-0.004543 -0.033973,-0.0312993 -0.08843,-0.0787531 C 3.8262872,0.79954593 3.7798238,0.76067421 3.7413541,0.73088938 3.703384,0.70261903 3.6454296,0.661728 3.5669914,0.60922593 3.4840567,0.55319007 3.3996231,0.50775559 3.317188,0.47342731 3.2367514,0.44061352 3.1423257,0.40679007 3.0349103,0.37195697 2.9229984,0.33762869 2.7980968,0.31440662 2.6647018,0.30229076 2.5293084,0.28967007 2.388919,0.2866411 2.2485295,0.29875697 1.7244422,0.32702731 1.3117671,0.46989352 1.0214957,0.72180248 0.72472935,0.97875972 0.57434776,1.3139652 0.57434776,1.7163128 c 0,0.3957849 0.15687647,0.7229131 0.46763174,0.9733076 0.2977656,0.2402979 0.7579033,0.4195117 1.3664241,0.5346124 0.5655547,0.105509 0.934764,0.3023918 1.0981354,0.5856 0.1558772,0.2705876 0.082935,0.57096 -0.2238238,0.9192911 -0.086432,0.099451 -0.2148309,0.1736606 -0.3811999,0.2196 -0.1723642,0.046949 -0.3507238,0.063608 -0.5450708,0.04493 -0.010991,5.048e-4 -0.021483,5.048e-4 -0.031975,5.048e-4 -0.5505665,0 -1.056668,-0.2276772 -1.50431549,-0.6754593 l -0.0754406,-0.076229 -0.41267506,0.4397048 0.10042093,0.069161 c 0.0269788,0.018679 0.10391817,0.077239 0.23031865,0.17568 0.13489378,0.1039945 0.2418096,0.1787089 0.32674272,0.2276772 C 1.0714561,5.2026524 1.1878645,5.2627265 1.3377465,5.3359265 1.4941233,5.4131655 1.668486,5.4686962 1.8553389,5.50151 2.040693,5.536343 2.2470305,5.553002 2.4688558,5.553002 2.7011729,5.553002 2.9249967,5.51413 3.132833,5.4379013 3.3421684,5.3626825 3.5225264,5.2571735 3.6689111,5.1233942 3.8122982,4.9941583 3.9317042,4.8417004 4.0231322,4.6695542 4.116059,4.4938742 4.163022,4.304059 4.163022,4.1066715 4.163022,3.9113032 4.1205555,3.7118963 4.0326247,3.5044121 3.9631794,3.3736618 3.8707522,3.2555321 3.7583407,3.1545666"
           id="Fill-31" />
        <path
           d="M 10.438381,3.1545666 C 10.326469,3.0541059 10.192075,2.9703046 10.040694,2.9061915 9.8538411,2.8244094 9.7124524,2.7714025 9.6110323,2.7471708 9.2618072,2.6537777 9.1718781,2.6320701 9.1399032,2.626517 8.1866538,2.3953059 7.9238607,2.1358246 7.8709024,1.9556011 7.8514178,1.8975459 7.8419253,1.8172783 7.8419253,1.7178273 7.8459221,1.4164452 7.9503399,1.1983597 8.1596751,1.0519597 8.3775035,0.90000662 8.6532864,0.82630179 8.9720354,0.83589352 9.2268348,0.84548524 9.4816342,0.90101628 9.7284398,1.0024866 9.9732471,1.103957 10.1596,1.2241059 10.282504,1.3599045 l 0.08244,0.092888 0.35572,-0.46090756 -0.07044,-0.0651228 c -0.004,-0.004543 -0.03397,-0.0312993 -0.08843,-0.0787531 -0.05546,-0.0484635 -0.10192,-0.0873352 -0.14039,-0.11712 -0.03798,-0.02827 -0.09593,-0.069161 -0.174372,-0.12166311 C 10.164097,0.55319007 10.079663,0.50775559 9.9972282,0.47342731 9.9167915,0.44061352 9.8223659,0.40679007 9.7149504,0.37195697 9.6030386,0.33762869 9.4786365,0.31440662 9.3447419,0.30229076 9.2093485,0.28967007 9.0689591,0.2866411 8.9285696,0.29875697 8.4044823,0.32702731 7.9918072,0.46989352 7.7015358,0.72180248 7.4047695,0.97875972 7.2543879,1.3139652 7.2543879,1.7163128 c 0,0.3957849 0.1568765,0.7229131 0.4676318,0.9733076 0.2977655,0.2402979 0.7579032,0.4195117 1.3664241,0.5346124 0.5655546,0.105509 0.9347642,0.3023918 1.0981352,0.5856 0.155877,0.2705876 0.08293,0.57096 -0.2238237,0.9192911 -0.086432,0.099451 -0.2148308,0.1736606 -0.3811998,0.2196 -0.1718647,0.046949 -0.3512235,0.063608 -0.5450708,0.04493 -0.010991,5.048e-4 -0.021483,5.048e-4 -0.031975,5.048e-4 -0.5505665,0 -1.0566679,-0.2276772 -1.5043155,-0.6754593 l -0.075441,-0.076229 -0.412675,0.4397048 0.1004209,0.069161 c 0.026979,0.018679 0.1044178,0.077239 0.2303186,0.17568 0.1348938,0.1039945 0.2418097,0.1787089 0.3267428,0.2276772 0.081936,0.047959 0.1983438,0.1080331 0.3482258,0.1812331 0.1563769,0.077239 0.3307396,0.1327697 0.5175924,0.1655835 0.1853541,0.034833 0.3916916,0.051492 0.6135169,0.051492 0.2323171,0 0.4561409,-0.038872 0.6639772,-0.1151007 0.2093362,-0.075219 0.3896942,-0.1807283 0.5360782,-0.3145076 0.143387,-0.1292359 0.262793,-0.2816938 0.354221,-0.45384 0.09293,-0.17568 0.13989,-0.3654952 0.13989,-0.5628827 0,-0.1953683 -0.04247,-0.3947752 -0.130397,-0.6022594 -0.06944,-0.1307503 -0.161873,-0.24888 -0.274284,-0.3498455"
           id="Fill-33" />
      </g>
      <path
         d="m 62.392372,53.519084 -2.322171,5.114913 h 0.601526 l 0.642994,-1.382723 h 2.708867 l 0.623009,1.382723 H 65.2781 l -2.380126,-5.054839 -0.02748,-0.06007 z m 0.24181,0.741087 1.148096,2.45952 h -2.228745 z"
         id="Fill-36"
         fill="#494b52" />
      <g
         id="Group-41"
         transform="translate(67.546814,53.165048)">
        <path
           d="M 3.4695181,3.1545666 C 3.3571066,3.0541059 3.223212,2.9703046 3.0713316,2.9061915 2.8844788,2.8244094 2.7435897,2.7714025 2.6421696,2.7471708 2.2929445,2.6537777 2.2030153,2.6320701 2.1705409,2.626517 1.2172915,2.3953059 0.95499803,2.1358246 0.90154013,1.9556011 0.88205547,1.8975459 0.87306255,1.8172783 0.87306255,1.7178273 0.8770594,1.4164452 0.98097758,1.1983597 1.1903127,1.0519597 1.4076416,0.90000662 1.6844237,0.82630179 2.0026731,0.83589352 2.2574725,0.84548524 2.5122718,0.90101628 2.7590775,1.0024866 3.0038847,1.103957 3.190238,1.2241059 3.3136408,1.3599045 l 0.082435,0.092888 0.3552203,-0.46090756 -0.069945,-0.0651228 c -0.004,-0.004543 -0.034473,-0.0312993 -0.08893,-0.0787531 C 3.5374646,0.79954593 3.4910012,0.76067421 3.4525315,0.73088938 3.4145614,0.70261903 3.3561074,0.661728 3.2776692,0.60922593 3.1947345,0.55319007 3.1103009,0.50775559 3.0278659,0.47342731 2.9474292,0.44061352 2.8535032,0.40679007 2.7460877,0.37195697 2.6336762,0.33762869 2.5092742,0.31440662 2.3758792,0.30229076 2.2414851,0.28967007 2.1000964,0.2866411 1.9597069,0.29875697 1.4356196,0.32702731 1.0229445,0.46989352 0.73217349,0.72180248 0.43590677,0.97875972 0.28552518,1.3139652 0.28552518,1.7163128 c 0,0.3957849 0.15637687,0.7229131 0.46763178,0.9733076 0.29726594,0.2402979 0.75740364,0.4195117 1.36642404,0.5346124 0.5655547,0.105509 0.934764,0.3023918 1.0976358,0.5856 0.1563768,0.2705876 0.082935,0.57096 -0.2233242,0.9192911 -0.086432,0.099451 -0.2153304,0.1736606 -0.3816994,0.2196 -0.1718647,0.046949 -0.3517231,0.063608 -0.5450709,0.04493 -0.010492,5.048e-4 -0.021483,5.048e-4 -0.031475,5.048e-4 -0.5510661,0 -1.05666795,-0.2276772 -1.50481508,-0.6754593 l -0.074941,-0.076229 -0.41267506,0.4397048 0.10042093,0.069161 c 0.0264791,0.018679 0.10391818,0.077239 0.23031865,0.17568 0.13439417,0.1039945 0.24130999,0.1787089 0.32624311,0.2276772 0.0819355,0.047959 0.19834383,0.1080331 0.34822585,0.1812331 0.1568764,0.077239 0.3307395,0.1327697 0.5175924,0.1655835 0.1858537,0.034833 0.3921912,0.051492 0.6140165,0.051492 0.2323171,0 0.4556413,-0.038872 0.6634776,-0.1151007 C 3.0533458,5.3626825 3.2332042,5.2571735 3.3795889,5.1233942 3.522976,4.9941583 3.6428816,4.8417004 3.73381,4.6695542 3.8272364,4.4938742 3.8741994,4.304059 3.8741994,4.1066715 c 0,-0.1953683 -0.042467,-0.3947752 -0.1303973,-0.6022594 -0.069945,-0.1307503 -0.1618725,-0.24888 -0.274284,-0.3498455"
           id="Fill-37"
           fill="#494b52" />
        <path
           d="m 15.20198,3.3730055 5e-4,0.034833 c 0.0045,0.061084 0.005,0.11712 0.003,0.1650786 -0.0025,0.051997 -0.01399,0.137818 -0.03347,0.2569573 -0.01999,0.1191393 -0.04746,0.2246483 -0.08393,0.3134979 -0.03547,0.089859 -0.09393,0.1928441 -0.175362,0.3079448 -0.07644,0.1095476 -0.169367,0.2014262 -0.276283,0.2736166 -0.109913,0.07219 -0.256298,0.1368083 -0.435157,0.1888055 -0.181357,0.053007 -0.388694,0.079763 -0.617514,0.079763 -0.191849,0 -0.36771,-0.025746 -0.522089,-0.074714 -0.15238,-0.049473 -0.27928,-0.1125766 -0.375204,-0.1893104 -0.09742,-0.077239 -0.183856,-0.169622 -0.255799,-0.2741213 -0.07294,-0.1060138 -0.128898,-0.2084938 -0.164371,-0.3023918 -0.03697,-0.096927 -0.06745,-0.1999117 -0.08943,-0.3064303 -0.02198,-0.105509 -0.03497,-0.1862814 -0.03947,-0.2413076 -0.0045,-0.055026 -0.006,-0.1044993 -0.006,-0.1484193 V 0.35413655 h -0.54657 V 3.4568069 l 5e-4,0.02827 c 0.0045,0.066637 0.01,0.1302456 0.01799,0.1928442 0.007,0.064618 0.02698,0.1681076 0.06045,0.3155172 0.03297,0.1458952 0.07394,0.281189 0.122404,0.4033573 0.04846,0.1226731 0.124402,0.260491 0.224323,0.4084055 0.103419,0.1509434 0.221825,0.2801793 0.350224,0.3821545 0.132396,0.1065186 0.298765,0.1923393 0.509099,0.2625103 0.206338,0.068657 0.434658,0.1029848 0.678966,0.1029848 0.299264,0 0.573548,-0.034833 0.813359,-0.1050041 0.242309,-0.070171 0.441652,-0.1600304 0.592034,-0.2675586 0.149382,-0.1065186 0.281279,-0.240298 0.39369,-0.3972993 0.111412,-0.1570014 0.192349,-0.3013821 0.240811,-0.4301131 0.04846,-0.1262069 0.08543,-0.2670538 0.11291,-0.4215311 0.02698,-0.158011 0.04047,-0.2620055 0.04297,-0.3261186 0.0025,-0.066132 0.004,-0.1337793 0.004,-0.2044552 V 0.35413655 h -0.54657 z"
           id="Fill-39"
           fill="#e20714" />
      </g>
      <polygon
         id="Fill-42"
         fill="#e20714"
         points="90.361699,53.519084 90.361699,57.538016 87.214177,53.558965 87.182702,53.519084 86.69009,53.519084 86.69009,58.633997 87.237659,58.633997 87.237659,54.447967 90.526569,58.633997 90.908768,58.633997 90.908768,53.519084 " />
      <g
         id="Group-49"
         transform="translate(94.025964,53.165048)"
         fill="#494b52">
        <path
           d="m 3.8939839,3.3730055 4.996e-4,0.034833 c 0.0045,0.061084 0.0055,0.11712 0.004,0.1650786 -0.003,0.051997 -0.014489,0.137818 -0.033474,0.2569573 -0.020484,0.1191393 -0.047463,0.2246483 -0.083934,0.3134979 -0.035472,0.089859 -0.094925,0.1928441 -0.1753619,0.3079448 -0.07644,0.1095476 -0.1703659,0.2014262 -0.2767821,0.2736166 -0.1094138,0.07219 -0.2562982,0.1368083 -0.435657,0.1888055 -0.1808576,0.053007 -0.3876947,0.079763 -0.6170141,0.079763 -0.1923486,0 -0.3672109,-0.025746 -0.5220889,-0.074714 C 1.6012891,4.8693145 1.4748887,4.806211 1.3794638,4.7294772 1.2815409,4.6522386 1.195109,4.5598552 1.1231656,4.4553559 1.0507227,4.3493421 0.99476672,4.2468621 0.95829544,4.1529641 0.92232376,4.0560372 0.89234736,3.9530524 0.86986507,3.8465338 0.84738277,3.7410248 0.8348926,3.6602524 0.82989654,3.6052262 0.82540008,3.5502 0.82390126,3.5007269 0.82390126,3.4568069 V 0.35413655 H 0.27733163 V 3.4568069 l 4.9961e-4,0.02827 c 0.004496,0.066637 0.0104917,0.1302456 0.0174862,0.1928442 0.007494,0.064618 0.0274784,0.1681076 0.0604524,0.3155172 0.032974,0.1458952 0.0744414,0.281189 0.12240362,0.4033573 0.0489614,0.1226731 0.12490165,0.260491 0.22532258,0.4084055 0.10341856,0.1509434 0.22132572,0.2801793 0.34922506,0.3821545 0.1323957,0.1065186 0.2992643,0.1923393 0.5090991,0.2625103 0.2063376,0.068657 0.4351574,0.1029848 0.679465,0.1029848 0.2992644,0 0.5730488,-0.034833 0.8133596,-0.1050041 C 3.2974536,5.3776759 3.496297,5.2878165 3.6466786,5.1802883 3.7965606,5.0737697 3.9284567,4.9399903 4.0403686,4.782989 4.1517809,4.6259876 4.2327171,4.4816069 4.281179,4.3528759 4.3291412,4.226669 4.3676109,4.0858221 4.3935905,3.9313448 c 0.027478,-0.158011 0.040468,-0.2620055 0.042466,-0.3261186 0.004,-0.066132 0.0055,-0.1337793 0.0055,-0.2044552 V 0.35413655 H 3.8939839 Z"
           id="Fill-43" />
        <path
           d="M 10.867493,3.1545666 C 10.756081,3.0551156 10.622686,2.9708094 10.470306,2.9061915 10.281954,2.8233997 10.140066,2.7703928 10.040644,2.7471708 9.6884213,2.6532728 9.6004906,2.6320701 9.5690153,2.6260121 8.6157659,2.3953059 8.3544717,2.1358246 8.3005142,1.9556011 8.2810295,1.8975459 8.2720366,1.8172783 8.2720366,1.7178273 c 0.004,-0.3013821 0.107915,-0.5194676 0.3177498,-0.6663724 0.2168293,-0.15144828 0.48262,-0.22717242 0.8123603,-0.21556138 0.2542998,0.009592 0.5095988,0.0651228 0.7564043,0.16659308 0.244308,0.1014704 0.430161,0.2216193 0.553065,0.3574179 l 0.08293,0.092888 0.297266,-0.3846786 0.04596,-0.0903641 -0.146884,-0.12974069 c -0.05446,-0.0484635 -0.10192,-0.0873352 -0.13989,-0.11712 C 10.812536,0.70261903 10.754582,0.661728 10.676144,0.60922593 10.594708,0.55419972 10.510274,0.50826041 10.42734,0.47342731 10.345904,0.44061352 10.252977,0.40679007 10.145561,0.37195697 10.032151,0.33762869 9.9077486,0.31440662 9.7748533,0.30229076 9.6384607,0.28967007 9.4985708,0.28714593 9.358681,0.29875697 8.8345936,0.32702731 8.421419,0.46989352 8.1311475,0.72180248 7.8343812,0.97875972 7.6835,1.3139652 7.6835,1.7163128 c 0,0.3962897 0.1578757,0.7239228 0.4676318,0.9733076 0.2987647,0.2402979 0.7584028,0.4195117 1.3674233,0.5346124 0.5655549,0.105509 0.9347639,0.3023918 1.0971359,0.5856 0.156377,0.2705876 0.08294,0.5719697 -0.222325,0.9192911 -0.08793,0.099451 -0.216329,0.1736606 -0.382698,0.2196 -0.1718651,0.046949 -0.3502246,0.063608 -0.5445716,0.04493 -0.00999,5.048e-4 -0.021483,5.048e-4 -0.031975,5.048e-4 -0.5505665,0 -1.0561684,-0.2276772 -1.5048151,-0.6754593 l -0.074441,-0.075724 -0.4136743,0.4392 0.1009205,0.069161 c 0.026979,0.018679 0.1039182,0.077239 0.2308183,0.17568 0.1343942,0.1050041 0.24131,0.1787089 0.3257435,0.228182 0.082435,0.047454 0.1983438,0.1075283 0.3482258,0.1807283 0.1573761,0.077239 0.3312392,0.1327697 0.5180921,0.1655835 0.1858536,0.034833 0.3921911,0.051492 0.6140165,0.051492 0.2323171,0 0.4551413,-0.038872 0.6639773,-0.1151007 0.209335,-0.075724 0.389693,-0.1822428 0.534579,-0.3134979 0.143387,-0.1292359 0.262793,-0.2816938 0.35472,-0.4548497 0.09343,-0.17568 0.14089,-0.3654952 0.14089,-0.5628827 0,-0.1953683 -0.04247,-0.3947752 -0.130398,-0.6022594 C 11.071332,3.373157 10.979405,3.2545225 10.867493,3.1545666"
           id="Fill-45" />
        <path
           d="m 18.091305,3.3730055 4.99e-4,0.034833 c 0.004,0.061084 0.005,0.11712 0.0035,0.1650786 -0.0025,0.051997 -0.01449,0.137818 -0.03347,0.2569573 -0.02048,0.1191393 -0.04746,0.2246483 -0.08393,0.3134979 -0.03547,0.089859 -0.09443,0.1928441 -0.174862,0.3079448 -0.07694,0.1095476 -0.170866,0.2014262 -0.277282,0.2736166 -0.109414,0.07219 -0.256298,0.1368083 -0.435657,0.1888055 -0.180857,0.053007 -0.388194,0.079763 -0.617014,0.079763 -0.191849,0 -0.367211,-0.025746 -0.522089,-0.074714 C 15.798111,4.8693145 15.67171,4.806211 15.576285,4.7294772 15.478362,4.6522386 15.39193,4.5598552 15.319987,4.4553559 15.247544,4.3493421 15.191588,4.2468621 15.155616,4.1529641 c -0.03647,-0.096927 -0.06645,-0.1999117 -0.08893,-0.3064303 -0.02248,-0.105509 -0.03447,-0.1862814 -0.03997,-0.2413076 -0.0045,-0.055026 -0.006,-0.1044993 -0.006,-0.1484193 V 0.35413655 h -0.54657 V 3.4568069 l 5e-4,0.02827 c 0.005,0.066637 0.01049,0.1302456 0.01799,0.1928442 0.007,0.064618 0.02698,0.1681076 0.06045,0.3155172 0.03297,0.1458952 0.07394,0.281189 0.121904,0.4033573 0.04896,0.1226731 0.124901,0.260491 0.225323,0.4084055 0.103418,0.1509434 0.221325,0.2801793 0.349724,0.3821545 0.131896,0.1065186 0.298765,0.1923393 0.509599,0.2625103 0.205338,0.068657 0.434158,0.1029848 0.678466,0.1029848 0.299264,0 0.573548,-0.034833 0.813359,-0.1050041 0.242809,-0.070171 0.441652,-0.1600304 0.592534,-0.2675586 0.149382,-0.1065186 0.281278,-0.240298 0.39369,-0.3972993 0.110912,-0.1570014 0.191849,-0.3013821 0.24031,-0.4301131 0.04746,-0.1262069 0.08643,-0.2670538 0.112911,-0.4215311 0.02698,-0.158011 0.03997,-0.2620055 0.04247,-0.3261186 0.0035,-0.066132 0.005,-0.1337793 0.005,-0.2044552 V 0.35413655 h -0.547069 z"
           id="Fill-47" />
      </g>
      <path
         d="m 117.51357,53.519084 -2.25423,4.966494 -0.0669,0.148419 h 0.60102 l 0.6435,-1.382723 h 2.70837 l 0.623,1.382723 h 0.63151 l -2.40811,-5.114913 z m 0.24231,0.741087 1.1476,2.45952 h -2.22875 z"
         id="Fill-50"
         fill="#494b52" />
      <polygon
         id="Fill-51"
         fill="#494b52"
         points="123.38909,53.51863 123.38909,58.634047 126.78492,58.634047 126.78492,58.088834 123.93566,58.088834 123.93566,53.51863 " />
    </g>
  </g>
</svg>
