<?xml version="1.0" encoding="UTF-8" standalone="no"?>
<svg
   xmlns:dc="http://purl.org/dc/elements/1.1/"
   xmlns:cc="http://creativecommons.org/ns#"
   xmlns:rdf="http://www.w3.org/1999/02/22-rdf-syntax-ns#"
   xmlns:svg="http://www.w3.org/2000/svg"
   xmlns="http://www.w3.org/2000/svg"
   xmlns:sodipodi="http://sodipodi.sourceforge.net/DTD/sodipodi-0.dtd"
   xmlns:inkscape="http://www.inkscape.org/namespaces/inkscape"
   width="160"
   height="80"
   viewBox="0 0 160 80"
   fill="none"
   version="1.1"
   id="svg869"
   sodipodi:docname="brand-logo-32.svg"
   inkscape:version="1.0.2-2 (e86c870879, 2021-01-15)">
  <metadata
     id="metadata875">
    <rdf:RDF>
      <cc:Work
         rdf:about="">
        <dc:format>image/svg+xml</dc:format>
        <dc:type
           rdf:resource="http://purl.org/dc/dcmitype/StillImage" />
        <dc:title />
      </cc:Work>
    </rdf:RDF>
  </metadata>
  <defs
     id="defs873" />
  <sodipodi:namedview
     pagecolor="#ffffff"
     bordercolor="#666666"
     borderopacity="1"
     objecttolerance="10"
     gridtolerance="10"
     guidetolerance="10"
     inkscape:pageopacity="0"
     inkscape:pageshadow="2"
     inkscape:window-width="1260"
     inkscape:window-height="770"
     id="namedview871"
     showgrid="false"
     inkscape:zoom="2.7875475"
     inkscape:cx="61.682468"
     inkscape:cy="62.329609"
     inkscape:window-x="-6"
     inkscape:window-y="-6"
     inkscape:window-maximized="1"
     inkscape:current-layer="svg869"
     inkscape:document-rotation="0"
     inkscape:snap-global="true"
     inkscape:snap-bbox="false"
     inkscape:snap-grids="false"
     inkscape:snap-to-guides="false"
     inkscape:snap-page="true"
     inkscape:snap-text-baseline="true"
     inkscape:snap-others="false" />
  <style
     type="text/css"
     id="style2448">
	.st0{fill:#00A896;}
	.st1{fill:#29327B;}
</style>
  <style
     type="text/css"
     id="style671">
	.st0{fill:none;}
	.st1{fill:#0F05A0;}
</style>
  <g
     id="g731"
     transform="matrix(0.61349693,0,0,0.61349693,3.282207,23.475299)">
    <rect
       class="st0"
       width="250.10001"
       height="81.5"
       id="rect673"
       x="0"
       y="0" />
    <g
       id="g705">
      <g
         id="Bildmarke">
        <path
           class="st1"
           d="m 83,39 c -0.3,0 -0.6,0.1 -0.9,0.2 C 81.7,37.8 81.3,36.4 81,35 l 1.6,-2.2 c 0.2,-0.3 2.9,-3.7 2.9,-6.9 0,-4.7 -4,-4.8 -4.4,-4.8 -1,0 -2.5,0.4 -3.4,1.6 -0.9,1.1 -1.1,2.6 -0.7,4.4 0.1,0.3 1,3.9 2,7.5 l -1.6,2.1 -3.5,-13.4 8,-5.9 v 0 c 2.2,-1.7 3.5,-4.4 3.5,-7.2 0,-4.3 -3,-8 -7.1,-8.9 V 0.4 L 76.7,0 V 1 L 72.1,0.7 h -1.5 v 3.7 h 1.5 c 0.4,0 0.8,0.4 0.8,0.8 0,0.4 -0.4,0.8 -0.8,0.8 l -5,-0.5 0.4,1.6 4.5,0.4 v 0 h 0.1 c 1.3,0 2.3,-1 2.3,-2.3 0,-1.3 -1,-2.3 -2.3,-2.3 V 2.3 l 4.5,0.3 v 4.3 c 0,0.5 -0.2,0.9 -0.5,1.2 -0.3,0.3 -0.8,0.5 -1.3,0.4 l -5.1,-0.3 0.4,1.5 v 0 c -1.4,0.9 -2.6,2.1 -3.5,3.4 l -2,-4.3 C 64.9,8.3 65,7.7 65,7.2 65,5.2 63.4,3.6 61.4,3.6 60.1,3.6 59,4.2 58.4,5.2 L 58.8,1 H 26.7 L 27,5.3 c -0.6,-1 -1.8,-1.6 -3,-1.6 -2,0 -3.6,1.6 -3.6,3.6 0,0.6 0.1,1.1 0.4,1.6 l -2,4.3 C 17.9,11.8 16.7,10.7 15.3,9.8 v 0 L 15.7,8.3 10.6,8.6 C 10.1,8.6 9.7,8.5 9.3,8.2 9,7.7 8.9,7.3 8.9,6.8 V 2.5 l 4.5,-0.3 v 0.6 c -1.3,0 -2.3,1.1 -2.3,2.3 0,1.3 1,2.3 2.3,2.3 h 0.1 L 18,7.1 18.4,5.5 13.4,6 C 13,6 12.6,5.6 12.6,5.2 12.6,4.8 13,4.4 13.4,4.4 h 1.5 V 0.8 H 13.4 L 8.9,1 V 0 L 7.3,0.4 v 0.8 c -4.2,0.9 -7.1,4.6 -7.1,8.9 0,2.8 1.3,5.5 3.5,7.2 l 8,5.9 -3.5,13.5 -1.6,-2.1 c 1,-3.5 1.9,-7.1 2,-7.5 C 9,25.3 8.8,23.8 7.9,22.7 7,21.5 5.5,21.1 4.5,21.1 4,21.1 0,21.3 0,26 c 0,3.1 2.7,6.5 2.9,6.9 L 4.5,35 C 4.1,36.4 3.7,37.8 3.4,39.2 3.2,39.1 2.9,39 2.6,39 c -1.2,0 -2.2,1 -2.2,2.2 0,1.2 1,2.2 2.2,2.2 1,0 1.9,-0.7 2.1,-1.6 v 0 C 4.8,41.3 5.4,39.3 6,37 l 1.6,2.1 -4.2,15.8 v 0 c -0.1,0.3 -0.1,0.5 -0.1,0.8 0,2 1.6,3.6 3.6,3.6 2,0 3.6,-1.6 3.6,-3.6 0,-0.9 -0.3,-1.7 -0.9,-2.4 l 3.7,-6 7.4,10.4 c 0.7,1 1.8,1.5 3,1.5 2,0 3.6,-1.6 3.6,-3.6 0,-2 -1.6,-3.6 -3.6,-3.6 -0.1,0 -0.1,0 -0.2,0 l -5,-14.2 c -0.5,-1.3 -1.6,-2.2 -3,-2.4 -0.2,0 -0.4,0 -0.6,0 l 3.4,-7.4 4.5,3.3 c 0.6,0.5 1.4,0.8 2.2,0.8 0.2,0 0.4,0 0.7,-0.1 L 27,45.1 c 0.4,3.6 2.3,7.1 5.3,9.8 3.1,2.8 6.8,4.3 10.6,4.3 v 0 c 3.8,0 7.6,-1.5 10.6,-4.3 3,-2.7 4.9,-6.3 5.3,-9.8 l 1.2,-13 c 0.2,0 0.4,0.1 0.7,0.1 0.8,0 1.6,-0.3 2.2,-0.8 l 4.5,-3.3 3.4,7.4 c -0.2,0 -0.4,0 -0.6,0 -1.4,0.2 -2.5,1.1 -3,2.4 l -5,14.2 c -0.1,0 -0.1,0 -0.2,0 -2,0 -3.6,1.6 -3.6,3.6 0,2 1.6,3.6 3.6,3.6 1.2,0 2.3,-0.6 3,-1.5 l 7.4,-10.4 3.7,6 C 75.3,54 75,54.8 75,55.7 c 0,2 1.6,3.6 3.6,3.6 2,0 3.6,-1.6 3.6,-3.6 0,-0.3 0,-0.5 -0.1,-0.8 L 78,39.1 79.6,37 c 0.6,2.3 1.2,4.3 1.3,4.8 v 0 c 0.2,0.9 1.1,1.6 2.1,1.6 1.2,0 2.2,-1 2.2,-2.2 C 85.2,40 84.2,39 83,39 Z M 5.2,32.7 4.5,31.7 v 0 C 3.8,30.8 2,28.1 2,26 c 0,-2.6 1.8,-2.9 2.5,-2.9 0.6,0 1.4,0.2 2,0.9 0.5,0.6 0.6,1.6 0.4,2.8 C 6.7,27 6,29.5 5.2,32.7 Z M 61.6,5.5 c 1,0 1.7,0.8 1.7,1.7 0,0.4 -0.1,0.7 -0.3,1 l -0.3,0.4 3.1,6.5 c -0.4,1.1 -0.7,2.2 -0.7,3.4 L 60.1,7.7 C 60,7.5 60,7.3 60,7.1 59.8,6.3 60.6,5.5 61.6,5.5 Z M 50.9,10.3 H 46.5 V 8.2 H 51 Z m -5.9,0 H 40.6 V 8.2 H 45 Z m -5.9,0 H 34.7 L 34.6,8.2 H 39 Z m -6,0 H 29 L 28.8,8.2 h 4.3 z m 23.4,1.6 -0.2,2.5 h -27 l -0.2,-2.5 z m 0.1,-1.6 h -4.2 l 0.1,-2.1 h 4.3 z M 54.2,2.6 54.1,5.3 h 1.5 l 0.1,-2.7 h 1.5 l -0.3,4.1 h -4.4 l 0.1,-4.1 c 0.1,0 1.6,0 1.6,0 z m -6.1,0 -0.1,2.7 h 1.5 l 0.1,-2.7 h 1.5 L 51,6.7 h -4.5 l 0.1,-4.1 z m -6.1,0 v 2.7 h 1.5 V 2.6 H 45 V 6.7 H 40.5 L 40.4,2.6 c 0.1,0 1.6,0 1.6,0 z m -6.1,0 0.1,2.7 h 1.5 L 37.4,2.6 H 39 V 6.7 H 34.5 L 34.4,2.6 Z m -6.1,0 0.2,2.7 h 1.5 L 31.4,2.6 h 1.5 L 33,6.7 H 28.6 L 28.3,2.6 c 0,0 1.5,0 1.5,0 z m -2.5,6.1 0.6,7.2 h 29.8 l 0.6,-7.2 6.5,14 -3.3,2.4 C 61.3,25 61,25 60.7,25 l 0.6,-6.5 h -37 l 0.6,6.5 c -0.3,0 -0.6,0 -0.9,0.1 l -3.3,-2.4 z m 1.1,18.7 h 3.9 l 2.5,2.4 h -6.4 c 0.1,-0.4 0.2,-0.8 0.2,-1.2 0,-0.4 -0.1,-0.8 -0.2,-1.2 z m -1,-1.5 c -0.1,-0.1 -0.3,-0.3 -0.5,-0.4 l -0.3,-3.6 4.1,3.9 h -3.3 c 0,0 0,0.1 0,0.1 z M 22.9,8.7 22.6,8.3 C 22.4,8 22.3,7.6 22.3,7.3 c 0,-1 0.8,-1.7 1.7,-1.7 1,0 1.7,0.8 1.7,1.7 0,0.2 0,0.4 -0.1,0.6 l -5,10.8 c -0.1,-1.2 -0.3,-2.3 -0.7,-3.4 z m -7.7,28.7 c 0.4,0.1 1.2,0.3 1.5,1.2 l 5.6,15.8 0.9,-0.3 C 23.4,54 23.6,54 23.7,54 c 1,0 1.7,0.8 1.7,1.7 0,0.9 -0.8,1.7 -1.7,1.7 -0.6,0 -1.1,-0.3 -1.4,-0.7 L 14.5,45.6 15,44.7 c 0.3,-0.6 0.5,-1.2 0.5,-1.8 0,-1.6 -1.1,-3 -2.6,-3.4 l 0.8,-1.8 c 0.3,-0.2 0.9,-0.4 1.5,-0.3 z m -4.5,2.4 1.1,1.5 c 0.1,0 0.2,0 0.3,0 0.9,0 1.6,0.7 1.6,1.6 0,0.3 -0.1,0.6 -0.2,0.8 l -6.3,10 0.8,0.5 c 0.5,0.3 0.8,0.9 0.8,1.4 0,1 -0.8,1.7 -1.7,1.7 -0.9,0 -1.7,-0.8 -1.7,-1.7 0,-0.1 0,-0.2 0,-0.4 l 8.1,-30.9 3.4,2.5 z M 25,30.3 c -0.4,0 -0.8,-0.1 -1.1,-0.4 L 4.9,15.8 C 3.1,14.4 2.1,12.3 2.1,10.1 2.1,6.8 4.3,4 7.3,3.1 v 3.6 c 0,0.9 0.4,1.7 1,2.3 0.6,0.7 1.4,1 2.2,1 0.1,0 0.1,0 0.2,0 l 1.4,-0.1 c 0.3,0.1 0.6,0.2 0.7,0.2 3.8,1.5 6.3,5.2 6.3,9.3 0,0.6 -0.1,1.3 -0.2,1.9 l -4,-2.9 -0.5,2 9.3,6.9 0.5,-0.2 c 0.4,-0.2 0.9,-0.2 1.4,0 0.6,0.3 1.1,0.9 1.1,1.6 0,0.6 -0.3,1.1 -0.8,1.4 -0.3,0.1 -0.6,0.2 -0.9,0.2 z m 2.4,1 h 8.9 l 2.5,2.4 H 27.7 Z m 0.4,3.9 h 12.6 l 2.5,2.4 H 28.1 Z m 0.4,3.9 H 44.5 L 47,41.5 H 28.4 Z m 0.6,6 -0.2,-2 h 20 l 2.5,2.4 H 28.8 c 0,-0.2 0,-0.3 0,-0.4 z m 0.3,1.9 h 23.5 l 2.5,2.4 h -25 c -0.4,-0.8 -0.7,-1.6 -1,-2.4 z m 13.7,10.5 c -2.8,0 -5.6,-1 -7.9,-2.6 h 15.8 c -2.3,1.6 -5.1,2.6 -7.9,2.6 z m 9.7,-4.2 H 33 c -0.8,-0.7 -1.4,-1.5 -2,-2.4 h 23.6 c -0.6,0.9 -1.3,1.7 -2.1,2.4 z m 4.3,-8.2 c -0.1,0.9 -0.3,1.8 -0.6,2.7 L 27.7,20.4 h 31.5 l -0.5,5.1 c -1,0.7 -1.7,1.8 -1.7,3.1 0,1 0.4,2 1.1,2.6 z m 4.9,-15.2 v 0 c -0.3,0.3 -0.7,0.4 -1.1,0.4 -0.3,0 -0.7,-0.1 -1,-0.3 -0.5,-0.3 -0.8,-0.9 -0.8,-1.4 0,-0.7 0.4,-1.3 1.1,-1.6 0.4,-0.2 0.9,-0.2 1.4,0 l 0.5,0.2 9.3,-6.9 -0.5,-2 -4,2.9 c -0.1,-0.6 -0.2,-1.2 -0.2,-1.9 0,-4.1 2.5,-7.7 6.3,-9.3 0.1,0 0.4,-0.1 0.7,-0.2 l 1.4,0.1 c 0.1,0 0.1,0 0.2,0 0.8,0 1.6,-0.3 2.2,-0.9 0.6,-0.6 1,-1.4 1,-2.3 V 3.1 c 3.1,0.9 5.2,3.7 5.2,7 0,2.2 -1,4.3 -2.8,5.7 z m 1.6,26.8 c -0.3,0.5 -0.9,0.7 -1.4,0.7 -1,0 -1.7,-0.8 -1.7,-1.7 0,-0.9 0.8,-1.7 1.7,-1.7 0.2,0 0.4,0 0.5,0.1 l 0.9,0.3 5.6,-15.8 c 0.3,-0.9 1.1,-1.1 1.5,-1.2 0.6,-0.1 1.2,0.1 1.4,0.3 l 0.8,1.8 C 71.1,39.9 70,41.3 70,43 c 0,0.6 0.2,1.3 0.5,1.8 l 0.5,0.9 z m 17,-1.3 c 0,0.1 0,0.2 0,0.4 0,1 -0.8,1.7 -1.7,1.7 -0.9,0 -1.7,-0.8 -1.7,-1.7 0,-0.6 0.3,-1.1 0.8,-1.4 l 0.8,-0.5 -6.3,-10 C 72,43.6 72,43.4 72,43.1 c 0,-0.9 0.7,-1.6 1.6,-1.6 0.1,0 0.2,0 0.3,0 L 75,40 69,27.1 72.4,24.6 Z M 78.8,26.7 c -0.3,-1.3 -0.2,-2.2 0.4,-2.8 0.5,-0.6 1.4,-0.9 2,-0.9 0.8,0 2.5,0.3 2.5,2.9 0,2.5 -2.5,5.6 -2.5,5.7 l -0.8,1 C 79.6,29.5 78.9,27 78.8,26.7 Z"
           id="path675" />
      </g>
      <g
         id="Stadt_Zürich">
        <g
           id="g702">
          <g
             id="g700">
            <path
               class="st1"
               d="m 112.2,2.2 c 2.2,0 3.9,0.5 5.2,1.5 1.3,1 1.9,2.4 1.9,4.2 h -3.8 c 0,-0.9 -0.4,-1.6 -0.9,-2 -0.6,-0.4 -1.4,-0.7 -2.6,-0.7 -0.8,0 -1.5,0.2 -2,0.5 -0.5,0.3 -0.8,0.9 -0.8,1.5 0,0.5 0.2,0.9 0.5,1.1 0.3,0.2 0.7,0.4 1.3,0.6 0.6,0.2 1.6,0.4 3,0.8 1.5,0.4 2.6,0.8 3.4,1.2 0.8,0.4 1.4,1 1.8,1.7 0.4,0.7 0.6,1.5 0.6,2.5 0,1.1 -0.3,2.1 -0.9,3 -0.6,0.9 -1.5,1.6 -2.6,2 -1.1,0.4 -2.4,0.7 -3.9,0.7 -2.2,0 -4,-0.6 -5.5,-1.7 -1.4,-1.1 -2.1,-2.6 -2.1,-4.6 v -0.1 h 3.8 c 0,1 0.4,1.9 1.1,2.4 0.7,0.6 1.7,0.9 2.8,0.9 1,0 1.9,-0.2 2.5,-0.6 0.6,-0.4 1,-0.9 1,-1.7 0,-0.5 -0.2,-0.9 -0.5,-1.2 -0.3,-0.3 -0.8,-0.6 -1.4,-0.8 -0.6,-0.2 -1.6,-0.5 -2.9,-0.8 -1.6,-0.4 -2.8,-0.8 -3.5,-1.3 -0.7,-0.5 -1.3,-1 -1.7,-1.6 -0.4,-0.6 -0.6,-1.4 -0.6,-2.3 0,-1.1 0.3,-2.1 1,-2.9 0.6,-0.8 1.5,-1.4 2.5,-1.8 1.1,-0.3 2.2,-0.5 3.3,-0.5 z"
               id="path678" />
            <path
               class="st1"
               d="M 126.4,3.7 V 7.6 H 129 V 10 h -2.6 v 6.4 c 0,0.6 0.1,1 0.3,1.2 0.2,0.2 0.6,0.3 1.2,0.3 0.4,0 0.8,0 1.1,-0.1 v 2.8 c -0.5,0.1 -1.2,0.1 -2.1,0.1 -1.4,0 -2.4,-0.2 -3,-0.7 -0.7,-0.5 -1,-1.3 -1,-2.4 V 9.9 h -2.1 V 7.5 h 2.1 V 3.7 Z"
               id="path680" />
            <path
               class="st1"
               d="m 137.1,7.2 c 3.8,0 5.6,1.2 5.6,3.7 v 6.8 c 0,1.3 0.1,2.2 0.5,2.7 h -3.6 c -0.1,-0.4 -0.2,-0.8 -0.2,-1.2 -1,1.1 -2.5,1.6 -4.3,1.6 -1.3,0 -2.4,-0.3 -3.2,-1 -0.8,-0.7 -1.2,-1.6 -1.2,-2.8 0,-1.2 0.4,-2.1 1.1,-2.7 0.8,-0.7 2.2,-1.1 4.2,-1.3 1.4,-0.1 2.3,-0.3 2.7,-0.6 0.4,-0.2 0.6,-0.6 0.6,-1 0,-0.6 -0.2,-1 -0.5,-1.3 -0.4,-0.3 -0.9,-0.4 -1.8,-0.4 -0.7,0 -1.3,0.2 -1.7,0.5 -0.4,0.3 -0.6,0.8 -0.7,1.5 H 131 c 0.1,-1.4 0.7,-2.5 1.8,-3.2 1,-0.9 2.5,-1.3 4.3,-1.3 z m -3,9.6 c 0,1.1 0.7,1.6 2.2,1.6 1.9,0 2.9,-1 2.9,-2.9 v -1.4 c -0.3,0.3 -1,0.5 -2.1,0.6 -1,0.1 -1.7,0.3 -2.2,0.6 -0.5,0.4 -0.8,0.8 -0.8,1.5 z"
               id="path682" />
            <path
               class="st1"
               d="m 158,2.6 v 17.8 h -3.4 v -1.6 0 c -0.8,1.3 -2.1,2 -3.9,2 -1.8,0 -3.2,-0.6 -4.2,-1.9 -1,-1.3 -1.6,-3 -1.6,-5 0,-2 0.5,-3.6 1.6,-4.8 1.1,-1.2 2.4,-1.9 4.1,-1.9 0.8,0 1.5,0.2 2.2,0.5 0.7,0.3 1.2,0.8 1.6,1.4 h 0.1 V 2.6 Z M 148.4,14 c 0,1.2 0.3,2.2 0.8,3 0.6,0.8 1.3,1.2 2.3,1.2 1,0 1.8,-0.4 2.3,-1.1 0.5,-0.7 0.8,-1.8 0.8,-3.1 0,-1.3 -0.3,-2.3 -0.8,-3 -0.5,-0.7 -1.3,-1.1 -2.3,-1.1 -1,0 -1.8,0.4 -2.3,1.1 -0.5,0.7 -0.8,1.7 -0.8,3 z"
               id="path684" />
            <path
               class="st1"
               d="m 165.5,3.7 v 3.9 h 2.6 V 10 h -2.6 v 6.4 c 0,0.6 0.1,1 0.3,1.2 0.2,0.2 0.6,0.3 1.2,0.3 0.4,0 0.8,0 1.1,-0.1 v 2.8 c -0.5,0.1 -1.2,0.1 -2.1,0.1 -1.4,0 -2.4,-0.2 -3,-0.7 -0.7,-0.5 -1,-1.3 -1,-2.4 V 9.9 h -2.1 V 7.5 H 162 V 3.7 Z"
               id="path686" />
            <path
               class="st1"
               d="m 190,2.6 v 3.1 l -9.6,11.4 h 9.8 v 3.3 h -15 V 17.3 L 184.8,5.9 H 176 V 2.6 Z"
               id="path688" />
            <path
               class="st1"
               d="m 195.6,7.5 v 7.3 c 0,1 0.2,1.8 0.5,2.3 0.3,0.5 0.9,0.8 1.8,0.8 1,0 1.7,-0.3 2.1,-0.9 0.4,-0.6 0.6,-1.5 0.6,-2.8 V 7.5 h 3.5 v 12.9 h -3.4 v -1.8 h -0.1 c -0.9,1.4 -2.2,2.1 -4,2.1 -1.7,0 -2.9,-0.4 -3.6,-1.3 -0.7,-0.9 -1.1,-2.2 -1.1,-4 v -8 z m 1.7,-4.9 v 2.9 h -3.4 V 2.6 Z m 5.1,0 V 5.5 H 199 V 2.6 Z"
               id="path690" />
            <path
               class="st1"
               d="m 214.7,7.2 c 0.3,0 0.6,0 0.8,0.1 v 3.3 c -0.4,-0.1 -0.8,-0.1 -1.3,-0.1 -2.3,0 -3.5,1.4 -3.5,4.1 v 5.8 h -3.5 V 7.5 h 3.4 v 2.4 0 c 0.3,-0.8 0.9,-1.5 1.7,-2 0.7,-0.5 1.5,-0.7 2.4,-0.7 z"
               id="path692" />
            <path
               class="st1"
               d="m 220.9,2.6 v 2.9 h -3.5 V 2.6 Z m 0,4.9 v 12.9 h -3.5 V 7.5 Z"
               id="path694" />
            <path
               class="st1"
               d="m 229.7,7.2 c 1.8,0 3.2,0.4 4.3,1.3 1.1,0.9 1.7,2.1 1.8,3.6 h -3.5 c -0.2,-1.5 -1.1,-2.2 -2.6,-2.2 -0.9,0 -1.7,0.4 -2.2,1.1 -0.5,0.8 -0.8,1.8 -0.8,3 0,1.2 0.3,2.2 0.8,2.9 0.5,0.7 1.2,1.1 2.2,1.1 1.6,0 2.6,-0.9 2.8,-2.6 h 3.4 c -0.2,1.7 -0.9,3 -2,3.9 -1.1,0.9 -2.5,1.4 -4.2,1.4 -1.9,0 -3.5,-0.6 -4.7,-1.8 -1.2,-1.2 -1.8,-2.8 -1.8,-4.8 0,-2.1 0.6,-3.8 1.8,-5.1 1.1,-1.2 2.7,-1.8 4.7,-1.8 z"
               id="path696" />
            <path
               class="st1"
               d="m 241.5,2.6 v 6.7 h 0.1 c 0.4,-0.7 0.9,-1.2 1.6,-1.6 0.7,-0.4 1.4,-0.6 2.2,-0.6 1.6,0 2.8,0.4 3.6,1.2 0.7,0.8 1.1,2.1 1.1,3.9 v 8.1 h -3.5 V 13 c 0,-1 -0.2,-1.8 -0.5,-2.3 -0.3,-0.5 -0.9,-0.8 -1.8,-0.8 -1,0 -1.6,0.3 -2.1,0.9 -0.4,0.6 -0.7,1.5 -0.7,2.8 v 6.8 H 238 V 2.6 c -0.1,0 3.5,0 3.5,0 z"
               id="path698" />
          </g>
        </g>
      </g>
    </g>
  </g>
</svg>
