<?xml version="1.0" encoding="UTF-8" standalone="no"?>
<svg
   xmlns:dc="http://purl.org/dc/elements/1.1/"
   xmlns:cc="http://creativecommons.org/ns#"
   xmlns:rdf="http://www.w3.org/1999/02/22-rdf-syntax-ns#"
   xmlns:svg="http://www.w3.org/2000/svg"
   xmlns="http://www.w3.org/2000/svg"
   xmlns:sodipodi="http://sodipodi.sourceforge.net/DTD/sodipodi-0.dtd"
   xmlns:inkscape="http://www.inkscape.org/namespaces/inkscape"
   width="160"
   height="80"
   viewBox="0 0 160 80"
   fill="none"
   version="1.1"
   id="svg1023"
   sodipodi:docname="brand-logo-39.svg"
   inkscape:version="1.0.2-2 (e86c870879, 2021-01-15)"
   inkscape:export-filename="C:\Users\mario\OneDrive\6 Produkte\Code\Flinker\web-hugosite\static\assets-flinker\images\brand-logo\brand-logo-37.svg.png"
   inkscape:export-xdpi="96"
   inkscape:export-ydpi="96">
  <metadata
     id="metadata1029">
    <rdf:RDF>
      <cc:Work
         rdf:about="">
        <dc:format>image/svg+xml</dc:format>
        <dc:type
           rdf:resource="http://purl.org/dc/dcmitype/StillImage" />
        <dc:title />
      </cc:Work>
    </rdf:RDF>
  </metadata>
  <defs
     id="defs1027" />
  <sodipodi:namedview
     pagecolor="#ffffff"
     bordercolor="#666666"
     borderopacity="1"
     objecttolerance="10"
     gridtolerance="10"
     guidetolerance="10"
     inkscape:pageopacity="0"
     inkscape:pageshadow="2"
     inkscape:window-width="3840"
     inkscape:window-height="2054"
     id="namedview1025"
     showgrid="false"
     inkscape:zoom="11.15019"
     inkscape:cx="74.261071"
     inkscape:cy="68.003603"
     inkscape:window-x="2509"
     inkscape:window-y="-11"
     inkscape:window-maximized="1"
     inkscape:current-layer="svg1023"
     inkscape:document-rotation="0" />
  <mask
     id="mask0_1838_1151"
     style="mask-type:luminance"
     maskUnits="userSpaceOnUse"
     x="18"
     y="27"
     width="124"
     height="26">
    <path
       d="M141.538 27.6923H18.4614V52.6923H141.538V27.6923Z"
       fill="white"
       id="path998" />
  </mask>
  <g
     style="fill:none"
     id="g96"
     transform="matrix(0.65625,0,0,0.65625,30.125,29.5)"
     inkscape:export-xdpi="96"
     inkscape:export-ydpi="96">
    <path
       d="m 140.168,20.6965 -5.364,-8.4378 c -0.157,-0.3184 -0.236,-0.4776 -0.157,-0.6368 0,-0.4776 0.157,-0.6368 0.71,-0.6368 h 3.312 c 0.631,0 0.789,0.0796 1.263,0.8756 l 2.997,5.0945 2.997,-5.0945 c 0.474,-0.796 0.552,-0.8756 1.42,-0.8756 h 3.155 c 0.552,0 0.71,0.1592 0.71,0.6368 0,0.1592 -0.079,0.398 -0.236,0.6368 l -5.443,8.4378 6.31,9.8707 c 0.079,0.1592 0.158,0.398 0.158,0.4776 0,0.4776 -0.158,0.6368 -0.71,0.6368 h -3.392 c -0.552,0 -0.71,-0.1592 -1.183,-0.8756 l -3.865,-5.9702 -3.865,5.9702 c -0.473,0.796 -0.631,0.8756 -1.262,0.8756 h -3.313 c -0.552,0 -0.71,-0.1592 -0.71,-0.6368 0,-0.1592 0.079,-0.398 0.237,-0.6368 z"
       fill="#ebb700"
       id="path64" />
    <path
       fill-rule="evenodd"
       clip-rule="evenodd"
       d="m 131.334,29.7712 c 0,1.3532 -4.102,2.2288 -6.863,2.2288 -7.888,0 -10.491,-3.5025 -10.412,-10.8259 0,-7.3233 3.471,-10.7462 9.229,-10.7462 6.153,0 8.756,3.582 8.756,9.9502 0,2.0697 -0.395,2.8657 -1.736,2.8657 h -11.122 c 0,2.9453 1.026,4.6965 5.443,4.6965 2.37,0 3.738,-0.4274 4.563,-0.6849 0.356,-0.1112 0.611,-0.1907 0.801,-0.1907 0.631,0 1.341,2.2289 1.341,2.7065 z m -8.046,-15.1244 c -2.524,0 -4.181,1.194 -4.181,5.0945 h 7.967 v -0.4776 c 0,-3.0249 -1.341,-4.6169 -3.786,-4.6169 z"
       fill="#ebb700"
       id="path66" />
    <path
       d="m 93.4717,31.602 c -0.8677,0 -1.1832,-0.398 -1.1832,-1.2736 V 17.9901 C 92.1308,16 91.4209,14.5672 88.5812,14.5672 c -1.4198,0 -2.6819,0.4776 -3.7073,1.0348 v 14.7264 c 0,0.8756 -0.3155,1.2736 -1.1832,1.2736 h -2.603 c -0.8677,0 -1.1832,-0.398 -1.1832,-1.2736 V 13.3731 c 1.6565,-1.4328 5.1272,-2.8657 8.9134,-2.8657 2.9974,0 5.1271,0.6369 6.4681,1.5921 1.5775,-0.796 3.4706,-1.5921 5.837,-1.5921 7.336,0 8.519,3.2638 8.519,6.607 v 13.214 c 0,0.8756 -0.316,1.2736 -1.183,1.2736 h -2.603 c -0.868,0 -1.262,-0.398 -1.262,-1.2736 V 18.3085 c 0,-2.2289 -0.71,-3.7413 -3.787,-3.7413 -1.4194,0 -2.6814,0.4776 -3.7068,1.0348 0,0 0.1577,0.6368 0.1577,2.1493 v 12.5771 c 0,0.8756 -0.3155,1.2736 -1.1831,1.2736 z"
       fill="#ebb700"
       id="path68" />
    <path
       d="m 72.0955,2.14922 c 1.4987,0 2.9974,1.27366 2.9974,2.94533 0,1.67163 -1.4198,3.02487 -2.9974,2.94524 -1.7354,0 -2.9974,-1.27361 -2.9974,-2.94524 0,-1.75125 1.262,-2.94533 2.9974,-2.94533 z"
       fill="#ebb700"
       id="path70" />
    <path
       d="m 70.8334,31.6816 c -0.8677,0 -1.1831,-0.398 -1.1831,-1.2736 V 12.2587 c 0,-0.8756 0.3154,-1.2736 1.1831,-1.2736 h 2.603 c 0.8677,0 1.1832,0.398 1.1832,1.2736 V 30.408 c 0,0.8756 -0.3155,1.2736 -1.1832,1.2736 z"
       fill="#ebb700"
       id="path72" />
    <path
       fill-rule="evenodd"
       clip-rule="evenodd"
       d="m 63.1033,0.39801 c 0.9465,0 1.262,0.398011 1.262,1.27361 H 64.2864 V 30.3284 C 61.8412,31.2836 57.8183,32 55.3731,32 c -5.9159,0 -9.3866,-2.3881 -9.3866,-10.7463 0,-7.9602 3.6284,-10.7463 8.9922,-10.7463 2.9186,0 4.3384,1.2737 4.3384,1.2737 V 1.67162 c 0,-0.955182 0.3944,-1.27361 1.2621,-1.27361 z M 55.8464,28.0199 c 1.6565,0 3.4707,-0.5572 3.4707,-0.5572 H 59.396 V 15.6816 c 0,0 -1.5776,-1.0348 -3.7074,-1.0348 -3.3129,0 -4.575,1.2736 -4.575,6.6865 0,6.209 1.8931,6.6866 4.7328,6.6866 z"
       fill="#ebb700"
       id="path74" />
    <path
       d="m 26.4245,10.9851 c 0.8677,0 1.1043,0.398 1.1043,1.2736 V 23.403 c 0,2.2289 0.5522,4.6169 3.7862,4.6169 2.3664,0 3.5495,-0.9552 4.2595,-2.2288 V 12.2587 c 0,-0.8756 0.3944,-1.2736 1.1832,-1.2736 h 2.603 c 0.9465,0 1.262,0.398 1.262,1.2736 v 13.8508 c 0,1.3532 0.5522,1.9104 1.4987,1.9104 0.1303,0 0.3084,-0.0242 0.4685,-0.0458 0.1307,-0.0177 0.2494,-0.0338 0.3203,-0.0338 0.5522,0 0.8677,0.2389 0.9466,0.796 l 0.2366,1.9901 C 44.0934,31.2836 43.5413,32 41.0171,32 39.124,32 37.5465,31.1244 37.0732,29.2139 36.3633,30.2488 33.9969,32 30.5262,32 24.9258,32 22.6383,29.214 22.6383,24.5971 V 12.2587 c 0,-0.8756 0.3155,-1.2736 1.1832,-1.2736 z"
       fill="#ebb700"
       id="path76" />
    <path
       fill-rule="evenodd"
       clip-rule="evenodd"
       d="M 8.91333,32 C 6.23144,32 2.12975,31.1244 0,30.3284 H 0.157744 V 2.30848 C 0.157744,1.59204 0.236628,1.19403 1.1043,0.955186 4.02284,0 4.25947,0 4.49609,0 4.89049,0 5.04826,0.238797 5.04826,0.875603 V 11.7811 c 0,0 1.41981,-1.2737 4.33835,-1.2737 5.28489,0 8.99219,2.7861 8.99219,10.7463 C 18.3788,29.6119 14.8293,32 8.91333,32 Z m -0.3944,-4.0597 c 2.83967,0 4.73277,-0.398 4.73277,-6.6866 0,-5.3333 -1.341,-6.6865 -4.575,-6.7662 -2.2086,0 -3.70733,1.0349 -3.70733,1.0349 v 11.8607 c 0,0 1.81421,0.5572 3.54956,0.5572 z"
       fill="#ebb700"
       id="path78" />
  </g>
</svg>
