<?xml version="1.0" encoding="UTF-8"?>
<svg xmlns="http://www.w3.org/2000/svg" width="152" height="32" viewBox="0 0 152 32" fill="none">
  <path d="M140.168 20.6965L134.804 12.2587C134.647 11.9403 134.568 11.7811 134.647 11.6219C134.647 11.1443 134.804 10.9851 135.357 10.9851H138.669C139.3 10.9851 139.458 11.0647 139.932 11.8607L142.929 16.9552L145.926 11.8607C146.4 11.0647 146.478 10.9851 147.346 10.9851H150.501C151.053 10.9851 151.211 11.1443 151.211 11.6219C151.211 11.7811 151.132 12.0199 150.975 12.2587L145.532 20.6965L151.842 30.5672C151.921 30.7264 152 30.9652 152 31.0448C152 31.5224 151.842 31.6816 151.29 31.6816H147.898C147.346 31.6816 147.188 31.5224 146.715 30.806L142.85 24.8358L138.985 30.806C138.512 31.602 138.354 31.6816 137.723 31.6816H134.41C133.858 31.6816 133.7 31.5224 133.7 31.0448C133.7 30.8856 133.779 30.6468 133.937 30.408L140.168 20.6965Z" fill="#EBB700"></path>
  <path fill-rule="evenodd" clip-rule="evenodd" d="M131.334 29.7712C131.334 31.1244 127.232 32 124.471 32C116.583 32 113.98 28.4975 114.059 21.1741C114.059 13.8508 117.53 10.4279 123.288 10.4279C129.441 10.4279 132.044 14.0099 132.044 20.3781C132.044 22.4478 131.649 23.2438 130.308 23.2438H119.186C119.186 26.1891 120.212 27.9403 124.629 27.9403C126.999 27.9403 128.367 27.5129 129.192 27.2554C129.548 27.1442 129.803 27.0647 129.993 27.0647C130.624 27.0647 131.334 29.2936 131.334 29.7712ZM123.288 14.6468C120.764 14.6468 119.107 15.8408 119.107 19.7413H127.074V19.2637C127.074 16.2388 125.733 14.6468 123.288 14.6468Z" fill="#EBB700"></path>
  <path d="M93.4717 31.602C92.604 31.602 92.2885 31.204 92.2885 30.3284V17.9901C92.1308 16 91.4209 14.5672 88.5812 14.5672C87.1614 14.5672 85.8993 15.0448 84.8739 15.602V30.3284C84.8739 31.204 84.5584 31.602 83.6907 31.602H81.0877C80.22 31.602 79.9045 31.204 79.9045 30.3284V13.3731C81.561 11.9403 85.0317 10.5074 88.8179 10.5074C91.8153 10.5074 93.945 11.1443 95.286 12.0995C96.8635 11.3035 98.7566 10.5074 101.123 10.5074C108.459 10.5074 109.642 13.7712 109.642 17.1144V30.3284C109.642 31.204 109.326 31.602 108.459 31.602H105.856C104.988 31.602 104.594 31.204 104.594 30.3284V18.3085C104.594 16.0796 103.884 14.5672 100.807 14.5672C99.3876 14.5672 98.1256 15.0448 97.1002 15.602C97.1002 15.602 97.2579 16.2388 97.2579 17.7513V30.3284C97.2579 31.204 96.9424 31.602 96.0748 31.602H93.4717Z" fill="#EBB700"></path>
  <path d="M72.0955 2.14922C73.5942 2.14922 75.0929 3.42288 75.0929 5.09455C75.0929 6.76618 73.6731 8.11942 72.0955 8.03979C70.3601 8.03979 69.0981 6.76618 69.0981 5.09455C69.0981 3.3433 70.3601 2.14922 72.0955 2.14922Z" fill="#EBB700"></path>
  <path d="M70.8334 31.6816C69.9657 31.6816 69.6503 31.2836 69.6503 30.408V12.2587C69.6503 11.3831 69.9657 10.9851 70.8334 10.9851H73.4364C74.3041 10.9851 74.6196 11.3831 74.6196 12.2587V30.408C74.6196 31.2836 74.3041 31.6816 73.4364 31.6816H70.8334Z" fill="#EBB700"></path>
  <path fill-rule="evenodd" clip-rule="evenodd" d="M63.1033 0.39801C64.0498 0.39801 64.3653 0.796021 64.3653 1.67162H64.2864V30.3284C61.8412 31.2836 57.8183 32 55.3731 32C49.4572 32 45.9865 29.6119 45.9865 21.2537C45.9865 13.2935 49.6149 10.5074 54.9787 10.5074C57.8973 10.5074 59.3171 11.7811 59.3171 11.7811V1.67162C59.3171 0.716438 59.7115 0.39801 60.5792 0.39801H63.1033ZM55.8464 28.0199C57.5029 28.0199 59.3171 27.4627 59.3171 27.4627H59.396V15.6816C59.396 15.6816 57.8184 14.6468 55.6886 14.6468C52.3757 14.6468 51.1136 15.9204 51.1136 21.3333C51.1136 27.5423 53.0067 28.0199 55.8464 28.0199Z" fill="#EBB700"></path>
  <path d="M26.4245 10.9851C27.2922 10.9851 27.5288 11.3831 27.5288 12.2587V23.403C27.5288 25.6319 28.081 28.0199 31.315 28.0199C33.6814 28.0199 34.8645 27.0647 35.5745 25.7911V12.2587C35.5745 11.3831 35.9689 10.9851 36.7577 10.9851H39.3607C40.3072 10.9851 40.6227 11.3831 40.6227 12.2587V26.1095C40.6227 27.4627 41.1749 28.0199 42.1214 28.0199C42.2517 28.0199 42.4298 27.9957 42.5899 27.9741C42.7206 27.9564 42.8393 27.9403 42.9102 27.9403C43.4624 27.9403 43.7779 28.1792 43.8568 28.7363L44.0934 30.7264C44.0934 31.2836 43.5413 32 41.0171 32C39.124 32 37.5465 31.1244 37.0732 29.2139C36.3633 30.2488 33.9969 32 30.5262 32C24.9258 32 22.6383 29.214 22.6383 24.5971V12.2587C22.6383 11.3831 22.9538 10.9851 23.8215 10.9851H26.4245Z" fill="#EBB700"></path>
  <path fill-rule="evenodd" clip-rule="evenodd" d="M8.91333 32C6.23144 32 2.12975 31.1244 0 30.3284H0.157744V2.30848C0.157744 1.59204 0.236628 1.19403 1.1043 0.955186C4.02284 0 4.25947 0 4.49609 0C4.89049 0 5.04826 0.238797 5.04826 0.875603V11.7811C5.04826 11.7811 6.46807 10.5074 9.38661 10.5074C14.6715 10.5074 18.3788 13.2935 18.3788 21.2537C18.3788 29.6119 14.8293 32 8.91333 32ZM8.51893 27.9403C11.3586 27.9403 13.2517 27.5423 13.2517 21.2537C13.2517 15.9204 11.9107 14.5672 8.6767 14.4875C6.4681 14.4875 4.96937 15.5224 4.96937 15.5224V27.3831C4.96937 27.3831 6.78358 27.9403 8.51893 27.9403Z" fill="#EBB700"></path>
</svg>
