<svg enable-background="new 0 0 262 84" viewBox="0 0 262 84" xmlns="http://www.w3.org/2000/svg"><path d="m0 0h262v84h-262z" fill="#9a0012"/><g fill="#fff" transform="translate(1376.408 76.41)"><path d="m-1322.7-52h3.7v28.5h-7.9c-2.5.1-4.9-.8-6.6-2.6-1.7-1.9-2.6-4.5-2.5-7.1-.1-2.5.8-5 2.6-6.8 1.7-1.8 4.1-2.8 6.6-2.7 1.4 0 2.8.3 4.1.8zm0 25.4v-12c-1.1-.6-2.3-.9-3.5-.9-1.7-.1-3.3.6-4.4 1.8-1.1 1.4-1.7 3.1-1.6 4.9-.1 1.6.4 3.2 1.4 4.5.5.6 1.1 1 1.8 1.3 1.1.3 2.3.4 3.4.3z"/><path d="m-1289.5-32.6h-13.2c0 1.6.7 3.2 1.8 4.3 1.2 1.1 2.7 1.7 4.3 1.6 2.5 0 4.8-.8 6.8-2.3v3.6c-1 .7-2.2 1.3-3.4 1.6-1.3.3-2.6.5-4 .5-1.8.1-3.5-.4-5-1.3-1.3-.9-2.4-2.1-3.1-3.5-.8-1.6-1.2-3.3-1.2-5-.1-2.5.8-5 2.4-7 1.6-1.8 3.9-2.8 6.3-2.7 2.3-.1 4.5.9 6 2.6 1.6 2 2.4 4.5 2.2 7zm-13.2-2.2h9.5c0-1.3-.5-2.5-1.3-3.4-.9-.8-2-1.3-3.2-1.2-1.2 0-2.4.4-3.3 1.2-1 .9-1.6 2.1-1.7 3.4z"/><path d="m-1263.1-27.9v3.7c-1.8.7-3.6 1-5.5 1-2.6.1-5.2-.8-7.1-2.6-1.8-1.9-2.8-4.4-2.6-7-.1-2.6.8-5.2 2.6-7.1 1.8-1.8 4.2-2.8 6.8-2.7.9 0 1.8.1 2.6.3 1 .3 1.9.6 2.9 1v4c-1.5-1.1-3.4-1.7-5.3-1.8-1.6 0-3.1.6-4.2 1.8s-1.7 2.8-1.6 4.5c-.1 1.7.6 3.4 1.8 4.6 1.3 1.2 3 1.8 4.7 1.7 1.7-.3 3.4-.7 4.9-1.4z"/><path d="m-1250.6-52h3.7v12.1c1.4-1.8 3.5-2.8 5.8-2.8 1.2 0 2.3.3 3.4.9 1 .6 1.7 1.5 2.2 2.6.6 1.6.8 3.2.7 4.9v10.7h-3.7v-11.6c.1-1.2-.3-2.4-1-3.3-.6-.8-1.6-1.3-2.6-1.3-.8 0-1.6.2-2.3.6-.9.6-1.7 1.3-2.4 2.1v13.5h-3.7v-28.4z"/><path d="m-1209.6-34.8v8c0 .6.2 1 .7 1 .8-.1 1.5-.5 2.1-1v2.1c-.6.4-1.3.8-2 1.1-.5.2-1.1.3-1.6.3-1.6 0-2.5-.6-2.8-1.9-1.4 1.2-3.2 1.8-5 1.9-2.5.1-4.5-1.9-4.6-4.3 0-.1 0-.2 0-.2 0-1.2.5-2.3 1.3-3.2 1-1 2.2-1.8 3.6-2.2l4.7-1.6v-1c0-2.3-1.1-3.4-3.4-3.4-2 0-4 1.1-5.9 3.2v-4.1c1.6-1.8 3.9-2.7 6.2-2.5 1.8-.1 3.5.5 4.9 1.6.4.4.8.8 1.1 1.4.3.5.5 1.1.6 1.7.1 1 .1 2 .1 3.1zm-3.6 7.5v-5.6l-2.5 1c-1 .3-1.9.9-2.7 1.5-1 1.1-1 2.7 0 3.8.5.5 1.2.8 1.9.7 1.2.1 2.4-.5 3.3-1.4z"/><path d="m-1191.4-42.3v2.3c1.4-1.7 3.5-2.7 5.6-2.7 1.1 0 2.3.3 3.3.9s1.8 1.5 2.3 2.5c.6 1.6.9 3.3.8 5v10.7h-3.7v-10.7c.1-1.4-.2-2.9-.9-4.1-.7-.9-1.8-1.4-2.9-1.2-1.8.1-3.5 1.1-4.4 2.6v13.4h-3.8v-18.8h3.7z"/><path d="m-1168.6-39.3 7-6.9v3.9h5.9v3.4h-5.9v9.1c0 2.1.9 3.2 2.6 3.2 1.5 0 2.9-.5 4.2-1.2v3.4c-1.4.8-3 1.2-4.6 1.2-1.5.1-3.1-.5-4.2-1.5-.3-.3-.6-.6-.9-1-.3-.5-.5-1-.6-1.5-.2-1.1-.3-2.3-.2-3.4v-8.3h-3.2z"/></g></svg>