<svg width="153" height="34" viewBox="0 0 153 34" fill="none" xmlns="http://www.w3.org/2000/svg">
<g id="logo" clip-path="url(#clip0_876_1939)">
<g id="Group">
<g id="Group_2">
<path id="Vector" d="M130.674 11.0039C127.06 11.0039 124.121 13.8969 124.121 17.4545C124.121 21.0121 127.06 23.9051 130.674 23.9051C134.287 23.9051 137.226 21.0121 137.226 17.4545C137.226 13.8969 134.287 11.0039 130.674 11.0039ZM130.674 21.6846C128.305 21.6846 126.377 19.7864 126.377 17.4545C126.377 15.1226 128.305 13.2244 130.674 13.2244C133.042 13.2244 134.971 15.1226 134.971 17.4545C134.971 19.7864 133.042 21.6846 130.674 21.6846Z" fill="white"/>
<path id="Vector_2" d="M57.2956 17.4466C57.2956 15.3653 56.4265 13.5905 54.846 12.4484C53.605 11.565 52.3479 11.2387 50.2014 11.2387H46.7695V23.6743H50.165C52.3842 23.6743 53.4999 23.3838 54.753 22.4805C56.4184 21.3066 57.2956 19.5676 57.2956 17.4466ZM53.4312 20.7017C52.6187 21.2986 51.7739 21.5215 50.3146 21.5215H49.0655V13.3876H50.3146C51.7375 13.3876 52.6713 13.6263 53.4352 14.1914C54.4175 14.9037 55.0036 16.1294 55.0036 17.4665C55.0036 18.8035 54.4296 19.9775 53.4312 20.7057V20.7017Z" fill="white"/>
<path id="Vector_3" d="M91.042 11.2347H88.75V23.6704H91.042V11.2347Z" fill="white"/>
<path id="Vector_4" d="M107.003 17.4466C107.003 15.3653 106.133 13.5905 104.553 12.4484C103.312 11.565 102.055 11.2387 99.9124 11.2387H96.4805V23.6743H99.876C102.095 23.6743 103.211 23.3838 104.464 22.4805C106.129 21.3066 107.007 19.5676 107.007 17.4466H107.003ZM103.138 20.7017C102.322 21.2986 101.477 21.5215 100.022 21.5215H98.7724V13.3876H100.022C101.444 13.3876 102.378 13.6263 103.142 14.1914C104.124 14.9037 104.711 16.1294 104.711 17.4665C104.711 18.8035 104.137 19.9775 103.138 20.7057V20.7017Z" fill="white"/>
<path id="Vector_5" d="M69.6286 23.6704H72.155L66.2533 11.0955L60.3516 23.6704H62.878L63.646 22.0309H68.8565L69.6245 23.6704H69.6286ZM64.7051 19.7745L66.2533 16.4796L67.8015 19.7745H64.7091H64.7051Z" fill="white"/>
<path id="Vector_6" d="M75.628 11.2347H73.1016L79.0033 23.8136L84.905 11.2347H82.3786L79.0033 18.4295L75.628 11.2347Z" fill="white"/>
<path id="Vector_7" d="M120.081 19.8461C120.024 18.1032 118.981 16.9491 116.697 16.1015C115.522 15.6744 114.812 15.3866 114.567 15.238C114.195 15.0152 114.013 14.7446 114.001 14.4143C113.993 14.1238 114.098 13.8532 114.312 13.6383C114.616 13.3279 115.113 13.1488 115.671 13.1488C116.52 13.1488 116.92 13.3836 117.526 14.2432L117.643 14.4063L119.624 13.312L119.491 13.113C118.504 11.6526 117.316 10.9999 115.634 10.9999C114.337 10.9999 113.152 11.4456 112.388 12.2256C111.786 12.8344 111.483 13.5905 111.511 14.4103C111.56 15.8588 112.534 16.9173 114.498 17.6495C115.703 18.1005 116.454 18.4109 116.75 18.5807C117.316 18.9309 117.599 19.3885 117.619 19.9854C117.635 20.459 117.474 20.8768 117.158 21.2031C116.807 21.5573 116.301 21.7563 115.727 21.7563C114.971 21.7563 114.276 21.426 113.957 20.9126C113.771 20.646 113.694 20.3913 113.573 19.691L113.532 19.4641L111.062 19.9695L111.103 20.1804C111.281 21.1235 111.491 21.617 111.972 22.2218C112.853 23.3082 114.179 23.9051 115.703 23.9051C117.029 23.9051 118.205 23.4515 119.022 22.6238C119.745 21.8916 120.121 20.9047 120.085 19.8461H120.081Z" fill="white"/>
<path id="Vector_8" d="M150.705 18.7797L141.828 11.0397V23.6345H144.124V16.0578L153.001 23.7937V11.1989H150.705V18.7797Z" fill="white"/>
</g>
</g>
<g id="Group_3">
<path id="Vector_9" d="M0 0V16.6777C4.47075 16.6777 8.09667 20.2472 8.09667 24.6484C8.09667 29.0496 4.47075 32.6191 0 32.6191V34.004C9.53572 34.004 17.2686 26.3914 17.2686 17.004C17.2686 7.61657 9.53572 0 0 0Z" fill="white"/>
<path id="Vector_10" d="M35.9209 0V16.6777C31.4502 16.6777 27.8243 20.2472 27.8243 24.6484C27.8243 29.0496 31.4502 32.6191 35.9209 32.6191V34.004C26.3852 34.004 18.6523 26.3914 18.6523 17.004C18.6523 7.61259 26.3852 0 35.9209 0Z" fill="white"/>
</g>
</g>
<defs>
<clipPath id="clip0_876_1939">
<rect width="153" height="34" fill="white"/>
</clipPath>
</defs>
</svg>
