<?xml version="1.0" encoding="UTF-8" standalone="no"?>
<!-- Created with Inkscape (http://www.inkscape.org/) -->
<svg
   xmlns:svg="http://www.w3.org/2000/svg"
   xmlns="http://www.w3.org/2000/svg"
   version="1.0"
   width="750"
   height="150"
   id="svg2"
   xml:space="preserve"><defs
     id="defs5"><clipPath
       id="clipPath17"><path
         d="M 0.030029,841.86 L 1190.55,841.86 L 1190.55,0 L 0.030029,0 L 0.030029,841.86 z"
         id="path19" /></clipPath><clipPath
       id="clipPath39"><path
         d="M 1003.46,841.86 L 1190.55,841.86 L 1190.55,688.819 L 1003.46,688.819 L 1003.46,841.86 z"
         id="path41" /></clipPath><clipPath
       id="clipPath51"><path
         d="M 0.030029,841.86 L 1190.55,841.86 L 1190.55,0 L 0.030029,0 L 0.030029,841.86 z"
         id="path53" /></clipPath></defs><g
     transform="matrix(1.25,0,0,-1.25,-781.09843,135.43044)"
     id="g11"><g
       id="g3392"><g
         transform="translate(856.249,77.948)"
         id="g75"><path
           d="M 0,0 L 14.945,0 L 14.945,-3.927 L 10.538,-3.927 L 10.538,-14.658 L 4.405,-14.658 L 4.405,-3.927 L 0,-3.927 L 0,0"
           id="path77"
           style="fill:#ffffff;fill-opacity:1;fill-rule:nonzero;stroke:none" /></g><g
         transform="translate(925.563,77.948)"
         id="g79"><path
           d="M 0,0 L 14.945,0 L 14.945,-3.927 L 10.587,-3.927 L 10.587,-14.658 L 4.408,-14.658 L 4.408,-3.927 L 0,-3.927 L 0,0"
           id="path81"
           style="fill:#ffffff;fill-opacity:1;fill-rule:nonzero;stroke:none" /></g><g
         transform="translate(815.244,77.948)"
         id="g83"><path
           d="M 0,0 L 16.335,0 C 20.022,0.048 22.848,-1.724 22.848,-6.131 L 22.848,-14.658 L 16.67,-14.658 L 16.67,-6.131 C 16.67,-3.927 15.855,-3.927 14.514,-3.927 L 14.514,-14.658 L 8.334,-14.658 L 8.334,-6.131 C 8.334,-3.927 7.52,-3.927 6.133,-3.927 L 6.133,-14.658 L 0,-14.658 L 0,0"
           id="path85"
           style="fill:#ffffff;fill-opacity:1;fill-rule:nonzero;stroke:none" /></g><g
         transform="translate(958.089,77.948)"
         id="g87"><path
           d="M 0,0 L 6.179,0 L 6.179,-10.682 L 7.186,-10.682 C 8.335,-10.682 9.102,-10.395 9.102,-8.766 L 9.102,0 L 15.234,0 L 15.234,-8.335 C 15.234,-13.364 12.886,-14.658 8.528,-14.658 L 0,-14.658 L 0,0"
           id="path89"
           style="fill:#ffffff;fill-opacity:1;fill-rule:nonzero;stroke:none" /></g><g
         transform="translate(948.077,77.948)"
         id="g91"><path
           d="M 0,0 L 3.113,0 C 5.03,0 8.096,-1.005 8.096,-5.413 L 8.096,-14.658 L 0,-14.658 L 0,-10.97 L 1.917,-10.97 L 1.917,-8.622 L 0,-8.622 L 0,-5.413 L 1.917,-5.413 C 1.917,-3.927 0.909,-3.927 0.047,-3.927 L 0,-3.927 L 0,0 z M -6.707,0 L -0.0002,0 L -0.0002,-3.927 L -6.707,-3.927 L -6.707,0 z M 0,-14.658 L -3.353,-14.658 C -6.707,-14.658 -8.19,-13.029 -8.19,-10.011 C -8.19,-6.993 -6.707,-5.413 -3.353,-5.413 L 0,-5.413 L 0,-8.622 L -0.288,-8.622 C -1.198,-8.622 -1.867,-8.766 -1.867,-9.82 C -1.867,-10.826 -1.245,-10.97 -0.288,-10.97 L 0,-10.97 L 0,-14.658"
           id="path93"
           style="fill:#ffffff;fill-opacity:1;fill-rule:nonzero;stroke:none" /></g><g
         transform="translate(880.104,77.948)"
         id="g95"><path
           d="M 0,0 L 2.682,0 C 6.896,0 7.952,-1.82 7.952,-4.359 C 7.952,-6.371 6.611,-7.76 4.981,-7.904 C 6.945,-8.239 7.376,-9.341 7.616,-10.826 L 8.096,-14.658 L 1.628,-14.658 L 1.39,-11.401 C 1.341,-10.395 0.814,-9.676 0,-9.436 L 0,-5.844 L 0.478,-5.844 C 1.341,-5.844 1.772,-5.508 1.772,-4.742 C 1.772,-4.023 1.341,-3.64 0.478,-3.64 L 0,-3.64 L 0,0 z M -7.905,0 L 0,0 L 0,-3.64 L -1.726,-3.64 L -1.726,-5.844 L 0,-5.844 L 0,-9.436 C -0.144,-9.388 -0.336,-9.341 -0.576,-9.341 L -1.726,-9.341 L -1.726,-14.658 L -7.905,-14.658 L -7.905,0"
           id="path97"
           style="fill:#ffffff;fill-opacity:1;fill-rule:nonzero;stroke:none" /></g><g
         transform="translate(915.072,77.996)"
         id="g99"><path
           d="M 0,0 L 9.726,0 L 9.726,-3.975 L 3.066,-3.975 C 2.252,-3.975 2.059,-4.311 2.059,-4.79 C 2.059,-5.317 2.252,-5.605 3.066,-5.605 L 6.564,-5.605 C 9.581,-5.605 10.971,-6.993 10.971,-10.154 C 10.971,-13.316 9.532,-14.706 6.564,-14.706 L -3.832,-14.706 L -3.832,-10.729 L 3.355,-10.729 C 4.311,-10.729 4.552,-10.395 4.552,-9.868 C 4.552,-9.293 4.311,-8.957 3.355,-8.957 L 0,-8.957 C -3.16,-8.957 -4.406,-7.903 -4.406,-4.55 C -4.406,-1.82 -3.065,0 0,0"
           id="path101"
           style="fill:#ffffff;fill-opacity:1;fill-rule:nonzero;stroke:none" /></g><g
         transform="translate(847.674,74.499)"
         id="g103"><path
           d="M 0,0 C 1.292,0.049 1.963,-0.719 1.963,-2.108 L 0,-2.108 L 0,-5.748 L 8.143,-5.748 L 8.143,-3.161 C 8.143,1.39 4.79,3.88 0,3.88 L 0,0 z M 0,-11.209 L 0,-7.282 C 0.238,-7.329 0.527,-7.377 0.814,-7.377 L 7.616,-7.377 L 7.616,-11.209 L 0,-11.209 z M 0,-2.108 L -1.964,-2.108 C -1.964,-0.719 -1.294,0 0,0 L 0,3.88 C -6.468,3.88 -8.575,0.192 -8.575,-3.879 C -8.575,-7.377 -6.755,-11.209 -0.527,-11.209 L 0,-11.209 L 0,-7.282 C -0.91,-7.089 -1.677,-6.61 -1.677,-5.748 L 0,-5.748 L 0,-2.108"
           id="path105"
           style="fill:#ffffff;fill-opacity:1;fill-rule:nonzero;stroke:none" /></g><g
         transform="translate(903.48,62.38)"
         id="g107"><path
           d="M 0,0 C -4.55,0 -8.239,3.592 -8.239,8.24 C -8.239,12.934 -4.55,16.478 0,16.478 C 0.24,16.478 0.526,16.431 0.767,16.431 C -0.765,17.437 -2.491,17.915 -4.359,17.915 C -9.627,17.915 -13.987,13.7 -13.987,8.336 C -13.987,3.018 -9.627,-1.436 -4.359,-1.436 C -2.491,-1.436 -0.719,-0.91 0.767,0.048 C 0.526,0 0.287,0 0,0"
           id="path109"
           style="fill:#ffffff;fill-opacity:1;fill-rule:nonzero;stroke:none" /></g><g
         transform="translate(903.48,77.71)"
         id="g111"><path
           d="M 0,0 C -3.927,0.048 -7.09,-3.161 -7.09,-7.089 C -7.09,-10.971 -3.927,-14.18 0,-14.18 C 1.005,-14.18 2.011,-13.939 2.922,-13.509 C 3.546,-12.934 4.072,-12.216 4.455,-11.449 C 3.978,-11.64 3.449,-11.737 2.922,-11.737 C 0.335,-11.737 -1.772,-9.629 -1.772,-7.089 C -1.772,-4.503 0.335,-2.395 2.922,-2.395 C 3.449,-2.395 3.978,-2.539 4.455,-2.683 C 4.072,-1.916 3.546,-1.245 2.922,-0.623 C 2.011,-0.24 1.005,0 0,0"
           id="path113"
           style="fill:#ffffff;fill-opacity:1;fill-rule:nonzero;stroke:none" /></g><g
         transform="translate(906.402,67.075)"
         id="g115"><path
           d="M 0,0 C 0.721,0 1.39,0.24 1.917,0.622 C 2.203,1.533 2.397,2.539 2.397,3.545 C 2.397,4.598 2.203,5.604 1.917,6.515 C 1.39,6.897 0.721,7.09 0,7.09 C -1.964,7.09 -3.544,5.509 -3.544,3.545 C -3.544,1.629 -1.964,0 0,0"
           id="path117"
           style="fill:#ffffff;fill-opacity:1;fill-rule:nonzero;stroke:none" /></g></g><g
       transform="matrix(3.3416988,0,0,3.3416988,-30.78205,411.94578)"
       id="g3368"><g
         transform="translate(247.94603,-101.47886)"
         id="g127"
         style="fill:#ee2722;fill-opacity:1"><path
           d="M 0,0 L 14.945,0 L 14.945,-3.927 L 10.538,-3.927 L 10.538,-14.658 L 4.405,-14.658 L 4.405,-3.927 L 0,-3.927 L 0,0"
           id="path129"
           style="fill:#ee2722;fill-opacity:1;fill-rule:nonzero;stroke:none" /></g><g
         transform="translate(317.26003,-101.47886)"
         id="g131"
         style="fill:#ee2722;fill-opacity:1"><path
           d="M 0,0 L 14.945,0 L 14.945,-3.927 L 10.587,-3.927 L 10.587,-14.658 L 4.408,-14.658 L 4.408,-3.927 L 0,-3.927 L 0,0"
           id="path133"
           style="fill:#ee2722;fill-opacity:1;fill-rule:nonzero;stroke:none" /></g><g
         transform="translate(206.94103,-101.47886)"
         id="g135"
         style="fill:#ee2722;fill-opacity:1"><path
           d="M 0,0 L 16.335,0 C 20.022,0.048 22.848,-1.724 22.848,-6.131 L 22.848,-14.658 L 16.67,-14.658 L 16.67,-6.131 C 16.67,-3.927 15.855,-3.927 14.514,-3.927 L 14.514,-14.658 L 8.334,-14.658 L 8.334,-6.131 C 8.334,-3.927 7.52,-3.927 6.133,-3.927 L 6.133,-14.658 L 0,-14.658 L 0,0"
           id="path137"
           style="fill:#ee2722;fill-opacity:1;fill-rule:nonzero;stroke:none" /></g><g
         transform="translate(349.78603,-101.47886)"
         id="g139"
         style="fill:#ee2722;fill-opacity:1"><path
           d="M 0,0 L 6.179,0 L 6.179,-10.682 L 7.186,-10.682 C 8.335,-10.682 9.102,-10.395 9.102,-8.766 L 9.102,0 L 15.234,0 L 15.234,-8.335 C 15.234,-13.364 12.886,-14.658 8.528,-14.658 L 0,-14.658 L 0,0"
           id="path141"
           style="fill:#ee2722;fill-opacity:1;fill-rule:nonzero;stroke:none" /></g><g
         transform="translate(339.77403,-101.47886)"
         id="g143"
         style="fill:#ee2722;fill-opacity:1"><path
           d="M 0,0 L 3.113,0 C 5.03,0 8.096,-1.005 8.096,-5.413 L 8.096,-14.658 L 0,-14.658 L 0,-10.97 L 1.917,-10.97 L 1.917,-8.622 L 0,-8.622 L 0,-5.413 L 1.917,-5.413 C 1.917,-3.927 0.909,-3.927 0.047,-3.927 L 0,-3.927 L 0,0 z M -6.707,0 L -0.0002,0 L -0.0002,-3.927 L -6.707,-3.927 L -6.707,0 z M 0,-14.658 L -3.353,-14.658 C -6.707,-14.658 -8.19,-13.029 -8.19,-10.011 C -8.19,-6.993 -6.707,-5.413 -3.353,-5.413 L 0,-5.413 L 0,-8.622 L -0.288,-8.622 C -1.198,-8.622 -1.867,-8.766 -1.867,-9.82 C -1.867,-10.826 -1.245,-10.97 -0.288,-10.97 L 0,-10.97 L 0,-14.658"
           id="path145"
           style="fill:#ee2722;fill-opacity:1;fill-rule:nonzero;stroke:none" /></g><g
         transform="translate(271.80103,-101.47886)"
         id="g147"
         style="fill:#ee2722;fill-opacity:1"><path
           d="M 0,0 L 2.682,0 C 6.896,0 7.952,-1.82 7.952,-4.359 C 7.952,-6.371 6.611,-7.76 4.981,-7.904 C 6.945,-8.239 7.376,-9.341 7.616,-10.826 L 8.096,-14.658 L 1.628,-14.658 L 1.39,-11.401 C 1.341,-10.395 0.814,-9.676 0,-9.436 L 0,-5.844 L 0.478,-5.844 C 1.341,-5.844 1.772,-5.508 1.772,-4.742 C 1.772,-4.023 1.341,-3.64 0.478,-3.64 L 0,-3.64 L 0,0 z M -7.905,0 L 0,0 L 0,-3.64 L -1.726,-3.64 L -1.726,-5.844 L 0,-5.844 L 0,-9.436 C -0.144,-9.388 -0.336,-9.341 -0.576,-9.341 L -1.726,-9.341 L -1.726,-14.658 L -7.905,-14.658 L -7.905,0"
           id="path149"
           style="fill:#ee2722;fill-opacity:1;fill-rule:nonzero;stroke:none" /></g><g
         transform="translate(306.76903,-101.43086)"
         id="g151"
         style="fill:#ee2722;fill-opacity:1"><path
           d="M 0,0 L 9.726,0 L 9.726,-3.975 L 3.066,-3.975 C 2.252,-3.975 2.059,-4.311 2.059,-4.79 C 2.059,-5.317 2.252,-5.605 3.066,-5.605 L 6.564,-5.605 C 9.581,-5.605 10.971,-6.993 10.971,-10.154 C 10.971,-13.316 9.532,-14.706 6.564,-14.706 L -3.832,-14.706 L -3.832,-10.729 L 3.355,-10.729 C 4.311,-10.729 4.552,-10.395 4.552,-9.868 C 4.552,-9.293 4.311,-8.957 3.355,-8.957 L 0,-8.957 C -3.16,-8.957 -4.406,-7.903 -4.406,-4.55 C -4.406,-1.82 -3.065,0 0,0"
           id="path153"
           style="fill:#ee2722;fill-opacity:1;fill-rule:nonzero;stroke:none" /></g><g
         transform="translate(239.37103,-104.92786)"
         id="g155"
         style="fill:#ee2722;fill-opacity:1"><path
           d="M 0,0 C 1.292,0.049 1.963,-0.719 1.963,-2.108 L 0,-2.108 L 0,-5.748 L 8.143,-5.748 L 8.143,-3.161 C 8.143,1.39 4.79,3.88 0,3.88 L 0,0 z M 0,-11.209 L 0,-7.282 C 0.238,-7.329 0.527,-7.377 0.814,-7.377 L 7.616,-7.377 L 7.616,-11.209 L 0,-11.209 z M 0,-2.108 L -1.964,-2.108 C -1.964,-0.719 -1.294,0 0,0 L 0,3.88 C -6.468,3.88 -8.575,0.192 -8.575,-3.879 C -8.575,-7.377 -6.755,-11.209 -0.527,-11.209 L 0,-11.209 L 0,-7.282 C -0.91,-7.089 -1.677,-6.61 -1.677,-5.748 L 0,-5.748 L 0,-2.108"
           id="path157"
           style="fill:#ee2722;fill-opacity:1;fill-rule:nonzero;stroke:none" /></g><g
         transform="translate(295.17703,-117.04686)"
         id="g159"
         style="fill:#ee2722;fill-opacity:1"><path
           d="M 0,0 C -4.55,0 -8.238,3.592 -8.238,8.24 C -8.238,12.934 -4.55,16.478 0,16.478 C 0.24,16.478 0.526,16.431 0.767,16.431 C -0.765,17.437 -2.491,17.915 -4.358,17.915 C -9.626,17.915 -13.987,13.7 -13.987,8.336 C -13.987,3.018 -9.626,-1.436 -4.358,-1.436 C -2.491,-1.436 -0.719,-0.91 0.767,0.048 C 0.526,0 0.287,0 0,0"
           id="path161"
           style="fill:#ee2722;fill-opacity:1;fill-rule:nonzero;stroke:none" /></g><g
         transform="translate(295.17703,-101.71686)"
         id="g163"
         style="fill:#ee2722;fill-opacity:1"><path
           d="M 0,0 C -3.927,0.048 -7.09,-3.161 -7.09,-7.089 C -7.09,-10.971 -3.927,-14.18 0,-14.18 C 1.005,-14.18 2.012,-13.939 2.922,-13.509 C 3.546,-12.934 4.072,-12.216 4.455,-11.449 C 3.978,-11.64 3.449,-11.737 2.922,-11.737 C 0.335,-11.737 -1.772,-9.629 -1.772,-7.089 C -1.772,-4.503 0.335,-2.395 2.922,-2.395 C 3.449,-2.395 3.978,-2.539 4.455,-2.683 C 4.072,-1.916 3.546,-1.245 2.922,-0.623 C 2.012,-0.24 1.005,0 0,0"
           id="path165"
           style="fill:#ee2722;fill-opacity:1;fill-rule:nonzero;stroke:none" /></g><g
         transform="translate(298.09903,-112.35186)"
         id="g167"
         style="fill:#ee2722;fill-opacity:1"><path
           d="M 0,0 C 0.721,0 1.39,0.24 1.917,0.622 C 2.203,1.533 2.397,2.539 2.397,3.545 C 2.397,4.598 2.203,5.604 1.917,6.515 C 1.39,6.897 0.721,7.09 0,7.09 C -1.964,7.09 -3.544,5.509 -3.544,3.545 C -3.544,1.629 -1.964,0 0,0"
           id="path169"
           style="fill:#ee2722;fill-opacity:1;fill-rule:nonzero;stroke:none" /></g></g></g></svg>