<?xml version="1.0" encoding="UTF-8" standalone="no"?>
<svg
   xmlns:dc="http://purl.org/dc/elements/1.1/"
   xmlns:cc="http://creativecommons.org/ns#"
   xmlns:rdf="http://www.w3.org/1999/02/22-rdf-syntax-ns#"
   xmlns:svg="http://www.w3.org/2000/svg"
   xmlns="http://www.w3.org/2000/svg"
   xmlns:sodipodi="http://sodipodi.sourceforge.net/DTD/sodipodi-0.dtd"
   xmlns:inkscape="http://www.inkscape.org/namespaces/inkscape"
   width="118"
   height="34"
   viewBox="0 0 31.220853 8.995839"
   version="1.1"
   id="svg2045"
   sodipodi:docname="logo.svg"
   inkscape:version="1.0.2-2 (e86c870879, 2021-01-15)">
  <defs
     id="defs2039" />
  <sodipodi:namedview
     id="base"
     pagecolor="#ffffff"
     bordercolor="#666666"
     borderopacity="1.0"
     inkscape:pageopacity="0.0"
     inkscape:pageshadow="2"
     inkscape:zoom="11.313708"
     inkscape:cx="74.400076"
     inkscape:cy="51.956487"
     inkscape:document-units="mm"
     inkscape:current-layer="g6342"
     showgrid="false"
     units="px"
     height="100px"
     inkscape:window-width="3153"
     inkscape:window-height="2126"
     inkscape:window-x="-11"
     inkscape:window-y="-11"
     inkscape:window-maximized="1"
     inkscape:document-rotation="0" />
  <metadata
     id="metadata2042">
    <rdf:RDF>
      <cc:Work
         rdf:about="">
        <dc:format>image/svg+xml</dc:format>
        <dc:type
           rdf:resource="http://purl.org/dc/dcmitype/StillImage" />
        <dc:title></dc:title>
      </cc:Work>
    </rdf:RDF>
  </metadata>
  <g
     inkscape:label="Ebene 1"
     inkscape:groupmode="layer"
     id="layer1"
     transform="translate(0,-270.54166)">
    <g
       id="g6342"
       transform="matrix(1.7621721,0,0,1.7621721,-17.352796,-219.03052)"
       style="stroke:none;stroke-width:0.397237;stroke-miterlimit:4;stroke-dasharray:none;stroke-opacity:1">
      <path
         inkscape:export-ydpi="100.23244"
         inkscape:export-xdpi="100.23244"
         inkscape:export-filename="C:\Users\Christian\Downloads\path1676-2.png"
         inkscape:connector-curvature="0"
         id="path1690-2"
         d="m 24.599492,279.6591 c -0.531772,-0.01 -0.995008,0.28061 -1.204192,0.76331 -0.07754,0.17892 -0.110266,0.33104 -0.1176,0.54556 -0.0056,0.16404 -0.0029,0.20475 0.02097,0.29978 0.04474,0.1786 0.106576,0.28944 0.22849,0.41002 0.149412,0.14777 0.320665,0.23086 0.548749,0.2664 0.124255,0.0194 0.413316,0.006 0.539522,-0.0251 0.192293,-0.0473 0.369084,-0.14196 0.515528,-0.27579 0.121055,-0.11064 0.299216,-0.36482 0.272446,-0.38871 -0.0061,-0.005 -0.155845,-0.0194 -0.332838,-0.0309 l -0.321937,-0.0208 -0.08874,0.0886 c -0.108818,0.10866 -0.179908,0.13755 -0.336364,0.1369 -0.227837,-6.4e-4 -0.354897,-0.12058 -0.362026,-0.34073 l -0.0029,-0.0879 0.778245,-0.003 0.778245,-0.003 0.01393,-0.0513 c 0.05366,-0.19926 0.05994,-0.46319 0.0151,-0.63012 -0.06551,-0.24388 -0.214336,-0.42776 -0.432992,-0.53516 -0.143289,-0.0704 -0.235279,-0.0958 -0.404473,-0.11138 -0.03601,-0.003 -0.07175,-0.005 -0.107199,-0.006 z m -0.0037,0.51385 c 0.05555,9e-5 0.07458,0.008 0.124982,0.0344 0.101226,0.0532 0.145441,0.12738 0.153836,0.25818 l 0.0062,0.0976 h -0.419402 -0.419572 l 0.04832,-0.0919 c 0.06064,-0.1154 0.147483,-0.20746 0.239897,-0.2545 0.05991,-0.0305 0.09197,-0.0374 0.195442,-0.0418 0.02909,-9.6e-4 0.05178,-0.002 0.07029,-0.002 z"
         style="opacity:1;fill:#1d1d1f;fill-opacity:1;stroke:none;stroke-width:0.127116;stroke-miterlimit:4;stroke-dasharray:none;stroke-opacity:1" />
      <path
         inkscape:export-ydpi="100.23244"
         inkscape:export-xdpi="100.23244"
         inkscape:export-filename="C:\Users\Christian\Downloads\path1676-2.png"
         inkscape:connector-curvature="0"
         id="path1686-8"
         d="m 14.399142,281.86396 c 0,-0.0139 0.554267,-2.62853 0.607998,-2.86821 l 0.01974,-0.088 h 1.127435 l 0.889219,9.6e-4 -0.0096,0.0424 c -0.0053,0.0233 -0.03693,0.17139 -0.07034,0.3291 l -0.06075,0.28675 -0.499747,0.002 c -0.688596,0.003 -0.738402,0.005 -0.744564,0.0261 -0.01273,0.0438 -0.09936,0.46264 -0.09936,0.48046 0,0.015 0.101226,0.018 0.619118,0.018 0.580913,0 0.619123,9.6e-4 0.619198,0.0228 3.6e-5,0.0126 -0.02763,0.15624 -0.06146,0.31933 l -0.06154,0.29653 h -0.629094 -0.629093 l -0.0072,0.0293 c -0.004,0.0162 -0.05881,0.27273 -0.121846,0.57024 l -0.114613,0.54091 -0.386732,0.003 c -0.298358,0.003 -0.386728,-1.7e-4 -0.386728,-0.0125 z"
         style="opacity:1;fill:#1d1d1f;fill-opacity:1;stroke:none;stroke-width:0.127116;stroke-miterlimit:4;stroke-dasharray:none;stroke-opacity:1" />
      <path
         inkscape:export-ydpi="100.23244"
         inkscape:export-xdpi="100.23244"
         inkscape:export-filename="C:\Users\Christian\Downloads\path1676-2.png"
         inkscape:connector-curvature="0"
         id="path1684-3"
         d="m 16.737905,281.84367 c 0.0041,-0.0197 0.146168,-0.6869 0.315824,-1.48262 l 0.308471,-1.44678 0.355095,-0.003 c 0.289613,-0.003 0.355102,-2.5e-4 0.355102,0.014 0,0.0136 -0.590517,2.80337 -0.619231,2.92541 l -0.0069,0.0293 h -0.357862 -0.357861 z"
         style="opacity:1;fill:#1d1d1f;fill-opacity:1;stroke:none;stroke-width:0.127116;stroke-miterlimit:4;stroke-dasharray:none;stroke-opacity:1" />
      <path
         inkscape:export-ydpi="100.23244"
         inkscape:export-xdpi="100.23244"
         inkscape:export-filename="C:\Users\Christian\Downloads\path1676-2.png"
         inkscape:connector-curvature="0"
         id="path1682-2"
         d="m 17.737679,281.85019 c 0.01068,-0.0446 0.449679,-2.11084 0.449679,-2.11642 0,-0.003 0.161933,-0.005 0.359848,-0.005 h 0.359848 l -0.0072,0.0293 c -0.004,0.0161 -0.104255,0.48682 -0.222819,1.04598 -0.118568,0.55916 -0.218695,1.02985 -0.22251,1.04598 l -0.0069,0.0293 h -0.358437 -0.358436 z"
         style="opacity:1;fill:#1d1d1f;fill-opacity:1;stroke:none;stroke-width:0.127116;stroke-miterlimit:4;stroke-dasharray:none;stroke-opacity:1" />
      <path
         inkscape:export-ydpi="100.23244"
         inkscape:export-xdpi="100.23244"
         inkscape:export-filename="C:\Users\Christian\Downloads\path1676-2.png"
         inkscape:connector-curvature="0"
         id="path1680-6"
         d="m 18.948488,280.87758 c 0.116389,-0.55129 0.218449,-1.03527 0.226802,-1.07551 l 0.01519,-0.0732 h 0.338552 0.338552 l -0.0071,0.0424 c -0.0223,0.13238 -0.03345,0.22236 -0.02818,0.22763 0.0033,0.003 0.01633,-0.01 0.02899,-0.0291 0.03727,-0.0569 0.193913,-0.18129 0.282913,-0.22468 0.27648,-0.13481 0.647191,-0.0928 0.834601,0.0947 0.07086,0.0709 0.130407,0.18934 0.152652,0.30373 0.03077,0.15818 0.0112,0.2955 -0.147935,1.03874 l -0.147908,0.69081 -0.359429,0.003 -0.35943,0.003 0.01104,-0.0491 c 0.116955,-0.52059 0.262756,-1.25255 0.264213,-1.32641 0.0023,-0.11572 -0.0235,-0.16824 -0.09957,-0.20277 -0.162867,-0.0739 -0.388092,0.0127 -0.501104,0.19279 -0.06337,0.10097 -0.07816,0.15588 -0.210431,0.78127 l -0.126326,0.59728 -0.358832,0.003 -0.358826,0.003 z"
         style="opacity:1;fill:#1d1d1f;fill-opacity:1;stroke:none;stroke-width:0.127116;stroke-miterlimit:4;stroke-dasharray:none;stroke-opacity:1" />
      <path
         inkscape:export-ydpi="100.23244"
         inkscape:export-xdpi="100.23244"
         inkscape:export-filename="C:\Users\Christian\Downloads\path1676-2.png"
         sodipodi:nodetypes="cccccccccccccccccccscccscc"
         inkscape:connector-curvature="0"
         id="path1678-0"
         d="m 21.128357,281.8659 c 0,-0.01 0.604858,-2.70262 0.604858,-2.70262 l 0.01481,-0.0684 0.722738,-0.18385 c 0,0 -0.0701,0.33157 -0.155648,0.73284 -0.08555,0.40127 -0.153651,0.73147 -0.15134,0.73378 0.0023,0.002 -0.0056,-0.14279 0.192439,-0.32244 l 0.36003,-0.32664 0.442053,0.003 0.44205,0.003 -0.513772,0.43656 c -0.282578,0.24011 -0.513477,0.44247 -0.51311,0.44968 3.2e-4,0.007 0.140523,0.2917 0.311461,0.63222 l 0.310799,0.61912 -0.391644,0.003 c -0.215407,0.002 -0.393925,6.4e-4 -0.39671,-0.001 -0.0029,-0.003 -0.07853,-0.1715 -0.168319,-0.37491 -0.08979,-0.20343 -0.174489,-0.39529 -0.188225,-0.42637 l -0.02496,-0.0565 0.07053,0.0879 c 0.04616,0.0575 -0.10478,0.0943 -0.109088,0.10212 -0.0043,0.008 -0.03945,0.16238 -0.0781,0.34338 l -0.07028,0.32911 H 21.48365 c -0.238209,0 -0.355277,-0.004 -0.355277,-0.0136 z"
         style="opacity:1;fill:#1d1d1f;fill-opacity:1;stroke:none;stroke-width:0.127116;stroke-miterlimit:4;stroke-dasharray:none;stroke-opacity:1" />
      <path
         inkscape:export-ydpi="100.23244"
         inkscape:export-xdpi="100.23244"
         inkscape:export-filename="C:\Users\Christian\Downloads\path1676-2.png"
         inkscape:connector-curvature="0"
         id="path1676-2"
         d="m 25.729843,280.87758 c 0.116382,-0.55129 0.218442,-1.03527 0.226799,-1.07551 l 0.01519,-0.0732 h 0.331443 c 0.25659,0 0.33139,0.004 0.331211,0.0163 -1.71e-4,0.009 -0.0087,0.0718 -0.01899,0.13959 -0.01033,0.0678 -0.01694,0.1251 -0.01474,0.12731 0.0023,0.002 0.02055,-0.0198 0.04078,-0.049 0.09562,-0.13799 0.287558,-0.26711 0.445958,-0.30001 0.08437,-0.0176 0.297615,-0.0102 0.318795,0.011 0.0124,0.0124 -0.01785,0.1762 -0.101554,0.55008 l -0.01896,0.0847 -0.165854,2.5e-4 c -0.127282,1.6e-4 -0.182528,0.006 -0.237544,0.0246 -0.205746,0.0699 -0.327911,0.20172 -0.402983,0.43474 -0.0225,0.0698 -0.08654,0.34692 -0.142312,0.61575 l -0.1014,0.48877 -0.358719,0.003 -0.358715,0.003 0.211609,-1.00233 z"
         style="opacity:1;fill:#1d1d1f;fill-opacity:1;stroke:none;stroke-width:0.127116;stroke-miterlimit:4;stroke-dasharray:none;stroke-opacity:1" />
      <path
         style="fill:#000000;stroke-width:0.0130337"
         d="m 18.250343,279.4025 c 0.0044,-0.0233 0.02977,-0.14207 0.05637,-0.26393 l 0.04836,-0.22158 0.354782,-0.003 c 0.297735,-0.003 0.354782,-3.2e-4 0.354782,0.0149 0,0.0101 -0.02347,0.1274 -0.05214,0.26072 -0.02867,0.13332 -0.05213,0.24541 -0.05213,0.24908 0,0.004 -0.161556,0.007 -0.359015,0.007 H 18.24233 Z"
         id="path1657-7"
         inkscape:connector-curvature="0"
         sodipodi:nodetypes="ccccsssscc"
         inkscape:export-xdpi="100"
         inkscape:export-ydpi="100" />
    </g>
    <g
       id="g6346"
       transform="matrix(0.33157482,0.01791102,0.00700991,0.33166001,-3.2156445,180.7962)"
       inkscape:export-xdpi="100"
       inkscape:export-ydpi="100">
      <path
         inkscape:export-ydpi="100.23244"
         inkscape:export-xdpi="100.23244"
         inkscape:export-filename="C:\Users\Christian\Downloads\path5231-8-4-9-5-8-4-2.png"
         inkscape:connector-curvature="0"
         style="font-style:normal;font-weight:normal;font-size:40px;line-height:1.25;font-family:sans-serif;letter-spacing:0px;word-spacing:0px;overflow:visible;fill:#0779ff;fill-opacity:1;stroke:none;stroke-width:0.449596;stroke-linecap:butt;stroke-linejoin:round;stroke-miterlimit:4;stroke-dasharray:none;stroke-opacity:1"
         d="m 15.052965,281.62817 -3.397013,5.13991 -7.1378739,10.23191 14.9808779,-11.06666 z"
         id="path5231-8-4-9-5-8-4-2" />
      <path
         inkscape:export-ydpi="100.23244"
         inkscape:export-xdpi="100.23244"
         inkscape:export-filename="C:\Users\Christian\Downloads\path5229-6-8-6-9-7-7-6.png"
         inkscape:connector-curvature="0"
         style="font-style:normal;font-weight:normal;font-size:40px;line-height:1.25;font-family:sans-serif;letter-spacing:0px;word-spacing:0px;overflow:visible;opacity:1;fill:#96bfff;fill-opacity:1;stroke:none;stroke-width:0.449596;stroke-linecap:butt;stroke-linejoin:round;stroke-miterlimit:4;stroke-dasharray:none;stroke-opacity:1"
         d="m 21.742671,270.54166 -14.9797566,11.06547 4.4449396,4.30524 3.397025,-5.13988 z"
         id="path5229-6-8-6-9-7-7-6" />
    </g>
  </g>
</svg>
