<?xml version="1.0" encoding="UTF-8" standalone="no"?>
<svg
   xmlns:dc="http://purl.org/dc/elements/1.1/"
   xmlns:cc="http://creativecommons.org/ns#"
   xmlns:rdf="http://www.w3.org/1999/02/22-rdf-syntax-ns#"
   xmlns:svg="http://www.w3.org/2000/svg"
   xmlns="http://www.w3.org/2000/svg"
   xmlns:sodipodi="http://sodipodi.sourceforge.net/DTD/sodipodi-0.dtd"
   xmlns:inkscape="http://www.inkscape.org/namespaces/inkscape"
   width="368"
   height="100"
   viewBox="0 0 97.36673 26.458333"
   version="1.1"
   id="svg2045"
   sodipodi:docname="logo-white.svg"
   inkscape:version="1.0.2-2 (e86c870879, 2021-01-15)">
  <defs
     id="defs2039" />
  <sodipodi:namedview
     id="base"
     pagecolor="#ffffff"
     bordercolor="#666666"
     borderopacity="1.0"
     inkscape:pageopacity="0.0"
     inkscape:pageshadow="2"
     inkscape:zoom="2.8284272"
     inkscape:cx="111.61752"
     inkscape:cy="-43.837707"
     inkscape:document-units="mm"
     inkscape:current-layer="layer1"
     showgrid="false"
     units="px"
     height="100px"
     inkscape:window-width="3153"
     inkscape:window-height="2126"
     inkscape:window-x="-11"
     inkscape:window-y="-11"
     inkscape:window-maximized="1"
     inkscape:document-rotation="0" />
  <metadata
     id="metadata2042">
    <rdf:RDF>
      <cc:Work
         rdf:about="">
        <dc:format>image/svg+xml</dc:format>
        <dc:type
           rdf:resource="http://purl.org/dc/dcmitype/StillImage" />
        <dc:title></dc:title>
      </cc:Work>
    </rdf:RDF>
  </metadata>
  <g
     inkscape:label="Ebene 1"
     inkscape:groupmode="layer"
     id="layer1"
     transform="translate(0,-270.54166)">
    <g
       id="g6342"
       transform="matrix(1.7621721,0,0,1.7621721,-24.36093,-219.05791)"
       style="fill:#ffffff;stroke:none;stroke-width:0.397237;stroke-miterlimit:4;stroke-dasharray:none;stroke-opacity:1">
      <path
         inkscape:export-ydpi="100.23244"
         inkscape:export-xdpi="100.23244"
         inkscape:export-filename="C:\Users\Christian\Downloads\path1676-2.png"
         inkscape:connector-curvature="0"
         id="path1690-2"
         d="m 59.310191,282.91988 c -1.661791,-0.0297 -3.109403,0.87691 -3.763103,2.38535 -0.242302,0.55914 -0.344583,1.03449 -0.367502,1.70489 -0.01755,0.5126 -0.0091,0.63984 0.06553,0.93681 0.1398,0.55811 0.33305,0.90448 0.714032,1.28129 0.466912,0.4618 1.002078,0.72146 1.714842,0.83251 0.388297,0.0606 1.291613,0.0184 1.686007,-0.0786 0.600916,-0.14788 1.153389,-0.44361 1.611027,-0.86185 0.378295,-0.34575 0.93505,-1.14004 0.851393,-1.2147 -0.01918,-0.017 -0.487017,-0.0607 -1.040119,-0.0965 l -1.006055,-0.065 -0.277321,0.27679 c -0.340057,0.33956 -0.562212,0.42982 -1.051138,0.4278 -0.711991,-0.002 -1.109055,-0.37681 -1.131332,-1.06477 l -0.0091,-0.27469 2.432016,-0.0104 2.432017,-0.0105 0.04353,-0.1604 c 0.167675,-0.62269 0.187306,-1.44746 0.04718,-1.96911 -0.204725,-0.76214 -0.6698,-1.33675 -1.353102,-1.67237 -0.447778,-0.21993 -0.735245,-0.2993 -1.263979,-0.34809 -0.112517,-0.0103 -0.224213,-0.0163 -0.334996,-0.0183 z m -0.01156,1.60578 c 0.17359,2.8e-4 0.233061,0.0247 0.39057,0.10748 0.316329,0.16639 0.454503,0.39807 0.480738,0.80682 l 0.01938,0.30512 h -1.310633 -1.311163 l 0.150987,-0.28729 c 0.189497,-0.36063 0.460885,-0.64831 0.74968,-0.7953 0.187205,-0.0953 0.287408,-0.11685 0.610756,-0.13054 0.0909,-0.003 0.161802,-0.006 0.219659,-0.006 z"
         style="opacity:1;fill:#ffffff;fill-opacity:1;stroke:none;stroke-width:0.397237;stroke-miterlimit:4;stroke-dasharray:none;stroke-opacity:1" />
      <path
         inkscape:export-ydpi="100.23244"
         inkscape:export-xdpi="100.23244"
         inkscape:export-filename="C:\Users\Christian\Downloads\path1676-2.png"
         inkscape:connector-curvature="0"
         id="path1686-8"
         d="m 27.434071,289.81007 c 0,-0.0433 1.732087,-8.21417 1.899995,-8.96315 l 0.06169,-0.27493 h 3.523237 l 2.778811,0.003 -0.02993,0.13238 c -0.01653,0.0728 -0.1154,0.53562 -0.219811,1.02846 l -0.189843,0.8961 -1.561711,0.006 c -2.151864,0.0102 -2.30751,0.0153 -2.326764,0.0815 -0.03977,0.13687 -0.310497,1.44575 -0.310497,1.50141 0,0.047 0.31633,0.0562 1.934743,0.0562 1.815356,0 1.934762,0.003 1.934995,0.0713 1.13e-4,0.0393 -0.08633,0.48826 -0.192073,0.99793 l -0.192318,0.92664 h -1.965918 -1.965918 l -0.02263,0.0916 c -0.01248,0.0505 -0.183786,0.85229 -0.38077,1.78199 l -0.358167,1.69036 -1.208537,0.0107 c -0.932371,0.009 -1.208526,-5.5e-4 -1.208526,-0.0392 z"
         style="opacity:1;fill:#ffffff;fill-opacity:1;stroke:none;stroke-width:0.397237;stroke-miterlimit:4;stroke-dasharray:none;stroke-opacity:1" />
      <path
         inkscape:export-ydpi="100.23244"
         inkscape:export-xdpi="100.23244"
         inkscape:export-filename="C:\Users\Christian\Downloads\path1676-2.png"
         inkscape:connector-curvature="0"
         id="path1684-3"
         d="m 34.742712,289.74666 c 0.01268,-0.0616 0.456776,-2.14655 0.98695,-4.63319 l 0.963972,-4.52119 1.109675,-0.0108 c 0.90504,-0.009 1.109695,-7.8e-4 1.109695,0.0436 0,0.0426 -1.845367,8.76053 -1.935099,9.14191 l -0.0216,0.0916 h -1.118321 -1.118316 z"
         style="opacity:1;fill:#ffffff;fill-opacity:1;stroke:none;stroke-width:0.397237;stroke-miterlimit:4;stroke-dasharray:none;stroke-opacity:1" />
      <path
         inkscape:export-ydpi="100.23244"
         inkscape:export-xdpi="100.23244"
         inkscape:export-filename="C:\Users\Christian\Downloads\path1676-2.png"
         inkscape:connector-curvature="0"
         id="path1682-2"
         d="m 37.867009,289.76703 c 0.03338,-0.13935 1.405247,-6.59636 1.405247,-6.6138 0,-0.008 0.50604,-0.0152 1.124526,-0.0152 h 1.124527 l -0.02263,0.0916 c -0.01248,0.0504 -0.325795,1.52132 -0.696309,3.26869 -0.370524,1.74737 -0.683424,3.2183 -0.695344,3.2687 l -0.0217,0.0916 h -1.120118 -1.120112 z"
         style="opacity:1;fill:#ffffff;fill-opacity:1;stroke:none;stroke-width:0.397237;stroke-miterlimit:4;stroke-dasharray:none;stroke-opacity:1" />
      <path
         inkscape:export-ydpi="100.23244"
         inkscape:export-xdpi="100.23244"
         inkscape:export-filename="C:\Users\Christian\Downloads\path1676-2.png"
         inkscape:connector-curvature="0"
         id="path1680-6"
         d="m 41.650788,286.72765 c 0.363717,-1.72279 0.682654,-3.23524 0.708757,-3.36098 l 0.04748,-0.22866 h 1.057976 1.057975 l -0.02232,0.13237 c -0.0697,0.4137 -0.104532,0.69488 -0.08806,0.71135 0.01024,0.0102 0.05103,-0.0307 0.09059,-0.091 0.116485,-0.17778 0.605977,-0.56653 0.884102,-0.70214 0.864002,-0.42127 2.022474,-0.28989 2.608132,0.29578 0.221423,0.22141 0.407522,0.5917 0.477036,0.94916 0.09617,0.49431 0.03499,0.92345 -0.462296,3.24609 l -0.462214,2.15876 -1.123217,0.0108 -1.123217,0.0109 0.0345,-0.15337 c 0.365482,-1.62686 0.821112,-3.91423 0.825666,-4.14505 0.0071,-0.36161 -0.07345,-0.52574 -0.311144,-0.63365 -0.508962,-0.23107 -1.212788,0.0397 -1.565953,0.60246 -0.19803,0.31555 -0.24425,0.48715 -0.657596,2.44149 l -0.39477,1.86649 -1.121351,0.0109 -1.12133,0.0109 z"
         style="opacity:1;fill:#ffffff;fill-opacity:1;stroke:none;stroke-width:0.397237;stroke-miterlimit:4;stroke-dasharray:none;stroke-opacity:1" />
      <path
         inkscape:export-ydpi="100.23244"
         inkscape:export-xdpi="100.23244"
         inkscape:export-filename="C:\Users\Christian\Downloads\path1676-2.png"
         sodipodi:nodetypes="cccccccccccccccccccscccscc"
         inkscape:connector-curvature="0"
         id="path1678-0"
         d="m 48.462884,289.81615 c 0,-0.0314 1.890185,-8.44572 1.890185,-8.44572 l 0.04627,-0.21383 2.258557,-0.57454 c 0,0 -0.21907,1.03617 -0.486399,2.29015 -0.26734,1.25396 -0.48016,2.28583 -0.472937,2.29305 0.0071,0.007 -0.01745,-0.44622 0.601371,-1.00762 l 1.125095,-1.02075 1.381418,0.0106 1.381405,0.0106 -1.605538,1.36426 c -0.883056,0.75035 -1.604616,1.38271 -1.603469,1.40524 10e-4,0.0226 0.439134,0.91159 0.973315,1.9757 l 0.971247,1.93475 -1.223886,0.0107 c -0.673147,0.006 -1.231018,0.002 -1.239722,-0.004 -0.0091,-0.009 -0.245396,-0.53593 -0.525996,-1.17161 -0.280588,-0.63571 -0.545279,-1.23528 -0.588202,-1.33239 l -0.07801,-0.17659 0.220419,0.27454 c 0.14425,0.17967 -0.327439,0.2946 -0.340902,0.31914 -0.01349,0.0246 -0.12328,0.50742 -0.244065,1.07307 l -0.219619,1.02845 h -1.110247 c -0.744405,0 -1.110243,-0.014 -1.110243,-0.0425 z"
         style="opacity:1;fill:#ffffff;fill-opacity:1;stroke:none;stroke-width:0.397237;stroke-miterlimit:4;stroke-dasharray:none;stroke-opacity:1" />
      <path
         inkscape:export-ydpi="100.23244"
         inkscape:export-xdpi="100.23244"
         inkscape:export-filename="C:\Users\Christian\Downloads\path1676-2.png"
         inkscape:connector-curvature="0"
         id="path1676-2"
         d="m 62.842539,286.72765 c 0.363695,-1.72279 0.682633,-3.23524 0.708747,-3.36098 l 0.04748,-0.22866 h 1.035759 c 0.801845,0 1.035595,0.0115 1.035037,0.0509 -5.37e-4,0.028 -0.02708,0.2243 -0.05935,0.43621 -0.03227,0.2119 -0.05295,0.39095 -0.04606,0.39785 0.0071,0.007 0.06421,-0.062 0.127431,-0.15313 0.298818,-0.4312 0.898618,-0.83471 1.39362,-0.93752 0.263646,-0.0549 0.930048,-0.0318 0.996233,0.0345 0.03876,0.0388 -0.05579,0.55064 -0.317354,1.71901 l -0.05924,0.26476 -0.518293,7.8e-4 c -0.397755,5.3e-4 -0.570401,0.0183 -0.742326,0.0768 -0.642957,0.21853 -1.024722,0.63037 -1.259322,1.35856 -0.07031,0.21823 -0.270434,1.08414 -0.444725,1.92421 l -0.316877,1.52742 -1.120996,0.0109 -1.120986,0.0108 0.661278,-3.13231 z"
         style="opacity:1;fill:#ffffff;fill-opacity:1;stroke:none;stroke-width:0.397237;stroke-miterlimit:4;stroke-dasharray:none;stroke-opacity:1" />
      <path
         style="fill:#ffffff;stroke-width:0.0407304"
         d="m 39.469083,282.11801 c 0.0138,-0.0728 0.09303,-0.44396 0.176162,-0.82479 l 0.151115,-0.69242 1.108694,-0.0108 c 0.930422,-0.009 1.108694,-10e-4 1.108694,0.0465 0,0.0316 -0.07335,0.39813 -0.162924,0.81477 -0.08958,0.41662 -0.162923,0.76689 -0.162923,0.77836 0,0.0115 -0.504862,0.0209 -1.121923,0.0209 h -1.121933 z"
         id="path1657-7"
         inkscape:connector-curvature="0"
         sodipodi:nodetypes="ccccsssscc" />
    </g>
    <g
       id="g6346"
       transform="matrix(1.0361721,0.05597197,0.021906,1.0364383,-11.131821,-11.069376)">
      <path
         inkscape:export-ydpi="100.23244"
         inkscape:export-xdpi="100.23244"
         inkscape:export-filename="C:\Users\Christian\Downloads\path5231-8-4-9-5-8-4-2.png"
         inkscape:connector-curvature="0"
         style="font-style:normal;font-weight:normal;font-size:40px;line-height:1.25;font-family:sans-serif;letter-spacing:0px;word-spacing:0px;overflow:visible;fill:#0779ff;fill-opacity:1;stroke:none;stroke-width:0.449596;stroke-linecap:butt;stroke-linejoin:round;stroke-miterlimit:4;stroke-dasharray:none;stroke-opacity:1"
         d="m 15.052965,281.62817 -3.397013,5.13991 -7.1378739,10.23191 14.9808779,-11.06666 z"
         id="path5231-8-4-9-5-8-4-2" />
      <path
         inkscape:export-ydpi="100.23244"
         inkscape:export-xdpi="100.23244"
         inkscape:export-filename="C:\Users\Christian\Downloads\path5229-6-8-6-9-7-7-6.png"
         inkscape:connector-curvature="0"
         style="font-style:normal;font-weight:normal;font-size:40px;line-height:1.25;font-family:sans-serif;letter-spacing:0px;word-spacing:0px;overflow:visible;opacity:1;fill:#96bfff;fill-opacity:1;stroke:none;stroke-width:0.449596;stroke-linecap:butt;stroke-linejoin:round;stroke-miterlimit:4;stroke-dasharray:none;stroke-opacity:1"
         d="m 21.742671,270.54166 -14.9797566,11.06547 4.4449396,4.30524 3.397025,-5.13988 z"
         id="path5229-6-8-6-9-7-7-6" />
    </g>
  </g>
</svg>
