<?xml version="1.0" encoding="UTF-8"?>
<svg id="ARX_SMART_MINDS" xmlns="http://www.w3.org/2000/svg" version="1.1" viewBox="0 0 1062.992126 566.9291339">
  <!-- Generator: Adobe Illustrator 29.8.2, SVG Export Plug-In . SVG Version: 2.1.1 Build 3)  -->
  <path d="M318.6471065,510.3191865c-1.250302-.8753953-1.8754529-1.875847-1.8754529-3.3765246,0-1.7507906,1.5003624-3.5015811,3.6258757-3.5015811.8752114,0,1.8754529.3751694,2.6256341.8753953,5.6263588,3.751694,13.5032612,7.5033881,22.6304655,7.5033881,13.6282914,0,22.0053145-7.0031622,22.0053145-17.382849,0-8.5038398-4.7511474-14.5065503-20.3799219-16.5074538l-4.0009663-.5002259c-16.6290161-2.12596-24.3808882-10.1295739-24.3808882-22.5101642,0-14.7566632,10.5025365-23.8857854,26.6314317-23.8857854,9.0021741,0,16.6290161,2.3760729,21.8802843,5.6275411,1.6253925,1.0004517,2.3755737,2.2510164,2.3755737,3.5015811,0,1.7507906-1.3753322,3.3765246-3.3758153,3.3765246-.8752114,0-1.7504227-.3751694-2.5006039-.7503388-5.751389-3.1264117-11.7528384-5.0022587-18.6294992-5.0022587-12.3779894,0-19.2546502,6.8781057-19.2546502,16.5074538,0,8.7539528,5.3762984,14.3814938,20.0048313,16.2573408l3.8759361.5002259c16.8790764,2.12596,24.881009,10.1295739,24.881009,22.8853336,0,14.3814938-10.2524761,24.6361242-30.007247,24.6361242-10.5025365,0-19.8798011-3.8767505-26.1313109-8.2537269ZM390.2874551,436.2857575c0-2.8762988,1.5003624-4.5020328,4.2510267-4.5020328,2.1255133,0,3.6258757,1.2505647,4.7511474,3.8767505l26.3813713,58.7765399h.5001208l26.0062807-58.7765399c1.1252718-2.6261858,2.6256341-3.8767505,4.7511474-3.8767505,2.7506643,0,4.2510267,1.6257341,4.2510267,4.5020328v77.6600666c0,2.5011294-1.5003624,3.8767505-3.6258757,3.8767505-2.0004831,0-3.5008455-1.3756211-3.5008455-3.8767505v-64.2790245h-.5001208l-23.1305862,51.1480954c-1.6253925,3.5015811-2.6256341,4.2519199-4.6261172,4.2519199-2.1255133,0-3.1257549-.7503388-4.7511474-4.2519199l-23.005556-51.1480954h-.625151v64.2790245c0,2.5011294-1.5003624,3.8767505-3.6258757,3.8767505-2.0004831,0-3.5008455-1.3756211-3.5008455-3.8767505v-77.6600666ZM473.4315586,513.1954853l28.0067639-77.6600666c.8752114-2.5011294,2.2505435-3.751694,4.5010871-3.751694s3.6258757,1.2505647,4.5010871,3.751694l27.7567035,77.6600666c.1250302.3751694.2500604.8753953.2500604,1.3756211,0,2.0009035-1.5003624,3.2514682-3.3758153,3.2514682-1.7504227,0-2.8756945-.8753953-3.5008455-2.5011294l-7.2517514-20.1340913h-37.008938l-7.2517514,20.1340913c-.625151,1.6257341-1.7504227,2.5011294-3.5008455,2.5011294-1.8754529,0-3.3758153-1.2505647-3.3758153-3.2514682,0-.5002259.1250302-1.0004517.2500604-1.3756211ZM521.9432746,488.3092481l-15.8788349-44.5201026h-.3750906l-16.0038651,44.5201026h32.2577905ZM599.0859287,515.5715582l-17.6292576-36.2663757h-23.1305862c-.5001208,0-.7501812.2501129-.7501812.7503388v33.8903028c0,2.5011294-1.5003624,3.8767505-3.6258757,3.8767505-2.0004831,0-3.5008455-1.3756211-3.5008455-3.8767505v-78.2853489c0-2.12596,1.3753322-3.3765246,3.5008455-3.3765246h26.3813713c15.8788349,0,25.7562204,8.8790092,25.7562204,23.510616,0,11.8803645-6.6266004,20.0090349-17.5042274,22.6352207l17.0041066,34.2654722c.2500604.6252823.3750906,1.1255082.3750906,1.7507906,0,1.7507906-1.250302,3.3765246-3.5008455,3.3765246-1.3753322,0-2.5006039-.7503388-3.3758153-2.2510164ZM598.9608985,455.7945665c0-10.7548562-6.5015702-16.7575667-18.7545294-16.7575667h-21.8802843c-.5001208,0-.7501812.2501129-.7501812.7503388v32.0144558c0,.5002259.2500604.7503388.7501812.7503388h21.8802843c12.2529592,0,18.7545294-6.0027105,18.7545294-16.7575667ZM638.4704404,513.9458241v-74.1584855c0-.5002259-.2500604-.7503388-.7501812-.7503388h-22.5054353c-2.3755737,0-3.6258757-1.3756211-3.6258757-3.3765246s1.250302-3.3765246,3.6258757-3.3765246h53.637954c2.3755737,0,3.6258757,1.3756211,3.6258757,3.3765246s-1.250302,3.3765246-3.6258757,3.3765246h-22.5054353c-.5001208,0-.7501812.2501129-.7501812.7503388v74.1584855c0,2.5011294-1.5003624,3.8767505-3.6258757,3.8767505-2.0004831,0-3.5008455-1.3756211-3.5008455-3.8767505ZM698.9850552,436.2857575c0-2.8762988,1.5003624-4.5020328,4.2510267-4.5020328,2.1255133,0,3.6258757,1.2505647,4.7511474,3.8767505l26.3813713,58.7765399h.5001208l26.0062807-58.7765399c1.1252718-2.6261858,2.6256341-3.8767505,4.7511474-3.8767505,2.7506643,0,4.2510267,1.6257341,4.2510267,4.5020328v77.6600666c0,2.5011294-1.5003624,3.8767505-3.6258757,3.8767505-2.0004831,0-3.5008455-1.3756211-3.5008455-3.8767505v-64.2790245h-.5001208l-23.1305862,51.1480954c-1.6253925,3.5015811-2.6256341,4.2519199-4.6261172,4.2519199-2.1255133,0-3.1257549-.7503388-4.7511474-4.2519199l-23.005556-51.1480954h-.625151v64.2790245c0,2.5011294-1.5003624,3.8767505-3.6258757,3.8767505-2.0004831,0-3.5008455-1.3756211-3.5008455-3.8767505v-77.6600666ZM792.1305976,435.6604751c0-2.5011294,1.5003624-3.8767505,3.5008455-3.8767505,2.1255133,0,3.6258757,1.3756211,3.6258757,3.8767505v78.2853489c0,2.5011294-1.5003624,3.8767505-3.6258757,3.8767505-2.0004831,0-3.5008455-1.3756211-3.5008455-3.8767505v-78.2853489ZM821.5126936,436.2857575c0-2.8762988,1.5003624-4.5020328,4.3760569-4.5020328,2.3755737,0,3.6258757,1.2505647,5.126238,3.8767505l40.8848741,67.7806056h.3750906v-67.7806056c0-2.5011294,1.3753322-3.8767505,3.5008455-3.8767505s3.6258757,1.3756211,3.6258757,3.8767505v77.6600666c0,2.8762988-1.6253925,4.5020328-4.3760569,4.5020328-2.3755737,0-3.6258757-1.2505647-5.2512682-3.8767505l-40.6348137-67.9056621h-.5001208v67.9056621c0,2.5011294-1.5003624,3.8767505-3.6258757,3.8767505-2.0004831,0-3.5008455-1.3756211-3.5008455-3.8767505v-77.6600666ZM901.6550956,435.6604751c0-2.12596,1.3753322-3.3765246,3.5008455-3.3765246h22.3804051c15.6287745,0,24.881009,6.8781057,28.8819753,19.2586961,1.8754529,5.877654,2.5006039,11.0049692,2.5006039,23.260503s-.625151,17.382849-2.5006039,23.260503c-4.0009663,12.3805903-13.2532008,19.2586961-28.8819753,19.2586961h-22.3804051c-2.1255133,0-3.5008455-1.2505647-3.5008455-3.3765246v-78.2853489ZM909.5319979,510.5692994h17.0041066c12.75308,0,19.5047106-4.2519199,23.005556-14.8817197,1.6253925-5.1273152,2.2505435-10.0045174,2.2505435-20.8844301s-.625151-15.757115-2.2505435-20.8844301c-3.5008455-10.6297998-10.2524761-14.8817197-23.005556-14.8817197h-17.0041066c-.5001208,0-.7501812.2501129-.7501812.7503388v70.031622c0,.5002259.2500604.7503388.7501812.7503388ZM973.5464814,510.3191865c-1.250302-.8753953-1.8754529-1.875847-1.8754529-3.3765246,0-1.7507906,1.5003624-3.5015811,3.6258757-3.5015811.8752114,0,1.8754529.3751694,2.6256341.8753953,5.6263588,3.751694,13.5032612,7.5033881,22.6304655,7.5033881,13.6282914,0,22.0053145-7.0031622,22.0053145-17.382849,0-8.5038398-4.7511474-14.5065503-20.3799219-16.5074538l-4.0009663-.5002259c-16.6290161-2.12596-24.3808882-10.1295739-24.3808882-22.5101642,0-14.7566632,10.5025365-23.8857854,26.6314317-23.8857854,9.0021741,0,16.6290161,2.3760729,21.8802843,5.6275411,1.6253925,1.0004517,2.3755737,2.2510164,2.3755737,3.5015811,0,1.7507906-1.3753322,3.3765246-3.3758153,3.3765246-.8752114,0-1.7504227-.3751694-2.5006039-.7503388-5.751389-3.1264117-11.7528384-5.0022587-18.6294992-5.0022587-12.3779894,0-19.2546502,6.8781057-19.2546502,16.5074538,0,8.7539528,5.3762984,14.3814938,20.0048313,16.2573408l3.8759361.5002259c16.8790764,2.12596,24.881009,10.1295739,24.881009,22.8853336,0,14.3814938-10.2524761,24.6361242-30.007247,24.6361242-10.5025365,0-19.8798011-3.8767505-26.1313109-8.2537269ZM318.1479112,351.8303676l76.7031736-212.1823973c7.9196599-22.5107991,20.4259312-35.8503325,42.1024896-35.8503325s34.5997054,13.3395334,42.5193653,35.8503325l75.4525464,212.1823973c1.2496485,3.3350057,2.0834,7.5027842,2.0834,11.6715413,0,17.5087798-14.1727956,28.7634454-29.5962183,28.7634454-13.3400227,0-24.1787912-7.9206385-28.7634454-21.6765584l-11.6725199-34.5997054h-101.2968833l-11.2556442,34.5997054c-4.5856328,13.7559199-15.4234227,21.6765584-28.7634454,21.6765584-15.4234227,0-29.5971969-11.2546656-29.5971969-28.7634454,0-4.1687571.8337514-8.3365356,2.0843786-11.6715413ZM469.8857769,283.8815839l-32.5153268-99.2125048h-1.2506271l-32.9322025,99.2125048h66.6981565ZM730.1213725,373.0900502l-47.5218738-91.2928448h-41.6856139c-1.6675028,0-2.5012543.8337514-2.5012543,2.5012543v75.4515678c0,19.5931584-12.5062713,32.5153268-30.4309483,32.5153268-17.9256555,0-30.847824-12.9221684-30.847824-32.5153268v-226.3551928c0-16.2576634,10.0050171-27.0959426,26.6790669-27.0959426h90.0422177c58.3596637,0,96.7112505,36.2672082,96.7112505,87.9583285,0,34.5987268-17.5078013,62.1115451-46.6881224,76.702195l41.2687382,75.0346921c2.91813,5.4193842,4.1687571,11.2546656,4.1687571,17.0909255,0,15.841277-10.8387685,29.1803212-29.1803212,29.1803212-12.5052927,0-22.9271855-5.8362599-30.0140726-19.1753041ZM729.2876211,194.6740962c0-21.6775369-15.006547-35.4339461-38.3506082-35.4339461h-50.0231281c-1.6675028,0-2.5012543.8337514-2.5012543,2.5012543v65.4470401c0,1.6675028.8337514,2.5012543,2.5012543,2.5012543h50.0231281c23.3440612,0,38.3506082-13.7559199,38.3506082-35.0156025ZM976.2012751,377.675683l-55.859388-82.5384549h-.8337514l-55.859388,82.5384549c-6.6690328,10.0040385-15.006547,14.5896713-25.4284398,14.5896713-16.6740498,0-28.7624669-12.088417-28.7624669-27.5128183,0-6.2531357,2.0834-12.5052927,6.2521571-18.7584284l69.1994108-101.713759-64.1969022-94.2109748c-4.1687571-6.2531357-6.2531357-12.505782-6.2531357-18.7589177,0-15.423912,12.0893956-27.5128183,28.7634454-27.5128183,10.4218928,0,18.759407,4.5856328,25.4284398,14.5901606l50.8568795,75.0356707h.8337514l50.8568795-75.0356707c6.6700114-10.0045278,15.0075256-14.5901606,25.4284398-14.5901606,16.6750284,0,28.7634454,12.0889063,28.7634454,27.5128183,0,6.2531357-2.0843786,12.505782-6.2521571,18.7589177l-64.613778,94.2109748,69.6153079,101.713759c4.1687571,6.2531357,6.2531357,12.5052927,6.2531357,18.7584284,0,15.4244013-12.088417,27.5128183-28.7634454,27.5128183-10.4209142,0-18.7584284-4.5856328-25.4284398-14.5896713ZM177.1750488,28.3464355C94.9744873,28.3464355,28.3464355,94.9779053,28.3464355,177.1676636c0,55.236084,30.0977173,103.4481201,74.7820435,129.1261597,21.8030396,12.5354004,47.0895996,19.6904297,74.0465698,19.6904297,82.1810303,0,148.8092041-66.6345215,148.8092041-148.8165894,0-82.1897583-66.6281738-148.821228-148.8092041-148.821228ZM222.3977661,269.2913208h-90.4676514c-3.8551025,0-6.9789429-3.1252441-6.9789429-6.9803467,0-1.2266846.3174438-2.3779907.8731079-3.3796387-.0002441.0004272,45.1987305-78.1035767,45.1987305-78.1035767,1.180542-2.1809082,3.4882812-3.6624146,6.142334-3.6624146,2.6544189,0,4.9622803,1.4818726,6.1427612,3.663269,0,0,45.1955566,78.1021729,45.1954956,78.1021118.5559082,1.0018311.8759155,2.1533203.8759155,3.380249,0,3.8551025-3.1266479,6.9803467-6.9817505,6.9803467ZM222.3977661,155.9055176h-90.4676514c-3.8551025,0-6.9789429-3.1252441-6.9789429-6.9803467,0-1.2266846.3174438-2.3779907.8731079-3.3796387-.0002441.0004272,45.1987305-78.1035767,45.1987305-78.1035767,1.180542-2.1809082,3.4882812-3.6624146,6.142334-3.6624146,2.6544189,0,4.9622803,1.4818726,6.1427612,3.663269,0,0,45.1955566,78.1021729,45.1954956,78.1021118.5559082,1.0018311.8759155,2.1533203.8759155,3.380249,0,3.8551025-3.1266479,6.9803467-6.9817505,6.9803467Z"/>
</svg>