<?xml version="1.0" encoding="UTF-8" standalone="no"?>
<svg
   xmlns:dc="http://purl.org/dc/elements/1.1/"
   xmlns:cc="http://creativecommons.org/ns#"
   xmlns:rdf="http://www.w3.org/1999/02/22-rdf-syntax-ns#"
   xmlns:svg="http://www.w3.org/2000/svg"
   xmlns="http://www.w3.org/2000/svg"
   xmlns:sodipodi="http://sodipodi.sourceforge.net/DTD/sodipodi-0.dtd"
   xmlns:inkscape="http://www.inkscape.org/namespaces/inkscape"
   width="160"
   height="80"
   viewBox="0 0 160 80"
   fill="none"
   version="1.1"
   id="svg869"
   sodipodi:docname="brand-logo-32.svg"
   inkscape:version="1.0.2-2 (e86c870879, 2021-01-15)">
  <metadata
     id="metadata875">
    <rdf:RDF>
      <cc:Work
         rdf:about="">
        <dc:format>image/svg+xml</dc:format>
        <dc:type
           rdf:resource="http://purl.org/dc/dcmitype/StillImage" />
        <dc:title></dc:title>
      </cc:Work>
    </rdf:RDF>
  </metadata>
  <defs
     id="defs873" />
  <sodipodi:namedview
     pagecolor="#ffffff"
     bordercolor="#666666"
     borderopacity="1"
     objecttolerance="10"
     gridtolerance="10"
     guidetolerance="10"
     inkscape:pageopacity="0"
     inkscape:pageshadow="2"
     inkscape:window-width="1260"
     inkscape:window-height="770"
     id="namedview871"
     showgrid="false"
     inkscape:zoom="2.7875475"
     inkscape:cx="61.682468"
     inkscape:cy="62.329609"
     inkscape:window-x="-6"
     inkscape:window-y="-6"
     inkscape:window-maximized="1"
     inkscape:current-layer="svg869"
     inkscape:document-rotation="0"
     inkscape:snap-global="true"
     inkscape:snap-bbox="false"
     inkscape:snap-grids="false"
     inkscape:snap-to-guides="false"
     inkscape:snap-page="true"
     inkscape:snap-text-baseline="true"
     inkscape:snap-others="false" />
  <style
     type="text/css"
     id="style2448">
	.st0{fill:#00A896;}
	.st1{fill:#29327B;}
</style>
  <style
     type="text/css"
     id="style671">
	.st0{fill:none;}
	.st1{fill:#0F05A0;}
</style>
  <g
     id="g86"
     transform="matrix(0.79558334,0,0,0.79558334,20.327586,25)">
    <path
       d="m 30.68,7.44 c -1.56,0.6 -3.61,0.67 -4.83,1.76 a 6.28,6.28 0 0 0 -2.21,4.09 c -0.17,1.1 0.24,7.47 -0.38,8.69 a 5.28,5.28 0 0 1 -2,2.31 4.29,4.29 0 0 1 -5.28,-1.18 c -1.23,-1.6 -0.95,-3 -0.95,-4.89 0,-2.7 0.14,-6.54 -0.82,-8.11 A 7.56,7.56 0 0 0 10.36,6.8 5.43,5.43 0 0 1 6.92,0 c 0,0 -5,9.9 -5.58,10.86 A 10.11,10.11 0 0 0 0,14.69 5.23,5.23 0 0 0 2.72,19.62 c 1.81,1.1 5,2.65 5.86,6 a 52.62,52.62 0 0 1 0.19,5.92 c 0,2.63 0.77,5.68 4.64,5.9 a 4,4 0 0 0 3.4,-1.88 29.47,29.47 0 0 0 1.83,-3.3 C 19.78,30.14 20.9,28.15 22,26 c 2.26,-4.21 4.64,-8.41 6.89,-12.62 1.26,-2.18 2.92,-5.43 4.33,-8.15 a 6.57,6.57 0 0 1 -2.54,2.21 z"
       fill="#0074be"
       id="path60" />
    <path
       d="M 46.7,18.75 H 33.24 v 4 h 4.67 v 14.7 h 4 V 22.78 h 4.79 z"
       fill="#231815"
       id="path62" />
    <path
       d="m 90.51,25.34 v 0 4 h 9.15 v -4 z"
       fill="#231815"
       id="path64" />
    <path
       d="m 62.87,33.56 h -1.19 a 1.17,1.17 0 0 1 -0.8,-0.32 3.76,3.76 0 0 1 -0.81,-1.56 C 59.89,31.19 55.9,20.29 55.8,20.08 a 3.5,3.5 0 0 0 -3,-1.77 v 0 a 3.38,3.38 0 0 0 -3,1.77 c -0.11,0.21 -4.09,11.11 -4.28,11.6 a 3.63,3.63 0 0 1 -0.8,1.56 1.21,1.21 0 0 1 -0.81,0.32 h -1.29 v 3.92 h 1.65 a 5.11,5.11 0 0 0 1.9,-0.3 5.5,5.5 0 0 0 2.5,-2.73 c 0.09,-0.2 4,-10.87 4.11,-11.24 0.11,0.37 4,11 4.06,11.24 a 5.64,5.64 0 0 0 2.55,2.73 4.17,4.17 0 0 0 1.9,0.3 h 5.6 V 18.74 h -4 z"
       fill="#231815"
       id="path66" />
    <polygon
       points="72.27,27.8 72.27,18.75 68.19,18.75 68.19,37.48 72.27,37.48 72.27,28.3 78.67,37.47 78.67,37.48 78.67,37.48 78.68,37.48 78.68,37.48 84.4,37.48 84.59,37.48 88.49,37.48 88.49,18.75 84.4,18.75 84.4,33.48 80.9,33.48 76.91,28.06 80.91,22.69 83.54,22.69 83.54,18.74 78.91,18.74 "
       fill="#231815"
       id="polygon68" />
    <path
       d="m 148.38,33.56 a 1.21,1.21 0 0 1 -0.81,-0.32 3.74,3.74 0 0 1 -0.8,-1.56 c -0.18,-0.49 -4.17,-11.39 -4.27,-11.6 a 3.52,3.52 0 0 0 -3,-1.77 v 0 a 3.39,3.39 0 0 0 -3,1.77 c -0.1,0.21 -4.09,11.11 -4.27,11.6 a 3.65,3.65 0 0 1 -0.81,1.56 1.17,1.17 0 0 1 -0.8,0.32 h -1.7 V 18.75 h -4.15 v 7.41 h -6.08 v -7.41 h -4.15 v 0 H 107 c -3,0 -5.26,2.92 -5.26,5.78 a 5.57,5.57 0 0 0 5.64,5.64 1.79,1.79 0 1 1 -1.67,2.13 l -3.67,1.16 a 5.78,5.78 0 1 0 10.58,-4.42 6.26,6.26 0 0 0 -5.17,-2.94 1.81,1.81 0 0 1 -1.7,-1.79 1.7,1.7 0 0 1 1.7,-1.71 h 7 v 14.88 h 4.15 v -7.37 h 6.08 v 7.37 H 131 a 5.05,5.05 0 0 0 1.9,-0.3 5.52,5.52 0 0 0 2.51,-2.73 c 0.09,-0.2 4,-10.87 4.1,-11.24 0.12,0.37 4,11 4.07,11.24 a 5.55,5.55 0 0 0 2.55,2.73 4.15,4.15 0 0 0 1.89,0.3 h 2 v -3.92 z"
       fill="#231815"
       id="path70" />
  </g>
</svg>
