<?xml version="1.0" encoding="UTF-8" standalone="no"?>
<svg
   xmlns:dc="http://purl.org/dc/elements/1.1/"
   xmlns:cc="http://creativecommons.org/ns#"
   xmlns:rdf="http://www.w3.org/1999/02/22-rdf-syntax-ns#"
   xmlns:svg="http://www.w3.org/2000/svg"
   xmlns="http://www.w3.org/2000/svg"
   xmlns:xlink="http://www.w3.org/1999/xlink"
   xmlns:sodipodi="http://sodipodi.sourceforge.net/DTD/sodipodi-0.dtd"
   xmlns:inkscape="http://www.inkscape.org/namespaces/inkscape"
   width="300"
   height="80"
   viewBox="0 0 300 80"
   fill="none"
   version="1.1"
   id="svg869"
   sodipodi:docname="brand-logo-79.svg"
   inkscape:version="1.0.2-2 (e86c870879, 2021-01-15)">
  <metadata
     id="metadata875">
    <rdf:RDF>
      <cc:Work
         rdf:about="">
        <dc:format>image/svg+xml</dc:format>
        <dc:type
           rdf:resource="http://purl.org/dc/dcmitype/StillImage" />
        <dc:title></dc:title>
      </cc:Work>
    </rdf:RDF>
  </metadata>
  <defs
     id="defs873" />
  <sodipodi:namedview
     pagecolor="#ffffff"
     bordercolor="#666666"
     borderopacity="1"
     objecttolerance="10"
     gridtolerance="10"
     guidetolerance="10"
     inkscape:pageopacity="0"
     inkscape:pageshadow="2"
     inkscape:window-width="3840"
     inkscape:window-height="2054"
     id="namedview871"
     showgrid="false"
     inkscape:zoom="44.60076"
     inkscape:cx="146.69802"
     inkscape:cy="39.692196"
     inkscape:window-x="2509"
     inkscape:window-y="-11"
     inkscape:window-maximized="1"
     inkscape:current-layer="layer1"
     inkscape:document-rotation="0" />
  <style
     type="text/css"
     id="style2">
	.st0{fill:#10384F;}
	.st1{fill:#89D329;}
	.st2{fill:#00BCFF;}
</style>
  <g
     inkscape:label="Layer 1"
     id="layer1"
     transform="matrix(0.07872497,0,0,0.07872497,138.19125,20.970149)">
    <path
       sodipodi:nodetypes="cczccc"
       id="path1458"
       d="m 42.397305,121.07525 v 167.09679 c 0,43.14485 -3.918173,92.76981 106.053695,92.76981 108.99038,0 106.204,-51.87324 106.204,-94.39509 V 121.00451 Z"
       style="fill:#ffffff;fill-opacity:1;fill-rule:evenodd;stroke:#1f61a9;stroke-width:38.1163;stroke-linecap:butt;stroke-linejoin:miter;stroke-miterlimit:4;stroke-dasharray:none;stroke-opacity:1" />
    <path
       style="fill:#1f61a9;fill-opacity:1;fill-rule:evenodd;stroke:none;stroke-width:1px;stroke-linecap:butt;stroke-linejoin:miter;stroke-opacity:1"
       d="m 148.1875,149.84375 c -29.20637,0.70533 -52.562504,15.99293 -52.5625,34.8125 0,17.48678 20.12223,31.9214 46.375,34.46875 v 91.59375 l -6.5,10 H 62.75 V 330 h 171.0625 v -9.28125 h -22.34375 c 0.031,-1.7981 0.57194,-3.76784 -0.125,-5.3125 -1.37118,-3.03902 -3.65991,-5.73094 -5.5,-8.59375 3.49888,-2.36882 7.39752,-5.85755 6.59375,-10.53125 -0.12563,-4.01914 -2.9742,-7.08299 -4.6875,-10.53125 -3.42153,-5.981 -7.9363,-11.68613 -10.25,-17.96875 -1.16964,-3.17603 0.79816,-7.15618 -0.0937,-10.4375 -1.17481,-4.32207 -3.04807,-9.25362 -5.5625,-12.46875 -0.0255,-0.0325 -0.045,-0.0888 -0.0625,-0.125 -0.47747,-1.14135 2.64739,-3.96443 2.9375,-5.375 1.93537,-3.22475 2.47953,-8.0754 -0.71875,-11 -1.02091,-0.81622 -1.5688,-1.90313 -2.3125,-2.28125 -0.57278,-0.2736 -1.28649,-0.13593 -2.4375,0.875 -0.41016,0.58787 -0.81102,0.97089 -1.15625,1.125 -0.0143,0.006 -0.0483,0.0261 -0.0625,0.0312 -0.0141,0.005 -0.0485,0.0273 -0.0625,0.0312 -0.0139,0.004 -0.0487,-0.003 -0.0625,0 -0.0344,0.006 -0.0914,0.031 -0.125,0.0312 -0.0267,-6.7e-4 -0.0675,-0.0271 -0.0937,-0.0312 -0.013,-0.003 -0.0496,0.003 -0.0625,0 -0.0257,-0.008 -0.0686,-0.02 -0.0937,-0.0312 -0.006,-0.003 -0.025,-0.028 -0.0312,-0.0312 -0.0124,-0.007 -0.0503,-0.0233 -0.0625,-0.0312 -0.006,-0.004 -0.0252,-0.0268 -0.0312,-0.0312 -0.012,-0.009 -0.0506,-0.021 -0.0625,-0.0312 -0.0591,-0.0534 -0.13193,-0.14165 -0.1875,-0.21875 -0.16564,-0.23853 -0.30579,-0.59738 -0.4375,-1.0625 -0.44298,-1.54614 -1.44759,-2.23348 -3.0625,-1.96875 -1.63152,-0.56068 -2.32624,0.28013 -2.59375,1.8125 -2.5356,-1.95123 -5.09048,-4.39252 -9.34375,-6.34375 -4.77767,-0.62444 -6.97843,4.32145 -5.6875,9 -0.21377,3.33348 2.07973,5.82094 3.5625,8.5625 0.42908,2.81256 -0.168,5.88623 0.40625,8.6875 0.52438,2.55804 1.7734,4.29281 3.6875,7.1875 0.2084,0.39199 0.3045,0.72829 0.3125,1 3.7e-4,0.0669 0.0107,0.15924 0,0.21875 -0.005,0.025 -0.024,0.07 -0.0312,0.0937 -0.008,0.0233 -0.0215,0.0718 -0.0312,0.0937 -0.0415,0.0859 -0.11757,0.18528 -0.1875,0.25 -0.0481,0.042 -0.12786,0.0923 -0.1875,0.125 -0.0229,0.0118 -0.0693,0.0207 -0.0937,0.0312 -0.0415,0.0168 -0.11067,0.0493 -0.15625,0.0625 -1.65982,0.44814 -5.83369,-1.3852 -8,-5.03125 -0.50511,-2.13732 -0.63752,-4.50236 -1.375,-6.5 -1.18136,-0.79019 -2.20434,-2.01101 -3.46875,-2.5625 -0.51775,-0.16653 -1.13885,-0.15338 -1.78125,-0.0312 V 219.125 c 26.29842,-2.56385 46.375,-16.99556 46.375,-34.46875 0,-19.27124 -24.56561,-34.81251 -54.75,-34.8125 -0.70745,0 -1.42405,-0.0169 -2.125,0 z m 10.5,121.40625 c 1.71686,2.70308 3.73746,5.41707 6.65625,7.53125 0.0159,0.0115 0.046,0.0204 0.0625,0.0312 0.0419,0.0262 0.1109,0.0716 0.15625,0.0937 0.86459,0.40327 2.30311,0.17107 2.9375,0.78125 0.0131,0.0134 0.0501,0.0483 0.0625,0.0625 0.12629,0.15313 0.2225,0.36371 0.25,0.625 1.13569,3.61238 2.27055,7.23137 3.40625,10.84375 1.24451,5.3241 2.97854,6.71177 5,9.625 0.65787,0.61747 1.32794,1.22295 1.53125,1.78125 0.0216,0.064 0.0538,0.15554 0.0625,0.21875 0.006,0.0541 0.005,0.13396 0,0.1875 -0.0134,0.10689 -0.0634,0.23902 -0.125,0.34375 -0.20882,0.33106 -0.6869,0.65885 -1.53125,0.96875 -2.46606,3.36723 7.406,8.94764 8.6875,10.78125 0.01,0.0148 0.0225,0.0482 0.0312,0.0625 0.0204,0.035 0.0498,0.0932 0.0625,0.125 0.004,0.0124 0.0281,0.0193 0.0312,0.0312 0.31224,1.17249 -2.44826,3.85123 -3.71875,5.375 h -17.03125 l -6.53125,-10 z"
       id="path1460" />
    <path
       style="fill:#ffffff;fill-opacity:1;fill-rule:evenodd;stroke:none;stroke-width:0.225;stroke-miterlimit:4;stroke-opacity:1"
       d="M 41.46875,106.9375 37,114.65625 h -8.9375 l 5.65625,7.6875 -5.65625,7.6875 H 37 l 4.46875,7.6875 4.46875,-7.6875 h 8.9375 l -5.65625,-7.6875 5.65625,-7.6875 h -8.9375 z m 107.0625,0 -4.46875,7.71875 h -8.9375 l 5.65625,7.6875 -5.65625,7.6875 h 8.9375 l 4.46875,7.6875 4.46875,-7.6875 h 8.9375 l -5.6875,-7.6875 5.6875,-7.6875 H 153 Z m 107.03125,0 -4.46875,7.71875 h -8.9375 l 5.6875,7.6875 -5.6875,7.6875 h 8.9375 l 4.46875,7.6875 4.46875,-7.6875 h 8.9375 l -5.65625,-7.6875 5.65625,-7.6875 h -8.9375 z M 135.28125,178.875 c -2.91972,0.34466 -5.1875,2.71323 -5.1875,5.5625 0,3.09018 2.66614,5.59375 5.9375,5.59375 3.28237,0 5.93749,-2.50357 5.9375,-5.59375 0,-3.08746 -2.66615,-5.56249 -5.9375,-5.5625 -0.20446,0 -0.42586,-0.019 -0.625,0 -0.0467,0.004 -0.0787,-0.005 -0.125,0 z m -27.59375,1.21875 c -2.91972,0.34466 -5.1875,2.71324 -5.1875,5.5625 0,3.09018 2.63489,5.59375 5.90625,5.59375 3.28237,0 5.9375,-2.50357 5.9375,-5.59375 0,-3.08746 -2.66615,-5.5625 -5.9375,-5.5625 -0.20446,0 -0.39461,-0.019 -0.59375,0 -0.0467,0.004 -0.0786,-0.005 -0.125,0 z m 66.53125,1.5625 c -3.06072,0.21708 -5.46876,2.64932 -5.46875,5.59375 0,3.09018 2.63489,5.59375 5.90625,5.59375 3.28237,0 5.93749,-2.50358 5.9375,-5.59375 0,-3.08746 -2.66615,-5.59374 -5.9375,-5.59375 -0.0767,0 -0.14278,-0.003 -0.21875,0 -0.0742,0.003 -0.14529,-0.005 -0.21875,0 z m 17,1.84375 c -2.99047,0.28193 -5.3125,2.66575 -5.3125,5.5625 0,3.09018 2.66613,5.59375 5.9375,5.59375 3.28237,0 5.9375,-2.50356 5.9375,-5.59375 0,-3.08746 -2.66616,-5.5625 -5.9375,-5.5625 -0.15334,0 -0.31833,-0.0108 -0.46875,0 -0.0478,0.003 -0.10878,-0.004 -0.15625,0 z m -68.90625,3.15625 c -3.06071,0.21708 -5.46875,2.64932 -5.46875,5.59375 0,3.09018 2.66615,5.59375 5.9375,5.59375 3.28237,0 5.9375,-2.50358 5.9375,-5.59375 0,-3.08746 -2.66615,-5.59374 -5.9375,-5.59375 -0.0767,0 -0.17403,-0.003 -0.25,0 -0.0742,0.003 -0.14529,-0.005 -0.21875,0 z m 39.21875,3.53125 c -3.0969,0.18406 -5.5625,2.62614 -5.5625,5.59375 0,3.09018 2.66614,5.59376 5.9375,5.59375 3.28237,0 5.9375,-2.50357 5.9375,-5.59375 0,-3.08746 -2.66615,-5.59376 -5.9375,-5.59375 -0.0256,0 -0.037,-3e-4 -0.0625,0 -0.10113,0.001 -0.2126,-0.006 -0.3125,0 z m -18.6875,1.84375 c -3.02528,0.25039 -5.375,2.67325 -5.375,5.59375 0,3.09018 2.63489,5.5625 5.90625,5.5625 3.28237,0 5.9375,-2.47233 5.9375,-5.5625 0,-3.08746 -2.66615,-5.59374 -5.9375,-5.59375 -0.12779,0 -0.24922,-0.007 -0.375,0 -0.0483,0.003 -0.10823,-0.004 -0.15625,0 z m 34.65625,5.125 c -2.99047,0.28193 -5.3125,2.66575 -5.3125,5.5625 0,3.09018 2.63489,5.59375 5.90625,5.59375 3.28237,0 5.93751,-2.50357 5.9375,-5.59375 0,-3.08746 -2.66615,-5.5625 -5.9375,-5.5625 -0.15334,0 -0.28708,-0.0108 -0.4375,0 -0.0478,0.003 -0.10878,-0.004 -0.15625,0 z m -47.9375,4.03125 c -2.95559,0.31366 -5.25,2.68949 -5.25,5.5625 0,3.09018 2.66614,5.59375 5.9375,5.59375 3.28237,0 5.9375,-2.50356 5.9375,-5.59375 0,-3.08746 -2.66615,-5.5625 -5.9375,-5.5625 -0.1789,0 -0.35637,-0.0146 -0.53125,0 -0.0472,0.004 -0.10934,-0.005 -0.15625,0 z m 20.25,2.5625 c -2.95559,0.31366 -5.25,2.68949 -5.25,5.5625 0,3.09018 2.66614,5.59374 5.9375,5.59375 3.28237,0 5.9375,-2.50357 5.9375,-5.59375 0,-3.08746 -2.66615,-5.5625 -5.9375,-5.5625 -0.1789,0 -0.35637,-0.0146 -0.53125,0 -0.0472,0.004 -0.10934,-0.005 -0.15625,0 z M 41.46875,206.84375 37,214.53125 h -8.9375 l 5.65625,7.6875 -5.65625,7.6875 H 37 l 4.46875,7.6875 4.46875,-7.6875 h 8.9375 l -5.65625,-7.6875 5.65625,-7.6875 h -8.9375 z m 214.09375,0 -4.46875,7.6875 h -8.9375 l 5.6875,7.6875 -5.6875,7.6875 h 8.9375 l 4.46875,7.6875 4.46875,-7.6875 h 8.9375 l -5.65625,-7.6875 5.65625,-7.6875 h -8.9375 z M 41.46875,308.90625 37,316.59375 h -8.9375 l 5.65625,7.6875 -5.65625,7.6875 H 37 l 4.46875,7.6875 4.46875,-7.6875 h 8.9375 l -5.65625,-7.6875 5.65625,-7.6875 h -8.9375 z m 214.09375,0 -4.46875,7.6875 h -8.9375 l 5.6875,7.6875 -5.6875,7.6875 h 8.9375 l 4.46875,7.6875 4.46875,-7.6875 h 8.9375 l -5.65625,-7.6875 5.65625,-7.6875 h -8.9375 z"
       id="path1518" />
    <path
       style="font-style:normal;font-variant:normal;font-weight:bold;font-stretch:normal;font-size:714.585px;line-height:125%;font-family:'Gill Sans MT';text-align:start;writing-mode:lr-tb;text-anchor:start;fill:#1f61a9;fill-opacity:1;stroke:none;stroke-width:1px;stroke-linecap:butt;stroke-linejoin:miter;stroke-opacity:1"
       d="m 13.362331,439.79094 v 5.44391 c 4.52907,-4.19912 9.44808,-6.2987 14.75704,-6.29874 7.28851,4e-5 12.38748,3.01443 15.29695,9.04319 5.12892,-6.02876 10.70779,-9.04315 16.73665,-9.04319 4.88895,4e-5 8.87815,1.48474 11.96761,4.45411 3.0893,2.96944 4.63399,6.83866 4.63407,11.60767 v 27.26455 h -13.36233 v -24.88002 c -7e-5,-2.99937 -0.68993,-5.32391 -2.06958,-6.97361 -1.3798,-1.67963 -3.29941,-2.51946 -5.75885,-2.51949 -3.89928,3e-5 -7.40858,2.39955 -10.5279,7.19856 v 27.17456 h -13.31733 v -25.14997 c -4e-5,-2.96938 -0.74989,-5.24892 -2.24956,-6.83863 -1.46974,-1.58965 -3.43434,-2.38449 -5.89382,-2.38452 -3.50932,3e-5 -6.91364,1.96464 -10.21295,5.89382 v 28.4793 H 4.2512741e-7 v -42.4715 H 13.362331 m 118.101379,31.9886 v 7.42351 c -4.43916,2.57949 -8.60832,3.86923 -12.5075,3.86923 -4.19919,0 -6.68869,-1.58968 -7.46851,-4.76905 -4.64909,3.17937 -9.31315,4.76905 -13.992199,4.76905 -3.29935,0 -6.10379,-1.03479 -8.41332,-3.10438 -2.30954,-2.09958 -3.46431,-4.52909 -3.4643,-7.28854 -1e-5,-3.68925 1.18475,-6.65865 3.55428,-8.90822 2.39952,-2.27952 9.628059,-5.20394 21.685669,-8.77325 0.29991,-4.73902 -2.1596,-7.10854 -7.37853,-7.10857 -5.668879,3e-5 -10.887829,2.36955 -15.656869,7.10857 v -10.88782 c 5.57888,-3.44927 11.712649,-5.17392 18.401329,-5.17396 11.99756,4e-5 17.99635,4.30417 17.9964,12.91241 v 19.34614 c -5e-5,1.97961 0.73481,2.96941 2.20456,2.9694 1.10973,10e-6 2.78939,-0.79483 5.03899,-2.38452 m -20.60588,0.17996 v -10.25795 c -4.46913,1.55971 -7.54351,2.96943 -9.22316,4.22916 -1.64968,1.22977 -2.47452,2.80445 -2.4745,4.72405 -2e-5,1.22977 0.4199,2.29455 1.25975,3.19436 0.83981,0.86984 1.8596,1.30475 3.05938,1.30474 2.51948,10e-6 4.97898,-1.06478 7.37853,-3.19436 m 68.92621,-52.54949 v 62.85243 h -13.36232 v -3.41931 c -3.41935,2.81943 -7.34856,4.22915 -11.78764,4.22915 -5.66889,0 -10.40794,-2.09958 -14.21716,-6.29874 -3.77925,-4.19915 -5.66887,-9.46309 -5.66887,-15.79184 0,-6.47868 1.91961,-11.77261 5.75885,-15.88183 3.86921,-4.10913 8.81822,-6.16372 14.84703,-6.16376 3.74922,4e-5 7.43848,0.89986 11.06779,2.69946 v -22.22556 h 13.36232 m -13.36232,51.24475 v -20.29094 c -2.42955,-1.64964 -4.91905,-2.47447 -7.46851,-2.4745 -3.35935,3e-5 -5.98382,1.1698 -7.87342,3.5093 -1.85965,2.33956 -2.78946,5.6239 -2.78945,9.85302 -10e-6,3.89924 0.9298,7.03361 2.78945,9.40312 1.8596,2.33954 4.33411,3.50931 7.42351,3.5093 2.72943,10e-6 5.36889,-1.16976 7.91842,-3.5093 m 38.15236,-30.86382 v 12.14757 h 0.17996 c 3.8692,-8.66823 8.38329,-13.00236 13.5423,-13.0024 2.45947,4e-5 5.41388,1.28978 8.86323,3.86922 l -3.68927,11.83264 c -3.29937,-2.09955 -5.93884,-3.14934 -7.91842,-3.14937 -3.0894,3e-5 -5.69888,1.91964 -7.82844,5.75884 -2.0996,3.80926 -3.14938,6.02882 -3.14936,6.65867 v 18.35633 h -13.36233 v -42.4715 h 13.36233 m 27.21956,-13.81224 c -1e-5,-2.03954 0.71984,-3.77919 2.15956,-5.21896 1.43971,-1.43965 3.16437,-2.1595 5.17398,-2.15957 2.03957,7e-5 3.77922,0.71992 5.21895,2.15957 1.43969,1.43977 2.15954,3.17942 2.15957,5.21896 -3e-5,2.00965 -0.71988,3.7493 -2.15957,5.21895 -1.43973,1.43977 -3.17938,2.15962 -5.21895,2.15957 -2.00961,5e-5 -3.73427,-0.7198 -5.17398,-2.15957 -1.43972,-1.46965 -2.15957,-3.2093 -2.15956,-5.21895 m 14.08218,13.81224 v 42.4715 H 232.5135 v -42.4715 h 13.36232 M 300,419.41001 v 62.85243 h -13.36232 v -3.41931 c -3.41936,2.81943 -7.34856,4.22915 -11.78764,4.22915 -5.6689,0 -10.40794,-2.09958 -14.21716,-6.29874 -3.77925,-4.19915 -5.66888,-9.46309 -5.66887,-15.79184 -1e-5,-6.47868 1.91961,-11.77261 5.75885,-15.88183 3.86921,-4.10913 8.81822,-6.16372 14.84703,-6.16376 3.74922,4e-5 7.43849,0.89986 11.06779,2.69946 V 419.41001 H 300 m -13.36232,51.24475 v -20.29094 c -2.42956,-1.64964 -4.91906,-2.47447 -7.46852,-2.4745 -3.35934,3e-5 -5.98382,1.1698 -7.87342,3.5093 -1.85965,2.33956 -2.78945,5.6239 -2.78944,9.85302 -1e-5,3.89924 0.92979,7.03361 2.78944,9.40312 1.85961,2.33954 4.33411,3.50931 7.42353,3.5093 2.72941,10e-6 5.36888,-1.16976 7.91841,-3.5093"
       id="text5496" />
    <g
       id="g11983"
       transform="matrix(1.092329,0,0,1.085756,-1.86951,-88.85029)"
       style="fill:#1f61a9;fill-opacity:1;stroke:#ffffff;stroke-opacity:1">
      <path
         sodipodi:nodetypes="ccsscsccscsccscsscc"
         id="path3972"
         d="m 137.94747,110.94785 3.0982,0.56973 c -0.49914,1.25289 -0.6025,2.62175 -0.6025,4.06371 0,6.42582 5.52081,11.65421 12.31721,11.65421 5.45526,0 14.10131,-3.37803 15.69705,-8.04425 0.17899,0.12352 1.17475,-4.21497 1.68902,-4.16204 0.43107,0.0454 -1.6143,4.24271 -1.45548,4.16204 l 0.27317,8.3997 c -3.16375,2.88141 -11.46444,4.65865 -16.20376,4.65865 -6.2065,0 -11.74244,-3.04022 -14.88098,-7.62829 -3.1335,4.58807 -8.6644,7.62829 -14.86081,7.62829 -4.73681,0 -11.04758,-1.77724 -14.21386,-4.65865 l 0.2757,-8.3997 c 0.1689,0.0807 -1.87648,-4.11666 -1.44791,-4.16204 0.50922,-0.0529 1.51255,4.28556 1.68144,4.16204 1.60582,4.66622 8.24432,8.04425 13.71724,8.04425 6.79387,0 12.29703,-5.22839 12.29703,-11.65421 0,-1.44196 -0.0857,-2.81082 -0.59241,-4.06371 l 3.21165,-0.56973"
         style="font-size:12px;fill:#1f61a9;fill-opacity:1;stroke:#ffffff;stroke-width:0.387757;stroke-linejoin:round;stroke-opacity:1" />
      <path
         sodipodi:nodetypes="czsszss"
         id="path3994"
         d="m 21.373328,144.67056 c -2.92848,0 -5.138661,0.26992 -5.128222,-3.33768 0.01044,-3.6076 2.585838,-3.33768 5.128222,-3.33768 H 254.22853 c 2.87896,0 5.17439,-0.2317 5.12822,3.33768 -0.0461,3.56789 -2.03822,3.33768 -5.12822,3.33768 z"
         style="font-size:12px;fill:#1f61a9;fill-opacity:1;stroke:#ffffff;stroke-width:0.387757;stroke-linejoin:round;stroke-opacity:1" />
      <path
         d="m 137.74075,82.375764 c 2.60914,2.36462 4.61832,5.901469 4.87293,9.539153 0,0 0.46889,-0.65796 2.28143,-1.31592 1.81002,-0.657959 3.19905,-0.400825 3.19905,-0.400825 0,0 -0.96551,2.641923 -1.38903,3.564577 -0.42099,0.925174 -0.96551,3.824233 -2.09488,6.322461 -1.0966,2.51588 -2.6268,4.40909 -2.6268,4.40909 -0.99576,-1.13694 -2.49571,-1.87556 -4.18724,-1.87556 -1.68146,0 -3.1814,0.73862 -4.17716,1.87556 0,0 -1.5302,-1.89321 -2.63688,-4.40909 -1.11929,-2.498228 -1.67137,-5.397287 -2.0848,-6.322461 -0.421,-0.922654 -1.39911,-3.564577 -1.39911,-3.564577 0,0 1.39911,-0.257134 3.20156,0.400825 1.81002,0.65796 2.29152,1.31592 2.29152,1.31592 0.25209,-3.637684 2.15034,-7.174533 4.74941,-9.539153 z m -4.04607,28.705696 c -0.8067,-0.89745 -1.32349,-2.06211 -1.32349,-3.32509 0,-1.2529 0.47897,-2.42512 1.28567,-3.30745 0,0 -2.23353,-1.67137 -4.74941,-2.80831 -1.90581,-0.87223 -5.44518,-1.47473 -6.50649,-1.671355 -1.06887,-0.204199 -3.19148,-0.605022 -3.19148,-0.605022 0,0 0.0857,0.506704 0.49662,1.671367 0.49914,1.41423 0.99576,2.32176 0.99576,2.32176 -3.67801,0.22185 -7.14428,2.05203 -9.54671,4.42674 2.40243,2.35454 5.85861,4.14186 9.54671,4.38387 0,0 -0.49662,0.89745 -0.99576,2.31924 -0.4109,1.14702 -0.49662,1.66129 -0.49662,1.66129 0,0 2.12261,-0.39074 3.19148,-0.58486 1.06131,-0.21427 4.60068,-0.80921 6.50649,-1.689 2.51588,-1.13946 4.78723,-2.7831 4.78723,-2.7831 z m 8.17785,0 c 0.8067,-0.89745 1.32096,-2.06211 1.32096,-3.32509 0,-1.2529 -0.47645,-2.42512 -1.28567,-3.30745 0,0 2.23606,-1.67137 4.75193,-2.80831 1.91338,-0.87223 5.45275,-1.47473 6.51405,-1.671355 1.05123,-0.204199 3.17132,-0.605022 3.17132,-0.605022 0,0 -0.0731,0.506704 -0.49662,1.671367 -0.49914,1.41423 -0.98568,2.32176 -0.98568,2.32176 3.68054,0.22185 7.14176,2.05203 9.53663,4.42674 -2.39487,2.35454 -5.84853,4.14186 -9.53663,4.38387 0,0 0.48654,0.89745 0.98568,2.31924 0.41344,1.14702 0.49662,1.66129 0.49662,1.66129 0,0 -2.11001,-0.39074 -3.17132,-0.58486 -1.0613,-0.21427 -4.60067,-0.80921 -6.51405,-1.689 -2.51587,-1.13946 -4.78722,-2.7831 -4.78722,-2.7831 z"
         style="font-size:12px;fill:#1f61a9;fill-opacity:1;stroke:#ffffff;stroke-width:0.387757;stroke-linejoin:round;stroke-opacity:1"
         id="path3964" />
      <path
         id="path11928"
         d="m 132.37119,107.75637 c 0,-2.8436 2.43017,-5.13763 5.42502,-5.13763 2.99484,0 5.4351,2.29403 5.4351,5.13763 0,2.84611 -2.43017,5.14771 -5.4351,5.14771 -2.99485,0 -5.42502,-2.3016 -5.42502,-5.14771 z"
         style="font-size:12px;fill:#1f61a9;fill-opacity:1;stroke:#ffffff;stroke-width:0.387757;stroke-linejoin:round;stroke-opacity:1" />
      <use
         height="500"
         width="275"
         transform="translate(60)"
         id="use4002"
         xlink:href="#path3964"
         y="0"
         x="0"
         style="fill:#1f61a9;fill-opacity:1;stroke:#ffffff;stroke-opacity:1" />
      <use
         height="500"
         width="275"
         transform="translate(-60)"
         id="use4004"
         xlink:href="#path3964"
         y="0"
         x="0"
         style="fill:#1f61a9;fill-opacity:1;stroke:#ffffff;stroke-opacity:1" />
      <use
         height="500"
         width="275"
         transform="translate(-60)"
         id="use4006"
         xlink:href="#path3972"
         y="0"
         x="0"
         style="fill:#1f61a9;fill-opacity:1;stroke:#ffffff;stroke-opacity:1" />
      <use
         height="500"
         width="275"
         transform="translate(-60)"
         id="use4008"
         xlink:href="#path11928"
         y="0"
         x="0"
         style="fill:#1f61a9;fill-opacity:1;stroke:#ffffff;stroke-opacity:1" />
      <use
         height="500"
         width="275"
         transform="translate(-28.99231,10.16604)"
         id="use4010"
         xlink:href="#path11928"
         y="0"
         x="0"
         style="fill:#1f61a9;fill-opacity:1;stroke:#ffffff;stroke-opacity:1" />
      <use
         height="500"
         width="275"
         transform="translate(60)"
         id="use4017"
         xlink:href="#path3972"
         y="0"
         x="0"
         style="fill:#1f61a9;fill-opacity:1;stroke:#ffffff;stroke-opacity:1" />
      <use
         height="500"
         width="275"
         transform="translate(30.99969,10)"
         id="use4015"
         xlink:href="#path11928"
         y="0"
         x="0"
         style="fill:#1f61a9;fill-opacity:1;stroke:#ffffff;stroke-opacity:1" />
      <use
         height="500"
         width="275"
         transform="translate(60)"
         id="use4019"
         xlink:href="#path11928"
         y="0"
         x="0"
         style="fill:#1f61a9;fill-opacity:1;stroke:#ffffff;stroke-opacity:1" />
      <g
         id="g4041"
         style="fill:#1f61a9;fill-opacity:1;stroke:#ffffff;stroke-opacity:1">
        <path
           style="font-size:12px;fill:#1f61a9;fill-opacity:1;stroke:#ffffff;stroke-width:0.387757;stroke-linejoin:round;stroke-opacity:1"
           d="m 253.1416,110.46099 c -0.34137,-0.90197 -0.41602,-2.02799 -0.16217,-3.20035 0.55828,-2.54112 2.49672,-4.36596 4.33132,-4.06012 0.23466,0.0468 0.52192,0.12974 0.73214,0.23618 0,0 -0.957,-5.820581 0.59441,-9.167321 1.54126,-3.364341 6.20269,-6.336898 6.20269,-6.336898 -2.41484,-3.189696 -6.97995,-3.790262 -10.34853,-1.240001 -1.97572,1.495766 -3.22458,3.734459 -3.27455,5.957143 l -2.07478,-1.796642 c 0,0 -2.30153,2.589818 -1.2008,6.628948 1.11684,4.039561 5.85976,7.506141 5.85976,7.506141 0,0 -2.13256,-1.41774 -4.12189,-1.93212 -1.97569,-0.50888 -5.63,0.0602 -7.46703,0.44865 -1.83245,0.39448 -3.937,0.4922 -3.937,0.4922 0,0 0.20295,0.39337 0.80043,1.29115 0.7253,1.06663 1.28549,1.63534 1.28549,1.63534 -2.73072,1.55513 -5.32313,4.15332 -6.91729,6.74196 2.40269,1.16896 5.59648,1.56193 8.69868,0.652 0,0 -0.32657,1.37287 -0.52552,2.75978 -0.15205,1.16485 -0.12523,1.63464 -0.12523,1.63464 0,0 1.88096,-1.04459 2.82646,-1.5707 0.92936,-0.52653 4.08905,-2.21672 5.68814,-3.60439 1.18276,-1.01876 2.4204,-2.27827 3.13527,-3.07559 z"
           id="path3952" />
        <path
           sodipodi:nodetypes="cczsccscsscc"
           id="path4025"
           d="m 257.94747,110.94785 3.0982,0.56973 c -0.49914,1.25289 1.2405,7.38533 -3.16627,13.10373 -4.38,5.68365 -8.6644,7.62829 -14.86081,7.62829 -4.73681,0 -11.04758,-1.77724 -14.21386,-4.65865 l 0.2757,-8.3997 c 0.1689,0.0807 -1.87648,-4.11666 -1.44791,-4.16204 0.50922,-0.0529 1.51255,4.28556 1.68144,4.16204 1.60582,4.66622 8.24432,8.04425 13.71724,8.04425 6.79387,0 12.29703,-5.22839 12.29703,-11.65421 0,-1.44196 -0.0857,-2.81082 -0.59241,-4.06371 l 3.21165,-0.56973"
           style="font-size:12px;fill:#1f61a9;fill-opacity:1;stroke:#ffffff;stroke-width:0.387757;stroke-linejoin:round;stroke-opacity:1" />
        <use
           x="0"
           y="0"
           xlink:href="#path11928"
           id="use4027"
           transform="translate(91.09969,10)"
           width="275"
           height="500"
           style="fill:#1f61a9;fill-opacity:1;stroke:#ffffff;stroke-opacity:1" />
        <use
           x="0"
           y="0"
           xlink:href="#use4019"
           id="use4021"
           width="275"
           height="500"
           transform="translate(60)"
           style="fill:#1f61a9;fill-opacity:1;stroke:#ffffff;stroke-opacity:1" />
      </g>
      <use
         height="500"
         width="275"
         transform="matrix(-1,0,0,1,278.3109,0)"
         id="use4047"
         xlink:href="#g4041"
         y="0"
         x="0"
         style="fill:#1f61a9;fill-opacity:1;stroke:#ffffff;stroke-opacity:1" />
      <path
         style="font-size:12px;fill:#1f61a9;fill-opacity:1;stroke:#ffffff;stroke-width:0.387757;stroke-linejoin:round;stroke-opacity:1"
         d="m 21.373328,170.67056 c -2.92848,0 -5.138661,0.26992 -5.128222,-3.33768 0.01044,-3.6076 2.585838,-3.33768 5.128222,-3.33768 H 254.22853 c 2.87896,0 5.17439,-0.2317 5.12822,3.33768 -0.0461,3.56789 -2.03822,3.33768 -5.12822,3.33768 z"
         id="path4049"
         sodipodi:nodetypes="czsszss" />
      <path
         style="font-size:12px;fill:#1f61a9;fill-opacity:1;stroke:#ffffff;stroke-width:0.387757;stroke-linejoin:round;stroke-opacity:1"
         d="m 105.03786,154.32784 c 0,-2.8436 2.43017,-5.13763 5.42502,-5.13763 2.99484,0 5.4351,2.29403 5.4351,5.13763 0,2.84611 -2.43017,5.14771 -5.4351,5.14771 -2.99485,0 -5.42502,-2.3016 -5.42502,-5.14771 z"
         id="use4924" />
      <use
         height="500"
         width="275"
         transform="translate(56.66666)"
         id="use4928"
         xlink:href="#use4924"
         y="0"
         x="0"
         style="fill:#1f61a9;fill-opacity:1;stroke:#ffffff;stroke-opacity:1" />
      <use
         height="500"
         width="275"
         transform="translate(113.3333)"
         id="use4930"
         xlink:href="#use4924"
         y="0"
         x="0"
         style="fill:#1f61a9;fill-opacity:1;stroke:#ffffff;stroke-opacity:1" />
      <use
         height="500"
         width="275"
         transform="translate(-56.66667)"
         id="use4932"
         xlink:href="#use4924"
         y="0"
         x="0"
         style="fill:#1f61a9;fill-opacity:1;stroke:#ffffff;stroke-opacity:1" />
      <path
         id="path4934"
         d="m 119.92361,154.32784 c 0,-2.8436 8.44848,-5.13763 18.86006,-5.13763 10.41156,0 18.89511,2.29403 18.89511,5.13763 0,2.84611 -8.44848,5.14771 -18.89511,5.14771 -10.41158,0 -18.86006,-2.3016 -18.86006,-5.14771 z"
         style="font-size:12px;fill:#1f61a9;fill-opacity:1;stroke:#ffffff;stroke-width:0.387757;stroke-linejoin:round;stroke-opacity:1" />
      <path
         style="font-size:12px;fill:#1f61a9;fill-opacity:1;stroke:#ffffff;stroke-width:0.387757;stroke-linejoin:round;stroke-opacity:1"
         d="m 233.16478,154.32784 c 0,-2.8436 5.86114,-5.13763 13.08417,-5.13763 7.22302,0 13.10848,2.29403 13.10848,5.13763 0,2.84611 -5.86113,5.14771 -13.10848,5.14771 -7.22303,0 -13.08417,-2.3016 -13.08417,-5.14771 z"
         id="path4936" />
      <use
         height="500"
         width="275"
         transform="translate(-216.9197)"
         id="use4938"
         xlink:href="#path4936"
         y="0"
         x="0"
         style="fill:#1f61a9;fill-opacity:1;stroke:#ffffff;stroke-opacity:1" />
      <path
         sodipodi:nodetypes="ccccc"
         id="rect4940"
         d="m 82.134581,148.34465 18.444809,5.58154 -18.444799,6.39496 -18.444808,-5.58154 z"
         style="fill:#1f61a9;fill-opacity:1;fill-rule:evenodd;stroke:#ffffff;stroke-width:0.388;stroke-linejoin:miter;stroke-miterlimit:4;stroke-opacity:1" />
      <use
         height="500"
         width="275"
         transform="translate(113.3333)"
         id="use5816"
         xlink:href="#rect4940"
         y="0"
         x="0"
         style="fill:#1f61a9;fill-opacity:1;stroke:#ffffff;stroke-opacity:1" />
    </g>
  </g>
</svg>
