<?xml version="1.0" encoding="UTF-8" standalone="no"?>
<svg
   xmlns:dc="http://purl.org/dc/elements/1.1/"
   xmlns:cc="http://creativecommons.org/ns#"
   xmlns:rdf="http://www.w3.org/1999/02/22-rdf-syntax-ns#"
   xmlns:svg="http://www.w3.org/2000/svg"
   xmlns="http://www.w3.org/2000/svg"
   xmlns:sodipodi="http://sodipodi.sourceforge.net/DTD/sodipodi-0.dtd"
   xmlns:inkscape="http://www.inkscape.org/namespaces/inkscape"
   width="272"
   height="80"
   viewBox="0 0 272 80"
   fill="none"
   version="1.1"
   id="svg925"
   sodipodi:docname="brand-logo-3.svg"
   inkscape:version="1.0.2-2 (e86c870879, 2021-01-15)">
  <metadata
     id="metadata931">
    <rdf:RDF>
      <cc:Work
         rdf:about="">
        <dc:format>image/svg+xml</dc:format>
        <dc:type
           rdf:resource="http://purl.org/dc/dcmitype/StillImage" />
        <dc:title />
      </cc:Work>
    </rdf:RDF>
  </metadata>
  <defs
     id="defs929">
    <clipPath
       id="clipPath17">
      <path
         d="M 0.030029,841.86 H 1190.55 V 0 H 0.030029 Z"
         id="path19" />
    </clipPath>
    <clipPath
       id="clipPath39">
      <path
         d="m 1003.46,841.86 h 187.09 V 688.819 h -187.09 z"
         id="path41" />
    </clipPath>
    <clipPath
       id="clipPath51">
      <path
         d="M 0.030029,841.86 H 1190.55 V 0 H 0.030029 Z"
         id="path53" />
    </clipPath>
  </defs>
  <sodipodi:namedview
     pagecolor="#ffffff"
     bordercolor="#666666"
     borderopacity="1"
     objecttolerance="10"
     gridtolerance="10"
     guidetolerance="10"
     inkscape:pageopacity="0"
     inkscape:pageshadow="2"
     inkscape:window-width="3186"
     inkscape:window-height="2126"
     id="namedview927"
     showgrid="false"
     inkscape:zoom="3.9421875"
     inkscape:cx="132.26205"
     inkscape:cy="73.482267"
     inkscape:window-x="2509"
     inkscape:window-y="-11"
     inkscape:window-maximized="1"
     inkscape:current-layer="svg925"
     inkscape:document-rotation="0" />
  <mask
     id="mask0_1838_1043"
     maskUnits="userSpaceOnUse"
     x="18"
     y="15"
     width="124"
     height="51">
    <path
       d="M 141.801,15.3846 H 18.4614 V 65.973 H 141.801 Z"
       fill="#ffffff"
       id="path894" />
  </mask>
  <g
     transform="matrix(0.42526728,0,0,-0.46392795,-316.82238,141.84427)"
     id="g11"
     style="fill:#94a3b8;fill-opacity:1">
    <g
       transform="matrix(3.3416988,0,0,3.3416988,109.13397,583.12747)"
       id="g3368"
       style="fill:#94a3b8;fill-opacity:1">
      <g
         transform="translate(247.94603,-101.47886)"
         id="g127"
         style="fill:#94a3b8;fill-opacity:1">
        <path
           d="M 0,0 H 14.945 V -3.927 H 10.538 V -14.658 H 4.405 V -3.927 H 0 V 0"
           id="path129"
           style="fill:#94a3b8;fill-opacity:1;fill-rule:nonzero;stroke:none" />
      </g>
      <g
         transform="translate(317.26003,-101.47886)"
         id="g131"
         style="fill:#94a3b8;fill-opacity:1">
        <path
           d="M 0,0 H 14.945 V -3.927 H 10.587 V -14.658 H 4.408 V -3.927 H 0 V 0"
           id="path133"
           style="fill:#94a3b8;fill-opacity:1;fill-rule:nonzero;stroke:none" />
      </g>
      <g
         transform="translate(206.94103,-101.47886)"
         id="g135"
         style="fill:#94a3b8;fill-opacity:1">
        <path
           d="m 0,0 h 16.335 c 3.687,0.048 6.513,-1.724 6.513,-6.131 v -8.527 H 16.67 v 8.527 c 0,2.204 -0.815,2.204 -2.156,2.204 v -10.731 h -6.18 v 8.527 c 0,2.204 -0.814,2.204 -2.201,2.204 V -14.658 H 0 V 0"
           id="path137"
           style="fill:#94a3b8;fill-opacity:1;fill-rule:nonzero;stroke:none" />
      </g>
      <g
         transform="translate(349.78603,-101.47886)"
         id="g139"
         style="fill:#94a3b8;fill-opacity:1">
        <path
           d="m 0,0 h 6.179 v -10.682 h 1.007 c 1.149,0 1.916,0.287 1.916,1.916 V 0 h 6.132 v -8.335 c 0,-5.029 -2.348,-6.323 -6.706,-6.323 H 0 V 0"
           id="path141"
           style="fill:#94a3b8;fill-opacity:1;fill-rule:nonzero;stroke:none" />
      </g>
      <g
         transform="translate(339.77403,-101.47886)"
         id="g143"
         style="fill:#94a3b8;fill-opacity:1">
        <path
           d="M 0,0 H 3.113 C 5.03,0 8.096,-1.005 8.096,-5.413 v -9.245 H 0 v 3.688 h 1.917 v 2.348 H 0 v 3.209 h 1.917 c 0,1.486 -1.008,1.486 -1.87,1.486 H 0 Z M -6.707,0 H -2e-4 V -3.927 H -6.707 Z M 0,-14.658 h -3.353 c -3.354,0 -4.837,1.629 -4.837,4.647 0,3.018 1.483,4.598 4.837,4.598 H 0 v -3.209 h -0.288 c -0.91,0 -1.579,-0.144 -1.579,-1.198 0,-1.006 0.622,-1.15 1.579,-1.15 H 0 v -3.688"
           id="path145"
           style="fill:#94a3b8;fill-opacity:1;fill-rule:nonzero;stroke:none" />
      </g>
      <g
         transform="translate(271.80103,-101.47886)"
         id="g147"
         style="fill:#94a3b8;fill-opacity:1">
        <path
           d="m 0,0 h 2.682 c 4.214,0 5.27,-1.82 5.27,-4.359 0,-2.012 -1.341,-3.401 -2.971,-3.545 1.964,-0.335 2.395,-1.437 2.635,-2.922 l 0.48,-3.832 H 1.628 L 1.39,-11.401 C 1.341,-10.395 0.814,-9.676 0,-9.436 v 3.592 h 0.478 c 0.863,0 1.294,0.336 1.294,1.102 0,0.719 -0.431,1.102 -1.294,1.102 H 0 Z M -7.905,0 H 0 V -3.64 H -1.726 V -5.844 H 0 v -3.592 c -0.144,0.048 -0.336,0.095 -0.576,0.095 h -1.15 v -5.317 H -7.905 V 0"
           id="path149"
           style="fill:#94a3b8;fill-opacity:1;fill-rule:nonzero;stroke:none" />
      </g>
      <g
         transform="translate(306.76903,-101.43086)"
         id="g151"
         style="fill:#94a3b8;fill-opacity:1">
        <path
           d="m 0,0 h 9.726 v -3.975 h -6.66 c -0.814,0 -1.007,-0.336 -1.007,-0.815 0,-0.527 0.193,-0.815 1.007,-0.815 h 3.498 c 3.017,0 4.407,-1.388 4.407,-4.549 0,-3.162 -1.439,-4.552 -4.407,-4.552 H -3.832 v 3.977 h 7.187 c 0.956,0 1.197,0.334 1.197,0.861 0,0.575 -0.241,0.911 -1.197,0.911 H 0 c -3.16,0 -4.406,1.054 -4.406,4.407 C -4.406,-1.82 -3.065,0 0,0"
           id="path153"
           style="fill:#94a3b8;fill-opacity:1;fill-rule:nonzero;stroke:none" />
      </g>
      <g
         transform="translate(239.37103,-104.92786)"
         id="g155"
         style="fill:#94a3b8;fill-opacity:1">
        <path
           d="M 0,0 C 1.292,0.049 1.963,-0.719 1.963,-2.108 H 0 v -3.64 h 8.143 v 2.587 C 8.143,1.39 4.79,3.88 0,3.88 Z m 0,-11.209 v 3.927 c 0.238,-0.047 0.527,-0.095 0.814,-0.095 h 6.802 v -3.832 z m 0,9.101 H -1.964 C -1.964,-0.719 -1.294,0 0,0 v 3.88 c -6.468,0 -8.575,-3.688 -8.575,-7.759 0,-3.498 1.82,-7.33 8.048,-7.33 H 0 v 3.927 c -0.91,0.193 -1.677,0.672 -1.677,1.534 H 0 v 3.64"
           id="path157"
           style="fill:#94a3b8;fill-opacity:1;fill-rule:nonzero;stroke:none" />
      </g>
      <g
         transform="translate(295.17703,-117.04686)"
         id="g159"
         style="fill:#94a3b8;fill-opacity:1">
        <path
           d="m 0,0 c -4.55,0 -8.238,3.592 -8.238,8.24 0,4.694 3.688,8.238 8.238,8.238 0.24,0 0.526,-0.047 0.767,-0.047 -1.532,1.006 -3.258,1.484 -5.125,1.484 -5.268,0 -9.629,-4.215 -9.629,-9.579 0,-5.318 4.361,-9.772 9.629,-9.772 1.867,0 3.639,0.526 5.125,1.484 C 0.526,0 0.287,0 0,0"
           id="path161"
           style="fill:#94a3b8;fill-opacity:1;fill-rule:nonzero;stroke:none" />
      </g>
      <g
         transform="translate(295.17703,-101.71686)"
         id="g163"
         style="fill:#94a3b8;fill-opacity:1">
        <path
           d="m 0,0 c -3.927,0.048 -7.09,-3.161 -7.09,-7.089 0,-3.882 3.163,-7.091 7.09,-7.091 1.005,0 2.012,0.241 2.922,0.671 0.624,0.575 1.15,1.293 1.533,2.06 -0.477,-0.191 -1.006,-0.288 -1.533,-0.288 -2.587,0 -4.694,2.108 -4.694,4.648 0,2.586 2.107,4.694 4.694,4.694 0.527,0 1.056,-0.144 1.533,-0.288 -0.383,0.767 -0.909,1.438 -1.533,2.06 C 2.012,-0.24 1.005,0 0,0"
           id="path165"
           style="fill:#94a3b8;fill-opacity:1;fill-rule:nonzero;stroke:none" />
      </g>
      <g
         transform="translate(298.09903,-112.35186)"
         id="g167"
         style="fill:#94a3b8;fill-opacity:1">
        <path
           d="m 0,0 c 0.721,0 1.39,0.24 1.917,0.622 0.286,0.911 0.48,1.917 0.48,2.923 0,1.053 -0.194,2.059 -0.48,2.97 C 1.39,6.897 0.721,7.09 0,7.09 -1.964,7.09 -3.544,5.509 -3.544,3.545 -3.544,1.629 -1.964,0 0,0"
           id="path169"
           style="fill:#94a3b8;fill-opacity:1;fill-rule:nonzero;stroke:none" />
      </g>
    </g>
  </g>
</svg>
