<?xml version="1.0" encoding="UTF-8" standalone="no"?>
<svg
   xmlns:dc="http://purl.org/dc/elements/1.1/"
   xmlns:cc="http://creativecommons.org/ns#"
   xmlns:rdf="http://www.w3.org/1999/02/22-rdf-syntax-ns#"
   xmlns:svg="http://www.w3.org/2000/svg"
   xmlns="http://www.w3.org/2000/svg"
   xmlns:sodipodi="http://sodipodi.sourceforge.net/DTD/sodipodi-0.dtd"
   xmlns:inkscape="http://www.inkscape.org/namespaces/inkscape"
   width="160"
   height="80"
   viewBox="0 0 160 80"
   fill="none"
   version="1.1"
   id="svg869"
   sodipodi:docname="brand-logo-4.svg"
   inkscape:version="1.0.2-2 (e86c870879, 2021-01-15)">
  <metadata
     id="metadata875">
    <rdf:RDF>
      <cc:Work
         rdf:about="">
        <dc:format>image/svg+xml</dc:format>
        <dc:type
           rdf:resource="http://purl.org/dc/dcmitype/StillImage" />
        <dc:title />
      </cc:Work>
    </rdf:RDF>
  </metadata>
  <defs
     id="defs873" />
  <sodipodi:namedview
     pagecolor="#ffffff"
     bordercolor="#666666"
     borderopacity="1"
     objecttolerance="10"
     gridtolerance="10"
     guidetolerance="10"
     inkscape:pageopacity="0"
     inkscape:pageshadow="2"
     inkscape:window-width="3186"
     inkscape:window-height="2126"
     id="namedview871"
     showgrid="false"
     inkscape:zoom="5.575095"
     inkscape:cx="81.685669"
     inkscape:cy="81.352135"
     inkscape:window-x="2509"
     inkscape:window-y="-11"
     inkscape:window-maximized="1"
     inkscape:current-layer="svg869"
     inkscape:document-rotation="0" />
  <g
     id="g1010"
     transform="matrix(0.21167008,0,0,0.21167008,14.665914,25)"
     style="fill:#94a3b8;fill-opacity:1">
    <path
       d="m 133.39,301 c 32,0 63.09,26.4 63.09,58.48 a 71.53,71.53 0 0 1 -13.35,1.43 c -33.72,0 -61.88,-27.13 -63.15,-59.9 z m 49.73,-66.62 a 71,71 0 0 1 13.36,1.4 c 0,32.11 -31.05,58.53 -63.1,58.53 h -13.4 c 2.2,-32.92 29.43,-59.92 63.15,-59.92 m 20,3.21 a 63.17,63.17 0 0 1 43.22,60 c 0.07,27.6 -17.67,51.29 -43.22,60 z M 112.28,368.5 H 254 V 226.77 H 112.28 Z"
       transform="translate(-112.28,-226.77)"
       style="fill:#94a3b8;fill-opacity:1"
       id="path934" />
    <path
       d="m 301.44,289.23 v -8.93 h 29.49 v -11.4 h -29.49 v -16.58 h 31.37 V 241 h -43.44 v 47.75 c 0,12.07 5.14,20.32 17.21,22 a 3.31,3.31 0 0 0 0.7,0.11 h 0.22 a 34.58,34.58 0 0 0 3.82,0.23 h 22.34 v -11.37 h -22.24 c -3.84,0 -10,-1.89 -10,-10.5"
       transform="translate(-112.28,-226.77)"
       style="fill:#94a3b8;fill-opacity:1"
       id="path936" />
    <polygon
       points="229.95,84.32 242.02,84.32 242.02,47.08 242.02,14.18 229.95,14.18 229.95,47.32 "
       style="fill:#94a3b8;fill-opacity:1"
       id="polygon938" />
    <path
       d="m 374.58,280.19 c 0.51,-6.17 6.77,-11.12 14.35,-11.12 7.08,0 12.84,5.05 12.84,11.12 z m 14.35,-21.43 c -15.26,0 -26.69,10.51 -26.69,26.89 v 0.41 c 0,16 11,26.28 27,26.28 7.68,0 14.86,-2.12 21.43,-9.1 l -7.28,-7.08 c -3.85,3.84 -7.59,5.84 -13.75,5.84 -9,0 -15,-5.26 -15.36,-13.35 h 39.62 c 0.2,-2 0.2,-4.24 0.2,-4.24 0,-14.26 -10,-25.68 -25.17,-25.68"
       transform="translate(-112.28,-226.77)"
       style="fill:#94a3b8;fill-opacity:1"
       id="path940" />
    <path
       d="m 448,269.58 a 17.08,17.08 0 0 1 13,5.56 l 7.48,-7.79 A 26.8,26.8 0 0 0 448,258.56 c -15.36,0 -27.7,11.42 -27.7,27 0,15.58 12.33,27 27.7,27 a 26.8,26.8 0 0 0 20.42,-8.79 L 461,296 a 17.08,17.08 0 0 1 -13,5.52 c -8.89,0 -15.67,-6.77 -15.67,-16 0,-9.23 6.77,-16 15.67,-16"
       transform="translate(-112.28,-226.77)"
       style="fill:#94a3b8;fill-opacity:1"
       id="path942" />
    <path
       d="m 488,289.25 v 0 -17.91 h 11 v -11 h -11 v -19.39 h -12 v 49 0 c 0.35,11.39 5.53,19.16 17.18,20.79 a 3.12,3.12 0 0 0 0.7,0.11 h 0.22 a 34.59,34.59 0 0 0 3.82,0.23 h 1.28 V 299.73 H 498 c -3.84,0 -10,-1.89 -10,-10.5"
       transform="translate(-112.28,-226.77)"
       style="fill:#94a3b8;fill-opacity:1"
       id="path944" />
    <path
       d="m 521.15,267.91 v -7.54 h -12 v 50.72 h 12 v -26.67 c 0,-8.35 5.33,-13.58 13.68,-13.58 a 24.2,24.2 0 0 1 5,0.5 v -11.68 a 25.82,25.82 0 0 0 -3.62,-0.3 c -7.25,0 -12.68,3.32 -15.1,8.55"
       transform="translate(-112.28,-226.77)"
       style="fill:#94a3b8;fill-opacity:1"
       id="path946" />
    <path
       d="m 569.4,301.63 a 15.9,15.9 0 1 1 15.7,-15.9 15.51,15.51 0 0 1 -15.7,15.9 m 0,-42.77 c -15.4,0 -27.68,11.67 -27.68,26.87 0,15.2 12.28,26.87 27.68,26.87 15.4,0 27.67,-11.68 27.67,-26.87 0,-15.19 -12.38,-26.87 -27.67,-26.87"
       transform="translate(-112.28,-226.77)"
       style="fill:#94a3b8;fill-opacity:1"
       id="path948" />
    <polygon
       points="492.22,84.32 504.3,84.32 504.3,46.6 504.3,14.17 492.22,14.17 492.22,46.11 "
       style="fill:#94a3b8;fill-opacity:1"
       id="polygon950" />
    <path
       d="m 660.14,289.85 c 0,8 -4.73,11.48 -11.07,11.48 C 642.73,301.33 638,297.9 638,290 V 260.37 H 625.82 V 291 c 0,14.49 10.57,21.44 23.15,21.44 12.58,0 23.34,-7 23.34,-21.74 v -30.33 h -12.17 z"
       transform="translate(-112.28,-226.77)"
       style="fill:#94a3b8;fill-opacity:1"
       id="path952" />
    <polygon
       points="591.46,66.4 604.34,84.32 617.32,84.32 605.72,68.1 598.11,57.45 607.53,44.6 615.61,33.6 602.43,33.6 591.46,48.79 580.39,33.6 567.31,33.6 574.81,43.86 584.82,57.55 574.33,72.16 565.6,84.32 578.58,84.32 "
       style="fill:#94a3b8;fill-opacity:1"
       id="polygon954" />
    <polygon
       points="602.95,103.22 607.96,103.22 607.96,122.96 617.32,122.96 617.32,127.56 602.95,127.56 "
       style="fill:#94a3b8;fill-opacity:1"
       id="polygon956" />
    <path
       d="m 596.37,354.8 a 12.61,12.61 0 1 1 12.86,-12.59 12.58,12.58 0 0 1 -12.86,12.59 z m 0,-20.62 a 7.88,7.88 0 0 0 -7.89,8 7.895,7.895 0 1 0 15.79,0 7.88,7.88 0 0 0 -7.9,-8 z"
       transform="translate(-112.28,-226.77)"
       style="fill:#94a3b8;fill-opacity:1"
       id="path958" />
    <rect
       x="445.34"
       y="103.22"
       width="5.0100002"
       height="24.34"
       style="fill:#94a3b8;fill-opacity:1"
       id="rect960" />
    <path
       d="m 528.26,354.74 c -4.39,0 -7.82,-2 -9.41,-5.6 l -0.14,-0.31 3.83,-2.4 0.19,0.38 a 6,6 0 0 0 5.57,3.37 c 3.34,0 3.6,-2.05 3.6,-2.68 0,-1.85 -1.73,-2.59 -4.55,-3.66 -3.7,-1.39 -7,-3 -7,-7.5 0,-3.91 3.23,-6.74 7.69,-6.74 a 8.58,8.58 0 0 1 7.6,4 l 0.21,0.32 -3.65,2.51 -0.22,-0.34 a 4.22,4.22 0 0 0 -3.87,-1.91 c -1.64,0 -2.82,0.89 -2.82,2.11 0,1.5 0.94,1.95 3.67,3 l 1.43,0.57 c 4,1.62 6.53,3.44 6.53,7.53 -0.02,4.53 -3.33,7.35 -8.66,7.35 z"
       transform="translate(-112.28,-226.77)"
       style="fill:#94a3b8;fill-opacity:1"
       id="path962" />
    <path
       d="m 491.49,354.74 c -4.39,0 -7.82,-2 -9.41,-5.6 l -0.14,-0.31 3.83,-2.4 0.19,0.38 a 6,6 0 0 0 5.56,3.37 c 3.34,0 3.6,-2.05 3.6,-2.68 0,-1.85 -1.73,-2.59 -4.55,-3.66 -3.7,-1.39 -7,-3 -7,-7.5 0,-3.91 3.23,-6.74 7.69,-6.74 a 8.58,8.58 0 0 1 7.6,4 l 0.21,0.32 -3.65,2.51 -0.22,-0.34 a 4.22,4.22 0 0 0 -3.87,-1.91 c -1.64,0 -2.82,0.89 -2.82,2.11 0,1.5 0.94,1.95 3.67,3 l 1.43,0.57 c 4,1.62 6.53,3.44 6.53,7.53 -0.02,4.53 -3.33,7.35 -8.65,7.35 z"
       transform="translate(-112.28,-226.77)"
       style="fill:#94a3b8;fill-opacity:1"
       id="path964" />
    <path
       d="m 454.84,354.33 c -5.1,0 -7.79,-2.73 -7.79,-7.89 V 330 h 15.42 v 4.6 h -10.41 v 4.8 h 9.74 v 4.6 h -9.74 v 2.59 a 2.84,2.84 0 0 0 3,3.16 h 7.66 v 4.6 z"
       transform="translate(-112.28,-226.77)"
       style="fill:#94a3b8;fill-opacity:1"
       id="path966" />
    <polygon
       points="314.12,107.82 304.08,107.82 304.08,112.95 313.24,112.95 313.24,117.55 304.08,117.55 304.08,127.56 299.08,127.56 299.08,103.22 314.12,103.22 "
       style="fill:#94a3b8;fill-opacity:1"
       id="polygon968" />
    <path
       d="m 377.78,354.8 a 12.61,12.61 0 1 1 12.86,-12.59 12.58,12.58 0 0 1 -12.86,12.59 z m 0,-20.62 a 8,8 0 1 0 7.89,8 7.88,7.88 0 0 0 -7.89,-8 z"
       transform="translate(-112.28,-226.77)"
       style="fill:#94a3b8;fill-opacity:1"
       id="path970" />
    <path
       d="m 341,354.33 -5,-8.38 h -3.6 v 8.38 h -5 V 330 h 9.55 a 7.86,7.86 0 0 1 8,7.86 7.55,7.55 0 0 1 -4.12,6.86 l 5.84,9.61 z m -4.51,-13 a 3.29,3.29 0 0 0 3.5,-3.46 3.14,3.14 0 0 0 -3.16,-3.33 h -4.43 v 6.79 z"
       transform="translate(-112.28,-226.77)"
       style="fill:#94a3b8;fill-opacity:1"
       id="path972" />
    <path
       d="M 289.37,354.33 V 330 h 9.38 a 8.045,8.045 0 1 1 0,16.09 h -4.37 v 8.25 z m 9.18,-12.85 a 3.45,3.45 0 0 0 0,-6.89 h -4.17 v 6.89 z"
       transform="translate(-112.28,-226.77)"
       style="fill:#94a3b8;fill-opacity:1"
       id="path974" />
    <path
       d="m 690,354.33 -2.37,-5.25 h -9 l -2.37,5.25 h -5.37 l 11,-24.34 h 2.56 l 11,24.34 z m -4.62,-10.25 -2.25,-5 -2.26,5 z"
       transform="translate(-112.28,-226.77)"
       style="fill:#94a3b8;fill-opacity:1"
       id="path976" />
    <polygon
       points="517.67,127.56 517.67,103.22 522.54,103.22 533.68,118.99 533.68,103.22 538.73,103.22 538.73,127.56 533.87,127.56 522.73,112.25 522.73,127.56 "
       style="fill:#94a3b8;fill-opacity:1"
       id="polygon978" />
  </g>
</svg>
