<?xml version="1.0" encoding="UTF-8" standalone="no"?>
<svg
   xmlns:dc="http://purl.org/dc/elements/1.1/"
   xmlns:cc="http://creativecommons.org/ns#"
   xmlns:rdf="http://www.w3.org/1999/02/22-rdf-syntax-ns#"
   xmlns:svg="http://www.w3.org/2000/svg"
   xmlns="http://www.w3.org/2000/svg"
   xmlns:sodipodi="http://sodipodi.sourceforge.net/DTD/sodipodi-0.dtd"
   xmlns:inkscape="http://www.inkscape.org/namespaces/inkscape"
   width="160"
   height="80"
   viewBox="0 0 160 80"
   fill="none"
   version="1.1"
   id="svg855"
   sodipodi:docname="brand-logo-2.svg"
   inkscape:version="1.0.2-2 (e86c870879, 2021-01-15)">
  <metadata
     id="metadata861">
    <rdf:RDF>
      <cc:Work
         rdf:about="">
        <dc:format>image/svg+xml</dc:format>
        <dc:type
           rdf:resource="http://purl.org/dc/dcmitype/StillImage" />
      </cc:Work>
    </rdf:RDF>
  </metadata>
  <defs
     id="defs859" />
  <sodipodi:namedview
     pagecolor="#ffffff"
     bordercolor="#666666"
     borderopacity="1"
     objecttolerance="10"
     gridtolerance="10"
     guidetolerance="10"
     inkscape:pageopacity="0"
     inkscape:pageshadow="2"
     inkscape:window-width="3186"
     inkscape:window-height="2126"
     id="namedview857"
     showgrid="false"
     inkscape:zoom="11.15019"
     inkscape:cx="117.37404"
     inkscape:cy="62.607361"
     inkscape:window-x="2509"
     inkscape:window-y="-11"
     inkscape:window-maximized="1"
     inkscape:current-layer="g1044"
     inkscape:document-rotation="0" />
  <mask
     id="mask0_1838_1029"
     style="mask-type:luminance"
     maskUnits="userSpaceOnUse"
     x="18"
     y="23"
     width="125"
     height="34">
    <path
       d="M142.293 23.077H18.4614V56.5611H142.293V23.077Z"
       fill="white"
       id="path848" />
  </mask>
  <g
     id="g1044"
     transform="matrix(0.2480916,0,0,0.2480916,47.502728,7.4999994)">
    <path
       id="path937"
       style="fill:#94a3b8;fill-opacity:1;stroke-width:0.248092"
       d="M 47.5 7.5 L 47.5 72.5 L 112.5 72.5 L 112.5 7.5 L 47.5 7.5 z M 61.048828 17.4375 L 61.966797 17.4375 L 61.966797 24.433594 L 60.007812 24.433594 C 59.387584 24.458403 58.790896 24.235628 58.369141 23.789062 C 57.947385 23.317688 57.725191 22.695819 57.75 22.050781 C 57.725191 21.430552 57.947966 20.811799 58.394531 20.365234 C 58.841096 19.918669 59.43583 19.693941 60.03125 19.71875 C 60.378578 19.71875 60.702872 19.793923 61.025391 19.917969 L 61.048828 17.4375 z M 78.763672 17.4375 L 79.681641 17.4375 L 79.681641 20.414062 C 80.028969 19.967498 80.549902 19.71875 81.095703 19.71875 C 81.393413 19.71875 81.665971 19.794504 81.914062 19.943359 C 82.162155 20.092214 82.334939 20.31499 82.458984 20.587891 C 82.607839 20.984837 82.657623 21.380979 82.632812 21.802734 L 82.632812 24.433594 L 81.714844 24.433594 L 81.714844 21.580078 C 81.739653 21.282368 81.640461 21.00981 81.466797 20.761719 C 81.317942 20.563245 81.070357 20.438081 80.822266 20.462891 C 80.623792 20.462891 80.425617 20.514045 80.251953 20.613281 C 80.028671 20.762136 79.830496 20.934339 79.681641 21.132812 L 79.681641 24.458984 L 78.763672 24.458984 L 78.763672 17.4375 z M 100.64453 18.876953 L 100.64453 19.84375 L 102.08398 19.84375 L 102.08398 20.662109 L 100.64453 20.662109 L 100.64453 22.894531 C 100.64453 23.415524 100.86731 23.689453 101.28906 23.689453 C 101.6612 23.689453 102.00893 23.564289 102.30664 23.390625 L 102.30664 24.234375 C 101.95931 24.432848 101.56296 24.533203 101.16602 24.533203 C 100.79388 24.558012 100.42076 24.408248 100.12305 24.160156 C 100.04862 24.085729 99.974818 24.011346 99.900391 23.912109 C 99.825963 23.788064 99.776762 23.689871 99.751953 23.541016 C 99.702335 23.268115 99.676363 22.970166 99.701172 22.697266 L 99.701172 20.662109 L 98.908203 20.662109 L 98.933594 20.5625 L 100.64453 18.876953 z M 67.177734 19.71875 C 67.748345 19.693941 68.268488 19.943479 68.640625 20.365234 C 69.037572 20.861418 69.212309 21.455943 69.1875 22.076172 L 69.1875 22.201172 L 65.9375 22.201172 C 65.9375 22.598118 66.109912 22.994677 66.382812 23.267578 C 66.655714 23.540479 67.052272 23.688873 67.449219 23.664062 C 68.044639 23.664063 68.639954 23.465887 69.111328 23.09375 L 69.111328 23.986328 C 68.863237 24.159992 68.567241 24.283576 68.269531 24.382812 C 67.947012 24.457241 67.6233 24.507812 67.300781 24.507812 C 66.854216 24.532623 66.432684 24.408829 66.060547 24.185547 C 65.738028 23.962264 65.489489 23.689125 65.291016 23.341797 C 65.092542 22.969659 64.994722 22.523319 65.019531 22.101562 C 64.994722 21.481333 65.216335 20.860046 65.613281 20.388672 C 66.010228 19.942107 66.582315 19.71875 67.177734 19.71875 z M 74.248047 19.71875 C 74.471329 19.71875 74.669296 19.74335 74.892578 19.792969 C 75.14067 19.867396 75.364608 19.943732 75.587891 20.042969 L 75.587891 21.009766 C 75.215753 20.736865 74.74344 20.587309 74.296875 20.5625 C 73.899928 20.5625 73.527388 20.712056 73.279297 21.009766 C 73.006396 21.307476 72.858003 21.705197 72.882812 22.126953 C 72.858003 22.548709 73.006977 22.944477 73.304688 23.242188 C 73.627207 23.539897 74.048947 23.688873 74.470703 23.664062 C 74.892459 23.639253 75.315363 23.540852 75.6875 23.367188 L 75.6875 24.259766 C 75.265744 24.43343 74.794221 24.507812 74.347656 24.507812 C 73.702618 24.532623 73.080749 24.309846 72.609375 23.863281 C 72.16281 23.416716 71.940035 22.77062 71.964844 22.150391 C 71.940035 21.505352 72.164181 20.884855 72.585938 20.388672 C 73.007693 19.942107 73.627818 19.693941 74.248047 19.71875 z M 94.714844 19.71875 C 94.987745 19.71875 95.286483 19.794504 95.509766 19.943359 C 95.757857 20.092214 95.956032 20.289599 96.080078 20.5625 C 96.228933 20.959447 96.302153 21.380979 96.277344 21.802734 L 96.277344 24.433594 L 95.359375 24.433594 L 95.359375 21.802734 C 95.384184 21.455406 95.310383 21.109628 95.136719 20.787109 C 94.963055 20.563827 94.69087 20.463472 94.417969 20.488281 C 93.971404 20.51309 93.549454 20.735866 93.326172 21.132812 L 93.326172 24.433594 L 92.382812 24.433594 L 92.382812 19.818359 L 93.326172 19.818359 L 93.326172 20.388672 C 93.6735 19.966916 94.169042 19.71875 94.714844 19.71875 z M 87.248047 19.769531 C 87.669803 19.744722 88.116934 19.893115 88.439453 20.166016 C 88.53869 20.265252 88.636509 20.364817 88.710938 20.513672 C 88.785365 20.637718 88.834566 20.786692 88.859375 20.935547 C 88.834566 21.13402 88.859375 21.406786 88.859375 21.679688 L 88.859375 23.638672 C 88.859375 23.787527 88.909157 23.886719 89.033203 23.886719 C 89.231676 23.86191 89.405832 23.7633 89.554688 23.664062 L 89.554688 24.185547 C 89.405832 24.284784 89.232258 24.384557 89.058594 24.458984 C 88.934548 24.508603 88.810964 24.533203 88.662109 24.533203 C 88.265163 24.533203 88.041224 24.383647 87.966797 24.085938 C 87.619469 24.383647 87.173128 24.533203 86.726562 24.533203 C 86.131143 24.558012 85.609375 24.060264 85.609375 23.464844 L 85.609375 23.416016 C 85.609375 23.118306 85.73512 22.844958 85.933594 22.646484 C 86.181685 22.398393 86.478844 22.2008 86.826172 22.101562 L 87.992188 21.705078 L 87.992188 21.457031 C 87.992188 20.91123 87.71963 20.613281 87.173828 20.613281 C 86.677645 20.613281 86.205749 20.859867 85.734375 21.380859 L 85.734375 20.388672 C 86.131322 19.966916 86.677436 19.719913 87.248047 19.769531 z M 60.181641 20.488281 C 59.759885 20.488281 59.362745 20.663227 59.089844 20.960938 C 58.816943 21.308266 58.66855 21.729216 58.693359 22.175781 C 58.66855 22.572728 58.790971 22.97045 59.039062 23.292969 C 59.163109 23.441824 59.312664 23.540807 59.486328 23.615234 C 59.759229 23.689662 60.057177 23.714262 60.330078 23.689453 L 61.048828 23.689453 L 61.048828 20.710938 C 60.775927 20.562082 60.479351 20.488281 60.181641 20.488281 z M 67.177734 20.513672 C 66.880024 20.513672 66.582657 20.612074 66.359375 20.810547 C 66.136093 21.033829 65.987118 21.331778 65.9375 21.654297 L 68.292969 21.654297 C 68.292969 21.331778 68.169176 21.033829 67.970703 20.810547 C 67.747421 20.612074 67.475444 20.513672 67.177734 20.513672 z M 87.943359 22.150391 L 87.322266 22.398438 C 87.074174 22.472865 86.850817 22.59782 86.652344 22.771484 C 86.404252 23.019576 86.404252 23.43999 86.652344 23.712891 C 86.77639 23.836936 86.949383 23.911528 87.123047 23.886719 C 87.445566 23.86191 87.744886 23.738907 87.943359 23.515625 L 87.943359 22.150391 z M 85.005859 27.632812 L 85.253906 27.632812 L 85.253906 28.527344 L 85.308594 28.537109 L 92.28125 29.728516 L 92.28125 32.630859 L 91.289062 32.630859 L 91.289062 31.564453 L 88.136719 31.564453 L 88.136719 32.083984 L 85.253906 32.083984 L 85.253906 41.527344 C 85.517933 41.587436 85.726562 41.818564 85.726562 42.097656 C 85.726562 42.290212 85.631516 42.456742 85.486328 42.566406 C 85.468021 42.633663 85.464844 42.700322 85.464844 42.767578 C 85.464844 42.914087 85.521506 43.057841 85.597656 43.189453 L 87.015625 43.189453 L 85.130859 46.984375 L 83.220703 43.189453 L 84.660156 43.189453 C 84.736306 43.057841 84.794922 42.914087 84.794922 42.767578 C 84.794922 42.696447 84.793141 42.625819 84.771484 42.554688 C 84.632735 42.444522 84.535156 42.283693 84.535156 42.097656 C 84.535156 41.819225 84.742741 41.588153 85.005859 41.527344 L 85.005859 32.083984 L 71.962891 32.083984 L 71.962891 31.539062 L 68.810547 31.539062 L 68.810547 32.605469 L 67.818359 32.605469 L 67.84375 29.703125 L 80.050781 27.644531 L 85.005859 28.486328 L 85.005859 27.632812 z M 68.835938 33.027344 L 71.9375 33.027344 L 71.9375 56.447266 L 65.337891 56.447266 C 63.030639 56.447266 61.194582 55.727995 59.830078 54.289062 C 58.465574 52.850131 57.771484 50.890282 57.771484 48.458984 C 57.771484 46.201351 58.490755 44.315304 59.929688 42.851562 C 61.368619 41.387822 63.204676 40.644531 65.4375 40.644531 C 66.603531 40.66934 67.744333 40.892697 68.835938 41.314453 L 68.835938 33.027344 z M 88.1875 33.052734 L 91.289062 33.052734 L 91.289062 41.337891 C 92.380667 40.916135 93.521469 40.692778 94.6875 40.667969 C 96.920324 40.667969 98.756383 41.413213 100.19531 42.876953 C 101.63424 44.340694 102.35352 46.201932 102.35352 48.484375 C 102.35352 50.915673 101.65943 52.850131 100.29492 54.289062 C 98.93042 55.727995 97.094361 56.447266 94.787109 56.447266 L 88.1875 56.447266 L 88.1875 33.052734 z M 94.216797 43.322266 C 93.199621 43.322266 92.207002 43.571595 91.289062 44.042969 L 91.289062 53.792969 L 93.669922 53.818359 C 95.059235 53.818359 96.003027 53.718586 96.548828 53.544922 C 97.144248 53.321639 97.638791 52.973327 98.060547 52.501953 C 98.85444 51.633633 99.251953 50.417864 99.251953 48.830078 C 99.251953 47.143055 98.804658 45.804866 97.886719 44.8125 C 96.96878 43.820134 95.754965 43.322266 94.216797 43.322266 z M 65.908203 43.347656 C 64.370035 43.347656 63.154267 43.84357 62.236328 44.835938 C 61.318389 45.828304 60.873047 47.168446 60.873047 48.855469 C 60.873047 50.443255 61.268607 51.659023 62.0625 52.527344 C 62.459447 52.998718 62.980752 53.34703 63.576172 53.570312 C 64.097164 53.743978 65.065765 53.841797 66.455078 53.841797 L 68.835938 53.818359 L 68.835938 44.068359 C 67.942807 43.596985 66.925379 43.347656 65.908203 43.347656 z M 73.625 44.291016 L 76.279297 44.316406 L 76.279297 49.425781 L 76.302734 49.425781 C 77.0222 48.507842 77.891028 48.0625 78.908203 48.0625 C 79.702096 48.037691 80.495796 48.335058 81.066406 48.880859 C 81.637017 49.426661 81.910156 50.195134 81.910156 51.1875 L 81.910156 56.421875 L 79.304688 56.421875 L 79.304688 51.734375 C 79.304687 50.543535 78.859927 49.947266 77.966797 49.947266 C 77.371377 49.947266 76.799126 50.368798 76.228516 51.1875 L 76.228516 56.421875 L 73.625 56.421875 L 73.625 44.291016 z M 83.746094 48.185547 L 86.525391 48.185547 L 86.525391 56.447266 L 83.746094 56.447266 L 83.746094 48.185547 z M 86.171875 58.53125 C 86.295921 58.53125 86.396857 58.579869 86.496094 58.654297 C 86.669758 58.827961 86.669758 59.127117 86.496094 59.300781 C 86.421666 59.375209 86.295921 59.423828 86.171875 59.423828 C 86.047829 59.423828 85.948846 59.375209 85.849609 59.300781 C 85.750373 59.226354 85.726563 59.102561 85.726562 58.978516 C 85.726562 58.85447 85.775182 58.753534 85.849609 58.654297 C 85.924037 58.579869 86.047829 58.53125 86.171875 58.53125 z M 78.705078 58.580078 L 79.548828 58.580078 L 79.548828 62.402344 L 78.730469 62.402344 L 78.730469 62.203125 C 78.531995 62.376789 78.282666 62.475981 78.009766 62.451172 C 77.687247 62.451172 77.365861 62.327588 77.142578 62.054688 C 76.919296 61.781786 76.794922 61.433266 76.794922 61.085938 C 76.770113 60.738608 76.919296 60.392041 77.142578 60.119141 C 77.365861 59.871049 77.712637 59.721285 78.035156 59.746094 C 78.258439 59.746094 78.506605 59.795876 78.705078 59.919922 L 78.705078 58.580078 z M 81.335938 58.580078 L 82.177734 58.580078 L 82.177734 60.193359 C 82.376208 59.920459 82.675528 59.771484 82.998047 59.771484 C 83.246138 59.771484 83.494305 59.846449 83.667969 60.044922 C 83.841633 60.243395 83.939453 60.51558 83.939453 60.763672 L 83.939453 62.425781 L 83.121094 62.425781 L 83.121094 60.9375 C 83.121094 60.565363 82.97212 60.367188 82.699219 60.367188 C 82.525555 60.367188 82.327961 60.490771 82.154297 60.763672 L 82.154297 62.402344 L 81.335938 62.402344 L 81.335938 58.580078 z M 88.380859 58.580078 L 89.199219 58.580078 L 89.199219 59.970703 C 89.397692 59.846657 89.621049 59.771484 89.869141 59.771484 C 90.216469 59.771484 90.539018 59.89644 90.787109 60.144531 C 91.035201 60.417432 91.159575 60.764 91.134766 61.111328 C 91.159575 61.458656 91.035201 61.805224 90.787109 62.078125 C 90.563827 62.326217 90.242441 62.475981 89.919922 62.451172 C 89.647021 62.451172 89.397692 62.35198 89.199219 62.203125 L 89.199219 62.402344 L 88.380859 62.402344 L 88.380859 58.580078 z M 97.138672 58.580078 L 97.982422 58.580078 L 97.982422 62.402344 L 97.164062 62.402344 L 97.164062 62.203125 C 96.965589 62.376789 96.71626 62.475981 96.443359 62.451172 C 96.12084 62.451172 95.799454 62.327588 95.576172 62.054688 C 95.352889 61.781786 95.228516 61.433266 95.228516 61.085938 C 95.203706 60.738608 95.352889 60.392041 95.576172 60.119141 C 95.799454 59.871049 96.146231 59.721285 96.46875 59.746094 C 96.692032 59.746094 96.940199 59.795876 97.138672 59.919922 L 97.138672 58.580078 z M 101.00781 59.796875 C 101.37995 59.796875 101.72905 59.920459 102.00195 60.193359 C 102.27485 60.491069 102.39727 60.887628 102.34766 61.259766 L 100.48828 61.259766 C 100.48828 61.458239 100.58747 61.657786 100.73633 61.806641 C 100.90999 61.930686 101.13356 62.003906 101.33203 62.003906 C 101.70417 61.954288 102.05132 61.830704 102.32422 61.607422 L 102.32422 62.128906 C 101.97689 62.352189 101.57996 62.476562 101.1582 62.476562 C 100.76126 62.501373 100.36412 62.376416 100.06641 62.103516 C 99.793501 61.855424 99.644531 61.508856 99.644531 61.136719 C 99.619722 60.764581 99.767538 60.41606 100.01562 60.167969 C 100.28854 59.919877 100.63568 59.772066 101.00781 59.796875 z M 57.742188 59.820312 L 58.585938 59.820312 L 59.130859 61.259766 L 59.701172 59.820312 L 60.197266 59.820312 L 60.767578 61.259766 L 61.314453 59.820312 L 62.158203 59.820312 L 60.992188 62.476562 L 60.59375 62.476562 L 59.949219 61.0625 L 59.304688 62.476562 L 58.908203 62.476562 L 57.742188 59.820312 z M 63.25 59.820312 L 64.091797 59.820312 L 64.638672 61.259766 L 65.208984 59.820312 L 65.705078 59.820312 L 66.275391 61.259766 L 66.822266 59.820312 L 67.666016 59.820312 L 66.5 62.476562 L 66.101562 62.476562 L 65.457031 61.0625 L 64.8125 62.476562 L 64.439453 62.476562 L 63.25 59.820312 z M 68.755859 59.820312 L 69.599609 59.820312 L 70.146484 61.259766 L 70.716797 59.820312 L 71.212891 59.820312 L 71.783203 61.259766 L 72.330078 59.820312 L 73.171875 59.820312 L 72.005859 62.476562 L 71.609375 62.476562 L 70.964844 61.0625 L 70.320312 62.476562 L 69.921875 62.476562 L 68.755859 59.820312 z M 85.751953 59.820312 L 86.570312 59.820312 L 86.570312 62.402344 L 85.751953 62.402344 L 85.751953 59.820312 z M 101.05859 60.242188 C 100.71127 60.242187 100.56134 60.442316 100.51172 60.814453 L 101.62891 60.814453 C 101.57929 60.442316 101.40592 60.242188 101.05859 60.242188 z M 78.283203 60.318359 C 78.109539 60.318359 77.911737 60.392161 77.8125 60.541016 C 77.688454 60.71468 77.638672 60.938245 77.638672 61.136719 C 77.638672 61.335192 77.688454 61.533367 77.8125 61.707031 C 77.911737 61.855886 78.084148 61.929688 78.257812 61.929688 C 78.431478 61.904877 78.606423 61.831077 78.730469 61.707031 L 78.730469 60.466797 C 78.606423 60.36756 78.432058 60.318359 78.283203 60.318359 z M 96.716797 60.318359 C 96.543133 60.318359 96.34533 60.392161 96.246094 60.541016 C 96.122048 60.71468 96.072266 60.938245 96.072266 61.136719 C 96.072266 61.335192 96.122048 61.533367 96.246094 61.707031 C 96.34533 61.855886 96.517742 61.929688 96.691406 61.929688 C 96.86507 61.904877 97.040017 61.831077 97.164062 61.707031 L 97.164062 60.466797 C 97.040017 60.36756 96.865652 60.318359 96.716797 60.318359 z M 89.669922 60.341797 C 89.496258 60.316988 89.323265 60.390998 89.199219 60.490234 L 89.199219 61.707031 C 89.323265 61.831077 89.496258 61.904877 89.669922 61.929688 C 89.843586 61.929687 90.01795 61.855886 90.117188 61.707031 C 90.241233 61.533367 90.291016 61.309801 90.291016 61.111328 C 90.315825 60.912855 90.241233 60.689871 90.117188 60.541016 C 89.993141 60.41697 89.843586 60.316988 89.669922 60.341797 z M 74.710938 61.484375 C 74.983838 61.484375 75.207031 61.707568 75.207031 61.980469 C 75.207031 62.25337 74.983838 62.476562 74.710938 62.476562 C 74.586891 62.476562 74.462518 62.425409 74.363281 62.326172 C 74.264045 62.226935 74.214844 62.104515 74.214844 61.980469 C 74.214844 61.707568 74.438036 61.484375 74.710938 61.484375 z M 93.169922 61.484375 C 93.442823 61.484375 93.666016 61.707568 93.666016 61.980469 C 93.666016 62.104515 93.614862 62.226935 93.515625 62.326172 C 93.317152 62.524645 93.020739 62.524645 92.822266 62.326172 C 92.723029 62.226935 92.671875 62.104515 92.671875 61.980469 C 92.671875 61.707568 92.897021 61.484375 93.169922 61.484375 z "
       transform="matrix(4.0307693,0,0,4.0307693,-191.47254,-30.230767)" />
    <g
       transform="translate(41.27,40.054)"
       id="g1001"
       style="fill:#ffffff;fill-opacity:1">
      <g
         fill="#ffffff"
         transform="translate(0.133)"
         id="g953"
         style="fill:#ffffff;fill-opacity:1" />
      <g
         fill="#ffffff"
         transform="translate(0,165.641)"
         id="g977"
         style="fill:#ffffff;fill-opacity:1" />
      <g
         transform="translate(0.12,41.141)"
         id="g989"
         style="fill:#ffffff;fill-opacity:1" />
      <g
         fill="#ffcb00"
         id="g999"
         style="fill:#ffffff;fill-opacity:1" />
    </g>
  </g>
</svg>
