<?xml version="1.0" encoding="UTF-8" standalone="no"?>
<svg
   xmlns:dc="http://purl.org/dc/elements/1.1/"
   xmlns:cc="http://creativecommons.org/ns#"
   xmlns:rdf="http://www.w3.org/1999/02/22-rdf-syntax-ns#"
   xmlns:svg="http://www.w3.org/2000/svg"
   xmlns="http://www.w3.org/2000/svg"
   xmlns:sodipodi="http://sodipodi.sourceforge.net/DTD/sodipodi-0.dtd"
   xmlns:inkscape="http://www.inkscape.org/namespaces/inkscape"
   width="200"
   height="80"
   viewBox="0 0 200 80"
   fill="none"
   version="1.1"
   id="svg869"
   sodipodi:docname="brand-logo-4.svg"
   inkscape:version="1.0.2-2 (e86c870879, 2021-01-15)">
  <metadata
     id="metadata875">
    <rdf:RDF>
      <cc:Work
         rdf:about="">
        <dc:format>image/svg+xml</dc:format>
        <dc:type
           rdf:resource="http://purl.org/dc/dcmitype/StillImage" />
        <dc:title></dc:title>
      </cc:Work>
    </rdf:RDF>
  </metadata>
  <defs
     id="defs873" />
  <sodipodi:namedview
     pagecolor="#ffffff"
     bordercolor="#666666"
     borderopacity="1"
     objecttolerance="10"
     gridtolerance="10"
     guidetolerance="10"
     inkscape:pageopacity="0"
     inkscape:pageshadow="2"
     inkscape:window-width="1260"
     inkscape:window-height="770"
     id="namedview871"
     showgrid="false"
     inkscape:zoom="2.7875475"
     inkscape:cx="57.35368"
     inkscape:cy="48.78082"
     inkscape:window-x="-6"
     inkscape:window-y="-6"
     inkscape:window-maximized="1"
     inkscape:current-layer="svg869"
     inkscape:document-rotation="0" />
  <style
     type="text/css"
     id="style66">
	.st0{fill:#E30613;}
</style>
  <g
     id="g109"
     transform="matrix(1.0452962,0,0,1.0452962,18.153308,23.536585)">
    <rect
       x="1.4"
       y="25.200001"
       class="st0"
       width="20.6"
       height="4.8000002"
       id="rect68" />
    <rect
       x="1.4"
       y="17.299999"
       class="st0"
       width="20.6"
       height="4.8000002"
       id="rect70" />
    <rect
       x="1.4"
       y="9.3000002"
       class="st0"
       width="20.6"
       height="4.8000002"
       id="rect72" />
    <polygon
       class="st0"
       points="25.2,6.2 25.2,27.3 30,22.5 30,1.4 8.9,1.4 4.1,6.2 "
       id="polygon74" />
    <path
       d="m 137.3,12.9 c -1.3,-1 -3.2,-1.7 -5.1,-1.7 -4.9,0 -7.6,5.1 -7.6,9.9 0,2.6 0.6,6.7 4.8,6.7 0.6,0 1.2,-0.1 1.7,-0.2 l 1,-6.9 h 5.4 l -1.1,8 c -2.5,1 -4.7,1.4 -7.4,1.4 -6.1,0 -9.8,-3.1 -9.8,-9 0,-6.2 4.3,-12.2 12.8,-12.2 2.2,0 4.1,0.5 6,1.4 z"
       id="path76" />
    <polygon
       points="62.4,30 65.3,9.3 59.9,9.3 57,30 "
       id="polygon78" />
    <polygon
       points="53.1,20.3 53.4,18.3 47.3,18.3 48.2,11.6 54.9,11.6 55.2,9.3 43.2,9.3 40.3,30 52.3,30 52.6,27.7 46,27.7 47,20.3 "
       id="polygon80" />
    <polygon
       points="153.1,20.3 153.4,18.3 147.3,18.3 148.2,11.6 154.9,11.6 155.2,9.3 143.2,9.3 140.3,30 152.3,30 152.6,27.7 146,27.7 147,20.3 "
       id="polygon82" />
    <polygon
       points="82.5,11.6 82.9,9.3 70.9,9.3 68,30 73.3,30 74.7,20.3 80.8,20.3 81.1,18.3 75,18.3 75.9,11.6 "
       id="polygon84" />
    <polygon
       points="98.9,11.6 99.2,9.3 87.2,9.3 84.3,30 89.7,30 91.1,20.3 97.2,20.3 97.5,18.3 91.4,18.3 92.3,11.6 "
       id="polygon86" />
    <path
       d="m 104.5,21.4 3.6,-6.4 1.4,6.4 z m 6.8,8.6 h 5.1 L 112.1,9.4 h -3.7 L 96.7,30 h 2.9 l 3.7,-6.6 h 6.6 z"
       id="path88" />
  </g>
</svg>
