<?xml version="1.0" encoding="UTF-8" standalone="no"?>
<svg
   xmlns:dc="http://purl.org/dc/elements/1.1/"
   xmlns:cc="http://creativecommons.org/ns#"
   xmlns:rdf="http://www.w3.org/1999/02/22-rdf-syntax-ns#"
   xmlns:svg="http://www.w3.org/2000/svg"
   xmlns="http://www.w3.org/2000/svg"
   xmlns:sodipodi="http://sodipodi.sourceforge.net/DTD/sodipodi-0.dtd"
   xmlns:inkscape="http://www.inkscape.org/namespaces/inkscape"
   width="140"
   height="80"
   viewBox="0 0 140 80"
   fill="none"
   version="1.1"
   id="svg869"
   sodipodi:docname="brand-logo-42.svg"
   inkscape:version="1.0.2-2 (e86c870879, 2021-01-15)">
  <metadata
     id="metadata875">
    <rdf:RDF>
      <cc:Work
         rdf:about="">
        <dc:format>image/svg+xml</dc:format>
        <dc:type
           rdf:resource="http://purl.org/dc/dcmitype/StillImage" />
        <dc:title></dc:title>
      </cc:Work>
    </rdf:RDF>
  </metadata>
  <defs
     id="defs873">
    <style
       id="style984">
      .cls-1 {
        fill: #f61b33;
      }
    </style>
  </defs>
  <sodipodi:namedview
     pagecolor="#ffffff"
     bordercolor="#666666"
     borderopacity="1"
     objecttolerance="10"
     gridtolerance="10"
     guidetolerance="10"
     inkscape:pageopacity="0"
     inkscape:pageshadow="2"
     inkscape:window-width="3840"
     inkscape:window-height="2054"
     id="namedview871"
     showgrid="false"
     inkscape:zoom="11.15019"
     inkscape:cx="112.05663"
     inkscape:cy="33.67686"
     inkscape:window-x="2509"
     inkscape:window-y="-11"
     inkscape:window-maximized="1"
     inkscape:current-layer="svg869"
     inkscape:document-rotation="0" />
  <style
     type="text/css"
     id="style2448">
	.st0{fill:#00A896;}
	.st1{fill:#29327B;}
</style>
  <g
     style="fill:none"
     id="g154"
     transform="matrix(0.84000004,0,0,0.84000004,2.7999968,11.439999)">
    <g
       id="g1012"
       transform="matrix(0.03520135,0,0,0.03520135,-3.9217785,9.179528)"
       style="fill:#94a3b8;fill-opacity:1">
      <path
         class="cls-1"
         d="m 4388.2,664.2 c -19.9,-39.4 -48.3,-70.5 -85.2,-93.2 -32.4,-19.9 -69.2,-31.1 -110.6,-33.5 -5.8,-0.3 -11.7,-0.5 -17.7,-0.5 v 0 c -6,0 -11.9,0.2 -17.7,0.5 -41.3,2.5 -78.2,13.7 -110.6,33.5 -36.9,22.7 -65.3,53.8 -85.2,93.2 -19.9,39.4 -29.8,84.2 -29.8,134.3 0,50.1 0,3.7 0,5.5 0,0 0,0 0,0 0.5,30.8 4.8,59.6 13,86.2 0,0 0,0.1 0,0.2 4.5,14.7 10,28.8 16.8,42.2 19.9,39.4 48.3,70.5 85.2,93.2 32.4,19.9 69.2,31.1 110.6,33.5 5.8,0.3 11.7,0.5 17.7,0.5 v 0 c 6,0 11.9,-0.2 17.7,-0.5 41.3,-2.5 78.2,-13.6 110.6,-33.5 36.9,-22.7 65.3,-53.8 85.2,-93.2 5.3,-10.4 9.8,-21.2 13.6,-32.4 3.8,-11.2 0,-0.3 -0.2,-0.3 h -130 c -6.8,0 -13.3,2.9 -17.9,8 -4.6,5.1 -5.4,5.7 -8.3,8.3 0,0 0,0 0,0 -18.5,18.1 -40.8,27.2 -66.9,27.2 h -3.9 c 0,0 -3.9,0 -3.9,0 v 0 c -26.2,0 -48.6,-9.1 -67.2,-27.2 -15.9,-15.5 -25.7,-35.8 -29.7,-60.6 -0.1,-0.9 -0.3,-1.8 -0.4,-2.8 -0.2,-1.6 1,-3 2.6,-3 h 338 c 0.1,0 0.2,0 0.3,-0.2 2.3,-14.7 3.5,-29.9 3.8,-45.7 0,0 0,0 0,0 0,-1.8 0,-3.6 0,-5.5 0,-50.1 -9.9,-94.8 -29.8,-134.3 z M 4077.3,739 c -1.7,0 -2.9,-1.5 -2.5,-3.1 4.5,-22.3 14,-40.9 28.7,-55.2 18.6,-18.1 41,-27.2 67.2,-27.2 h 7.7 c 26.2,0 48.6,9.1 67.2,27.2 14.7,14.3 24.2,32.9 28.7,55.2 0.3,1.6 -0.9,3.1 -2.5,3.1 h -194.6 z"
         id="path988"
         style="fill:#94a3b8;fill-opacity:1" />
      <path
         class="cls-1"
         d="M 3470.3,350 H 3587 c 16,0 29,13 29,29 v 348.7 c 0,0.2 0.3,0.3 0.4,0.2 L 3782,557.2 c 3.8,-3.9 11.4,-7.1 16.9,-7.1 h 165.4 c 0.2,0 0.3,0.3 0.2,0.4 l -193.4,199.6 203.7,299.6 c 0.1,0.2 0,0.4 -0.2,0.4 H 3818 c -10.1,0 -19.5,-5.1 -25,-13.5 l -122.1,-184.7 -55,55.8 v 142.2 c 0,0.1 -0.1,0.3 -0.3,0.3 h -116.7 c -16,0 -29,-13 -29,-29 V 350.3 c 0,-0.1 0.1,-0.3 0.3,-0.3 z"
         id="path990"
         style="fill:#94a3b8;fill-opacity:1" />
      <path
         class="cls-1"
         d="M 2939.3,350 H 3056 c 16,0 29,13 29,29 v 348.7 c 0,0.2 0.3,0.3 0.4,0.2 L 3251,557.2 c 3.8,-3.9 11.4,-7.1 16.9,-7.1 h 165.4 c 0.2,0 0.3,0.3 0.2,0.4 l -193.4,199.6 203.7,299.6 c 0.1,0.2 0,0.4 -0.2,0.4 H 3287 c -10.1,0 -19.5,-5.1 -25,-13.5 l -122.1,-184.7 -55,55.8 v 142.2 c 0,0.1 -0.1,0.3 -0.3,0.3 h -116.7 c -16,0 -29,-13 -29,-29 V 350.3 c 0,-0.1 0.1,-0.3 0.3,-0.3 z"
         id="path992"
         style="fill:#94a3b8;fill-opacity:1" />
      <path
         class="cls-1"
         d="m 2853,664.2 c -19.9,-39.4 -48.3,-70.5 -85.2,-93.2 -32.4,-19.9 -69.2,-31.1 -110.6,-33.5 -5.8,-0.3 -11.7,-0.5 -17.7,-0.5 v 0 c -6,0 -11.9,0.2 -17.7,0.5 -41.3,2.5 -78.2,13.7 -110.6,33.5 -36.9,22.7 -65.3,53.8 -85.2,93.2 -19.9,39.4 -29.8,84.2 -29.8,134.3 0,50.1 0,3.7 0,5.5 0,0 0,0 0,0 0.5,30.8 4.8,59.6 13,86.2 0,0 0,0.1 0,0.2 4.5,14.7 10,28.8 16.8,42.2 19.9,39.4 48.3,70.5 85.2,93.2 32.4,19.9 69.2,31.1 110.6,33.5 5.8,0.3 11.7,0.5 17.7,0.5 v 0 c 6,0 11.9,-0.2 17.7,-0.5 41.3,-2.5 78.2,-13.6 110.6,-33.5 36.9,-22.7 65.3,-53.8 85.2,-93.2 5.3,-10.4 9.8,-21.2 13.6,-32.4 3.8,-11.2 0,-0.3 -0.2,-0.3 h -130 c -6.8,0 -13.3,2.9 -17.9,8 -4.6,5.1 -5.4,5.7 -8.3,8.3 0,0 0,0 0,0 -18.5,18.1 -40.8,27.2 -66.9,27.2 h -3.9 c 0,0 -3.9,0 -3.9,0 v 0 c -26.2,0 -48.6,-9.1 -67.2,-27.2 -15.9,-15.5 -25.7,-35.8 -29.7,-60.6 -0.1,-0.9 -0.3,-1.8 -0.4,-2.8 -0.2,-1.6 1,-3 2.6,-3 h 338 c 0.1,0 0.2,0 0.3,-0.2 2.3,-14.7 3.5,-29.9 3.8,-45.7 0,0 0,0 0,0 0,-1.8 0,-3.6 0,-5.5 0,-50.1 -9.9,-94.8 -29.8,-134.3 z M 2542.1,739 c -1.7,0 -2.9,-1.5 -2.5,-3.1 4.5,-22.3 14,-40.9 28.7,-55.2 18.6,-18.1 41,-27.2 67.2,-27.2 h 7.7 c 26.2,0 48.6,9.1 67.2,27.2 14.7,14.3 24.2,32.9 28.7,55.2 0.3,1.6 -0.9,3.1 -2.5,3.1 H 2542 Z"
         id="path994"
         style="fill:#94a3b8;fill-opacity:1" />
      <path
         class="cls-1"
         d="M 2339.7,350 H 2223 c -16,0 -29,13 -29,29 v 214.4 c 0,3.3 -1.9,4.1 -4.3,1.8 -9,-8.9 -18.7,-16.9 -29.3,-24.1 -33.3,-22.7 -71.9,-34.1 -115.7,-34.1 -43.8,0 -82.3,11.4 -115.3,34.1 -33,22.7 -58.6,53.8 -76.9,93.2 -18.2,39.4 -27.3,84.2 -27.3,134.3 0,50.1 9.1,94.9 27.3,134.3 18.2,39.4 43.8,70.5 76.9,93.2 33,22.7 71.4,34.1 115.3,34.1 43.9,0 82.4,-11.4 115.7,-34.1 10.9,-7.4 20.9,-15.7 30.1,-24.9 1.9,-1.9 3.4,-1.2 3.4,1.4 v 47.3 c 0,0.1 0.1,0.3 0.3,0.3 h 116.7 c 16,0 29,-13 29,-29 V 350.3 c 0,-0.1 -0.1,-0.3 -0.3,-0.3 z m -165,528.1 c -9,22.4 -21.7,39.4 -38.1,51.1 -16.4,11.7 -35.6,17.5 -57.6,17.5 h -7 c -22,0 -41.3,-5.8 -57.6,-17.5 -16.4,-11.7 -28.9,-28.7 -37.6,-51.1 -8.7,-22.4 -13,-48.9 -13,-79.7 0,-30.8 4.3,-56.3 13,-78.7 8.7,-22.4 21.2,-39.6 37.6,-51.6 16.4,-12 35.6,-18 57.6,-18 h 7 c 22,0 41.2,6 57.6,18 16.4,12 29.1,29.2 38.1,51.6 8.8,21.8 13.2,47.4 13.4,76.5 v 4.3 c -0.2,29.8 -4.6,55.7 -13.4,77.5 z"
         id="path996"
         style="fill:#94a3b8;fill-opacity:1" />
      <path
         class="cls-1"
         d="m 1616,429 v 0 c 0,-43.6 35.4,-79 79,-79 v 0 c 43.6,0 79,35.4 79,79 v 0 c 0,43.6 -35.4,79 -79,79 v 0 c -43.6,0 -79,-35.4 -79,-79 z m 5,150 v 470.7 c 0,0.1 0.1,0.3 0.3,0.3 H 1740 c 16,0 29,-13 29,-29 V 550.3 c 0,-0.1 -0.1,-0.3 -0.3,-0.3 H 1650 c -16,0 -29,13 -29,29 z"
         id="path998"
         style="fill:#94a3b8;fill-opacity:1" />
      <path
         class="cls-1"
         d="m 1537,664.2 c -19.9,-39.4 -48.3,-70.5 -85.2,-93.2 -32.4,-19.9 -69.2,-31.1 -110.6,-33.5 -5.8,-0.3 -11.7,-0.5 -17.7,-0.5 v 0 c -6,0 -11.9,0.2 -17.7,0.5 -41.3,2.5 -78.2,13.7 -110.6,33.5 -36.9,22.7 -65.3,53.8 -85.2,93.2 -19.9,39.4 -29.8,84.2 -29.8,134.3 0,50.1 0,3.7 0,5.5 0,0 0,0 0,0 0.5,30.8 4.8,59.6 13,86.2 0,0 0,0.1 0,0.2 4.5,14.7 10,28.8 16.8,42.2 19.9,39.4 48.3,70.5 85.2,93.2 32.4,19.9 69.2,31.1 110.6,33.5 5.8,0.3 11.7,0.5 17.7,0.5 v 0 c 6,0 11.9,-0.2 17.7,-0.5 41.3,-2.5 78.2,-13.6 110.6,-33.5 36.9,-22.7 65.3,-53.8 85.2,-93.2 5.3,-10.4 9.8,-21.2 13.6,-32.4 0,-0.2 0,-0.3 -0.2,-0.3 h -130 c -6.8,0 -13.3,2.9 -17.9,8 -4.6,5.1 -5.4,5.7 -8.3,8.3 0,0 0,0 0,0 -18.5,18.1 -40.8,27.2 -66.9,27.2 h -3.9 c 0,0 -3.9,0 -3.9,0 v 0 c -26.2,0 -48.6,-9.1 -67.2,-27.2 -15.9,-15.5 -25.7,-35.8 -29.7,-60.6 -0.1,-0.9 -0.3,-1.8 -0.4,-2.8 -0.2,-1.6 1,-3 2.6,-3 h 338 c 0.1,0 0.2,0 0.3,-0.2 2.3,-14.7 3.5,-29.9 3.8,-45.7 0,0 0,0 0,0 0,-1.8 0,-3.6 0,-5.5 0,-50.1 -9.9,-94.8 -29.8,-134.3 z M 1226.1,739 c -1.7,0 -2.9,-1.5 -2.5,-3.1 4.5,-22.3 14,-40.9 28.7,-55.2 18.6,-18.1 41,-27.2 67.2,-27.2 h 7.7 c 26.2,0 48.6,9.1 67.2,27.2 14.7,14.3 24.2,32.9 28.7,55.2 0.3,1.6 -0.9,3.1 -2.5,3.1 H 1226 Z"
         id="path1000"
         style="fill:#94a3b8;fill-opacity:1" />
      <g
         id="g1010"
         style="fill:#94a3b8;fill-opacity:1">
        <rect
           class="cls-1"
           x="350"
           y="350"
           width="150"
           height="150"
           id="rect1002"
           style="fill:#94a3b8;fill-opacity:1" />
        <g
           id="g1008"
           style="fill:#94a3b8;fill-opacity:1">
          <path
             class="cls-1"
             d="m 974.2,377.4 -174,521.9 c 0,0.2 -0.4,0.2 -0.5,0 L 675.7,527.4 C 670.3,511.1 655,500 637.8,500 H 500 l 175.4,526.1 c 4.8,14.3 18.1,23.9 33.2,23.9 h 182.9 c 15.1,0 28.4,-9.6 33.2,-23.9 L 1150.1,350 h -137.8 c -17.2,0 -32.5,11 -37.9,27.4 z"
             id="path1004"
             style="fill:#94a3b8;fill-opacity:1" />
          <polygon
             class="cls-1"
             points=""
             id="polygon1006"
             style="fill:#94a3b8;fill-opacity:1" />
        </g>
      </g>
    </g>
  </g>
</svg>
