<?xml version="1.0" encoding="UTF-8" standalone="no"?>
<svg
   xmlns:dc="http://purl.org/dc/elements/1.1/"
   xmlns:cc="http://creativecommons.org/ns#"
   xmlns:rdf="http://www.w3.org/1999/02/22-rdf-syntax-ns#"
   xmlns:svg="http://www.w3.org/2000/svg"
   xmlns="http://www.w3.org/2000/svg"
   xmlns:sodipodi="http://sodipodi.sourceforge.net/DTD/sodipodi-0.dtd"
   xmlns:inkscape="http://www.inkscape.org/namespaces/inkscape"
   width="200"
   height="80"
   viewBox="0 0 200 80"
   fill="none"
   version="1.1"
   id="svg869"
   sodipodi:docname="brand-logo-73.svg"
   inkscape:version="1.0.2-2 (e86c870879, 2021-01-15)"
   inkscape:export-filename="C:\Users\mario\OneDrive\6 Produkte\Code\Flinker\web-hugosite\static\assets-flinker\images\brand-logo\brand-logo-73.png"
   inkscape:export-xdpi="96"
   inkscape:export-ydpi="96">
  <metadata
     id="metadata875">
    <rdf:RDF>
      <cc:Work
         rdf:about="">
        <dc:format>image/svg+xml</dc:format>
        <dc:type
           rdf:resource="http://purl.org/dc/dcmitype/StillImage" />
        <dc:title></dc:title>
      </cc:Work>
    </rdf:RDF>
  </metadata>
  <defs
     id="defs873">
    <clipPath
       id="clip0">
      <rect
         x="559"
         y="345"
         width="161"
         height="30"
         id="rect300" />
    </clipPath>
    <clipPath
       id="clip0-0">
      <rect
         x="559"
         y="345"
         width="161"
         height="30"
         id="rect682" />
    </clipPath>
  </defs>
  <sodipodi:namedview
     pagecolor="#ffffff"
     bordercolor="#666666"
     borderopacity="1"
     objecttolerance="10"
     gridtolerance="10"
     guidetolerance="10"
     inkscape:pageopacity="0"
     inkscape:pageshadow="2"
     inkscape:window-width="1260"
     inkscape:window-height="770"
     id="namedview871"
     showgrid="false"
     inkscape:zoom="0.98554687"
     inkscape:cx="139.6986"
     inkscape:cy="-24.296639"
     inkscape:window-x="-6"
     inkscape:window-y="-6"
     inkscape:window-maximized="1"
     inkscape:current-layer="svg869"
     inkscape:document-rotation="0"
     inkscape:snap-bbox="true"
     inkscape:snap-global="false" />
  <style
     type="text/css"
     id="style66">
	.st0{fill:#E30613;}
</style>
  <style
     type="text/css"
     id="style351">
	.st0{fill:#E30613;}
</style>
  <g
     style="overflow:hidden"
     id="g731"
     transform="translate(19.6165,25)">
    <g
       clip-path="url(#clip0-0)"
       transform="translate(-559,-345)"
       id="g709">
      <path
         d="m 559,369.878 h 21.533 v 5.018 H 559 Z"
         id="path687" />
      <path
         d="m 559,361.62 h 21.533 v 5.018 H 559 Z"
         id="path689" />
      <path
         d="m 559,353.258 h 21.533 v 5.017 H 559 Z"
         id="path691" />
      <path
         d="M 588.896,367.056 V 345 H 566.84 l -5.018,5.017 h 22.056 v 22.056 z"
         id="path693" />
      <path
         d="m 701.056,357.021 c -1.359,-1.045 -3.345,-1.777 -5.331,-1.777 -5.122,0 -7.944,5.331 -7.944,10.348 0,2.718 0.627,7.004 5.017,7.004 0.628,0 1.255,-0.105 1.777,-0.209 l 1.046,-7.213 h 5.644 l -1.149,8.363 c -2.614,1.045 -4.913,1.463 -7.736,1.463 -6.376,0 -10.244,-3.24 -10.244,-9.408 0,-6.48 4.495,-12.752 13.38,-12.752 2.3,0 4.286,0.522 6.272,1.463 z"
         id="path695" />
      <path
         d="m 620.15,353.258 -3.031,21.638 h 5.644 l 3.032,-21.638 z"
         id="path697" />
      <path
         d="m 606.979,362.666 0.941,-7.004 h 7.004 l 0.313,-2.404 h -12.543 l -3.032,21.638 h 12.544 l 0.313,-2.405 h -6.899 l 1.046,-7.735 h 6.376 l 0.314,-2.09 z"
         id="path699" />
      <path
         d="m 711.509,362.666 0.941,-7.004 h 7.004 l 0.313,-2.404 h -12.543 l -3.032,21.638 h 12.544 l 0.313,-2.405 h -6.899 l 1.046,-7.735 h 6.376 l 0.314,-2.09 z"
         id="path701" />
      <path
         d="m 631.648,353.258 -3.031,21.638 h 5.54 l 1.464,-10.14 h 6.376 l 0.313,-2.09 h -6.376 l 0.941,-7.004 h 6.899 l 0.418,-2.404 z"
         id="path703" />
      <path
         d="m 648.687,353.258 -3.032,21.638 h 5.645 l 1.463,-10.14 h 6.377 l 0.313,-2.09 h -6.376 l 0.941,-7.004 h 6.899 l 0.313,-2.404 z"
         id="path705" />
      <path
         d="m 666.77,365.906 3.764,-6.69 1.463,6.69 z m 7.109,8.99 h 5.331 l -4.495,-21.534 h -3.868 l -12.23,21.534 h 3.031 l 3.868,-6.899 h 6.899 z"
         id="path707" />
    </g>
  </g>
</svg>
