<?xml version="1.0" encoding="UTF-8" standalone="no"?>
<svg
   xmlns:dc="http://purl.org/dc/elements/1.1/"
   xmlns:cc="http://creativecommons.org/ns#"
   xmlns:rdf="http://www.w3.org/1999/02/22-rdf-syntax-ns#"
   xmlns:svg="http://www.w3.org/2000/svg"
   xmlns="http://www.w3.org/2000/svg"
   xmlns:sodipodi="http://sodipodi.sourceforge.net/DTD/sodipodi-0.dtd"
   xmlns:inkscape="http://www.inkscape.org/namespaces/inkscape"
   width="260"
   height="80"
   viewBox="0 0 260 80"
   fill="none"
   version="1.1"
   id="svg869"
   sodipodi:docname="brand-logo-45.svg"
   inkscape:version="1.0.2-2 (e86c870879, 2021-01-15)">
  <metadata
     id="metadata875">
    <rdf:RDF>
      <cc:Work
         rdf:about="">
        <dc:format>image/svg+xml</dc:format>
        <dc:type
           rdf:resource="http://purl.org/dc/dcmitype/StillImage" />
        <dc:title />
      </cc:Work>
    </rdf:RDF>
  </metadata>
  <defs
     id="defs873">
    <style
       id="style984">
      .cls-1 {
        fill: #f61b33;
      }
    </style>
  </defs>
  <sodipodi:namedview
     pagecolor="#ffffff"
     bordercolor="#666666"
     borderopacity="1"
     objecttolerance="10"
     gridtolerance="10"
     guidetolerance="10"
     inkscape:pageopacity="0"
     inkscape:pageshadow="2"
     inkscape:window-width="3840"
     inkscape:window-height="2054"
     id="namedview871"
     showgrid="false"
     inkscape:zoom="1.3937738"
     inkscape:cx="9.014844"
     inkscape:cy="85.118574"
     inkscape:window-x="2509"
     inkscape:window-y="-11"
     inkscape:window-maximized="1"
     inkscape:current-layer="svg869"
     inkscape:document-rotation="0" />
  <style
     type="text/css"
     id="style2448">
	.st0{fill:#00A896;}
	.st1{fill:#29327B;}
</style>
  <g
     id="g67"
     transform="matrix(0.60362173,0,0,0.60362173,58.923541,23)">
    <path
       style="fill:#ffffff"
       d="m 72.5,1.7 2,3.4 h -2.6 l -0.8,1.4 h 4.3 L 76.9,9 h 2.6 L 73.9,0 h -2.6 l -5.5,9 h 2.5 z M 61.2,9 h 2.4 V 0 H 61.2 Z M 50.8,0 v 9 h 7.6 V 7.5 H 53.2 V 0 Z M 38.9,0 v 9 h 9 V 7.5 H 41.2 V 5.2 h 6.2 V 3.7 H 41.2 V 1.4 h 6.5 V 0 c 0.1,0 -8.8,0 -8.8,0 z M 27.1,0 v 1.4 h 3.7 V 9 h 2.4 V 1.4 H 37 V 0 Z M 18.4,9 V 1.5 h 3.3 c 1.1,0 1.6,0.3 1.6,1 0,1 -1.1,1.6 -3.5,1.9 v 0.8 l 4,3.9 h 3 L 22.7,5.2 c 2.1,-0.7 3.1,-1.6 3.1,-2.7 0,-1.6 -1.3,-2.4 -4,-2.4 h -5.9 v 9 z M 6.8,1.7 8.8,5.1 H 6.2 L 5.4,6.5 H 9.7 L 11.2,9 h 2.6 L 8.1,0 H 5.5 L 0,9 h 2.5 z"
       id="path63" />
    <path
       style="fill:#ffffff"
       d="m 229.2,44.1 c 4.1,0 6.3,-1.8 6.3,-4.6 0,-2.3 -1.6,-3.7 -4.8,-3.9 L 229,35.4 c -2.8,-0.2 -3.8,-1 -3.8,-2.5 0,-1.6 1.3,-2.6 3.8,-2.6 1.7,0 3.5,0.6 4.6,1.1 0.2,0.1 0.4,0.1 0.5,-0.1 l 0.6,-0.7 c 0.1,-0.1 0.1,-0.3 -0.1,-0.4 -1.3,-0.8 -3.3,-1.4 -5.5,-1.4 -3.6,0 -5.8,1.6 -5.8,4.3 0,2.3 1.7,3.6 4.8,3.9 l 1.7,0.2 c 3,0.3 3.8,1.1 3.8,2.6 0,1.7 -1.4,2.8 -4.3,2.8 -2.3,0 -4.1,-0.8 -5.4,-1.7 -0.1,-0.1 -0.3,-0.1 -0.5,0 l -0.8,0.8 c -0.1,0.1 -0.1,0.3 0,0.4 1.4,0.9 3.6,2 6.6,2 m -11.7,-0.3 c 0.2,0 0.3,-0.1 0.3,-0.3 v -9.1 c 0,-3.6 -2.1,-5.6 -5.8,-5.6 -2.3,0 -4,0.9 -4.9,2.4 v 0 -1.8 c 0,-0.2 -0.1,-0.3 -0.4,-0.3 h -1.2 c -0.2,0 -0.4,0.1 -0.4,0.3 v 14 c 0,0.2 0.1,0.3 0.4,0.3 h 1.2 c 0.2,0 0.4,-0.1 0.4,-0.3 v -9 c 0,-2.5 2,-4.1 4.5,-4.1 2.9,0 4.3,1.5 4.3,4.4 v 8.7 c 0,0.2 0.1,0.3 0.3,0.3 z m -24.2,-1.3 c -2.1,0 -3.7,-1 -4.4,-2.7 -0.3,-0.8 -0.5,-1.7 -0.5,-3.3 0,-1.6 0.1,-2.5 0.5,-3.3 0.7,-1.8 2.3,-2.7 4.4,-2.7 2.1,0 3.7,1 4.4,2.7 0.3,0.8 0.5,1.7 0.5,3.3 0,1.6 -0.1,2.5 -0.5,3.3 -0.7,1.7 -2.3,2.7 -4.4,2.7 m 0,1.6 c 3,0 5.3,-1.4 6.2,-3.8 0.4,-1 0.5,-2.1 0.5,-3.8 0,-1.7 -0.2,-2.8 -0.5,-3.8 -0.9,-2.4 -3.1,-3.8 -6.2,-3.8 -3.1,0 -5.3,1.4 -6.1,3.8 -0.4,1 -0.5,2.1 -0.5,3.8 0,1.7 0.2,2.9 0.5,3.8 0.9,2.4 3.1,3.8 6.1,3.8 M 181,43.8 c 0.2,0 0.4,-0.1 0.4,-0.3 v -14 c 0,-0.2 -0.1,-0.3 -0.4,-0.3 h -1.2 c -0.2,0 -0.4,0.1 -0.4,0.3 v 14 c 0,0.2 0.1,0.3 0.4,0.3 z m 0.2,-18.6 c 0.2,0 0.4,-0.1 0.4,-0.3 v -1.7 c 0,-0.2 -0.1,-0.3 -0.4,-0.3 h -1.5 c -0.2,0 -0.4,0.1 -0.4,0.3 v 1.7 c 0,0.2 0.1,0.3 0.4,0.3 z m -6.8,18.7 c 0.2,0 0.4,-0.1 0.4,-0.3 v -1 c 0,-0.2 -0.1,-0.3 -0.4,-0.3 h -0.7 c -1.9,0 -2.7,-0.5 -2.7,-2.5 v -9 c 0,-0.1 0.1,-0.2 0.2,-0.2 h 3.1 c 0.2,0 0.4,-0.1 0.4,-0.3 v -0.9 c 0,-0.2 -0.1,-0.3 -0.4,-0.3 h -3.1 c -0.1,0 -0.2,-0.1 -0.2,-0.2 v -4.2 c 0,-0.2 -0.1,-0.3 -0.4,-0.3 h -1.2 c -0.2,0 -0.4,0.1 -0.4,0.3 v 4.2 c 0,0.1 -0.1,0.2 -0.2,0.2 h -1.7 c -0.2,0 -0.4,0.1 -0.4,0.3 v 0.9 c 0,0.2 0.1,0.3 0.4,0.3 h 1.7 c 0.1,0 0.2,0.1 0.2,0.2 v 9.1 c 0,2.9 1.2,4 4.3,4 z M 162,43.8 c 0.2,0 0.4,-0.1 0.4,-0.3 v -14 c 0,-0.2 -0.1,-0.3 -0.4,-0.3 h -1.2 c -0.2,0 -0.4,0.1 -0.4,0.3 v 9 c 0,2.5 -1.9,4.1 -4.4,4.1 -2.9,0 -4.3,-1.4 -4.3,-4.4 v -8.7 c 0,-0.2 -0.1,-0.3 -0.4,-0.3 h -1.2 c -0.2,0 -0.4,0.1 -0.4,0.3 v 9.1 c 0,3.5 2,5.6 5.7,5.6 2.3,0 4,-0.9 4.8,-2.3 v 0 1.7 c 0,0.2 0.1,0.3 0.4,0.3 z m -16.6,0.1 c 0.2,0 0.4,-0.1 0.4,-0.3 v -1 c 0,-0.2 -0.1,-0.3 -0.4,-0.3 h -0.6 c -1.2,0 -1.8,-0.5 -1.8,-1.9 V 23.2 c 0,-0.2 -0.1,-0.3 -0.4,-0.3 h -1.2 c -0.2,0 -0.4,0.1 -0.4,0.3 v 17.2 c 0,2.4 0.9,3.4 3.4,3.4 z m -16.2,-1.4 c -2.1,0 -3.7,-1 -4.4,-2.7 -0.3,-0.8 -0.5,-1.7 -0.5,-3.3 0,-1.6 0.1,-2.5 0.5,-3.3 0.7,-1.8 2.3,-2.7 4.4,-2.7 2.1,0 3.7,1 4.4,2.7 0.3,0.8 0.5,1.7 0.5,3.3 0,1.6 -0.1,2.5 -0.5,3.3 -0.7,1.7 -2.3,2.7 -4.4,2.7 m 0,1.6 c 3,0 5.3,-1.4 6.2,-3.8 0.4,-1 0.5,-2.1 0.5,-3.8 0,-1.7 -0.2,-2.8 -0.5,-3.8 -0.9,-2.4 -3.1,-3.8 -6.2,-3.8 -3.1,0 -5.3,1.4 -6.1,3.8 -0.4,1 -0.5,2.1 -0.5,3.8 0,1.7 0.2,2.9 0.5,3.8 0.8,2.4 3.1,3.8 6.1,3.8 m -19.4,0 c 5.5,0 8.3,-2.5 8.3,-6 0,-3.1 -2.1,-5.1 -6.9,-5.6 l -1.1,-0.1 c -4,-0.5 -5.5,-1.8 -5.5,-4 0,-2.4 2,-4.1 5.3,-4.1 2,0 3.8,0.5 5.7,1.5 0.2,0.1 0.4,0.1 0.5,-0.1 l 0.7,-1 c 0.1,-0.2 0.1,-0.3 -0.1,-0.4 -1.6,-1 -4.1,-1.8 -6.7,-1.8 -4.5,0 -7.4,2.2 -7.4,5.9 0,3 2.2,5 6.8,5.5 l 1.1,0.1 c 4.3,0.5 5.6,2 5.6,4.1 0,2.6 -2.3,4.3 -6.1,4.3 -2.7,0 -5.2,-1.1 -6.7,-2.2 -0.1,-0.1 -0.4,-0.1 -0.5,0 l -0.8,0.9 c -0.1,0.1 -0.1,0.3 0,0.4 1.7,1.5 4.8,2.6 7.8,2.6 M 89.6,43.9 c 0.2,0 0.4,-0.1 0.4,-0.3 v -1 c 0,-0.2 -0.1,-0.3 -0.4,-0.3 H 89 c -1.2,0 -1.8,-0.5 -1.8,-1.9 V 23.2 c 0,-0.2 -0.1,-0.3 -0.4,-0.3 h -1.2 c -0.2,0 -0.4,0.1 -0.4,0.3 v 17.2 c 0,2.4 0.9,3.4 3.4,3.4 z M 72.7,42.6 c -2.6,0 -4.1,-1 -4.1,-2.8 0,-1.9 1.4,-2.9 4.7,-2.9 h 3.9 c 0.1,0 0.2,0.1 0.2,0.2 v 2.2 c 0.1,2 -1.8,3.3 -4.7,3.3 m 0.5,-12.2 c 3.4,0 4.3,1 4.3,3.4 v 1.5 c 0,0.1 -0.1,0.2 -0.2,0.2 h -4.2 c -4,0 -6.3,1.4 -6.3,4.3 0,2.9 2.2,4.3 5.5,4.3 2.7,0 4.5,-0.9 5.1,-2.2 v 0 1.5 c 0,0.2 0.1,0.3 0.4,0.3 h 1.1 c 0.2,0 0.3,-0.1 0.3,-0.3 v -9.8 c 0,-3.6 -1.7,-4.8 -6,-4.8 -2.3,0 -4.1,0.5 -5.3,1.4 -0.2,0.1 -0.2,0.3 -0.1,0.4 l 0.6,0.8 c 0.1,0.2 0.4,0.2 0.5,0 1.1,-0.6 2.3,-1 4.3,-1 M 62.6,43.9 c 0.2,0 0.4,-0.1 0.4,-0.3 v -1 c 0,-0.2 -0.1,-0.3 -0.4,-0.3 h -0.7 c -1.9,0 -2.7,-0.5 -2.7,-2.5 v -9 c 0,-0.1 0.1,-0.2 0.2,-0.2 h 3.1 c 0.2,0 0.4,-0.1 0.4,-0.3 v -0.9 c 0,-0.2 -0.1,-0.3 -0.4,-0.3 h -3.1 c -0.1,0 -0.2,-0.1 -0.2,-0.2 v -4.2 c 0,-0.2 -0.1,-0.3 -0.4,-0.3 h -1.2 c -0.2,0 -0.4,0.1 -0.4,0.3 V 29 c 0,0.1 -0.1,0.2 -0.2,0.2 h -1.7 c -0.2,0 -0.4,0.1 -0.4,0.3 v 0.9 c 0,0.2 0.1,0.3 0.4,0.3 H 57 c 0.1,0 0.2,0.1 0.2,0.2 V 40 c 0,2.9 1.2,4 4.3,4 z M 50.3,43.8 c 0.2,0 0.4,-0.1 0.4,-0.3 v -14 c 0,-0.2 -0.1,-0.3 -0.4,-0.3 h -1.2 c -0.2,0 -0.4,0.1 -0.4,0.3 v 14 c 0,0.2 0.1,0.3 0.4,0.3 z m 0.1,-18.5 c 0.2,0 0.4,-0.1 0.4,-0.3 V 23.3 C 50.8,23.1 50.7,23 50.4,23 h -1.5 c -0.2,0 -0.4,0.1 -0.4,0.3 V 25 c 0,0.2 0.1,0.3 0.4,0.3 z M 36,42.3 c -2,0 -3.4,-0.9 -4,-2.6 -0.4,-0.8 -0.5,-1.9 -0.5,-3.3 0,-1.4 0.1,-2.5 0.5,-3.4 0.6,-1.7 2,-2.5 4,-2.5 1.9,0 3.4,0.7 4.1,2.6 0.3,0.8 0.4,1.8 0.4,3.3 0,1.5 -0.1,2.5 -0.4,3.3 -0.7,1.9 -2.2,2.6 -4.1,2.6 m -0.2,7.4 c 4.1,0 6.6,-2 6.6,-6.1 V 29.5 c 0,-0.2 -0.1,-0.3 -0.4,-0.3 h -1.2 c -0.2,0 -0.4,0.1 -0.4,0.3 v 1.8 0 c -0.8,-1.4 -2.2,-2.4 -4.9,-2.4 -2.7,0 -4.7,1.3 -5.5,3.5 -0.4,1 -0.5,2.2 -0.5,4 0,1.8 0.2,3 0.5,4 0.8,2.2 2.7,3.5 5.5,3.5 2.8,0 4.1,-1 4.9,-2.4 v 0 2.1 c 0,3.2 -1.8,4.5 -4.7,4.5 -1.7,0 -3.1,-0.5 -4.1,-1.6 -0.1,-0.2 -0.3,-0.2 -0.5,-0.1 l -0.9,0.7 c -0.2,0.1 -0.2,0.3 -0.1,0.4 1.1,1.2 3.3,2.1 5.7,2.2 M 24,43.8 c 0.2,0 0.4,-0.1 0.4,-0.3 v -14 c 0,-0.2 -0.1,-0.3 -0.4,-0.3 h -1.2 c -0.2,0 -0.4,0.1 -0.4,0.3 v 14 c 0,0.2 0.1,0.3 0.4,0.3 z m 0.2,-18.5 c 0.2,0 0.4,-0.1 0.4,-0.3 V 23.3 C 24.6,23.1 24.5,23 24.2,23 h -1.5 c -0.2,0 -0.4,0.1 -0.4,0.3 V 25 c 0,0.2 0.1,0.3 0.4,0.3 z M 3.1,42 V 24.8 c 0,-0.1 0.1,-0.2 0.2,-0.2 h 5.3 c 3,0 5,1 5.9,3.2 0.4,1 0.5,2.1 0.5,5.6 0,3.5 -0.2,4.6 -0.6,5.6 -0.8,2.2 -2.8,3.2 -5.9,3.2 H 3.3 C 3.2,42.1 3.1,42.1 3.1,42 m -2,1.5 c 0,0.2 0.1,0.3 0.4,0.3 h 7.4 c 3.9,0 6.5,-1.4 7.5,-4.2 0.5,-1.2 0.7,-2.4 0.7,-6.2 0,-3.8 -0.2,-5 -0.7,-6.2 C 15.4,24.3 12.8,23 8.9,23 H 1.5 c -0.2,0 -0.4,0.1 -0.4,0.3 z"
       id="path65" />
  </g>
</svg>
