<?xml version="1.0" encoding="UTF-8" standalone="no"?>
<svg
   xmlns:dc="http://purl.org/dc/elements/1.1/"
   xmlns:cc="http://creativecommons.org/ns#"
   xmlns:rdf="http://www.w3.org/1999/02/22-rdf-syntax-ns#"
   xmlns:svg="http://www.w3.org/2000/svg"
   xmlns="http://www.w3.org/2000/svg"
   xmlns:sodipodi="http://sodipodi.sourceforge.net/DTD/sodipodi-0.dtd"
   xmlns:inkscape="http://www.inkscape.org/namespaces/inkscape"
   width="200"
   height="80"
   viewBox="0 0 200 80"
   fill="none"
   version="1.1"
   id="svg869"
   sodipodi:docname="brand-logo-4.svg"
   inkscape:version="1.0.2-2 (e86c870879, 2021-01-15)">
  <metadata
     id="metadata875">
    <rdf:RDF>
      <cc:Work
         rdf:about="">
        <dc:format>image/svg+xml</dc:format>
        <dc:type
           rdf:resource="http://purl.org/dc/dcmitype/StillImage" />
        <dc:title></dc:title>
      </cc:Work>
    </rdf:RDF>
  </metadata>
  <defs
     id="defs873" />
  <sodipodi:namedview
     pagecolor="#ffffff"
     bordercolor="#666666"
     borderopacity="1"
     objecttolerance="10"
     gridtolerance="10"
     guidetolerance="10"
     inkscape:pageopacity="0"
     inkscape:pageshadow="2"
     inkscape:window-width="1260"
     inkscape:window-height="770"
     id="namedview871"
     showgrid="false"
     inkscape:zoom="1.3937738"
     inkscape:cx="149.73391"
     inkscape:cy="-2.8827297"
     inkscape:window-x="-6"
     inkscape:window-y="-6"
     inkscape:window-maximized="1"
     inkscape:current-layer="svg869"
     inkscape:document-rotation="0" />
  <g
     id="g995"
     transform="translate(-21.25354,-94.16812)">
    <path
       d="m 40.87004,144.04612 h 21.533 v 5.018 h -21.533 z"
       id="path617"
       style="fill:#008000" />
    <path
       d="m 40.87004,135.78812 h 21.533 v 5.018 h -21.533 z"
       id="path619"
       style="fill:#008000" />
    <path
       d="m 40.87004,127.42612 h 21.533 v 5.017 h -21.533 z"
       id="path621"
       style="fill:#008000" />
    <path
       d="m 70.76604,141.22412 v -22.056 h -22.056 l -5.018,5.017 h 22.056 v 22.056 z"
       id="path623"
       style="fill:#008000" />
    <path
       d="m 182.92604,131.18912 c -1.359,-1.045 -3.345,-1.777 -5.331,-1.777 -5.122,0 -7.944,5.331 -7.944,10.348 0,2.718 0.627,7.004 5.017,7.004 0.628,0 1.255,-0.105 1.777,-0.209 l 1.046,-7.213 h 5.644 l -1.149,8.363 c -2.614,1.045 -4.913,1.463 -7.736,1.463 -6.376,0 -10.244,-3.24 -10.244,-9.408 0,-6.48 4.495,-12.752 13.38,-12.752 2.3,0 4.286,0.522 6.272,1.463 z"
       id="path625"
       style="fill:#008000" />
    <path
       d="m 102.02004,127.42612 -3.031,21.638 h 5.644 l 3.032,-21.638 z"
       id="path627"
       style="fill:#008000" />
    <path
       d="m 88.84904,136.83412 0.941,-7.004 h 7.004 l 0.313,-2.404 h -12.543 l -3.032,21.638 h 12.544 l 0.313,-2.405 h -6.899 l 1.046,-7.735 h 6.376 l 0.314,-2.09 z"
       id="path629"
       style="fill:#008000" />
    <path
       d="m 193.37904,136.83412 0.941,-7.004 h 7.004 l 0.313,-2.404 h -12.543 l -3.032,21.638 h 12.544 l 0.313,-2.405 h -6.899 l 1.046,-7.735 h 6.376 l 0.314,-2.09 z"
       id="path631"
       style="fill:#008000" />
    <path
       d="m 113.51804,127.42612 -3.031,21.638 h 5.54 l 1.464,-10.14 h 6.376 l 0.313,-2.09 h -6.376 l 0.941,-7.004 h 6.899 l 0.418,-2.404 z"
       id="path633"
       style="fill:#008000" />
    <path
       d="m 130.55704,127.42612 -3.032,21.638 h 5.645 l 1.463,-10.14 h 6.377 l 0.313,-2.09 h -6.376 l 0.941,-7.004 h 6.899 l 0.313,-2.404 z"
       id="path635"
       style="fill:#008000" />
    <path
       d="m 148.64004,140.07412 3.764,-6.69 1.463,6.69 z m 7.109,8.99 h 5.331 l -4.495,-21.534 h -3.868 l -12.23,21.534 h 3.031 l 3.868,-6.899 h 6.899 z"
       id="path637"
       style="fill:#008000" />
  </g>
</svg>
