<?xml version="1.0" encoding="UTF-8" standalone="no"?>
<svg
   xmlns:dc="http://purl.org/dc/elements/1.1/"
   xmlns:cc="http://creativecommons.org/ns#"
   xmlns:rdf="http://www.w3.org/1999/02/22-rdf-syntax-ns#"
   xmlns:svg="http://www.w3.org/2000/svg"
   xmlns="http://www.w3.org/2000/svg"
   xmlns:sodipodi="http://sodipodi.sourceforge.net/DTD/sodipodi-0.dtd"
   xmlns:inkscape="http://www.inkscape.org/namespaces/inkscape"
   width="160"
   height="80"
   viewBox="0 0 160 80"
   fill="none"
   version="1.1"
   id="svg1023"
   sodipodi:docname="brand-logo-14.svg"
   inkscape:version="1.0.2-2 (e86c870879, 2021-01-15)">
  <metadata
     id="metadata1029">
    <rdf:RDF>
      <cc:Work
         rdf:about="">
        <dc:format>image/svg+xml</dc:format>
        <dc:type
           rdf:resource="http://purl.org/dc/dcmitype/StillImage" />
      </cc:Work>
    </rdf:RDF>
  </metadata>
  <defs
     id="defs1027" />
  <sodipodi:namedview
     pagecolor="#ffffff"
     bordercolor="#666666"
     borderopacity="1"
     objecttolerance="10"
     gridtolerance="10"
     guidetolerance="10"
     inkscape:pageopacity="0"
     inkscape:pageshadow="2"
     inkscape:window-width="3186"
     inkscape:window-height="2126"
     id="namedview1025"
     showgrid="false"
     inkscape:zoom="11.15019"
     inkscape:cx="74.261071"
     inkscape:cy="68.003603"
     inkscape:window-x="2509"
     inkscape:window-y="-11"
     inkscape:window-maximized="1"
     inkscape:current-layer="svg1023"
     inkscape:document-rotation="0" />
  <mask
     id="mask0_1838_1151"
     style="mask-type:luminance"
     maskUnits="userSpaceOnUse"
     x="18"
     y="27"
     width="124"
     height="26">
    <path
       d="M141.538 27.6923H18.4614V52.6923H141.538V27.6923Z"
       fill="white"
       id="path998" />
  </mask>
  <g
     id="g1092"
     transform="matrix(0.21428571,0,0,0.21428571,44.471302,15.04843)">
    <path
       id="path1057"
       style="fill:#94a3b8;fill-opacity:1;stroke-width:1.66666"
       d="M -52.53013,46.440658 V 186.44066 H 384.13131 V 46.440658 Z m 89.505185,40.678386 h 6.170588 V 134.62425 H 29.975054 c -4.166662,0.16666 -8.15885,-1.33854 -10.992175,-4.33854 -2.833335,-3.16667 -4.341135,-7.4974 -4.174485,-11.83073 -0.166662,-4.16667 1.33855,-8.33854 4.338548,-11.33854 2.833337,-3 6.834637,-4.66016 11.0013,-4.49349 2.333337,0 4.660163,0.49739 6.826813,1.33073 z m 120.339845,0 h 5.9974 v 20.170566 c 2.33334,-3 5.83724,-4.66666 9.67058,-4.66666 2,0 3.82682,0.49479 5.66016,1.49479 1.66666,1 2.83984,2.50521 3.67316,4.33854 1,2.66667 1.33334,5.33333 1.16668,8.16667 v 17.82812 h -6.17058 v -19.33203 c 0.16668,-2 -0.5013,-3.99609 -1.66796,-5.49609 -1,-1.33333 -2.66276,-2.16927 -4.32944,-2.16927 -1.33332,0 -2.67056,0.33593 -3.83722,1.0026 -1.5,1 -2.83464,2.16667 -4.0013,3.5 v 22.49479 h -6.16148 z m 148.16666,9.670569 v 6.498697 h 9.83467 v 5.66927 h -9.83467 v 15.16667 c 0,3.5 1.49613,5.33203 4.32945,5.33203 2.49998,0 4.83332,-0.83854 7,-2.00521 v 5.66927 c -2.33333,1.33334 -4.9987,1.9961 -7.66537,1.9961 -2.49998,0.16666 -5.16665,-0.83074 -7,-2.4974 -0.49999,-0.5 -1.00389,-1.0013 -1.50393,-1.66797 -0.49998,-0.83333 -0.8268,-1.66406 -0.99348,-2.49739 -0.33329,-1.83334 -0.50392,-3.83594 -0.33722,-5.66927 v -13.82683 h -5.33203 l -0.16409,-0.67447 z M 78.482883,102.44977 c 3.83332,-0.16667 7.4987,1.50521 9.9987,4.33854 2.66666,3.33334 3.9974,7.5 3.66406,11.66667 l 0.164,1.0026 h -21.9935 c 0,2.66667 1.16536,5.33073 2.9987,7.16406 2,1.83334 4.4974,2.82813 7.16406,2.66147 4.16668,0 7.9961,-1.32813 11.32943,-3.82813 v 5.9974 c -1.66665,1.16666 -3.66015,2.17056 -5.66015,2.67057 -2.16668,0.5 -4.33854,0.82943 -6.67188,0.82943 -3,0.16666 -5.83072,-0.66928 -8.33072,-2.16928 -2.16668,-1.5 -4.0013,-3.49999 -5.16798,-5.83333 -1.33332,-2.66667 -1.9961,-5.4974 -1.9961,-8.33073 -0.16666,-4.16667 1.33464,-8.33333 4.0013,-11.66666 2.66668,-3.00001 6.5,-4.66928 10.5,-4.50261 z m 186.666667,0.17318 c 1.83333,0 3.82943,0.49479 5.49609,1.49479 1.66667,1 3.00391,2.4987 3.83724,4.16537 1,2.66666 1.4974,5.5065 1.33073,8.33984 v 17.82812 h -6.17057 v -17.82812 c 0.16666,-2.33334 -0.32813,-4.83594 -1.49479,-6.83594 -1.16667,-1.5 -3.00651,-2.32943 -4.83985,-1.99609 -3,0.16666 -5.82812,1.82942 -7.32812,4.32942 v 22.33073 h -6.33464 v -31.32682 h 6.17057 v 0.16407 3.82812 c 2.33334,-2.83333 5.83334,-4.49349 9.33334,-4.49349 z m -138.50521,0.16406 c 1.5,0 3.0052,0.16798 4.33854,0.50131 1.66666,0.5 3.16406,1.0013 4.83072,1.66797 v 6.66276 c -2.5,-1.83334 -5.66536,-2.83203 -8.83202,-2.9987 -2.66668,0 -5.16668,0.99869 -7,2.9987 -1.83334,2 -2.83724,4.66797 -2.67058,7.5013 -0.16666,2.83333 0.9987,5.66536 2.9987,7.66537 2.16668,1.99999 5.0052,3.0013 7.83854,2.83463 2.83334,-0.5 5.66666,-1.16667 8.16666,-2.33334 v 6.17058 c -3,1.16666 -6.0026,1.65885 -9.16926,1.65885 -4.33334,0.16667 -8.66406,-1.32942 -11.83074,-4.32943 -3,-3.16666 -4.67186,-7.33333 -4.33852,-11.66666 -0.16668,-4.33333 1.33852,-8.66406 4.33852,-11.83073 3,-3 6.9961,-4.66927 11.32944,-4.50261 z m 87.66406,0 c 3,-0.16666 5.83334,0.83725 8.16666,2.67058 0.66668,0.66666 1.34115,1.33333 1.84115,2.33333 0.5,0.83333 0.82683,1.82552 0.99349,2.82552 0.16668,1.66667 0.17318,3.33464 0.17318,5.16797 v 13.33464 c 0,1 0.33333,1.66796 1.16667,1.66796 1.33333,-0.16666 2.5,-0.83463 3.5,-1.66796 v 3.5 c -1,0.66666 -2.16927,1.33203 -3.33594,1.83203 -0.83333,0.33333 -1.83723,0.5013 -2.67057,0.5013 -2.66666,0 -4.16666,-0.99609 -4.66668,-3.16276 -2.33332,2 -5.33072,2.99609 -8.33072,3.16276 -4.16666,0.16667 -7.4987,-3.16406 -7.66536,-7.16406 v -0.33724 c 0,-2 0.83593,-3.83203 2.16926,-5.33203 1.66667,-1.66667 3.66407,-2.9974 5.9974,-3.66407 l 7.82942,-2.67057 v -1.66797 c 0,-3.83333 -1.82681,-5.66015 -5.66015,-5.66015 -3.33333,0 -6.66797,1.83203 -9.83463,5.33203 v -6.83594 c 2.66666,-3.00001 6.49348,-4.4987 10.32682,-4.16537 z m -183.166671,5.16797 c -2.833325,-0.16666 -5.494787,0.9987 -7.328125,2.9987 -1.833325,2.33333 -2.837225,5.16667 -2.670562,8.16667 -0.166663,2.66667 0.666662,5.33464 2.333337,7.5013 0.833325,1 1.832013,1.66927 2.998675,2.16927 1.83335,0.5 3.83595,0.65886 5.669288,0.49219 l 4.830713,0.17318 v -20.00651 c -1.833325,-1 -3.833313,-1.4948 -5.833326,-1.4948 z m 47.505214,0.16407 c -2,0 -4.0052,0.67187 -5.50521,2.0052 -1.66665,1.50001 -2.65885,3.49349 -2.82553,5.66016 h 15.83204 c 0,-2.16667 -0.83594,-4.16015 -2.16926,-5.66016 -1.5,-1.33333 -3.33204,-2.17188 -5.33204,-2.0052 z m 140.829417,10.83724 -4.16536,1.66796 c -1.66666,0.50001 -3.16926,1.4974 -4.5026,2.4974 -1.66666,1.83333 -1.66666,4.5013 0,6.33464 0.83334,0.83333 2.00521,1.33333 3.17188,1.16666 2,0.16667 3.9961,-0.83333 5.49608,-2.33333 z" />
    <g
       fill="#ffffff"
       transform="translate(1377.1614,95.745993)"
       id="g1073"
       style="fill:#ffffff;fill-opacity:1" />
  </g>
</svg>
