<?xml version="1.0" encoding="UTF-8" standalone="no"?>
<svg
   xmlns:dc="http://purl.org/dc/elements/1.1/"
   xmlns:cc="http://creativecommons.org/ns#"
   xmlns:rdf="http://www.w3.org/1999/02/22-rdf-syntax-ns#"
   xmlns:svg="http://www.w3.org/2000/svg"
   xmlns="http://www.w3.org/2000/svg"
   xmlns:sodipodi="http://sodipodi.sourceforge.net/DTD/sodipodi-0.dtd"
   xmlns:inkscape="http://www.inkscape.org/namespaces/inkscape"
   width="200"
   height="80"
   viewBox="0 0 200 80"
   fill="none"
   version="1.1"
   id="svg869"
   sodipodi:docname="brand-logo-76.svg"
   inkscape:version="1.0.2-2 (e86c870879, 2021-01-15)">
  <metadata
     id="metadata875">
    <rdf:RDF>
      <cc:Work
         rdf:about="">
        <dc:format>image/svg+xml</dc:format>
        <dc:type
           rdf:resource="http://purl.org/dc/dcmitype/StillImage" />
        <dc:title></dc:title>
      </cc:Work>
    </rdf:RDF>
  </metadata>
  <defs
     id="defs873" />
  <sodipodi:namedview
     pagecolor="#ffffff"
     bordercolor="#666666"
     borderopacity="1"
     objecttolerance="10"
     gridtolerance="10"
     guidetolerance="10"
     inkscape:pageopacity="0"
     inkscape:pageshadow="2"
     inkscape:window-width="3840"
     inkscape:window-height="2054"
     id="namedview871"
     showgrid="false"
     inkscape:zoom="5.575095"
     inkscape:cx="81.685669"
     inkscape:cy="81.352135"
     inkscape:window-x="2509"
     inkscape:window-y="-11"
     inkscape:window-maximized="1"
     inkscape:current-layer="svg869"
     inkscape:document-rotation="0" />
  <g
     id="g80"
     transform="matrix(0.76229794,0,0,0.76229794,22.626759,28.006133)">
    <path
       fill="#009ee2"
       d="m 21.458,0.763 a 19.43,19.43 0 0 0 2.649,0.662 c 0.446,0.043 0.892,-0.078 1.254,-0.341 0.28,-0.277 0.496,-0.613 0.632,-0.983 h 0.9 l 0.32,8.649 H 26.27 a 15.766,15.766 0 0 0 -2.609,-4.455 8.299,8.299 0 0 0 -6.322,-2.568 9.543,9.543 0 0 0 -6.953,3 c -2,2 -3,5.294 -3,9.883 0,3.786 0.997,6.743 2.99,8.87 a 9.715,9.715 0 0 0 7.385,3.19 12.91,12.91 0 0 0 1.746,-0.139 10.66,10.66 0 0 0 1.907,-0.442 5.533,5.533 0 0 0 1.826,-0.83 c 0.258,-0.278 0.389,-0.651 0.361,-1.03 V 17.68 c 0,-1.587 -0.225,-2.576 -0.673,-2.967 A 5.421,5.421 0 0 0 19.99,13.987 v -0.763 h 10.475 v 0.765 a 3.912,3.912 0 0 0 -2.026,0.5 3.226,3.226 0 0 0 -0.843,2.649 v 8.087 c 0,0.48 -1.181,1.123 -3.542,1.926 a 21.145,21.145 0 0 1 -6.813,1.2 C 13.541,28.46 9.928,27.211 7.087,24.839 A 12.946,12.946 0 0 1 2.531,14.44 14.297,14.297 0 0 1 6.161,4.607 13.455,13.455 0 0 1 16.761,0.091 c 1.59,0 3.172,0.223 4.7,0.663 m 10.156,26.359 a 4.848,4.848 0 0 0 2.448,-0.654 2.682,2.682 0 0 0 0.6,-2.1 v -9.05 a 7.733,7.733 0 0 0 -0.372,-2.841 1.355,1.355 0 0 0 -1.354,-0.853 3.8,3.8 0 0 0 -0.532,0.05 c -0.221,0.034 -0.452,0.078 -0.693,0.131 v -0.663 l 2.341,-0.822 c 0.8,-0.282 1.354,-0.481 1.661,-0.601 a 36.625,36.625 0 0 0 2.061,-0.863 c 0.093,0 0.15,0.034 0.169,0.101 0.026,0.139 0.037,0.28 0.03,0.422 v 3.292 a 15.262,15.262 0 0 1 2.486,-2.789 3.83,3.83 0 0 1 2.485,-1 2.33,2.33 0 0 1 1.67,0.612 c 0.796,0.788 0.863,2.053 0.153,2.92 -0.305,0.364 -0.758,0.57 -1.233,0.562 a 2.307,2.307 0 0 1 -1.536,-0.7 2.177,2.177 0 0 0 -1.214,-0.699 c -0.467,0 -1.042,0.377 -1.726,1.133 a 3.483,3.483 0 0 0 -1.023,2.339 v 9.05 c -0.1,0.879 0.192,1.757 0.8,2.4 a 4.038,4.038 0 0 0 2.669,0.632 v 0.662 H 31.613 Z M 48.911,11.71 a 8.476,8.476 0 0 1 6.532,-2.76 8.928,8.928 0 0 1 6.583,2.609 9.383,9.383 0 0 1 2.608,6.943 10.332,10.332 0 0 1 -2.528,6.944 8.22,8.22 0 0 1 -6.543,2.95 8.628,8.628 0 0 1 -6.521,-2.829 9.957,9.957 0 0 1 -2.67,-7.101 9.61,9.61 0 0 1 2.539,-6.753 m 3.205,-0.51 c -1.341,1.218 -2.011,3.317 -2.011,6.3 a 14.157,14.157 0 0 0 1.618,6.663 c 1.079,2.061 2.579,3.091 4.5,3.091 a 3.822,3.822 0 0 0 3.468,-2.067 10.61,10.61 0 0 0 1.216,-5.418 C 60.917,17.5 60.387,15.256 59.36,13.23 a 4.851,4.851 0 0 0 -4.484,-3.071 3.982,3.982 0 0 0 -2.754,1.043 M 72.446,9.195 v 12.844 c -0.03,0.748 0.101,1.494 0.382,2.188 a 2.754,2.754 0 0 0 2.729,1.523 4.651,4.651 0 0 0 2.67,-0.899 7.892,7.892 0 0 0 1.5,-1.386 v -11 a 2.561,2.561 0 0 0 -0.6,-2.026 4.576,4.576 0 0 0 -2.409,-0.582 V 9.195 h 6.481 v 14.129 a 2.726,2.726 0 0 0 0.491,1.876 2.831,2.831 0 0 0 2.078,0.451 v 0.562 c -0.733,0.2 -1.275,0.351 -1.626,0.452 -0.351,0.102 -0.933,0.285 -1.746,0.552 -0.348,0.122 -1.111,0.409 -2.288,0.863 a 0.109,0.109 0 0 1 -0.121,-0.09 1,1 0 0 1 -0.02,-0.211 v -3.234 a 13.59,13.59 0 0 1 -2.49,2.409 6.165,6.165 0 0 1 -3.612,1.2 5.16,5.16 0 0 1 -3.291,-1.245 c -1.043,-0.818 -1.565,-2.192 -1.566,-4.12 V 12.363 A 2.616,2.616 0 0 0 68.325,10.233 4.127,4.127 0 0 0 66.439,9.754 V 9.195 Z m 14.595,26.867 a 3.236,3.236 0 0 0 2.381,-0.8 3.62,3.62 0 0 0 0.508,-2.147 V 13.848 a 3.341,3.341 0 0 0 -0.371,-1.957 1.793,1.793 0 0 0 -1.395,-0.432 c -0.147,0 -0.284,0.008 -0.411,0.021 -0.127,0.013 -0.311,0.04 -0.553,0.08 v -0.662 l 1.907,-0.623 c 0.067,-0.013 1.412,-0.474 4.034,-1.384 a 0.163,0.163 0 0 1 0.151,0.089 0.44,0.44 0 0 1 0.05,0.211 v 2.708 a 14.672,14.672 0 0 1 2.328,-1.966 6.957,6.957 0 0 1 3.712,-1.123 6.067,6.067 0 0 1 4.767,2.355 9.652,9.652 0 0 1 2,6.445 11.999,11.999 0 0 1 -2.4,7.278 7.221,7.221 0 0 1 -6.031,3.267 5.998,5.998 0 0 1 -1.945,-0.281 5.797,5.797 0 0 1 -2.369,-1.544 v 6.581 c 0,1.353 0.221,2.183 0.663,2.49 a 6.652,6.652 0 0 0 2.888,0.622 v 0.7 H 87.043 Z M 94.957,26.1 a 4.394,4.394 0 0 0 2.439,0.671 4.467,4.467 0 0 0 3.7,-2.155 10.19,10.19 0 0 0 1.536,-6 c 0,-2.459 -0.531,-4.296 -1.594,-5.511 a 4.8,4.8 0 0 0 -3.7,-1.824 4.424,4.424 0 0 0 -2.708,0.912 2.438,2.438 0 0 0 -1.224,1.792 v 10.083 a 4.068,4.068 0 0 0 1.555,2.035 m 24.722,-8.884 h 10.153 v 2.569 h -10.153 z m 23.431,9.794 a 6.843,6.843 0 0 0 3.25,-0.749 c 0.494,-0.379 0.742,-1.36 0.743,-2.944 V 5.037 c 0,-1.512 -0.247,-2.484 -0.743,-2.919 a 5.812,5.812 0 0 0 -3.25,-0.771 V 0.583 h 12.161 v 0.764 a 5.827,5.827 0 0 0 -3.252,0.771 c -0.495,0.436 -0.743,1.408 -0.741,2.919 V 23.32 c 0,1.584 0.246,2.565 0.741,2.944 a 6.85,6.85 0 0 0 3.252,0.749 v 0.762 h -12.161 z m 13.89,-0.002 c 1.565,-0.146 2.541,-0.455 2.93,-0.928 0.388,-0.472 0.582,-1.554 0.583,-3.245 v -17.8 a 4.292,4.292 0 0 0 -0.654,-2.83 4.666,4.666 0 0 0 -2.858,-0.861 V 0.584 h 10.836 c 3.479,0 6.141,0.676 7.986,2.027 a 6.304,6.304 0 0 1 2.77,5.338 6.603,6.603 0 0 1 -3.071,6.081 14.449,14.449 0 0 1 -7.687,1.886 c -0.44,0 -1.006,-0.011 -1.699,-0.03 -0.693,-0.019 -1.2,-0.029 -1.535,-0.029 v 7.466 c 0,1.543 0.237,2.515 0.712,2.915 a 6.233,6.233 0 0 0 3.181,0.776 v 0.763 h -11.5 z M 170.872,2.869 a 11.045,11.045 0 0 0 -4.414,-0.763 2.877,2.877 0 0 0 -1.557,0.251 c -0.24,0.317 -0.346,0.718 -0.29,1.112 v 10.718 a 57.03,57.03 0 0 0 1.444,0.119 c 0.23,0.014 0.451,0.021 0.664,0.021 1.525,0.07 3.049,-0.203 4.455,-0.8 1.965,-0.977 2.948,-2.803 2.948,-5.479 a 5.156,5.156 0 0 0 -3.251,-5.177 m 11.186,16.636 a 14.844,14.844 0 0 0 2.445,4.415 7.662,7.662 0 0 0 6.072,2.869 5.01,5.01 0 0 0 3.399,-1.244 4.354,4.354 0 0 0 1.433,-3.473 4.859,4.859 0 0 0 -1.441,-3.492 25.497,25.497 0 0 0 -3.967,-2.829 l -3.5,-2.187 a 12.645,12.645 0 0 1 -2.525,-2.027 6.29,6.29 0 0 1 -1.746,-4.3 7.022,7.022 0 0 1 2.066,-5.177 7.416,7.416 0 0 1 5.463,-2.063 c 1.158,0.044 2.301,0.278 3.383,0.693 0.732,0.292 1.486,0.523 2.257,0.692 A 1.29,1.29 0 0 0 196.45,1.023 C 196.673,0.718 196.827,0.37 196.901,0 h 0.844 l 0.899,8.751 h -0.983 c -0.666,-2.636 -1.74,-4.476 -3.222,-5.519 a 7.58,7.58 0 0 0 -4.384,-1.566 4.599,4.599 0 0 0 -2.94,0.993 3.325,3.325 0 0 0 -1.255,2.759 4.031,4.031 0 0 0 0.961,2.71 12.382,12.382 0 0 0 2.987,2.389 l 3.608,2.228 a 18.798,18.798 0 0 1 4.779,3.833 6.607,6.607 0 0 1 1.37,4.174 6.928,6.928 0 0 1 -2.438,5.4 9.032,9.032 0 0 1 -6.23,2.167 12.146,12.146 0 0 1 -3.984,-0.723 14.904,14.904 0 0 0 -2.379,-0.723 1.022,1.022 0 0 0 -0.973,0.441 c -0.168,0.291 -0.279,0.61 -0.33,0.942 h -0.9 l -1.225,-8.749 z"
       id="path66" />
    <path
       fill="#009ee2"
       d="m 0,32.461 h 88.1 v 1.371 H 0 Z m 95.137,0 H 203 v 1.371 H 95.137 Z"
       id="path68" />
  </g>
</svg>
