<svg width="1648" height="308" xmlns="http://www.w3.org/2000/svg" xmlns:xlink="http://www.w3.org/1999/xlink" xml:space="preserve" overflow="hidden"><g transform="translate(184 -206)"><path d="M14.9625 269.326 235.126 269.326 235.126 320.626 14.9625 320.626Z" transform="matrix(1.00182 0 0 1 -198.99 191.038)"/><path d="M14.9625 184.894 235.126 184.894 235.126 236.194 14.9625 236.194Z" transform="matrix(1.00182 0 0 1 -198.99 191.038)"/><path d="M14.9625 99.394 235.126 99.394 235.126 150.694 14.9625 150.694Z" transform="matrix(1.00182 0 0 1 -198.99 191.038)"/><path d="M269.326 66.2627 269.326 291.77 320.626 240.469 320.626 14.9625 95.119 14.9625 43.8189 66.2627Z" transform="matrix(1.00182 0 0 1 -198.99 191.038)"/><path d="M1467.4 137.869C1453.5 127.182 1433.2 119.7 1412.89 119.7 1360.52 119.7 1331.67 174.207 1331.67 225.507 1331.67 253.294 1338.08 297.113 1382.97 297.113 1389.38 297.113 1395.79 296.045 1401.14 294.976L1411.82 221.232 1469.54 221.232 1457.78 306.732C1431.06 317.42 1407.55 321.695 1378.69 321.695 1313.5 321.695 1273.95 288.563 1273.95 225.507 1273.95 159.244 1319.91 95.119 1410.75 95.119 1434.27 95.119 1454.57 100.463 1474.88 110.082Z" transform="matrix(1.00182 0 0 1 -198.99 191.038)"/><path d="M640.183 99.394 609.189 320.626 666.902 320.626 697.896 99.394Z" transform="matrix(1.00182 0 0 1 -198.99 191.038)"/><path d="M461.701 99.394 430.707 320.626 558.958 320.626 562.164 296.045 491.626 296.045 502.314 216.957 567.508 216.957 570.714 195.582 505.52 195.582 515.139 123.975 586.745 123.975 589.952 99.394Z" transform="matrix(1.00182 0 0 1 -198.99 191.038)"/><path d="M1530.45 99.394 1499.46 320.626 1627.71 320.626 1630.92 296.045 1560.38 296.045 1571.07 216.957 1636.26 216.957 1639.47 195.582 1574.27 195.582 1583.89 123.975 1655.5 123.975 1658.7 99.394Z" transform="matrix(1.00182 0 0 1 -198.99 191.038)"/><path d="M783.396 320.626 798.358 216.957 863.552 216.957 866.759 195.582 801.565 195.582 811.184 123.975 881.721 123.975 885.996 99.394 757.746 99.394 726.752 320.626Z" transform="matrix(1.00182 0 0 1 -198.99 191.038)"/><path d="M958.671 320.626 973.634 216.957 1038.83 216.957 1042.03 195.582 976.84 195.582 986.459 123.975 1057 123.975 1060.2 99.394 931.953 99.394 900.959 320.626Z" transform="matrix(1.00182 0 0 1 -198.99 191.038)"/><path d="M1116.85 228.713 1155.32 160.313 1170.28 228.713ZM1189.52 320.626 1244.03 320.626 1198.07 100.463 1158.53 100.463 1033.48 320.626 1064.48 320.626 1104.02 250.088 1174.56 250.088Z" transform="matrix(1.00182 0 0 1 -198.99 191.038)"/></g></svg>