<?xml version="1.0" encoding="UTF-8" standalone="no"?>
<svg
   xmlns:dc="http://purl.org/dc/elements/1.1/"
   xmlns:cc="http://creativecommons.org/ns#"
   xmlns:rdf="http://www.w3.org/1999/02/22-rdf-syntax-ns#"
   xmlns:svg="http://www.w3.org/2000/svg"
   xmlns="http://www.w3.org/2000/svg"
   xmlns:sodipodi="http://sodipodi.sourceforge.net/DTD/sodipodi-0.dtd"
   xmlns:inkscape="http://www.inkscape.org/namespaces/inkscape"
   width="160"
   height="80"
   viewBox="0 0 160 80"
   fill="none"
   version="1.1"
   id="svg1023"
   sodipodi:docname="brand-logo-14.svg"
   inkscape:version="1.0.2-2 (e86c870879, 2021-01-15)">
  <metadata
     id="metadata1029">
    <rdf:RDF>
      <cc:Work
         rdf:about="">
        <dc:format>image/svg+xml</dc:format>
        <dc:type
           rdf:resource="http://purl.org/dc/dcmitype/StillImage" />
        <dc:title></dc:title>
      </cc:Work>
    </rdf:RDF>
  </metadata>
  <defs
     id="defs1027">
    <clipPath
       id="clip0_72_1372">
      <rect
         width="124"
         height="45.4074"
         fill="white"
         id="rect874" />
    </clipPath>
  </defs>
  <sodipodi:namedview
     pagecolor="#ffffff"
     bordercolor="#666666"
     borderopacity="1"
     objecttolerance="10"
     gridtolerance="10"
     guidetolerance="10"
     inkscape:pageopacity="0"
     inkscape:pageshadow="2"
     inkscape:window-width="3096"
     inkscape:window-height="2054"
     id="namedview1025"
     showgrid="false"
     inkscape:zoom="11.15019"
     inkscape:cx="74.261071"
     inkscape:cy="68.003603"
     inkscape:window-x="2509"
     inkscape:window-y="-11"
     inkscape:window-maximized="1"
     inkscape:current-layer="svg1023"
     inkscape:document-rotation="0" />
  <mask
     id="mask0_1838_1151"
     style="mask-type:luminance"
     maskUnits="userSpaceOnUse"
     x="18"
     y="27"
     width="124"
     height="26">
    <path
       d="M141.538 27.6923H18.4614V52.6923H141.538V27.6923Z"
       fill="white"
       id="path998" />
  </mask>
  <g
     style="fill:none"
     id="g895"
     transform="matrix(0.65830611,0,0,0.65830611,39.185021,25.054016)">
    <g
       clip-path="url(#clip0_72_1372)"
       id="g872">
      <path
         d="m 56.814,14.5182 h 5.8522 c 3.3333,0 5.1114,1.8524 5.1114,4.6672 0.074,1.2593 -0.5186,2.5188 -1.4815,3.2596 1.1852,0.8148 1.8518,2.221 1.8518,3.6285 0,2.8888 -1.8518,4.8148 -5.1852,4.8148 h -6.2225 z m 5.9259,3.0367 h -2.8877 v 3.63 h 2.8877 c 0.963,0.074 1.8531,-0.5923 1.9271,-1.5553 0,-0.0741 0,-0.1487 0,-0.2228 0.0741,-0.963 -0.6675,-1.7778 -1.6305,-1.8519 -0.074,0 -0.2225,0 -0.2966,0 z m 0.3704,10.2966 c 1.2593,0 1.9271,-0.6666 1.9271,-1.8518 0.0741,-0.963 -0.6675,-1.7778 -1.6305,-1.8519 -0.0741,0 -0.2225,0 -0.2966,0 h -3.2581 v 3.6299 h 3.2581 z"
         fill="#242b3a"
         id="path858" />
      <path
         d="m 73.5565,27.5549 -1.1863,3.3334 h -3.2581 l 5.8507,-16.3701 h 2.9629 l 5.8522,16.3701 h -3.2596 l -1.1849,-3.3334 z m 2.8877,-8.2957 -1.8518,5.259 h 3.6299 z"
         fill="#242b3a"
         id="path860" />
      <path
         d="m 97.0374,25.4081 c -0.1482,3.3333 -2.2958,5.7031 -6.0735,5.7031 -3.7778,0 -6.075,-2.3701 -6.075,-5.9997 v -4.7411 c 0,-3.6296 2.149,-5.9997 6.075,-5.9997 3.9259,0 5.9253,2.1476 6.0735,5.7032 h -3.1106 c -0.0741,-1.5556 -1.4074,-2.7408 -2.9629,-2.5926 -1.4815,-0.1482 -2.8149,0.9635 -2.963,2.445 0,0.1481 0,0.296 0,0.4441 v 4.6673 c 0.0741,1.6296 1.4068,2.9618 3.1105,2.8877 1.4815,-0.0741 2.667,-1.1111 2.8892,-2.5926 z"
         fill="#242b3a"
         id="path862" />
      <path
         d="M 102.889,30.8883 H 99.5562 V 14.5182 h 3.3328 v 7.037 l 5.407,-7.037 h 4 l -5.481,7.1108 6.074,9.2593 h -3.852 l -4.296,-6.5915 -1.852,2.3698 z"
         fill="#242b3a"
         id="path864" />
      <path
         d="M 117.63,21.1849 H 124 v 3.0367 h -6.37 v 3.6299 H 124 v 3.0368 h -9.408 V 14.5182 H 124 v 3.0367 h -6.37 z"
         fill="#242b3a"
         id="path866" />
      <path
         d="M 45.408,0 H 0 v 45.408 h 45.408 z"
         fill="#ffb500"
         id="path868" />
      <path
         d="m 29.0362,22.0746 c 1.926,-1.4074 3.1111,-3.7043 2.963,-6.1487 0,-4.963 -3.3322,-7.85156 -9.184,-7.85156 h -3.63 v 5.70316 h 5.926 v 5.9259 h -5.926 v -5.9259 h -5.6293 v 23.1119 h 10.0738 c 5.8518,0 9.1102,-2.89 9.1102,-8.2233 0.0741,-2.7408 -1.3333,-5.2581 -3.7037,-6.5915 z m -3.6284,9.0365 H 19.259 v -6.1487 h 6.1488 z"
         fill="#242b3b"
         id="path870" />
    </g>
  </g>
</svg>
