<?xml version="1.0" encoding="UTF-8" standalone="no"?>
<svg
   xmlns:dc="http://purl.org/dc/elements/1.1/"
   xmlns:cc="http://creativecommons.org/ns#"
   xmlns:rdf="http://www.w3.org/1999/02/22-rdf-syntax-ns#"
   xmlns:svg="http://www.w3.org/2000/svg"
   xmlns="http://www.w3.org/2000/svg"
   xmlns:sodipodi="http://sodipodi.sourceforge.net/DTD/sodipodi-0.dtd"
   xmlns:inkscape="http://www.inkscape.org/namespaces/inkscape"
   id="ARX_SMART_MINDS"
   version="1.1"
   viewBox="0 0 140.00001 79.999999"
   sodipodi:docname="brand-logo-92.svg"
   width="140"
   height="80"
   inkscape:version="1.0.2-2 (e86c870879, 2021-01-15)">
  <metadata
     id="metadata9">
    <rdf:RDF>
      <cc:Work
         rdf:about="">
        <dc:format>image/svg+xml</dc:format>
        <dc:type
           rdf:resource="http://purl.org/dc/dcmitype/StillImage" />
        <dc:title></dc:title>
      </cc:Work>
    </rdf:RDF>
  </metadata>
  <defs
     id="defs7" />
  <sodipodi:namedview
     pagecolor="#ffffff"
     bordercolor="#666666"
     borderopacity="1"
     objecttolerance="10"
     gridtolerance="10"
     guidetolerance="10"
     inkscape:pageopacity="0"
     inkscape:pageshadow="2"
     inkscape:window-width="3357"
     inkscape:window-height="2054"
     id="namedview5"
     showgrid="false"
     inkscape:zoom="4.9671114"
     inkscape:cx="94.460284"
     inkscape:cy="70.416576"
     inkscape:window-x="2509"
     inkscape:window-y="-11"
     inkscape:window-maximized="1"
     inkscape:current-layer="ARX_SMART_MINDS"
     inkscape:document-rotation="0" />
  <!-- Generator: Adobe Illustrator 29.8.2, SVG Export Plug-In . SVG Version: 2.1.1 Build 3)  -->
  <path
     d="m 54.955336,56.910722 c -0.08926,-0.0625 -0.1339,-0.133929 -0.1339,-0.241073 0,-0.124998 0.107124,-0.249996 0.258873,-0.249996 0.06249,0 0.133899,0.02679 0.187459,0.0625 0.401697,0.267853 0.964072,0.535708 1.615716,0.535708 0.972997,0 1.571079,-0.499995 1.571079,-1.241059 0,-0.607137 -0.339209,-1.035703 -1.455036,-1.178558 l -0.285651,-0.03571 C 55.526638,54.41075 54.97319,53.839327 54.97319,52.955408 c 0,-1.053561 0.749835,-1.705339 1.901365,-1.705339 0.642716,0 1.18724,0.169641 1.562156,0.401781 0.116049,0.07142 0.169605,0.160712 0.169605,0.249997 0,0.124999 -0.0982,0.24107 -0.241016,0.24107 -0.06249,0 -0.124975,-0.02679 -0.178533,-0.05357 -0.410624,-0.223213 -0.839101,-0.357138 -1.330065,-0.357138 -0.883734,0 -1.374696,0.491065 -1.374696,1.178558 0,0.624993 0.383844,1.026775 1.428257,1.160702 l 0.276723,0.03571 c 1.205093,0.151783 1.776396,0.723207 1.776396,1.633911 0,1.026776 -0.731982,1.75891 -2.142385,1.75891 -0.749835,0 -1.419329,-0.276782 -1.86566,-0.589279 z m 5.114803,-5.285661 c 0,-0.205354 0.107123,-0.321424 0.303505,-0.321424 0.151751,0 0.258873,0.08928 0.33921,0.276783 l 1.883514,4.196385 h 0.0357 l 1.856734,-4.196385 c 0.08034,-0.187498 0.187458,-0.276783 0.339211,-0.276783 0.196385,0 0.303504,0.116071 0.303504,0.321424 v 5.544585 c 0,0.178571 -0.107123,0.276784 -0.258872,0.276784 -0.142825,0 -0.249944,-0.09821 -0.249944,-0.276784 v -4.589238 h -0.03571 l -1.651422,3.651748 c -0.116048,0.249997 -0.18746,0.303569 -0.330285,0.303569 -0.151752,0 -0.223164,-0.05357 -0.339211,-0.303569 l -1.642493,-3.651748 h -0.04464 v 4.589238 c 0,0.178571 -0.107124,0.276784 -0.258873,0.276784 -0.142825,0 -0.249944,-0.09821 -0.249944,-0.276784 z m 5.936121,5.491013 1.99956,-5.544583 c 0.06249,-0.17857 0.16068,-0.267854 0.321358,-0.267854 0.16068,0 0.258871,0.08928 0.321359,0.267854 l 1.981706,5.544583 c 0.009,0.02679 0.01785,0.0625 0.01785,0.09821 0,0.142855 -0.107123,0.232139 -0.241017,0.232139 -0.124973,0 -0.205314,-0.0625 -0.249944,-0.17857 l -0.517745,-1.437481 h -2.642275 l -0.517742,1.437484 c -0.04464,0.116072 -0.124973,0.17857 -0.249946,0.17857 -0.133898,0 -0.241017,-0.08928 -0.241017,-0.232139 0,-0.03571 0.009,-0.07142 0.01785,-0.09821 z m 3.463522,-1.776765 -1.133677,-3.178537 h -0.02677 l -1.14261,3.178537 z m 5.507644,1.946407 -1.258648,-2.589258 h -1.651421 c -0.03571,0 -0.05356,0.01786 -0.05356,0.05357 v 2.419619 c 0,0.178569 -0.107123,0.276783 -0.258871,0.276783 -0.142826,0 -0.249945,-0.09821 -0.249945,-0.276783 v -5.589228 c 0,-0.151784 0.09819,-0.241069 0.249945,-0.241069 h 1.883513 c 1.133678,0 1.838879,0.633922 1.838879,1.678553 0,0.848206 -0.47311,1.428556 -1.249723,1.616057 l 1.214018,2.446401 c 0.01785,0.04465 0.02677,0.08036 0.02677,0.125 0,0.124998 -0.08926,0.241069 -0.249945,0.241069 -0.0982,0 -0.178533,-0.05357 -0.241019,-0.160714 z m -0.009,-4.267812 c 0,-0.767847 -0.464182,-1.196418 -1.33899,-1.196418 h -1.562155 c -0.03571,0 -0.05356,0.01786 -0.05356,0.05357 v 2.285692 c 0,0.03571 0.01785,0.05357 0.05356,0.05357 h 1.562155 c 0.874808,0 1.33899,-0.428567 1.33899,-1.196415 z m 2.820807,4.151741 v -5.294588 c 0,-0.03571 -0.01785,-0.05357 -0.05356,-0.05357 h -1.606788 c -0.169605,0 -0.258872,-0.09821 -0.258872,-0.241068 0,-0.142855 0.08926,-0.24107 0.258872,-0.24107 h 3.829514 c 0.169604,0 0.25887,0.09821 0.25887,0.24107 0,0.142856 -0.08926,0.241068 -0.25887,0.241068 h -1.606791 c -0.03571,0 -0.05356,0.01786 -0.05356,0.05357 v 5.294588 c 0,0.178572 -0.107124,0.276784 -0.258871,0.276784 -0.142826,0 -0.249945,-0.09821 -0.249944,-0.276784 z m 4.320475,-5.544585 c 0,-0.205354 0.107124,-0.321424 0.303507,-0.321424 0.15175,0 0.25887,0.08928 0.33921,0.276783 l 1.883513,4.196385 h 0.03571 l 1.856735,-4.196385 c 0.08034,-0.187498 0.18746,-0.276783 0.33921,-0.276783 0.196385,0 0.303506,0.116071 0.303506,0.321424 v 5.544585 c 0,0.178572 -0.107123,0.276784 -0.258872,0.276784 -0.142826,0 -0.249947,-0.09821 -0.249947,-0.276784 v -4.589238 h -0.03571 l -1.651419,3.651748 c -0.116049,0.249997 -0.18746,0.30357 -0.330286,0.30357 -0.151751,0 -0.223164,-0.05357 -0.33921,-0.30357 l -1.642498,-3.651746 h -0.04464 v 4.589238 c 0,0.17857 -0.107123,0.276784 -0.258872,0.276784 -0.142826,0 -0.249944,-0.09821 -0.249944,-0.276784 z m 6.650179,-0.04465 c 0,-0.178571 0.107123,-0.276783 0.249944,-0.276783 0.151752,0 0.258872,0.09821 0.258872,0.276783 v 5.589227 c 0,0.178572 -0.107123,0.276784 -0.258872,0.276784 -0.142825,0 -0.249944,-0.09821 -0.249944,-0.276784 z m 2.097753,0.04465 c 0,-0.205354 0.107124,-0.321424 0.312431,-0.321424 0.169604,0 0.258872,0.08928 0.365989,0.276783 l 2.919,4.839235 h 0.02683 v -4.839235 c 0,-0.178571 0.09823,-0.276783 0.249947,-0.276783 0.151748,0 0.258871,0.09821 0.258871,0.276783 v 5.544585 c 0,0.205355 -0.116083,0.321426 -0.312433,0.321426 -0.169597,0 -0.258871,-0.08928 -0.37492,-0.276784 l -2.901154,-4.848164 h -0.0357 v 4.848164 c 0,0.17857 -0.107123,0.276784 -0.258872,0.276784 -0.142825,0 -0.249945,-0.09821 -0.249945,-0.276784 z m 5.721814,-0.04465 c 0,-0.151785 0.09823,-0.241069 0.249947,-0.241069 h 1.597846 c 1.11584,0 1.776413,0.491067 2.062053,1.374986 0.1339,0.419639 0.17853,0.785706 0.17853,1.660697 0,0.874991 -0.0447,1.241059 -0.17853,1.660698 -0.28564,0.883919 -0.946213,1.374985 -2.062053,1.374985 h -1.597756 c -0.15176,0 -0.249946,-0.08928 -0.249946,-0.241069 z m 0.56238,5.34816 h 1.214003 c 0.91053,0 1.39257,-0.30357 1.6425,-1.06249 0.116083,-0.366067 0.160683,-0.71428 0.160683,-1.491056 0,-0.776778 -0.0447,-1.124989 -0.160683,-1.491056 -0.24993,-0.75892 -0.73197,-1.062489 -1.6425,-1.062489 h -1.214003 c -0.0357,0 -0.05355,0.01786 -0.05355,0.05357 v 4.999949 c 0,0.03571 0.01785,0.05357 0.05355,0.05357 z m 4.570346,-0.01786 c -0.0892,-0.0625 -0.1339,-0.133928 -0.1339,-0.241069 0,-0.125001 0.1071,-0.249999 0.25888,-0.249999 0.0626,0 0.1339,0.02679 0.18746,0.0625 0.40168,0.267854 0.96408,0.535709 1.61571,0.535709 0.973,0 1.57108,-0.499995 1.57108,-1.241058 0,-0.607138 -0.33921,-1.035704 -1.45503,-1.178559 l -0.28566,-0.03571 c -1.18723,-0.151784 -1.74069,-0.723207 -1.74069,-1.607125 0,-1.053561 0.74984,-1.70534 1.90136,-1.70534 0.64272,0 1.18726,0.169641 1.56216,0.401782 0.11608,0.07142 0.16961,0.160712 0.16961,0.249997 0,0.124999 -0.0982,0.241069 -0.24102,0.241069 -0.0626,0 -0.12497,-0.02679 -0.17852,-0.05357 -0.41064,-0.223211 -0.8391,-0.357138 -1.33008,-0.357138 -0.88371,0 -1.37469,0.491067 -1.37469,1.178559 0,0.624994 0.38384,1.026775 1.42825,1.160703 l 0.27673,0.03571 c 1.2051,0.151784 1.77641,0.723206 1.77641,1.63391 0,1.026776 -0.732,1.75891 -2.1424,1.75891 -0.74983,0 -1.41932,-0.276782 -1.86566,-0.589278 z M 54.919695,45.595321 60.395963,30.446436 c 0.565427,-1.607171 1.458321,-2.559554 3.00593,-2.559554 1.547612,0 2.470268,0.952384 3.035695,2.559554 l 5.386979,15.148884 c 0.08922,0.238105 0.148745,0.535665 0.148745,0.833297 0,1.250049 -1.011875,2.053582 -2.113039,2.053582 -0.952417,0 -1.726258,-0.565497 -2.053582,-1.547611 l -0.833367,-2.470264 h -7.232149 l -0.803602,2.470264 c -0.327395,0.982114 -1.101165,1.547611 -2.053584,1.547611 -1.101164,0 -2.113108,-0.803533 -2.113108,-2.053581 0,-0.297633 0.05952,-0.595192 0.148814,-0.833297 z m 10.833412,-4.851242 -2.321449,-7.083333 h -0.08928 l -2.351214,7.083333 z m 18.579672,6.369088 -3.392854,-6.517905 h -2.976167 c -0.119054,0 -0.17858,0.05952 -0.17858,0.178578 v 5.386909 c 0,1.398866 -0.892893,2.321451 -2.172635,2.321451 -1.279809,0 -2.202398,-0.922585 -2.202398,-2.321451 V 29.999991 c 0,-1.160725 0.714314,-1.93453 1.904769,-1.93453 h 6.428616 c 4.166621,0 6.904754,2.589318 6.904754,6.279836 0,2.470196 -1.249978,4.434489 -3.333324,5.476197 l 2.946405,5.357145 c 0.208342,0.386919 0.297631,0.803532 0.297631,1.220215 0,1.130997 -0.77384,2.083346 -2.083345,2.083346 -0.892823,0 -1.636902,-0.416683 -2.142872,-1.369033 z m -0.05952,-12.738109 c 0,-1.547681 -1.0714,-2.529826 -2.738063,-2.529826 h -3.571429 c -0.119052,0 -0.17858,0.05952 -0.17858,0.178579 v 4.672628 c 0,0.119052 0.05952,0.178579 0.17858,0.178579 h 3.571429 c 1.666663,0 2.738063,-0.982113 2.738063,-2.49996 z m 17.628542,13.065504 -3.988115,-5.89288 h -0.0595 l -3.988111,5.89288 c -0.47614,0.714245 -1.071406,1.041637 -1.815483,1.041637 -1.190454,0 -2.053513,-0.863058 -2.053513,-1.964294 0,-0.446446 0.148746,-0.892822 0.446377,-1.339269 l 4.940535,-7.261913 -4.583378,-6.726246 c -0.297629,-0.446446 -0.446445,-0.892858 -0.446445,-1.339303 0,-1.101199 0.86313,-1.964294 2.053583,-1.964294 0.744077,0 1.339337,0.327394 1.815478,1.041673 l 3.630958,5.357214 h 0.0595 l 3.630964,-5.357214 c 0.4762,-0.714279 1.07146,-1.041673 1.81546,-1.041673 1.19052,0 2.05358,0.863095 2.05358,1.964294 0,0.446447 -0.1488,0.892858 -0.44637,1.339303 l -4.61313,6.726246 4.97022,7.261913 c 0.29762,0.446447 0.44644,0.892823 0.44644,1.339269 0,1.101233 -0.86306,1.964294 -2.05358,1.964294 -0.74401,0 -1.33927,-0.327392 -1.81547,-1.041637 z M 44.854857,22.5 c -5.868757,0 -10.625705,4.757192 -10.625705,10.625178 0,3.943612 2.148846,7.385737 5.339107,9.219036 1.556641,0.894972 3.36199,1.405808 5.286598,1.405808 5.867361,0 10.624318,-4.757409 10.624318,-10.624844 0,-5.867986 -4.756957,-10.625177 -10.624318,-10.625178 z m 3.228701,17.202396 h -6.458989 c -0.275237,0 -0.498266,-0.223127 -0.498266,-0.498365 0,-0.08758 0.02266,-0.169777 0.06233,-0.241291 -1.7e-5,3.1e-5 3.226989,-5.576249 3.226989,-5.576249 0.08429,-0.155707 0.249048,-0.26148 0.438537,-0.26148 0.189512,0 0.354285,0.105796 0.438566,0.26154 0,0 3.226762,5.576151 3.226757,5.576146 0.03969,0.07153 0.06253,0.153738 0.06253,0.241333 0,0.275238 -0.223229,0.498366 -0.498467,0.498366 z m 0,-8.095242 h -6.458989 c -0.275237,0 -0.498266,-0.223131 -0.498266,-0.498367 0,-0.08758 0.02266,-0.169778 0.06233,-0.241291 -1.7e-5,3.3e-5 3.226989,-5.57625 3.226989,-5.57625 0.08429,-0.155706 0.249048,-0.261479 0.438537,-0.261479 0.189512,0 0.354285,0.105806 0.438566,0.26154 0,0 3.226762,5.57615 3.226757,5.576145 0.03969,0.07153 0.06253,0.153738 0.06253,0.241334 0,0.275237 -0.223229,0.498367 -0.498467,0.498367 z"
     id="path2"
     style="stroke-width:0.0713955" />
</svg>
