<svg xmlns="http://www.w3.org/2000/svg" width="203" height="36.725"><path fill="#009EE2" d="M21.458.763a19.43 19.43 0 0 0 2.649.662c.446.043.892-.078 1.254-.341.28-.277.496-.613.632-.983h.9l.32 8.649h-.943a15.766 15.766 0 0 0-2.609-4.455 8.299 8.299 0 0 0-6.322-2.568 9.543 9.543 0 0 0-6.953 3c-2 2-3 5.294-3 9.883 0 3.786.997 6.743 2.99 8.87a9.715 9.715 0 0 0 7.385 3.19 12.91 12.91 0 0 0 1.746-.139 10.66 10.66 0 0 0 1.907-.442 5.533 5.533 0 0 0 1.826-.83c.258-.278.389-.651.361-1.03V17.68c0-1.587-.225-2.576-.673-2.967a5.421 5.421 0 0 0-2.938-.726v-.763h10.475v.765a3.912 3.912 0 0 0-2.026.5 3.226 3.226 0 0 0-.843 2.649v8.087c0 .48-1.181 1.123-3.542 1.926a21.145 21.145 0 0 1-6.813 1.2c-3.7.109-7.313-1.14-10.154-3.512A12.946 12.946 0 0 1 2.531 14.44a14.297 14.297 0 0 1 3.63-9.833 13.455 13.455 0 0 1 10.6-4.516c1.59 0 3.172.223 4.7.663M31.617 27.113a4.848 4.848 0 0 0 2.448-.654 2.682 2.682 0 0 0 .6-2.1v-9.05a7.733 7.733 0 0 0-.372-2.841 1.355 1.355 0 0 0-1.354-.853 3.8 3.8 0 0 0-.532.05c-.221.034-.452.078-.693.131v-.663l2.341-.822c.8-.282 1.354-.481 1.661-.601a36.625 36.625 0 0 0 2.061-.863c.093 0 .15.034.169.101.026.139.037.28.03.422v3.292a15.262 15.262 0 0 1 2.486-2.789 3.83 3.83 0 0 1 2.485-1 2.33 2.33 0 0 1 1.67.612c.796.788.863 2.053.153 2.92-.305.364-.758.57-1.233.562a2.307 2.307 0 0 1-1.536-.7 2.177 2.177 0 0 0-1.214-.699c-.467 0-1.042.377-1.726 1.133a3.483 3.483 0 0 0-1.023 2.339v9.05c-.1.879.192 1.757.8 2.4a4.038 4.038 0 0 0 2.669.632v.662h-9.894l.004-.671zM48.911 11.71a8.476 8.476 0 0 1 6.532-2.76 8.928 8.928 0 0 1 6.583 2.609 9.383 9.383 0 0 1 2.608 6.943 10.332 10.332 0 0 1-2.528 6.944 8.22 8.22 0 0 1-6.543 2.95 8.628 8.628 0 0 1-6.521-2.829 9.957 9.957 0 0 1-2.67-7.101 9.61 9.61 0 0 1 2.539-6.753m3.205-.51c-1.341 1.218-2.011 3.317-2.011 6.3a14.157 14.157 0 0 0 1.618 6.663c1.079 2.061 2.579 3.091 4.5 3.091a3.822 3.822 0 0 0 3.468-2.067 10.61 10.61 0 0 0 1.216-5.418c.01-2.272-.52-4.516-1.547-6.542a4.851 4.851 0 0 0-4.484-3.071 3.982 3.982 0 0 0-2.754 1.043M72.446 9.195v12.844c-.03.748.101 1.494.382 2.188a2.754 2.754 0 0 0 2.729 1.523 4.651 4.651 0 0 0 2.67-.899 7.892 7.892 0 0 0 1.5-1.386v-11a2.561 2.561 0 0 0-.6-2.026 4.576 4.576 0 0 0-2.409-.582v-.662h6.481v14.129a2.726 2.726 0 0 0 .491 1.876 2.831 2.831 0 0 0 2.078.451v.562c-.733.2-1.275.351-1.626.452-.351.102-.933.285-1.746.552-.348.122-1.111.409-2.288.863a.109.109 0 0 1-.121-.09 1 1 0 0 1-.02-.211v-3.234a13.59 13.59 0 0 1-2.49 2.409 6.165 6.165 0 0 1-3.612 1.2 5.16 5.16 0 0 1-3.291-1.245c-1.043-.818-1.565-2.192-1.566-4.12V12.363a2.616 2.616 0 0 0-.683-2.13 4.127 4.127 0 0 0-1.886-.479v-.559h6.007zM87.041 36.062a3.236 3.236 0 0 0 2.381-.8 3.62 3.62 0 0 0 .508-2.147V13.848a3.341 3.341 0 0 0-.371-1.957 1.793 1.793 0 0 0-1.395-.432c-.147 0-.284.008-.411.021s-.311.04-.553.08v-.662l1.907-.623c.067-.013 1.412-.474 4.034-1.384a.163.163 0 0 1 .151.089.44.44 0 0 1 .05.211v2.708a14.672 14.672 0 0 1 2.328-1.966 6.957 6.957 0 0 1 3.712-1.123 6.067 6.067 0 0 1 4.767 2.355 9.652 9.652 0 0 1 2 6.445 11.999 11.999 0 0 1-2.4 7.278 7.221 7.221 0 0 1-6.031 3.267 5.998 5.998 0 0 1-1.945-.281 5.797 5.797 0 0 1-2.369-1.544v6.581c0 1.353.221 2.183.663 2.49a6.652 6.652 0 0 0 2.888.622v.7h-9.912l-.002-.661zm7.916-9.962a4.394 4.394 0 0 0 2.439.671 4.467 4.467 0 0 0 3.7-2.155 10.19 10.19 0 0 0 1.536-6c0-2.459-.531-4.296-1.594-5.511a4.8 4.8 0 0 0-3.7-1.824 4.424 4.424 0 0 0-2.708.912 2.438 2.438 0 0 0-1.224 1.792v10.083a4.068 4.068 0 0 0 1.555 2.035M119.683 17.219h10.153v2.569h-10.153zM143.114 27.013a6.843 6.843 0 0 0 3.25-.749c.494-.379.742-1.36.743-2.944V5.037c0-1.512-.247-2.484-.743-2.919a5.812 5.812 0 0 0-3.25-.771V.583h12.161v.764a5.827 5.827 0 0 0-3.252.771c-.495.436-.743 1.408-.741 2.919V23.32c0 1.584.246 2.565.741 2.944a6.85 6.85 0 0 0 3.252.749v.762h-12.161v-.762zM157.004 27.011c1.565-.146 2.541-.455 2.93-.928.388-.472.582-1.554.583-3.245v-17.8a4.292 4.292 0 0 0-.654-2.83 4.666 4.666 0 0 0-2.858-.861V.584h10.836c3.479 0 6.141.676 7.986 2.027a6.304 6.304 0 0 1 2.77 5.338 6.603 6.603 0 0 1-3.071 6.081 14.449 14.449 0 0 1-7.687 1.886c-.44 0-1.006-.011-1.699-.03-.693-.019-1.2-.029-1.535-.029v7.466c0 1.543.237 2.515.712 2.915a6.233 6.233 0 0 0 3.181.776v.763h-11.5l.006-.766zm13.868-24.142a11.045 11.045 0 0 0-4.414-.763 2.877 2.877 0 0 0-1.557.251c-.24.317-.346.718-.29 1.112v10.718a57.03 57.03 0 0 0 1.444.119c.23.014.451.021.664.021 1.525.07 3.049-.203 4.455-.8 1.965-.977 2.948-2.803 2.948-5.479a5.156 5.156 0 0 0-3.251-5.177M182.057 19.507a14.844 14.844 0 0 0 2.445 4.415 7.662 7.662 0 0 0 6.072 2.869 5.01 5.01 0 0 0 3.399-1.244 4.354 4.354 0 0 0 1.433-3.473 4.859 4.859 0 0 0-1.441-3.492 25.497 25.497 0 0 0-3.967-2.829l-3.5-2.187a12.645 12.645 0 0 1-2.525-2.027 6.29 6.29 0 0 1-1.746-4.3 7.022 7.022 0 0 1 2.066-5.177 7.416 7.416 0 0 1 5.463-2.063c1.158.044 2.301.278 3.383.693.732.292 1.486.523 2.257.692a1.29 1.29 0 0 0 1.054-.361c.223-.305.377-.653.451-1.023h.844l.899 8.751h-.983c-.666-2.636-1.74-4.476-3.222-5.519a7.58 7.58 0 0 0-4.384-1.566 4.599 4.599 0 0 0-2.94.993 3.325 3.325 0 0 0-1.255 2.759 4.031 4.031 0 0 0 .961 2.71 12.382 12.382 0 0 0 2.987 2.389l3.608 2.228a18.798 18.798 0 0 1 4.779 3.833 6.607 6.607 0 0 1 1.37 4.174 6.928 6.928 0 0 1-2.438 5.4 9.032 9.032 0 0 1-6.23 2.167 12.146 12.146 0 0 1-3.984-.723 14.904 14.904 0 0 0-2.379-.723 1.022 1.022 0 0 0-.973.441c-.168.291-.279.61-.33.942h-.9l-1.225-8.749h.951z"/><path fill="#009EE2" d="M0 32.461h88.1v1.371H0zM95.137 32.461H203v1.371H95.137z"/></svg>