<?xml version="1.0" encoding="UTF-8" standalone="no"?>
<svg
   xmlns:dc="http://purl.org/dc/elements/1.1/"
   xmlns:cc="http://creativecommons.org/ns#"
   xmlns:rdf="http://www.w3.org/1999/02/22-rdf-syntax-ns#"
   xmlns:svg="http://www.w3.org/2000/svg"
   xmlns="http://www.w3.org/2000/svg"
   xmlns:sodipodi="http://sodipodi.sourceforge.net/DTD/sodipodi-0.dtd"
   xmlns:inkscape="http://www.inkscape.org/namespaces/inkscape"
   width="80"
   height="80"
   viewBox="0 0 80 80"
   fill="none"
   version="1.1"
   id="svg869"
   sodipodi:docname="brand-logo-15.svg"
   inkscape:version="1.0.2-2 (e86c870879, 2021-01-15)">
  <metadata
     id="metadata875">
    <rdf:RDF>
      <cc:Work
         rdf:about="">
        <dc:format>image/svg+xml</dc:format>
        <dc:type
           rdf:resource="http://purl.org/dc/dcmitype/StillImage" />
        <dc:title></dc:title>
      </cc:Work>
    </rdf:RDF>
  </metadata>
  <defs
     id="defs873" />
  <sodipodi:namedview
     pagecolor="#ffffff"
     bordercolor="#666666"
     borderopacity="1"
     objecttolerance="10"
     gridtolerance="10"
     guidetolerance="10"
     inkscape:pageopacity="0"
     inkscape:pageshadow="2"
     inkscape:window-width="3840"
     inkscape:window-height="2054"
     id="namedview871"
     showgrid="false"
     inkscape:zoom="5.575095"
     inkscape:cx="81.685669"
     inkscape:cy="81.352135"
     inkscape:window-x="2509"
     inkscape:window-y="-11"
     inkscape:window-maximized="1"
     inkscape:current-layer="svg869"
     inkscape:document-rotation="0" />
  <g
     id="g1480"
     transform="matrix(3.47995,0,0,3.47995,160.40684,-163.32948)"
     inkscape:export-xdpi="194.84015"
     inkscape:export-ydpi="194.84015">
    <path
       id="circle"
       style="fill:#94a3b8;fill-opacity:1;fill-rule:evenodd;stroke-width:0.550193"
       d="M 70.492188,1.4882812 A 33.011674,33.011674 0 1 0 103.49609,34.5 h 0.0312 A 33.011674,33.011674 0 0 0 70.515625,1.4882812 a 33.011674,33.011674 0 0 0 -0.02344,0 z M 83.144531,12.177734 a 9.760452,9.760452 0 0 1 0.263672,0.0059 c 8.307918,0 7.888672,8.324218 7.888672,8.324218 v 16.78711 H 81.707031 V 23.568359 c 0,0 0.04509,-3.302606 -2.958984,-3.060547 -3.378192,0.275101 -3.378906,3.814454 -3.378906,3.814454 V 37.294922 H 65.921875 V 23.568359 c 0,0 6.1e-5,-3.198082 -3.246094,-3.060547 -3.378222,0.286109 -3.240234,3.814454 -3.240234,3.814454 V 55.957031 H 49.703125 V 13.042969 h 9.583984 v 3.234375 c 0,0 1.832388,-4.09375 8.181641,-4.09375 6.167681,0 7.189453,4.802734 7.189453,4.802734 a 9.760452,9.760452 0 0 1 8.486328,-4.808594 z m -1.410156,27.169922 h 3.087891 v 4.240235 h 1.929687 v 2.730468 h -1.929687 v 5.501953 a 0.90231913,0.90231913 0 0 0 0,0.400391 0.9738444,0.9738444 0 0 0 1.144531,0.787109 c 0.220074,0 0.715471,-0.04297 0.996094,-0.04297 v 2.988281 c -0.577696,0.02197 -1.371675,0.113281 -1.921875,0.113281 -1.31496,0 -2.139236,-0.239614 -2.628907,-0.861328 -0.528125,-0.665739 -0.705078,-1.761909 -0.705078,-3.478516 v -5.435546 h -1.396484 v -2.707032 h 1.423828 z m 6.427734,0.04883 h 3.134766 v 2.697266 h -3.134766 z m -21.347656,3.792969 a 5.1608252,5.1608252 0 0 1 0.191406,0.0039 c 2.2558,0 4.457032,0.649204 4.457032,4.148438 v 5.435547 a 12.500421,12.500421 0 0 0 0.154297,2.398437 5.3809029,5.3809029 0 0 0 0.224609,0.783203 h -3.146485 a 4.7041638,4.7041638 0 0 1 -0.154296,-0.78125 v -0.398437 a 3.9834086,3.9834086 0 0 1 -0.341797,0.402344 3.851362,3.851362 0 0 1 -2.84961,1.15039 3.05358,3.05358 0 0 1 -2.492187,-1.126953 l 0.04492,-0.01758 a 4.1154553,4.1154553 0 0 1 -0.775391,-2.613281 c 0,-4.021892 3.359774,-3.735016 5.560547,-4.285157 h 0.07813 a 0.97934641,0.97934641 0 0 0 0.699219,-1.195312 v -0.06055 a 1.3754866,1.3754866 0 0 0 -1.513672,-1.226562 1.5515487,1.5515487 0 0 0 -1.552734,1.550781 h -2.919922 a 4.0714401,4.0714401 0 0 1 1.484375,-3.300781 5.1608252,5.1608252 0 0 1 2.851562,-0.867188 z m 11.712891,0.316406 h 0.791015 v 3.103516 h -0.6875 c -1.551552,0 -2.326171,1.694542 -2.326171,3.246094 h -0.02734 v 6.101562 H 73.167969 V 43.589844 h 3.027343 v 2.167968 c 0.484174,-1.573561 1.160117,-2.251953 2.332032,-2.251953 z m 9.634765,0.08398 h 3.134766 v 12.357422 h -3.134766 z m -19.748047,6.589844 a 7.317588,7.317588 0 0 1 -1.929687,0.671874 1.5515487,1.5515487 0 0 0 -1.292969,1.550782 l -0.0059,0.01758 a 1.7001012,1.7001012 0 0 0 0,0.236328 1.2324359,1.2324359 0 0 0 1.308594,1.166016 c 1.502035,0 1.985943,-1.095185 1.919921,-3.642578 z"
       transform="matrix(0.16570313,0,0,0.16570313,-46.282238,52.7121)" />
  </g>
</svg>
