<?xml version="1.0" encoding="UTF-8" standalone="no"?>
<svg
   xmlns:dc="http://purl.org/dc/elements/1.1/"
   xmlns:cc="http://creativecommons.org/ns#"
   xmlns:rdf="http://www.w3.org/1999/02/22-rdf-syntax-ns#"
   xmlns:svg="http://www.w3.org/2000/svg"
   xmlns="http://www.w3.org/2000/svg"
   xmlns:sodipodi="http://sodipodi.sourceforge.net/DTD/sodipodi-0.dtd"
   xmlns:inkscape="http://www.inkscape.org/namespaces/inkscape"
   width="215"
   height="80"
   viewBox="0 0 215 80"
   fill="none"
   version="1.1"
   id="svg869"
   sodipodi:docname="brand-logo-74.svg"
   inkscape:version="1.0.2-2 (e86c870879, 2021-01-15)">
  <metadata
     id="metadata875">
    <rdf:RDF>
      <cc:Work
         rdf:about="">
        <dc:format>image/svg+xml</dc:format>
        <dc:type
           rdf:resource="http://purl.org/dc/dcmitype/StillImage" />
        <dc:title></dc:title>
      </cc:Work>
    </rdf:RDF>
  </metadata>
  <defs
     id="defs873" />
  <sodipodi:namedview
     pagecolor="#ffffff"
     bordercolor="#666666"
     borderopacity="1"
     objecttolerance="10"
     gridtolerance="10"
     guidetolerance="10"
     inkscape:pageopacity="0"
     inkscape:pageshadow="2"
     inkscape:window-width="2520"
     inkscape:window-height="1609"
     id="namedview871"
     showgrid="false"
     inkscape:zoom="2.7875476"
     inkscape:cx="192.71852"
     inkscape:cy="-10.666806"
     inkscape:window-x="568"
     inkscape:window-y="2152"
     inkscape:window-maximized="1"
     inkscape:current-layer="svg869"
     inkscape:document-rotation="0" />
  <g
     id="g43"
     data-name="Group 6"
     transform="matrix(0.68978146,0,0,0.68978146,3.0866497,20.68681)"
     style="fill:#000000">
    <path
       id="path39"
       data-name="Path 1"
       d="M 24.122,52.193 36.064,31.46 H 27.99 L 32,24.5 h 18.972 l -4.02,6.98 -6.858,-0.02 -12.104,21.052 a 24.5,24.5 0 1 0 0,-49 22.715,22.715 0 0 0 -2.89,0.18 L 13.058,24.5 H 27.99 l -4.047,6.96 H 5 L 20.454,4.706 a 24.488,24.488 0 0 0 3.668,47.487 M 27.99,0 A 28,28 0 1 1 0,27.971 28.065,28.065 0 0 1 27.99,0"
       transform="translate(0,-0.001)"
       fill="#ffffff"
       fill-rule="evenodd"
       style="fill:#000000" />
    <path
       id="path41"
       data-name="Path 2"
       d="m 385.964,53.748 c 0.713,-3.287 3.029,-6.655 6.9,-6.655 3.871,0 4.722,3.367 4.009,6.655 -0.73,3.368 -2.941,6.762 -6.919,6.762 -3.978,0 -4.717,-3.394 -3.986,-6.762 m -4.062,0 c -1.24,5.719 1.178,9.706 7.41,9.706 6.148,0 10.4,-4.067 11.62,-9.706 1.22,-5.639 -1.341,-9.595 -7.434,-9.595 -6.176,0 -10.355,3.875 -11.6,9.595 m -16.752,9.381 h 3.9 l 1.681,-7.75 h 1.252 c 1.641,0 2.027,0.534 2.281,1.924 l 1.073,5.827 h 4.34 l -1.533,-7.3 c -0.21,-0.829 -0.6,-1.844 -1.642,-1.924 l 0.012,-0.054 a 5.71,5.71 0 0 0 4.946,-4.329 c 1.125,-5.185 -3.884,-5.051 -8.058,-5.051 h -4.2 z m 7.3,-15.715 h 1.28 c 1.948,0 4.077,0.187 3.59,2.432 -0.5,2.325 -2.76,2.592 -4.68,2.592 h -1.28 z m -23.408,15.715 h 6.789 c 2.448,0 6.995,-0.695 8.015,-5.4 0.5,-2.3 -0.939,-4.009 -3.529,-4.25 l 0.012,-0.054 a 5.581,5.581 0 0 0 4.772,-4.169 c 0.887,-4.089 -2.718,-4.784 -5.222,-4.784 h -6.789 z m 7.3,-15.715 h 1.5 c 1.78,0 3.721,0.16 3.251,2.325 -0.417,1.925 -2.524,2.272 -4.165,2.272 h -1.586 z m -1.6,7.376 h 1.836 c 1.948,0 3.925,0.374 3.4,2.806 -0.47,2.165 -2.76,2.592 -4.569,2.592 h -1.836 z m -23.078,1.6 c -1.084,5 1.417,7.06 6.4,7.06 4.983,0 8.376,-2.063 9.46,-7.06 l 2.585,-11.92 h -3.9 l -2.329,10.774 c -0.69,3.18 -2.2,5.265 -5.176,5.265 -2.976,0 -3.582,-2.085 -2.893,-5.265 l 2.337,-10.771 h -3.9 z m -16.425,-2.646 c 0.713,-3.287 3.029,-6.655 6.9,-6.655 3.871,0 4.722,3.367 4.009,6.655 -0.73,3.368 -2.941,6.762 -6.919,6.762 -3.978,0 -4.717,-3.394 -3.986,-6.762 m -4.062,0 c -1.24,5.719 1.178,9.706 7.41,9.706 6.148,0 10.4,-4.067 11.62,-9.706 1.22,-5.639 -1.341,-9.595 -7.434,-9.595 -6.176,0 -10.355,3.875 -11.6,9.595 m -10.242,9.381 h 3.9 l 3.409,-15.715 h 5.564 l 0.637,-2.94 h -15.024 l -0.638,2.94 h 5.564 z M 282.2,53.32 c 2.369,-1.176 4.272,-2.378 4.828,-4.944 0.655,-3.02 -1.95,-4.223 -4.676,-4.223 -2.726,0 -6.206,1.417 -6.82,4.249 -0.464,2.138 0.518,3.127 1.724,4.49 -3.36,1.256 -4.716,2.887 -5.2,5.131 -0.76,3.5 1.91,5.43 5.75,5.43 a 9.285,9.285 0 0 0 5.716,-1.982 l 0.948,1.657 h 4.785 l -2.666,-3.742 A 13.224,13.224 0 0 0 290.449,53 h -3.394 a 7.944,7.944 0 0 1 -2.105,4.063 z m -1.752,-1.92 c -0.595,-0.721 -1.488,-1.6 -1.262,-2.646 a 2.6,2.6 0 0 1 2.655,-1.978 c 1.113,0 2.009,0.615 1.725,1.924 -0.238,1.1 -2.039,2.218 -3.117,2.7 m 1.682,8.152 a 5.869,5.869 0 0 1 -3.638,1.122 c -1.808,0 -3.04,-1.122 -2.686,-2.753 0.319,-1.47 1.6,-2.352 3.014,-2.993 z m -38,3.581 h 3.728 l 3.026,-13.951 h 0.056 l 4.4,13.951 h 4.759 l 4.046,-18.655 h -3.728 l -3.028,13.947 h -0.056 L 252.96,44.474 h -4.785 z m -14.439,0 h 11.518 l 0.637,-2.94 h -7.623 l 1.136,-5.239 h 6.928 l 0.637,-2.94 H 236 l 1,-4.6 h 7.567 l 0.638,-2.94 h -11.47 z m 0.688,-18.307 a 13.846,13.846 0 0 0 -4.5,-0.668 c -3.422,0 -7.119,1.523 -8.023,5.693 -1.339,6.174 7.493,4.7 6.722,8.258 -0.365,1.684 -2.5,2.405 -3.972,2.405 a 8.237,8.237 0 0 1 -4.147,-1.149 l -1.092,3.367 a 16,16 0 0 0 4.823,0.726 c 3.923,0 7.627,-1.554 8.513,-5.644 1.356,-6.254 -7.453,-4.891 -6.751,-8.125 a 3.439,3.439 0 0 1 3.623,-2.592 9.154,9.154 0 0 1 3.776,0.8 z m -30.432,18.303 h 3.895 l 1.681,-7.75 h 1.252 c 1.641,0 2.027,0.534 2.281,1.924 l 1.073,5.827 h 4.34 l -1.533,-7.3 c -0.21,-0.829 -0.6,-1.844 -1.641,-1.924 l 0.012,-0.054 a 5.71,5.71 0 0 0 4.946,-4.329 c 1.125,-5.185 -3.884,-5.051 -8.058,-5.051 h -4.2 z m 7.3,-15.715 h 1.28 c 1.948,0 4.077,0.187 3.59,2.432 -0.5,2.325 -2.76,2.592 -4.68,2.592 h -1.279 z m -27.109,15.715 h 4.034 l 2.625,-4.276 h 7.873 l 0.742,4.276 h 4.312 l -3.576,-18.655 h -4.4 z m 14.085,-7.216 h -5.676 l 4.479,-7.7 h 0.056 z m -25.714,7.216 h 11.435 l 0.638,-2.94 h -7.54 l 3.409,-15.715 h -3.895 z"
       transform="translate(-98.489,-25.807)"
       fill="#ffffff"
       style="fill:#000000" />
  </g>
</svg>
