<svg width="652" height="652" xmlns="http://www.w3.org/2000/svg" xmlns:xlink="http://www.w3.org/1999/xlink" xml:space="preserve" overflow="hidden"><g transform="translate(-314 -34)"><path d="M519.3 287.2C526.3 287.2 532 289.5 536.2 294.2 540.5 298.9 542.6 304.9 542.6 312.3 542.6 319.5 540.5 325.5 536.2 330 531.9 334.6 526.3 336.9 519.3 336.9 512.3 336.9 506.6 334.6 502.4 330 498.1 325.4 496 319.5 496 312.3 496 304.9 498.2 298.9 502.5 294.2 506.8 289.5 512.9 287 519.3 287.2L519.3 287.2ZM506.4 312.3C506.4 317.1 507.5 320.9 509.8 323.8 512.1 326.7 515.6 328.3 519.3 328.2 523 328.4 526.5 326.8 528.8 323.9 531.1 321 532.2 317.2 532.2 312.3 532.2 307.2 531.1 303.2 528.8 300.3 526.5 297.4 522.9 295.8 519.3 296 515.3 296 512.2 297.4 509.9 300.3 507.6 303.2 506.4 307.2 506.4 312.3L506.4 312.3ZM568.9 300.5C569.7 300.5 570.4 300.6 571 300.8L571 309.6C569.9 309.4 568.7 309.3 567.6 309.3 561.4 309.3 558.3 313 558.3 320.4L558.3 335.9 548.9 335.9 548.9 301.5 557.9 301.5 557.9 307.9 558 307.9C558.9 305.7 560.4 303.9 562.4 302.6 564.3 301.2 566.6 300.5 568.9 300.5L568.9 300.5ZM589.5 300.5C599.5 300.5 604.5 303.8 604.5 310.3L604.5 328.5C604.5 331.9 604.9 334.3 605.7 335.8L596.1 335.8C595.7 334.7 595.5 333.6 595.4 332.4 592.6 335.2 588.7 336.7 583.8 336.7 580.2 336.7 577.4 335.8 575.2 334 573.1 332.1 571.9 329.3 572 326.4 571.8 323.6 572.9 320.9 575 319.1 577.1 317.3 580.8 316.1 586.1 315.7 589.9 315.3 592.3 314.8 593.4 314.2 594.4 313.6 594.9 312.7 594.9 311.5 594.9 309.9 594.4 308.8 593.5 308.1 592.6 307.3 591 307 588.8 307 586.8 307 585.3 307.4 584.3 308.2 583.3 309 582.7 310.3 582.5 312.2L573.1 312.2C573.3 308.4 574.9 305.5 577.7 303.6 580.8 301.5 584.7 300.5 589.5 300.5L589.5 300.5ZM581.6 326.1C581.6 329 583.6 330.5 587.4 330.5 592.5 330.5 595 327.9 595 322.7L595 319C594.3 319.8 592.3 320.3 589.3 320.7 587.3 320.8 585.3 321.4 583.4 322.3 582.3 323.1 581.7 324.3 581.6 326.1L581.6 326.1ZM631.6 300.5C636 300.5 639.2 301.6 641.2 303.8 643.2 306 644.2 309.5 644.2 314.4L644.2 335.8 634.7 335.8 634.7 316.3C634.7 313.5 634.2 311.3 633.3 310 632.4 308.6 630.9 307.9 628.6 307.9 626 307.9 624.2 308.7 623 310.2 621.9 311.7 621.3 314.3 621.3 317.9L621.3 335.8 611.9 335.8 611.9 301.4 620.9 301.4 620.9 306.2 621.1 306.2C623.2 302.5 627.3 300.3 631.6 300.5L631.6 300.5ZM665 300.5C669.7 300.5 673.2 302.3 675.2 306L675.3 306 675.3 301.4 684.3 301.4 684.3 333.7C684.3 338.7 682.8 342.4 679.7 345 676.6 347.6 672.2 348.8 666.5 348.8 662.1 348.8 658.6 347.8 655.8 345.7 653.2 343.9 651.5 341 651.3 337.8L660.7 337.8C661.4 340.9 663.8 342.5 667.7 342.5 670.1 342.5 672 341.8 673.3 340.4 674.6 339 675.3 336.9 675.3 334.3L675.3 329.6 675.2 329.6C674.3 331.3 672.9 332.6 671.1 333.5 669.3 334.4 667.2 334.9 664.9 334.9 660.8 335.1 656.8 333.4 654.1 330.4 651.5 327.4 650.2 323.1 650.2 317.6 650.2 312.7 651.6 308.7 654.3 305.4 656.9 302.2 660.9 300.4 665 300.5L665 300.5ZM659.7 317.4C659.7 320.6 660.4 323.1 661.7 325 663.1 326.8 664.9 327.8 667.3 327.8 669.8 327.8 671.7 326.9 673.2 325.2 674.7 323.4 675.4 321.1 675.4 318.2 675.4 314.8 674.7 312.1 673.3 310.4 671.8 308.6 669.6 307.6 667.3 307.7 664.9 307.7 663 308.6 661.7 310.4 660.3 312.5 659.6 314.9 659.7 317.4L659.7 317.4ZM707.9 300.5C714.1 300.3 719.8 303.7 722.5 309.3 724.3 312.9 725 316.9 724.6 320.9L699.8 320.9C699.9 323.6 700.6 325.8 702 327.3 703.4 328.8 705.4 329.6 708.2 329.6 709.9 329.6 711.5 329.2 713 328.3 714.3 327.6 715.3 326.5 715.7 325.1L724 325.1C721.6 332.8 716.2 336.7 707.9 336.7 704.9 336.7 701.9 336 699.2 334.6 696.5 333.2 694.2 331.1 692.8 328.4 691.2 325.4 690.3 322 690.4 318.6 690.4 315.1 691.2 311.9 692.8 309 694.3 306.3 696.5 304 699.3 302.6 701.9 301.2 704.8 300.5 707.9 300.5L707.9 300.5ZM715.1 314.9C714.9 312.8 714 310.9 712.6 309.3 711.2 308.1 709.4 307.5 707.5 307.6 705.2 307.6 703.4 308.3 702 309.6 700.6 311 699.8 312.9 699.7 315L715.1 315 715.1 314.9Z" fill="#FF7900"/><path d="M519.3 353.7C524.9 353.7 529.5 355.3 533.3 358.4 537 361.5 539.4 366 539.8 370.8L529.7 370.8C529.3 368.4 528.1 366.3 526.2 364.9 524.3 363.3 521.8 362.5 519.3 362.5 515.2 362.5 512.1 364 509.8 366.9 507.5 369.8 506.4 373.8 506.4 378.8 506.4 383.7 507.5 387.5 509.8 390.4 512.1 393.3 515.6 394.9 519.3 394.7 522.3 394.7 524.8 393.8 526.6 392 528.6 389.8 529.8 387.1 530 384.1L540.1 384.1C539.6 390.1 537.4 394.9 533.6 398.3 529.6 401.8 524.5 403.7 519.2 403.5 512.2 403.5 506.6 401.2 502.3 396.6 498 392 495.9 386 495.9 378.8 495.9 371.4 498 365.4 502.3 360.7 506.6 356.1 512.3 353.7 519.3 353.7L519.3 353.7ZM552.4 368 560.2 391.5 560.3 391.5 567.8 368 577.6 368 563.2 406.7C562.4 409.1 561 411.1 559 412.6 557.2 413.8 554.7 414.5 551.5 414.5 550.1 414.5 548.2 414.4 545.6 414.2L545.6 406.4C547.3 406.6 548.9 406.7 550.6 406.7 551.8 406.8 552.9 406.3 553.7 405.5 554.4 404.7 554.8 403.7 554.8 402.4 554.8 401.7 554.7 401 554.4 400.3L542.3 368 552.4 368 552.4 368ZM590.3 354.9 590.3 372.2 590.4 372.2C591.5 370.6 593 369.3 594.8 368.5 596.7 367.6 598.8 367.1 601.3 367.1 605.5 367.1 608.9 368.8 611.6 372.1 614.3 375.5 615.6 379.8 615.6 385.2 615.6 390.6 614.3 394.9 611.7 398.3 609.3 401.6 605.4 403.5 601.3 403.3 595.7 403.3 592 401.5 590.1 398L590 398 590 402.4 581 402.4 581 354.9 590.3 354.9 590.3 354.9ZM590 385.2C590 388.5 590.7 391.2 592.2 393.2 593.5 395.1 595.7 396.3 598.1 396.2 600.5 396.2 602.4 395.2 603.9 393.3 605.4 391.4 606.1 388.7 606.1 385.3 606.1 381.9 605.4 379.2 603.9 377.2 602.6 375.3 600.3 374.1 597.9 374.2 595.4 374.2 593.5 375.2 592 377.2 590.6 379.6 589.8 382.4 590 385.2L590 385.2ZM637.4 367C643.6 366.7 649.3 370.2 652 375.8 653.8 379.4 654.5 383.4 654.1 387.4L629.3 387.4C629.4 390.2 630.1 392.3 631.5 393.8 632.8 395.3 634.9 396.1 637.7 396.1 639.4 396.1 641 395.7 642.5 394.8 643.8 394.1 644.8 393 645.3 391.6L653.6 391.6C651.2 399.3 645.8 403.2 637.5 403.2 634.5 403.2 631.5 402.5 628.7 401.1 626 399.7 623.7 397.6 622.3 394.9 620.6 391.9 619.8 388.5 619.9 385 619.9 381.7 620.7 378.4 622.3 375.4 623.8 372.7 626 370.4 628.7 368.9 631.4 367.7 634.4 367 637.4 367L637.4 367ZM644.7 381.5C644.5 379.4 643.6 377.5 642.2 375.9 640.8 374.7 639 374.1 637.1 374.2 634.8 374.2 633 374.8 631.6 376.1 630.2 377.5 629.4 379.5 629.3 381.5L644.7 381.5ZM679.8 367C680.6 367 681.3 367.1 681.9 367.3L681.9 376.1C680.9 375.9 679.7 375.8 678.5 375.8 672.3 375.8 669.2 379.5 669.2 386.9L669.2 402.4 659.8 402.4 659.8 368 668.8 368 668.8 374.4 668.9 374.4C669.8 372.2 671.3 370.4 673.3 369.1 675.2 367.7 677.4 367 679.8 367L679.8 367ZM718.6 354.9 718.6 402.4 709.6 402.4 709.6 398 709.5 398C707.4 401.5 704 403.3 699.1 403.3 694.7 403.5 690.5 401.5 687.8 398.1 684.9 394.3 683.5 389.6 683.7 384.9 683.7 379.6 685.1 375.4 687.9 372.1 690.6 368.8 694.7 367 698.9 367.1 701 367.1 703 367.5 704.8 368.4 706.6 369.3 708.1 370.5 709.1 372.2L709.2 372.2 709.2 354.9 718.6 354.9ZM693 385.1C693 388.3 693.7 390.9 695.2 393 696.6 395 698.9 396.2 701.3 396.2 704 396.2 706 395.2 707.4 393.2 708.7 391.2 709.4 388.5 709.4 385.1 709.4 381.7 708.7 379 707.3 377.1 705.9 375.2 703.6 374.1 701.2 374.2 698.5 374.2 696.5 375.2 695 377.2 693.6 379.5 692.9 382.3 693 385.1L693 385.1ZM741.6 367C747.8 366.8 753.5 370.2 756.2 375.8 758 379.4 758.7 383.4 758.3 387.4L733.5 387.4C733.6 390.2 734.3 392.3 735.7 393.8 737.1 395.3 739.1 396.1 741.9 396.1 743.6 396.1 745.2 395.7 746.7 394.8 748 394.1 748.9 393 749.4 391.6L757.7 391.6C755.3 399.3 749.9 403.2 741.6 403.2 738.6 403.2 735.6 402.5 732.8 401.1 730.1 399.7 727.8 397.6 726.4 394.9 724.8 391.9 723.9 388.5 724 385 724 381.7 724.8 378.4 726.4 375.4 727.9 372.7 730.1 370.4 732.9 368.9 735.6 367.8 738.6 367 741.6 367L741.6 367ZM748.8 381.5C748.6 379.4 747.7 377.5 746.4 375.9 745 374.7 743.2 374.1 741.3 374.2 739 374.2 737.2 374.8 735.9 376.1 734.5 377.5 733.7 379.5 733.6 381.5L748.8 381.5ZM777.5 354.9C778.3 354.9 780 355 782.5 355.2L782.5 362.2C781.4 362.1 780.2 362 779.1 362 777.7 362 776.8 362.3 776.2 362.9 775.6 363.5 775.4 364.5 775.4 366L775.4 368 781.9 368 781.9 374.3 775.4 374.3 775.4 402.4 766 402.4 766 374.3 760.4 374.3 760.4 368 766 368 766 365.5C766 362.1 767 359.5 769 357.7 771 355.8 773.8 354.9 777.5 354.9L777.5 354.9ZM802 367C808.2 366.8 813.9 370.2 816.6 375.8 818.3 379.4 819.1 383.4 818.7 387.4L793.9 387.4C794 390.2 794.7 392.3 796.1 393.8 797.5 395.3 799.5 396.1 802.3 396.1 804 396.1 805.6 395.7 807 394.8 808.3 394.1 809.3 393 809.8 391.6L818.1 391.6C815.7 399.3 810.3 403.2 802 403.2 799 403.2 796 402.5 793.2 401.1 790.5 399.7 788.2 397.6 786.8 394.9 785.2 391.9 784.3 388.5 784.4 385 784.4 381.7 785.2 378.4 786.8 375.4 788.3 372.7 790.5 370.4 793.2 368.9 795.9 367.8 798.9 367 802 367L802 367ZM809.2 381.5C809 379.4 808.1 377.5 806.7 375.9 805.3 374.7 803.5 374.1 801.6 374.2 799.3 374.2 797.5 374.8 796.1 376.1 794.7 377.6 793.9 379.5 793.8 381.5L809.2 381.5 809.2 381.5ZM844 367C848.4 367 851.6 368.1 853.5 370.3 855.5 372.5 856.5 376 856.5 380.9L856.5 402.3 847 402.3 847 382.8C847 380 846.5 377.9 845.6 376.5 844.7 375.1 843.1 374.4 840.9 374.4 838.3 374.4 836.5 375.2 835.3 376.7 834.2 378.3 833.6 380.8 833.6 384.4L833.6 402.3 824.2 402.3 824.2 368 833.2 368 833.2 372.8 833.4 372.8C835.6 369 839.7 366.8 844 367L844 367ZM877.8 367C882.4 367 886 367.9 888.6 369.8 891.2 371.7 892.6 374.4 893 378L884 378C883.9 376.4 883.3 375.2 882.2 374.5 880.8 373.7 879.2 373.3 877.5 373.4 876.1 373.3 874.8 373.6 873.5 374.2 872.6 374.8 872.2 375.5 872.2 376.6 872.2 377.4 872.5 378 873.1 378.6 873.7 379.1 874.5 379.6 875.7 380 876.8 380.4 878.2 380.7 879.6 381 883.9 381.8 886.9 382.7 888.7 383.6 890.5 384.5 891.8 385.6 892.6 386.8 893.4 388 893.8 389.5 893.8 391.4 894 394.9 892.4 398.2 889.6 400.3 886.8 402.4 882.9 403.4 878.1 403.4 873 403.4 869.1 402.3 866.3 400.2 863.5 398.1 861.9 394.8 861.9 391.4L870.9 391.4C870.9 393.2 871.6 394.6 873 395.6 874.4 396.7 876.1 397.2 878.2 397.2 879.8 397.3 881.3 396.9 882.6 396 883.8 395.2 884.4 394.2 884.4 392.8 884.4 391.9 884 391.2 883.3 390.6 882.4 389.9 881.3 389.4 880.2 389.1 878.9 388.6 876.8 388.1 874 387.6 872 387.2 870 386.6 868.1 385.8 866.5 385.2 865.2 384.2 864.1 382.8 863.2 381.6 862.7 380.1 862.7 378.3 862.7 376 863.3 374.1 864.4 372.4 865.5 370.7 867.1 369.4 869.4 368.6 871.7 367.5 874.5 367 877.8 367L877.8 367ZM915.3 367C921.5 366.8 927.2 370.2 929.9 375.8 931.7 379.4 932.4 383.4 932 387.4L907.2 387.4C907.3 390.2 908 392.3 909.4 393.8 910.8 395.3 912.8 396.1 915.6 396.1 917.3 396.1 918.9 395.7 920.4 394.8 921.7 394.1 922.7 393 923.1 391.6L931.4 391.6C929 399.3 923.6 403.2 915.3 403.2 912.3 403.2 909.3 402.5 906.6 401.1 903.9 399.7 901.6 397.6 900.2 394.9 898.6 391.9 897.7 388.5 897.8 385 897.8 381.7 898.6 378.4 900.2 375.4 901.7 372.7 903.9 370.4 906.6 368.9 909.3 367.7 912.3 367 915.3 367L915.3 367ZM922.6 381.5C922.4 379.4 921.5 377.5 920.2 375.9 918.8 374.7 916.9 374.1 915.1 374.2 912.8 374.2 911 374.8 909.6 376.1 908.2 377.6 907.4 379.5 907.3 381.5L922.6 381.5 922.6 381.5Z"/><path d="M332.1 287.2 447.2 287.2 447.2 402.3 332.1 402.3Z" fill="#FF7900"/><path d="M434.2 371 435.8 371 435.8 370.3 431.7 370.3 431.7 371 433.3 371 433.3 375.6 434.2 375.6 434.2 371 434.2 371ZM441.8 375.6 442.7 375.6 442.7 370.3 441.4 370.3 439.8 374.3 438.2 370.3 436.9 370.3 436.9 375.6 437.8 375.6 437.8 371.2 437.8 371.2 439.5 375.6 440.1 375.6 441.8 371.2 441.8 375.6 441.8 375.6ZM419.3 384.4C419.3 389.7 422.1 392.7 426.8 392.7 430.1 392.7 432.5 391.5 433.9 389.2L430.8 387.5C429.8 388.9 428.8 389.5 427.2 389.5 424.7 389.5 423.5 388 423.4 384.9L434.1 384.9 434.1 384.5 434.1 384.1C434.1 378.9 431.4 376 426.8 376 422.2 376 419.3 379.1 419.3 384.4L419.3 384.4ZM426.8 378.9C428.8 378.9 430 380.2 430 382.3L423.5 382.3C423.7 380.1 424.9 378.9 426.8 378.9L426.8 378.9ZM416.8 391.5 416.8 376.4 413.3 376.4 413 378.2C412.7 377.4 411.5 376.1 408.4 376.1 405 376.1 402 379.1 402 384.4 402 389.8 404.9 392.4 408.6 392.4 411.1 392.4 412.1 391.3 412.7 390.1L412.8 390.2 412.8 392.1C412.8 394.6 411.7 395.6 409.6 395.6 407.2 395.6 406.8 394.8 406.6 394L402.4 394.7C403 397.4 405.9 398.7 409.1 398.7 416.6 398.5 416.8 394.1 416.8 391.5L416.8 391.5ZM412.8 383.5C412.8 385.6 412.5 388.9 409.3 388.9 406.2 388.9 406.1 385.7 406.1 383.7 406.1 380.1 407.8 379 409.3 379 411.5 379 412.8 381.1 412.8 383.5L412.8 383.5ZM384.6 376.8 388.1 376.3 388.5 378.2C390.4 376.8 392 376 394 376 397.3 376 399 377.7 399 381.2L399 392.3 394.8 392.3 394.8 382C394.8 380 394.3 379.2 392.8 379.2 391.5 379.2 390.3 379.8 388.9 381L388.9 392.5 384.7 392.5 384.7 376.8ZM371.9 392.6C373.8 392.6 375.6 392 377.2 391L377.6 392.4 381.3 392.4 381.3 380.8C381.3 377.9 379 376.1 374.8 376.1 371.8 376.1 369.5 377.1 368 379.2L370.8 380.8C371.7 379.6 373.2 378.9 374.7 379 376.3 379 377.2 379.7 377.2 380.8L377.2 381.7C370.4 382.5 367.1 384.3 367.1 387.9 367.2 390.6 369 392.6 371.9 392.6L371.9 392.6ZM373.2 389.7C372 389.7 371.3 388.7 371.3 387.6 371.3 385.7 373.1 384.7 377.1 384.2L377.1 388C375.8 389.1 374.5 389.7 373.2 389.7L373.2 389.7ZM357.1 376.4 361.1 376.4 361.1 378.3C362.2 377 363.8 376.2 365.5 376.1L366.1 376.1 366.1 380 365.9 380C364.1 380 362.1 380.3 361.5 381.7L361.5 392.3 357.2 392.3 357.2 376.4 357.1 376.4ZM338.4 384.4C338.4 390.2 342.1 392.8 346.3 392.8 350.4 392.8 354.2 390.2 354.2 384.4 354.2 378.6 350.4 376 346.3 376 342.1 376 338.4 378.6 338.4 384.4L338.4 384.4ZM342.5 384.4C342.5 382.4 343.1 379.5 346.2 379.5 349.3 379.5 349.9 382.3 349.9 384.4 349.9 386.5 349.3 389.3 346.2 389.3 343.1 389.3 342.5 386.4 342.5 384.4L342.5 384.4Z" fill="#FFFFFF" fill-rule="evenodd"/></g></svg>