<svg enable-background="new 0 0 262 262" viewBox="0 0 262 262" xmlns="http://www.w3.org/2000/svg"><path d="m-.011 0h262v262h-262z" fill="#9a0012"/><g transform="translate(41.27 40.054)"><g fill="#fff" transform="translate(.133)"><path d="m13.2 0h3.7v28.2h-7.9c-2.5.1-4.9-.8-6.6-2.6-1.7-1.9-2.6-4.4-2.5-7-.1-2.5.8-5 2.6-6.8s4.2-2.7 6.6-2.6c1.4 0 2.7.3 4 .8zm0 25.2v-12c-1.1-.6-2.3-.9-3.5-.9-1.7 0-3.3.7-4.4 1.9-1.1 1.4-1.7 3.1-1.6 4.9-.1 1.6.4 3.2 1.4 4.5.5.6 1.1 1 1.8 1.3 1.1.3 2.3.4 3.4.3z"/><path d="m46 19.2h-13.1c0 1.6.7 3.2 1.8 4.3s2.7 1.7 4.3 1.6c2.4 0 4.8-.8 6.7-2.3v3.6c-1 .7-2.2 1.2-3.4 1.6-1.3.3-2.6.5-3.9.5-1.8.1-3.5-.4-5-1.3-1.3-.9-2.3-2-3.1-3.4-.8-1.5-1.2-3.3-1.1-5-.1-2.5.8-5 2.4-6.9 1.6-1.8 3.9-2.7 6.3-2.7 2.3-.1 4.4.9 5.9 2.6 1.6 2 2.3 4.4 2.2 6.9zm-13.1-2.2h9.5c0-1.3-.5-2.5-1.3-3.4-.9-.8-2-1.2-3.2-1.2s-2.4.4-3.3 1.2c-.9.9-1.5 2.1-1.7 3.4z"/><path d="m72.2 23.9v3.6c-1.7.7-3.6 1-5.4 1-2.6.1-5.1-.8-7-2.6-1.8-1.8-2.7-4.4-2.6-6.9-.1-2.6.8-5.1 2.5-7.1 1.7-1.8 4.2-2.8 6.7-2.7.9 0 1.7.1 2.6.3 1 .3 1.9.6 2.8 1v3.9c-1.5-1.1-3.4-1.7-5.2-1.8-1.6 0-3.1.6-4.1 1.8-1.1 1.2-1.7 2.8-1.6 4.5-.1 1.7.5 3.3 1.7 4.5 1.3 1.2 3 1.8 4.7 1.7s3.4-.5 4.9-1.2z"/><path d="m84.6 0h3.7v12c1.4-1.8 3.5-2.8 5.7-2.8 1.2 0 2.3.3 3.3.9s1.7 1.5 2.2 2.6c.6 1.6.8 3.2.7 4.9v10.6h-3.7v-11.5c.1-1.2-.3-2.3-1-3.3-.6-.8-1.6-1.3-2.6-1.2-.8 0-1.6.2-2.3.6-.9.6-1.7 1.3-2.3 2.1v13.4h-3.7z"/><path d="m125.3 17.1v7.9c0 .6.2 1 .7 1 .8-.1 1.5-.5 2.1-.9v2.1c-.6.4-1.3.8-2 1.1-.5.2-1 .3-1.6.3-1.6 0-2.5-.6-2.8-1.8-1.4 1.2-3.2 1.8-5 1.8-2.4.1-4.5-1.9-4.5-4.3 0-.1 0-.2 0-.2 0-1.2.5-2.3 1.3-3.1 1-1 2.2-1.8 3.6-2.2l4.7-1.6v-1c0-2.2-1.1-3.4-3.3-3.4-2 0-3.9 1-5.8 3.1v-4c1.6-1.7 3.8-2.7 6.1-2.5 1.7-.1 3.5.5 4.8 1.6.4.4.8.8 1.1 1.4.3.5.5 1.1.6 1.7-.1.8 0 1.9 0 3zm-3.7 7.4v-5.5l-2.5 1c-1 .3-1.9.8-2.7 1.5-1 1-1 2.7 0 3.8.5.5 1.2.8 1.9.7 1.3-.1 2.5-.6 3.3-1.5z"/><path d="m143.3 9.6v2.3c1.4-1.7 3.4-2.7 5.6-2.7 1.1 0 2.3.3 3.2.9 1 .6 1.8 1.4 2.3 2.5.6 1.6.9 3.3.8 5v10.6h-3.7v-10.6c.1-1.4-.2-2.8-.9-4.1-.7-.9-1.8-1.3-2.9-1.2-1.8.1-3.5 1-4.4 2.6v13.3h-3.8v-18.6z"/><path d="m165.9 12.6 6.9-6.8v3.9h5.8v3.3h-5.8v9c0 2.1.9 3.2 2.6 3.2 1.5 0 2.9-.5 4.1-1.2v3.4c-1.4.8-3 1.2-4.6 1.2-1.5.1-3-.5-4.2-1.5-.3-.3-.6-.6-.9-1-.3-.5-.5-.9-.6-1.5-.2-1.1-.3-2.3-.2-3.4v-8.2h-3.2z"/></g><g fill="#fff" transform="translate(0 165.641)"><path d="m8.9 10.2-2.6 5.7h-1.6l-4.7-10.7h3.4l2.2 5.8 2.3-5.8h2l2.3 5.8 2.2-5.8h3.4l-4.7 10.7h-1.6z"/><path d="m31.1 10.2-2.6 5.7h-1.5l-4.8-10.7h3.4l2.2 5.8 2.3-5.8h2l2.3 5.8 2.2-5.8h3.4l-4.7 10.7h-1.6z"/><path d="m53.3 10.2-2.6 5.7h-1.6l-4.7-10.7h3.4l2.2 5.8 2.3-5.8h2l2.3 5.8 2.2-5.8h3.4l-4.7 10.7h-1.6z"/><path d="m66.4 13.9c0-1.1.9-2 2-2s2 .9 2 2-.9 2-2 2c-.5 0-1-.2-1.4-.6s-.6-.9-.6-1.4z"/><path d="m87.9.2v15.4h-3.3v-.8c-.8.7-1.8 1.1-2.9 1-1.3 0-2.6-.5-3.5-1.6s-1.4-2.5-1.4-3.9c-.1-1.4.5-2.8 1.4-3.9.9-1 2.3-1.6 3.6-1.5.9 0 1.9.2 2.7.7v-5.4zm-3.3 12.6v-5c-.5-.4-1.2-.6-1.8-.6-.7 0-1.5.3-1.9.9-.5.7-.7 1.6-.7 2.4s.2 1.6.7 2.3c.4.6 1.1.9 1.8.9.7-.1 1.4-.4 1.9-.9z"/><path d="m98.5.2v6.5c.8-1.1 2-1.7 3.3-1.7 1 0 2 .3 2.7 1.1s1.1 1.9 1.1 2.9v6.7h-3.3v-6c0-1.5-.6-2.3-1.7-2.3-.7 0-1.5.5-2.2 1.6v6.6h-3.3v-15.4z"/><path d="m112.8 1.8c0-.5.2-.9.5-1.3.3-.3.8-.5 1.3-.5s.9.2 1.3.5c.7.7.7 1.9 0 2.6-.3.3-.8.5-1.3.5s-.9-.2-1.3-.5-.5-.8-.5-1.3zm3.4 3.4v10.4h-3.3v-10.4z"/><path d="m126.8.2v5.6c.8-.5 1.7-.8 2.7-.8 1.4 0 2.7.5 3.7 1.5 1 1.1 1.5 2.5 1.4 3.9.1 1.4-.4 2.8-1.4 3.9-.9 1-2.2 1.6-3.5 1.5-1.1 0-2.1-.4-2.9-1v.8h-3.3v-15.4zm0 7.7v4.9c.5.5 1.2.8 1.9.9.7 0 1.4-.3 1.8-.9.5-.7.7-1.6.7-2.4.1-.8-.2-1.7-.7-2.3-.5-.5-1.1-.9-1.8-.8-.7-.1-1.4.2-1.9.6z"/><path d="m140.8 13.9c0-1.1.9-2 2-2s2 .9 2 2c0 .5-.2 1-.6 1.4-.8.8-2 .8-2.8 0-.4-.4-.6-.9-.6-1.4z"/><path d="m162.2.2v15.4h-3.3v-.8c-.8.7-1.8 1.1-2.9 1-1.3 0-2.6-.5-3.5-1.6s-1.4-2.5-1.4-3.9c-.1-1.4.5-2.8 1.4-3.9.9-1 2.3-1.6 3.6-1.5.9 0 1.9.2 2.7.7v-5.4zm-3.3 12.6v-5c-.5-.4-1.2-.6-1.8-.6-.7 0-1.5.3-1.9.9-.5.7-.7 1.6-.7 2.4s.2 1.6.7 2.3c.4.6 1.1.9 1.8.9.7-.1 1.4-.4 1.9-.9z"/><path d="m179.7 12.4v2.1c-1.4.9-3 1.4-4.7 1.4-1.6.1-3.2-.4-4.4-1.5-1.1-1-1.7-2.4-1.7-3.9-.1-1.5.5-2.9 1.5-3.9 1.1-1 2.5-1.6 4-1.5 1.5 0 2.9.5 4 1.6 1.1 1.2 1.6 2.8 1.4 4.3h-7.5c0 .8.4 1.6 1 2.2.7.5 1.6.8 2.4.8 1.5-.2 2.9-.7 4-1.6zm-7.3-3.2h4.5c-.2-1.5-.9-2.3-2.3-2.3s-2 .8-2.2 2.3z"/></g><g transform="translate(.12 41.141)"><path d="m44.6 21.7h12.5v94.4h-26.6c-9.3 0-16.7-2.9-22.2-8.7s-8.3-13.7-8.3-23.5c0-9.1 2.9-16.7 8.7-22.6s13.2-8.9 22.2-8.9c4.7.1 9.3 1 13.7 2.7zm0 83.8v-39.3c-3.6-1.9-7.7-2.9-11.8-2.9-6.2 0-11.1 2-14.8 6s-5.5 9.4-5.5 16.2c0 6.4 1.6 11.3 4.8 14.8 1.6 1.9 3.7 3.3 6.1 4.2 2.1.7 6 1.1 11.6 1.1z" fill="#fff"/><path d="m135.1 55.2c4.4-1.7 9-2.6 13.7-2.7 9 0 16.4 3 22.2 8.9s8.7 13.4 8.7 22.6c0 9.8-2.8 17.6-8.3 23.4s-12.9 8.7-22.2 8.7h-26.6v-94.3h12.5zm9.6 50.3c5.6 0 9.4-.4 11.6-1.1 2.4-.9 4.4-2.3 6.1-4.2 3.2-3.5 4.8-8.4 4.8-14.8 0-6.8-1.8-12.2-5.5-16.2s-8.6-6-14.8-6c-4.1 0-8.1 1-11.8 2.9v39.3z" fill="#fff"/><path d="m74.6 67.2v20.6h.1c2.9-3.7 6.4-5.5 10.5-5.5 3.2-.1 6.4 1.1 8.7 3.3s3.4 5.3 3.4 9.3v21.1h-10.5v-18.9c0-4.8-1.8-7.2-5.4-7.2-2.4 0-4.7 1.7-7 5v21.1h-10.5v-48.9z" fill="#ffcb00"/><path d="m104.7 82.8h11.2v33.3h-11.2" fill="#ffcb00"/><path d="m40.6 8.3 49.2-8.3 21.2 3.6 28.1 4.8v11.7h-4v-4.3h-12.7v2.1h-65.2v-2.2h-12.7v4.3h-4" fill="#fff"/></g><g fill="#ffcb00"><path d="m110.9 41.1h-1v56.7h1z"/><path d="m110.4 119.1-7.7-15.3h15.3z"/><path d="m112.8 99.4c0-1.3-1.1-2.4-2.4-2.4s-2.4 1.1-2.4 2.4 1.1 2.4 2.4 2.4c1.4 0 2.4-1.1 2.4-2.4z"/><path d="m3.4.9c0-.3 0-.6.1-.9h-2.9c.1.3.1.6.1.9 0 .7-.3 1.4-.7 2h4.1c-.4-.6-.7-1.3-.7-2z" transform="translate(108.343 101.202)"/></g></g></svg>